<?xml version="1.0" encoding="UTF-8"?>
<!DOCTYPE svg PUBLIC "-//W3C//DTD SVG 1.1//EN" "http://www.w3.org/Graphics/SVG/1.1/DTD/svg11.dtd">
<!-- Creator: CorelDRAW 2018 (64-Bit) -->
<svg xmlns="http://www.w3.org/2000/svg" xml:space="preserve" width="94.1936mm" height="57.296mm" version="1.1" style="shape-rendering:geometricPrecision; text-rendering:geometricPrecision; image-rendering:optimizeQuality; fill-rule:evenodd; clip-rule:evenodd"
viewBox="0 0 4144.7 2521.13"
 xmlns:xlink="http://www.w3.org/1999/xlink">
 <defs>
  <style type="text/css">
   <![CDATA[
    .fil2 {fill:#716765}
    .fil0 {fill:#716765}
    .fil1 {fill:#716765;fill-rule:nonzero}
   ]]>
  </style>
 </defs>
 <g id="Layer_x0020_1">
  <metadata id="CorelCorpID_0Corel-Layer"/>
  <path class="fil0" d="M1068.27 662.69l-0.5 -11.97c0,0 -15.78,-12.38 -15.15,-11.8l0.13 -15.35c0,0 34.53,-115.69 34.59,-115.83l15.43 0 34.37 115.87 -0.04 15.35c0,0 -15.27,11.54 -15.04,11.53l0 34.72 15.32 12.89c-0.02,5 -0.03,88.69 -0.03,87.6l-3.71 7.52 0 131.15c0,0 -27.45,49.74 -34.72,73.31 0,44.99 0,90.01 0,135.02 15.11,9.26 81.15,58.76 81.15,58.76 -0.47,-0.44 -0.61,53.01 -0.61,53.01l27.58 34.32c0,0 0.08,11.62 -0.11,15.91 -14.13,35.96 -53.94,65.92 -53.94,65.92l-0.06 157.84 61.33 42.31 0.39 61.85 92.58 65.56 -0.18 73.25c0,-0.34 -80.8,35.02 -80.8,35.02 0,-0.35 23.11,84.62 23.11,84.62l-15.44 54.02 27.07 42.19 -11.63 42.68 54 42.43 0 77.16c168.66,117.72 275.26,-117.49 479.61,-0.73 125.36,72.58 227.39,-0.7 227.39,-0.7 0,0 52.52,-34.72 126.26,-34.82 15.43,0.78 29.59,3.98 41.94,8.15 -228.62,246.53 -555.26,400.88 -917.99,400.88 -436.7,0 -821.09,-223.67 -1045.07,-562.66l0 -319.33c12.86,-6.45 38.69,-19.59 38.69,-19.59 0.06,-0.21 -0.11,-227.3 -0.11,-227.3l27.05 -11.92 -0.05 -34.37 -11.57 -7.71 0 -23.14c-0.4,-0.03 34.72,-108.03 34.72,-108.03 0,0 6.82,-7.92 15.44,0 4.96,38.77 30.86,108.03 30.86,108.03l0 19.29 -11.57 11.57 0 3.86 7.72 0 77.15 -38.59 0 -42.42 -11.57 -3.85 0 -15.43 34.72 -115.74 11.57 -0.05c0,0 30.67,84.15 38.58,131.23 -7.04,4.55 -10.81,8.44 -15.44,15.43 1.28,0 3.86,0 3.86,0l24.95 -12.1c0,0 47.25,9.69 67.64,15.96 0,16.7 0,50.15 0,50.15l19.19 0.01 77.25 -38.59 0.08 -111.57 92.5 -42.74c0,0 0,-90.02 0.48,-137.33 -9.71,-21.67 -34.76,-71.95 -34.99,-70.89 -0.05,0.3 -0.11,-131.21 -0.11,-131.21l-7.7 -8.08c0.06,0.41 0.06,-91.48 0.06,-91.48l15.25 -8.5 -0.15 -34.81 -11.6 -12.18 0.13 -14.53c0,0 28.59,-88.09 34.76,-115.94 5.14,0 15.43,0 15.43,0 -0.01,-0.21 34.58,115.7 34.58,115.7l0.14 15.48 -11.7 11.46 -0.01 11.41c0,0 29.8,-10.8 29.8,-11.46l20.27 8.19c0,0 -0.08,19.68 0.22,18.97l11.57 0 0 -34.74c0.55,0.37 42.29,-15.84 42.29,-15.84 0.19,0.21 0.07,-41.78 0.07,-41.78l-15.4 -11.89 0.16 -11.2 34.59 -116.02 15.01 0.32 35.14 115.41 0 11.57 -15.43 11.57 0 42.41 42.44 19.48 0 30.69 11.57 0 0 -15.43 19.29 -11.57 34.95 12.2zm-112.12 366.95c0,0 -0.27,-93.26 -0.2,-108.04 0.83,-34.43 -45.09,-37.74 -46.01,-0.11 0.18,14.01 -0.06,108.23 -0.06,108.23l46.27 -0.07z"/>
  <path class="fil1" d="M1492.21 1081.83l36.68 0 0 -267.57 131.63 0 0 -34.52 -168.31 0 0 302.09zm293.58 0l37.12 0 38.41 -91.49 137.67 0 38.84 91.49 39.28 0 -129.9 -303.82 -31.51 0 -129.9 303.82zm144.58 -255.06l54.38 129.04 -108.76 0 54.38 -129.04zm532.66 255.06l36.68 0 0 -302.09 -180.83 0 -4.32 60.42c-13.81,196.36 -50.06,207.15 -71.64,204.99l-0.43 36.68c47.47,6.04 88.04,-18.56 105.73,-210.61l5.18 -56.96 109.62 0 0 267.57zm280.63 0l174.78 0 0 -34.52 -138.1 0 0 -100.99 120.84 0 0 -34.52 -120.84 0 0 -97.53 133.79 0 0 -34.52 -170.47 0 0 302.09zm438.15 0l0 -115.66c15.11,1.29 33.23,1.72 45.31,1.72 73.8,0 108.76,-45.74 108.76,-95.16 0,-47.26 -25.46,-93.86 -111.77,-93.86 -18.99,0 -62.15,0.86 -78.98,0.86l0 302.09 36.68 0zm45.74 -268.43c47.9,0 69.48,22.94 69.48,58.91 0,38.12 -26.76,61.07 -71.21,61.07 -15.11,0 -29.34,-0.86 -44.02,-2.16l0 -116.95c14.24,-0.43 33.66,-0.86 45.74,-0.86zm328.54 268.43l174.78 0 0 -34.52 -138.1 0 0 -100.99 120.84 0 0 -34.52 -120.84 0 0 -97.53 133.79 0 0 -34.52 -170.47 0 0 302.09zm543.02 0l36.68 0 0 -302.09c-17.69,0 -50.49,-1.3 -70.78,-1.3 -81.57,0 -117.82,45.75 -117.82,100.13 0,43.16 28.49,72.07 59.56,84.58l-83.72 118.68 41.43 0 78.11 -112.21 56.53 0 0 112.21zm-60.85 -146.73c-26.33,-4.32 -52.22,-26.76 -52.22,-58.69 0,-35.82 25.03,-63.44 72.07,-63.44 12.95,0 31.07,0.86 41,1.29l0 120.84 -60.85 0z"/>
  <path class="fil1" d="M1637.24 1427.92l25.67 0 0 -211.42 -25.67 0 0 91.52 -116.28 0 0 -91.52 -25.68 0 0 211.42 25.68 0 0 -95.74 116.28 0 0 95.74zm89.1 0l122.32 0 0 -24.16 -96.65 0 0 -70.68 84.57 0 0 -24.16 -84.57 0 0 -68.26 93.63 0 0 -24.16 -119.3 0 0 211.42zm146.49 39.26l24.16 0 0 -39.26 164.3 0 0 39.26 24.16 0 0 -63.42 -28.69 0 0 -187.26 -124.43 0 -2.12 42.29c-4.53,88.49 -25.97,134.1 -34.73,144.97l-22.65 0 0 63.42zm81.54 -188.77l2.72 -37.75 74 0 0 163.1 -107.22 0c7.85,-9.67 25.37,-52.56 30.5,-125.34zm171.85 149.2c12.38,0.61 38.06,1.21 56.78,1.21 43.79,0 76.71,-18.42 76.71,-61.31 0,-28.99 -17.52,-45.91 -43.8,-50.14l0 -0.61c20.24,-6.64 36.24,-22.35 36.24,-48.93 0,-29.3 -17.52,-52.25 -67.96,-52.25 -19.63,0 -46.21,0.91 -57.99,1.21l0 210.81zm59.8 -96.04c30.51,0 48.02,12.08 48.02,34.43 0,25.97 -18.42,38.66 -49.53,38.66 -12.08,0 -25.68,-0.61 -32.62,-1.21l0 -71.88 34.13 0zm-2.42 -91.82c28.09,0 42.89,11.78 42.89,33.83 0,22.96 -18.42,35.34 -40.78,35.34l-33.82 0 0 -68.26c7.55,-0.3 20.54,-0.91 31.71,-0.91l0 0zm151.62 188.17l128.36 -169.13 0 169.13 25.68 0 0 -211.42 -22.65 0 -128.36 169.13 0 -169.13 -25.68 0 0 211.42 22.65 0zm458.48 -211.42l-29.9 0 -83.67 101.18 86.99 110.24 29.9 0 -88.8 -110.54 85.47 -100.88zm-144.67 211.42l25.68 0 0 -211.42 -25.68 0 0 211.42zm-33.22 -110.24l-88.8 110.24 29.9 0 86.98 -110.24 -83.66 -101.18 -29.9 0 85.47 101.18zm241.62 110.24l128.36 -169.13 0 169.13 25.68 0 0 -211.42 -22.65 0 -128.36 169.13 0 -169.13 -25.68 0 0 211.42 22.65 0zm217.46 0l25.68 0 0 -170.04 75.81 104.2 3.93 0 74.9 -105.1 0 170.95 25.68 0 0 -211.42 -24.47 0 -76.11 108.43 -79.44 -108.43 -25.97 0 0 211.42zm252.8 -105.71c0,64.33 46.51,108.73 107.82,108.73 61.31,0 107.83,-45.91 107.83,-108.73 0,-64.33 -46.51,-108.73 -107.83,-108.73 -62.82,0 -107.82,47.42 -107.82,108.73zm27.18 0c0,-49.23 34.73,-84.57 80.64,-84.57 45.3,0 80.64,35.34 80.64,84.57 0,47.72 -32.31,84.57 -80.64,84.57 -45.3,0 -80.64,-36.54 -80.64,-84.57zm382.37 65.84c-14.5,11.77 -33.83,18.72 -54.07,18.72 -48.93,0 -82.45,-34.13 -82.45,-84.57 0,-50.14 32.62,-84.57 78.53,-84.57 22.05,0 38.36,5.43 52.25,15.7l11.78 -19.33c-15.1,-12.98 -37.15,-20.54 -64.34,-20.54 -66.14,0 -105.41,48.02 -105.41,108.73 0,65.84 43.8,108.73 107.22,108.73 26.28,0 52.56,-9.06 66.75,-23.56l-10.27 -19.33zm22.35 -147.39l74 0 0 187.26 25.68 0 0 -187.26 73.99 0 0 -24.16 -173.67 0 0 24.16zm231.05 187.26l128.36 -169.13 0 169.13 25.68 0 0 -211.42 -22.65 0 -128.36 169.13 0 -169.13 -25.68 0 0 211.42 22.65 0zm-2340.73 128.46l-31.11 0 -92.73 101.18 95.74 110.24 32.92 0 -99.07 -112.05 94.23 -99.37zm-154.64 211.42l25.68 0 0 -211.42 -25.68 0 0 211.42zm222.9 0l0 -80.95c10.57,0.91 23.25,1.21 31.71,1.21 51.65,0 76.11,-32.02 76.11,-66.6 0,-33.07 -17.82,-65.69 -78.23,-65.69 -13.29,0 -43.49,0.6 -55.27,0.6l0 211.42 25.68 0zm32.01 -187.86c33.53,0 48.63,16.06 48.63,41.23 0,26.68 -18.72,42.74 -49.83,42.74 -10.57,0 -20.54,-0.6 -30.81,-1.51l0 -81.85c9.97,-0.3 23.56,-0.6 32.01,-0.6zm288.74 187.86l25.68 0 0 -211.42 -25.68 0 0 211.42zm-114.17 -110.24c34.13,0 52.86,14.8 52.86,41.68 0,29.9 -19.03,45 -53.76,45 -9.66,0 -17.21,-0.6 -25.37,-0.91l0 -83.96c10.57,-1.21 19.33,-1.81 26.27,-1.81zm-26.27 -101.18l-25.68 0 0 211.42c12.38,0 29.9,0.6 48.02,0.6 52.55,0 83.96,-25.37 83.96,-69.77 0,-39.87 -25.07,-65.24 -78.23,-65.24 -6.95,0 -16.61,0.6 -28.09,1.51l0 -78.53zm229.54 211.42l25.68 0 0 -170.04 75.81 104.2 3.93 0 74.9 -105.1 0 170.95 25.68 0 0 -211.42 -24.47 0 -76.11 108.43 -79.44 -108.43 -25.97 0 0 211.42zm242.23 0l25.97 0 26.88 -64.03 96.35 0 27.18 64.03 27.49 0 -90.91 -212.63 -22.05 0 -90.91 212.63zm101.18 -178.5l38.06 90.31 -76.11 0 38.06 -90.31z"/>
  <path class="fil2" d="M1260.57 0c451.67,0 866.39,240.48 1091.88,630.28l7.64 13.2 -46.74 0 -2.56 -4.31c-219.96,-370.95 -617.67,-598.79 -1050.22,-598.79 -673.89,0 -1220.19,546.29 -1220.19,1220.19 0,673.89 546.29,1220.18 1220.19,1220.18 432.56,0 830.26,-227.83 1050.22,-598.79l2.56 -4.31 46.74 0 -7.64 13.2c-225.49,389.8 -640.21,630.28 -1091.88,630.28 -696.19,0 -1260.57,-564.38 -1260.57,-1260.57 0,-696.19 564.38,-1260.57 1260.57,-1260.57z"/>
 </g>
</svg>
