<svg width="198" height="66" viewBox="0 0 198 66" fill="none" xmlns="http://www.w3.org/2000/svg">
<g clip-path="url(#clip0)">
<path d="M11.1236 0H0V11.1864H11.1236V0Z" fill="#00CDCD"/>
<path d="M22.2471 11.1865H11.1235V22.3729H22.2471V11.1865Z" fill="#00CDCD"/>
<path d="M22.2471 21.8135H11.1235V33H22.2471V21.8135Z" fill="#00CDCD"/>
<path d="M22.2471 33H11.1235V44.1864H22.2471V33Z" fill="#00CDCD"/>
<path d="M22.2471 43.6271H11.1235V54.8135H22.2471V43.6271Z" fill="#00CDCD"/>
<path d="M22.2471 54.8135H11.1235V66H22.2471V54.8135Z" fill="#00CDCD"/>
<path d="M45.607 0H34.4834V11.1864H45.607V0Z" fill="#00CDCD"/>
<path d="M56.7305 0H45.6069V11.1864H56.7305V0Z" fill="#00CDCD"/>
<path d="M67.2974 0H56.1738V11.1864H67.2974V0Z" fill="#00CDCD"/>
<path d="M45.607 11.1865H34.4834V22.3729H45.607V11.1865Z" fill="#00CDCD"/>
<path d="M45.607 21.8135H34.4834V33H45.607V21.8135Z" fill="#00CDCD"/>
<path d="M45.607 33H34.4834V44.1864H45.607V33Z" fill="#00CDCD"/>
<path d="M45.607 43.6271H34.4834V54.8135H45.607V43.6271Z" fill="#00CDCD"/>
<path d="M45.607 54.8135H34.4834V66H45.607V54.8135Z" fill="#00CDCD"/>
<path d="M56.7305 54.8135H45.6069V66H56.7305V54.8135Z" fill="#00CDCD"/>
<path d="M67.2974 54.8135H56.1738V66H67.2974V54.8135Z" fill="#00CDCD"/>
<path d="M78.421 54.8135H67.2974V66H78.421V54.8135Z" fill="#00CDCD"/>
<path d="M78.421 43.6271H67.2974V54.8135H78.421V43.6271Z" fill="#00CDCD"/>
<path d="M78.421 33H67.2974V44.1864H78.421V33Z" fill="#00CDCD"/>
<path d="M78.421 21.8135H67.2974V33H78.421V21.8135Z" fill="#00CDCD"/>
<path d="M67.2974 21.8135H56.1738V33H67.2974V21.8135Z" fill="#00CDCD"/>
<path d="M56.7305 21.8135H45.6069V33H56.7305V21.8135Z" fill="#00CDCD"/>
<path d="M100.112 0H88.9883V11.1864H100.112V0Z" fill="white"/>
<path d="M111.235 11.1865H100.112V22.3729H111.235V11.1865Z" fill="white"/>
<path d="M111.235 21.8135H100.112V33H111.235V21.8135Z" fill="white"/>
<path d="M111.235 33H100.112V44.1864H111.235V33Z" fill="white"/>
<path d="M111.235 43.6271H100.112V54.8135H111.235V43.6271Z" fill="white"/>
<path d="M111.235 54.8135H100.112V66H111.235V54.8135Z" fill="white"/>
<path d="M187.433 0H176.309V11.1864H187.433V0Z" fill="white"/>
<path d="M187.433 11.1865H176.309V22.3729H187.433V11.1865Z" fill="white"/>
<path d="M198 11.1865H186.876V22.3729H198V11.1865Z" fill="white"/>
<path d="M187.433 21.8135H176.309V33H187.433V21.8135Z" fill="white"/>
<path d="M187.433 33H176.309V44.1864H187.433V33Z" fill="white"/>
<path d="M187.433 43.6271H176.309V54.8135H187.433V43.6271Z" fill="white"/>
<path d="M187.433 54.8135H176.309V66H187.433V54.8135Z" fill="white"/>
<path d="M165.741 0H154.618V11.1864H165.741V0Z" fill="white"/>
<path d="M165.741 21.8135H154.618V33H165.741V21.8135Z" fill="white"/>
<path d="M165.741 33H154.618V44.1864H165.741V33Z" fill="white"/>
<path d="M165.741 43.6271H154.618V54.8135H165.741V43.6271Z" fill="white"/>
<path d="M165.741 54.8135H154.618V66H165.741V54.8135Z" fill="white"/>
<path d="M121.803 54.8135H110.68V66H121.803V54.8135Z" fill="white"/>
<path d="M132.927 54.8135H121.803V66H132.927V54.8135Z" fill="white"/>
<path d="M143.494 54.8135H132.371V66H143.494V54.8135Z" fill="white"/>
<path d="M143.494 43.6271H132.371V54.8135H143.494V43.6271Z" fill="white"/>
<path d="M143.494 33H132.371V44.1864H143.494V33Z" fill="white"/>
<path d="M143.494 21.8135H132.371V33H143.494V21.8135Z" fill="white"/>
<path d="M132.927 21.8135H121.803V33H132.927V21.8135Z" fill="white"/>
<path d="M121.803 21.8135H110.68V33H121.803V21.8135Z" fill="white"/>
</g>
<defs>
<clipPath id="clip0">
<rect width="198" height="66" fill="white"/>
</clipPath>
</defs>
</svg>
