<?xml version="1.0" encoding="iso-8859-1"?>
<!-- Generator: Adobe Illustrator 21.0.0, SVG Export Plug-In . SVG Version: 6.00 Build 0)  -->
<svg xmlns="http://www.w3.org/2000/svg" xmlns:xlink="http://www.w3.org/1999/xlink" version="1.1" id="Capa_1" x="0px" y="0px" viewBox="0 0 512.001 512.001" style="enable-background:new 0 0 512.001 512.001;" xml:space="preserve" width="512" height="512">
<g>
	<path d="M511.601,234.512c-0.319-0.935,2.899,5.032-83.359-151.697c-0.937-1.702-2.469-2.926-4.206-3.501   c-1.665-0.551,2.532-0.382-54.425-0.382c-4.142,0-7.5,3.357-7.5,7.5s3.358,7.5,7.5,7.5h39.368l-70.144,127.45L268.69,93.932h65.921   c4.142,0,7.5-3.357,7.5-7.5s-3.358-7.5-7.5-7.5c-261.961,0-244.859-0.206-246.641,0.381c-1.755,0.579-3.281,1.816-4.21,3.502   C-2.146,238.906,0.686,233.599,0.343,234.692c-0.859,2.737-0.085,5.772,2.082,7.765l248.23,241.577   c2.94,2.986,7.753,2.986,10.692,0l175.005-170.318c2.968-2.889,3.033-7.638,0.144-10.605c-2.889-2.969-7.637-3.033-10.606-0.145   L272.807,451.951l68.875-207.514h144.355l-35.057,34.12c-2.968,2.89-3.033,7.638-0.144,10.606c2.89,2.968,7.637,3.032,10.605,0.144   l48.136-46.85C511.799,240.413,512.545,237.291,511.601,234.512z M79.738,229.437H20.187l70.146-127.453l70.146,127.453h-45.741   c-4.142,0-7.5,3.357-7.5,7.5s3.358,7.5,7.5,7.5h55.583l68.875,207.514L25.967,244.437h53.772c4.142,0,7.5-3.357,7.5-7.5   S83.88,229.437,79.738,229.437z M185.856,229.437l70.145-127.45l70.145,127.45H185.856z M325.877,244.437l-69.876,210.529   l-69.876-210.529H325.877z M173.168,221.382l-70.144-127.45h140.289L173.168,221.382z M421.67,101.984l70.146,127.453H351.523   L421.67,101.984z"/>
	<path d="M394.207,54.842c1.113,3.985,5.248,6.32,9.241,5.205c3.99-1.115,6.32-5.253,5.205-9.242l-5.475-19.594   c-1.115-3.989-5.252-6.32-9.241-5.205c-3.99,1.115-6.32,5.253-5.205,9.242L394.207,54.842z"/>
	<path d="M452.913,87.908c1.113,3.985,5.248,6.32,9.241,5.205l19.594-5.475c3.989-1.115,6.32-5.253,5.205-9.242   s-5.253-6.32-9.241-5.205l-19.594,5.475C454.129,79.781,451.799,83.919,452.913,87.908z"/>
	<path d="M433.951,63.734c3.594,2.024,8.175,0.768,10.215-2.854l9.984-17.727c2.033-3.609,0.755-8.183-2.854-10.216   c-3.609-2.032-8.183-0.755-10.215,2.854l-9.984,17.727C429.064,57.127,430.342,61.7,433.951,63.734z"/>
	<path d="M108.555,60.047c4.007,1.119,8.132-1.234,9.241-5.205l5.475-19.594c1.115-3.989-1.215-8.127-5.205-9.242   c-3.986-1.113-8.126,1.217-9.241,5.205l-5.475,19.594C102.235,54.794,104.565,58.932,108.555,60.047z"/>
	<path d="M30.254,87.639c21.136,5.905,20.17,5.753,21.616,5.753c3.281,0,6.293-2.17,7.219-5.483   c1.115-3.989-1.216-8.127-5.205-9.242L34.29,73.192c-3.993-1.116-8.127,1.216-9.241,5.205   C23.934,82.386,26.265,86.524,30.254,87.639z"/>
	<path d="M67.836,60.879c2.04,3.622,6.619,4.88,10.215,2.854c3.609-2.033,4.887-6.606,2.854-10.216l-9.984-17.727   c-2.033-3.609-6.606-4.887-10.215-2.854c-3.609,2.033-4.887,6.606-2.854,10.216L67.836,60.879z"/>
</g>















</svg>
