<svg height="512pt" viewBox="0 -34 512 512" width="512pt" xmlns="http://www.w3.org/2000/svg"><path d="m503.464844 358.398438h-494.929688c-4.710937 0-8.535156-3.820313-8.535156-8.53125v-34.132813c0-4.710937 3.824219-8.535156 8.535156-8.535156h494.929688c4.710937 0 8.535156 3.824219 8.535156 8.535156v34.132813c0 4.710937-3.824219 8.53125-8.535156 8.53125zm-486.398438-17.066407h477.867188v-17.066406h-477.867188zm0 0"/><path d="m503.464844 443.734375h-494.929688c-4.710937 0-8.535156-3.824219-8.535156-8.535156v-34.132813c0-4.710937 3.824219-8.53125 8.535156-8.53125h494.929688c4.710937 0 8.535156 3.820313 8.535156 8.53125v34.132813c0 4.710937-3.824219 8.535156-8.535156 8.535156zm-486.398438-17.066406h477.867188v-17.066407h-477.867188zm0 0"/><path d="m93.867188 409.601562h-51.199219c-4.710938 0-8.535157-3.824218-8.535157-8.535156v-51.199218c0-4.710938 3.824219-8.535157 8.535157-8.535157h51.199219c4.710937 0 8.53125 3.824219 8.53125 8.535157v51.199218c0 4.710938-3.820313 8.535156-8.53125 8.535156zm-42.667969-17.066406h34.132812v-34.136718h-34.132812zm0 0"/><path d="m460.800781 409.601562h-51.199219c-4.710937 0-8.535156-3.824218-8.535156-8.535156v-51.199218c0-4.710938 3.824219-8.535157 8.535156-8.535157h51.199219c4.710938 0 8.53125 3.824219 8.53125 8.535157v51.199218c0 4.710938-3.820312 8.535156-8.53125 8.535156zm-42.667969-17.066406h34.132813v-34.136718h-34.132813zm0 0"/><path d="m281.601562 409.601562h-51.203124c-4.707032 0-8.53125-3.824218-8.53125-8.535156v-51.199218c0-4.710938 3.824218-8.535157 8.53125-8.535157h51.203124c4.707032 0 8.53125 3.824219 8.53125 8.535157v51.199218c0 4.710938-3.824218 8.535156-8.53125 8.535156zm-42.667968-17.066406h34.132812v-34.136718h-34.132812zm0 0"/><path d="m256 324.265625h-204.800781c-4.710938 0-8.53125-3.820313-8.53125-8.53125v-153.601563c0-4.710937 3.820312-8.53125 8.53125-8.53125h204.800781c4.710938 0 8.535156 3.820313 8.535156 8.53125v153.601563c0 4.710937-3.824218 8.53125-8.535156 8.53125zm-196.265625-17.066406h187.730469v-136.53125h-187.730469zm0 0"/><path d="m187.734375 238.933594c-1.820313 0-3.621094-.582032-5.128906-1.707032l-29.015625-21.761718-29.011719 21.761718c-2.585937 1.9375-6.042969 2.253907-8.933594.8125-2.886719-1.445312-4.71875-4.40625-4.71875-7.640624v-68.265626c0-4.710937 3.820313-8.53125 8.53125-8.53125h68.269531c4.707032 0 8.53125 3.820313 8.53125 8.53125v68.265626c0 3.234374-1.824218 6.1875-4.71875 7.640624-1.203124.59375-2.5.894532-3.804687.894532zm-34.132813-42.667969c1.800782 0 3.597657.574219 5.117188 1.707031l20.480469 15.359375v-42.664062h-51.199219v42.664062l20.480469-15.359375c1.519531-1.132812 3.320312-1.707031 5.121093-1.707031zm0 0"/><path d="m460.800781 324.265625h-204.800781c-4.710938 0-8.535156-3.820313-8.535156-8.53125v-153.601563c0-4.710937 3.824218-8.53125 8.535156-8.53125h204.800781c4.710938 0 8.53125 3.820313 8.53125 8.53125v153.601563c0 4.710937-3.820312 8.53125-8.53125 8.53125zm-196.265625-17.066406h187.730469v-136.53125h-187.730469zm0 0"/><path d="m392.535156 238.933594c-1.820312 0-3.621094-.582032-5.128906-1.707032l-29.015625-21.761718-29.011719 21.761718c-2.585937 1.9375-6.042968 2.253907-8.933594.8125-2.886718-1.445312-4.71875-4.40625-4.71875-7.640624v-68.265626c0-4.710937 3.820313-8.53125 8.53125-8.53125h68.265626c4.710937 0 8.535156 3.820313 8.535156 8.53125v68.265626c0 3.234374-1.828125 6.1875-4.71875 7.640624-1.203125.59375-2.5.894532-3.804688.894532zm-34.136718-42.667969c1.800781 0 3.601562.574219 5.121093 1.707031l20.480469 15.359375v-42.664062h-51.199219v42.664062l20.480469-15.359375c1.519531-1.132812 3.316406-1.707031 5.117188-1.707031zm0 0"/><path d="m358.398438 170.667969h-204.796876c-4.710937 0-8.535156-3.824219-8.535156-8.535157v-153.597656c0-4.710937 3.824219-8.535156 8.535156-8.535156h204.796876c4.710937 0 8.535156 3.824219 8.535156 8.535156v153.597656c0 4.710938-3.824219 8.535157-8.535156 8.535157zm-196.265626-17.066407h187.734376v-136.535156h-187.734376zm0 0"/><path d="m290.132812 85.332031c-1.816406 0-3.617187-.578125-5.128906-1.707031l-29.011718-21.757812-29.015626 21.757812c-2.585937 1.9375-6.039062 2.253906-8.933593.8125-2.882813-1.441406-4.71875-4.402344-4.71875-7.636719v-68.265625c0-4.710937 3.824219-8.535156 8.535156-8.535156h68.265625c4.710938 0 8.53125 3.824219 8.53125 8.535156v68.265625c0 3.234375-1.824219 6.1875-4.71875 7.636719-1.203125.597656-2.5.894531-3.804688.894531zm-34.132812-42.664062c1.800781 0 3.601562.570312 5.121094 1.707031l20.480468 15.359375v-42.667969h-51.203124v42.667969l20.480468-15.359375c1.519532-1.136719 3.320313-1.707031 5.121094-1.707031zm0 0"/></svg>