<svg height="512pt" viewBox="0 -31 512.00048 512" width="512pt" xmlns="http://www.w3.org/2000/svg"><path d="m505.320312 272.519531-53.320312-35.546875v-221.972656c0-.039062-.003906-.078125-.003906-.121094-.0625-8.179687-6.746094-14.878906-14.996094-14.878906h-422c-8.367188 0-15 6.875-15 15 0 4.695312-.00390625 299.023438.0078125 300.113281.0585937 8.394531 6.9570315 14.878907 14.9921875 14.878907h.007812.003907 245.042969c-11.539063 22.511718-18.054688 48.019531-18.054688 75.007812v30c0 8.285156 6.714844 15 15 15s15-6.714844 15-15c0-57.898438 47.101562-105 105-105h15v15c0 5.53125 3.046875 10.617188 7.921875 13.226562 4.878906 2.609376 10.796875 2.324219 15.398437-.746093l90-60c4.171876-2.78125 6.679688-7.464844 6.679688-12.480469s-2.503906-9.699219-6.679688-12.480469zm-129.351562-29.589843-91.304688-78.257813 137.335938-117.160156v169.460937l-6.679688-4.453125c-4.601562-3.066406-10.519531-3.355469-15.398437-.742187-4.875 2.609375-7.921875 7.691406-7.921875 13.222656v15.675781c-5.421875.492188-10.769531 1.25-16.03125 2.253907zm-320.273438-212.929688h340.609376l-170.304688 145.285156c-6.824219-5.820312-162.292969-138.453125-170.304688-145.285156zm-25.695312 17.511719 137.796875 117.554687-137.796875 117.441406zm25.726562 252.488281 135.1875-115.214844 25.351563 21.628906c2.804687 2.390626 6.269531 3.585938 9.734375 3.585938s6.929688-1.195312 9.734375-3.585938l25.828125-22.035156 80.457031 68.964844c-24.28125 10.445312-45.570312 26.550781-62.199219 46.65625zm366.273438 16.972656v-1.972656c0-8.285156-6.714844-15-15-15h-30c-29.582031 0-56.96875 9.5625-79.238281 25.761719 24.5625-33.765625 64.382812-55.761719 109.238281-55.761719 8.285156 0 15-6.714844 15-15v-1.972656c12.152344 8.101562 35.84375 23.894531 47.957031 31.972656zm0 0"/></svg>