<svg xmlns="http://www.w3.org/2000/svg" xmlns:xlink="http://www.w3.org/1999/xlink" width="90" height="66" viewBox="0 0 90 66"><defs><path id="4zuka" d="M610.72 3138.05s.657 5.458-2.35 11.165"/><path id="4zukb" d="M536.035 3142.04s-3.215 3.252-3.215 8.772"/><path id="4zukc" d="M536.836 3095.78s-3.954 2.18-5.626 7.177"/><path id="4zukd" d="M607.57 3117.719H614"/><path id="4zuke" d="M610.382 3114.92v5.582"/><path id="4zukf" d="M530.411 3124.49c1.331 0 2.411.893 2.411 1.994 0 1.1-1.08 1.993-2.41 1.993-1.332 0-2.412-.893-2.412-1.993s1.08-1.994 2.411-1.994z"/><path id="4zukg" d="M538.45 3108.751h6.097c0-1.536.682-3.009 1.897-4.095 1.215-1.086 2.862-1.696 4.58-1.696h6.163c1.863 0 3.593.863 4.572 2.28.98 1.416 1.069 3.186.236 4.675l-15.734 28.134"/><path id="4zukh" d="M544.346 3142.84l-3.032 5.578a3.713 3.713 0 0 0 .11 3.745c.709 1.143 1.983 1.842 3.358 1.842h23.405v-5.526"/><path id="4zuki" d="M538.45 3108.545v-2.259c0-4.919 4.256-8.906 9.506-8.906h2.55"/><path id="4zukj" d="M557.74 3097.38h2.513c3.31 0 6.385 1.521 8.122 4.02 1.738 2.497 1.892 5.616.405 8.239l-7.964 14.057"/><path id="4zukk" d="M559.314 3126.09l-11.01 19.706c-.314.562-.28 1.229.089 1.763.369.535 1.021.86 1.723.86h18.067"/><path id="4zukl" d="M601.136 3096.979H589.08"/><path id="4zukm" d="M581.849 3097.38h-4.019v18.342"/><path id="4zukn" d="M577.83 3119.71v6.426h8.884c3.4 0 6.66 1.21 9.063 3.364 2.403 2.155 3.754 5.077 3.754 8.124 0 2.863-1.27 5.609-3.528 7.633-2.258 2.025-5.321 3.162-8.515 3.162h-9.658"/><path id="4zuko" d="M601.139 3097.38v5.57H584.26v9.582"/><path id="4zukp" d="M583.46 3116.52v5.05h4.783c7.311 0 13.802 4.07 16.114 10.102"/><path id="4zukq" d="M604.357 3138.85v.15c0 8.285-7.495 15.002-16.74 15.002H577.03v-5.302"/><path id="4zukr" d="M591.092 3110.14v7.177"/><path id="4zuks" d="M579.44 3091.399h12.056"/><path id="4zukt" d="M560.15 3137.257l4.019-7.177"/></defs><g><g transform="translate(-526 -3090)"><g><use fill="#fff" fill-opacity="0" stroke="#000" stroke-linecap="round" stroke-linejoin="round" stroke-miterlimit="50" stroke-width="2.4" xlink:href="#4zuka"/></g><g><use fill="#fff" fill-opacity="0" stroke="#000" stroke-linecap="round" stroke-linejoin="round" stroke-miterlimit="50" stroke-width="2.4" xlink:href="#4zukb"/></g><g><use fill="#fff" fill-opacity="0" stroke="#000" stroke-linecap="round" stroke-linejoin="round" stroke-miterlimit="50" stroke-width="2.4" xlink:href="#4zukc"/></g><g><use fill="#fff" fill-opacity="0" stroke="#000" stroke-linecap="round" stroke-linejoin="round" stroke-miterlimit="50" stroke-width="2.4" xlink:href="#4zukd"/></g><g><use fill="#fff" fill-opacity="0" stroke="#000" stroke-linecap="round" stroke-linejoin="round" stroke-miterlimit="50" stroke-width="2.4" xlink:href="#4zuke"/></g><g><use fill="#fff" fill-opacity="0" stroke="#000" stroke-linecap="round" stroke-linejoin="round" stroke-miterlimit="50" stroke-width="2.4" xlink:href="#4zukf"/></g><g><use fill="#fff" fill-opacity="0" stroke="#000" stroke-linecap="round" stroke-linejoin="round" stroke-miterlimit="50" stroke-width="2.4" xlink:href="#4zukg"/></g><g><use fill="#fff" fill-opacity="0" stroke="#000" stroke-linecap="round" stroke-linejoin="round" stroke-miterlimit="50" stroke-width="2.4" xlink:href="#4zukh"/></g><g><use fill="#fff" fill-opacity="0" stroke="#000" stroke-linecap="round" stroke-linejoin="round" stroke-miterlimit="50" stroke-width="2.4" xlink:href="#4zuki"/></g><g><use fill="#fff" fill-opacity="0" stroke="#000" stroke-linecap="round" stroke-linejoin="round" stroke-miterlimit="50" stroke-width="2.4" xlink:href="#4zukj"/></g><g><use fill="#fff" fill-opacity="0" stroke="#000" stroke-linecap="round" stroke-linejoin="round" stroke-miterlimit="50" stroke-width="2.4" xlink:href="#4zukk"/></g><g><use fill="#fff" fill-opacity="0" stroke="#000" stroke-linecap="round" stroke-linejoin="round" stroke-miterlimit="50" stroke-width="2.4" xlink:href="#4zukl"/></g><g><use fill="#fff" fill-opacity="0" stroke="#000" stroke-linecap="round" stroke-linejoin="round" stroke-miterlimit="50" stroke-width="2.4" xlink:href="#4zukm"/></g><g><use fill="#fff" fill-opacity="0" stroke="#000" stroke-linecap="round" stroke-linejoin="round" stroke-miterlimit="50" stroke-width="2.4" xlink:href="#4zukn"/></g><g><use fill="#fff" fill-opacity="0" stroke="#000" stroke-linecap="round" stroke-linejoin="round" stroke-miterlimit="50" stroke-width="2.4" xlink:href="#4zuko"/></g><g><use fill="#fff" fill-opacity="0" stroke="#000" stroke-linecap="round" stroke-linejoin="round" stroke-miterlimit="50" stroke-width="2.4" xlink:href="#4zukp"/></g><g><use fill="#fff" fill-opacity="0" stroke="#000" stroke-linecap="round" stroke-linejoin="round" stroke-miterlimit="50" stroke-width="2.4" xlink:href="#4zukq"/></g><g><use fill="#fff" fill-opacity="0" stroke="#000" stroke-linecap="round" stroke-linejoin="round" stroke-miterlimit="50" stroke-width="2.4" xlink:href="#4zukr"/></g><g><use fill="#fff" fill-opacity="0" stroke="#000" stroke-linecap="round" stroke-linejoin="round" stroke-miterlimit="50" stroke-width="2.4" xlink:href="#4zuks"/></g><g><use fill="#fff" fill-opacity="0" stroke="#000" stroke-linecap="round" stroke-linejoin="round" stroke-miterlimit="50" stroke-width="2.4" xlink:href="#4zukt"/></g></g></g></svg>