<svg xmlns="http://www.w3.org/2000/svg" xmlns:xlink="http://www.w3.org/1999/xlink" width="51" height="38" viewBox="0 0 51 38"><defs><path id="47w5a" d="M445.9 933.73c-1.875 0-3.4-1.54-3.4-3.432 0-1.893 1.525-3.432 3.4-3.432s3.4 1.54 3.4 3.432-1.525 3.432-3.4 3.432zm0-8.58c-2.813 0-5.1 2.309-5.1 5.148 0 2.839 2.287 5.148 5.1 5.148 2.813 0 5.1-2.31 5.1-5.148 0-2.84-2.287-5.148-5.1-5.148z"/><path id="47w5b" d="M474.8 933.73c-1.875 0-3.4-1.54-3.4-3.432 0-1.893 1.525-3.432 3.4-3.432s3.4 1.54 3.4 3.432-1.525 3.432-3.4 3.432zm0-8.58c-2.813 0-5.1 2.309-5.1 5.148 0 2.839 2.287 5.148 5.1 5.148 2.813 0 5.1-2.31 5.1-5.148 0-2.84-2.287-5.148-5.1-5.148z"/><path id="47w5c" d="M484.865 920.395l-7.65-12.011a.848.848 0 0 0-.715-.394h-9.35c-.47 0-.85.384-.85.858v21.45c0 .474.38.857.85.857h3.4v-1.716H468v-19.733h8.036l7.264 11.406v8.327h-4.25v1.716h5.1c.47 0 .85-.383.85-.858v-9.437a.862.862 0 0 0-.135-.465z"/><path id="47w5d" d="M471.4 919.142v-6.006h6.8v-1.716h-7.65c-.47 0-.85.384-.85.858V920c0 .474.38.858.85.858h12.75v-1.716h-11.9z"/><path id="47w5e" d="M467.15 901.99h-32.3c-.47 0-.85.384-.85.858v27.455c0 .475.38.858.85.858h6.8v-1.716h-5.95v-25.74h30.6v25.74h-16.15v1.716h17c.47 0 .85-.383.85-.858v-27.455a.854.854 0 0 0-.85-.858z"/><path id="47w5f" d="M434.85 927.73v-1.72h5.1v1.72z"/><path id="47w5g" d="M451.85 927.73v-1.72h14.45v1.72z"/><path id="47w5h" d="M480.75 927.73v-1.72h3.4v1.72z"/><path id="47w5i" d="M437.4 907.14v-1.72h29.75v1.72z"/><path id="47w5j" d="M445.05 931.16v-1.72h1.7v1.72z"/><path id="47w5k" d="M473.95 931.16v-1.72h1.7v1.72z"/><path id="47w5l" d="M437.4 900.27v-1.72h11.9v1.72z"/><path id="47w5m" d="M434 900.27v-1.72h1.7v1.72z"/></defs><g><g transform="translate(-434 -898)"><g><use fill="#ab2328" xlink:href="#47w5a"/></g><g><use fill="#ab2328" xlink:href="#47w5b"/></g><g><use fill="#ab2328" xlink:href="#47w5c"/></g><g><use fill="#ab2328" xlink:href="#47w5d"/></g><g><use fill="#ab2328" xlink:href="#47w5e"/></g><g><use fill="#ab2328" xlink:href="#47w5f"/></g><g><use fill="#ab2328" xlink:href="#47w5g"/></g><g><use fill="#ab2328" xlink:href="#47w5h"/></g><g><use fill="#ab2328" xlink:href="#47w5i"/></g><g><use fill="#ab2328" xlink:href="#47w5j"/></g><g><use fill="#ab2328" xlink:href="#47w5k"/></g><g><use fill="#ab2328" xlink:href="#47w5l"/></g><g><use fill="#ab2328" xlink:href="#47w5m"/></g></g></g></svg>