<svg xmlns="http://www.w3.org/2000/svg" xmlns:xlink="http://www.w3.org/1999/xlink" width="43" height="44" viewBox="0 0 43 44"><defs><path id="yiv7a" d="M766.782 912.277a2.348 2.348 0 0 1 1.667-.687c.63 0 1.222.244 1.667.687.445.444.69 1.033.69 1.66s-.245 1.216-.69 1.66a2.368 2.368 0 0 1-3.334 0 2.342 2.342 0 0 1 0-3.32zm-1.064 4.38a3.849 3.849 0 0 0 2.726 1.125c.987 0 1.975-.375 2.726-1.125a3.817 3.817 0 0 0 1.13-2.72 3.817 3.817 0 0 0-1.13-2.72 3.835 3.835 0 0 0-2.726-1.127 3.845 3.845 0 0 0-2.726 6.567z"/><path id="yiv7b" d="M770.547 927.755a2.37 2.37 0 0 1-3.336 0 2.34 2.34 0 0 1 0-3.32 2.37 2.37 0 0 1 3.336 0 2.34 2.34 0 0 1 0 3.32zm-4.4-4.38a3.845 3.845 0 0 0 2.727 6.565 3.845 3.845 0 0 0 2.727-6.565 3.867 3.867 0 0 0-5.454 0z"/><path id="yiv7c" d="M774.916 915.963l-13.197 6.756a.75.75 0 1 0 .686 1.334l13.197-6.756a.75.75 0 1 0-.686-1.334z"/><path id="yiv7d" d="M791.492 901.22l-5.1 5.084-.086-.876a3.039 3.039 0 0 0-2.724-2.715l-3.078-.302v-3.56a3.36 3.36 0 0 1 3.362-3.351h5.249a3.36 3.36 0 0 1 3.361 3.351c0 .895-.35 1.737-.984 2.37zm-12.375 6.356a3.296 3.296 0 0 0 2.31 2.298 1.785 1.785 0 0 1-1.675 1.15 1.785 1.785 0 0 1-1.792-1.782c0-.476.186-.924.525-1.26.182-.182.398-.318.632-.406zm6.402 10.84l-17.831 17.779a.676.676 0 0 1-.48.198.676.676 0 0 1-.48-.198L752.73 922.24a.677.677 0 0 1 0-.958l17.832-17.78a1.526 1.526 0 0 1 1.232-.439l7.213.708v2.273a3.276 3.276 0 0 0-1.579.877 3.26 3.26 0 0 0-.965 2.324c0 .878.343 1.703.965 2.324a3.28 3.28 0 0 0 2.331.963 3.28 3.28 0 0 0 2.331-.963 3.26 3.26 0 0 0 .966-2.324 3.26 3.26 0 0 0-.966-2.324 3.277 3.277 0 0 0-1.579-.877v-2.126l2.93.287a1.532 1.532 0 0 1 1.372 1.37l1.146 11.612c.045.457-.116.904-.44 1.229zm8.45-19.565c0-2.675-2.18-4.851-4.862-4.851h-5.244c-2.681 0-4.863 2.176-4.863 4.851v3.413l-7.064-.694a3.026 3.026 0 0 0-2.442.872l-17.826 17.785c-.85.849-.85 2.23 0 3.08l13.992 13.958c.412.411.96.638 1.543.638s1.131-.227 1.543-.638l17.826-17.784a3.012 3.012 0 0 0 .874-2.436l-.868-8.81 5.968-5.953a4.814 4.814 0 0 0 1.424-3.43z"/></defs><g><g transform="translate(-751 -894)"><g><use fill="#ab2328" xlink:href="#yiv7a"/></g><g><use fill="#ab2328" xlink:href="#yiv7b"/></g><g><use fill="#ab2328" xlink:href="#yiv7c"/></g><g><use fill="#ab2328" xlink:href="#yiv7d"/></g></g></g></svg>