<svg xmlns="http://www.w3.org/2000/svg" xmlns:xlink="http://www.w3.org/1999/xlink" width="36" height="47" viewBox="0 0 36 47"><defs><path id="tpr5a" d="M179.44 933.5l-6.94 6.94v-6.94zm-31.94-36h33V932h-8.75a.75.75 0 0 0-.75.75v8.75h-23.5zm34.34 35.712a.755.755 0 0 0 .033-.045l.008-.013a.69.69 0 0 0 .03-.05l.005-.01a.798.798 0 0 0 .027-.056l.002-.007a.743.743 0 0 0 .022-.062l.002-.008a.749.749 0 0 0 .016-.063l.003-.019.008-.054a.747.747 0 0 0 .004-.075v-36a.75.75 0 0 0-.75-.75h-34.5a.75.75 0 0 0-.75.75v45.5c0 .414.336.75.75.75h25a.747.747 0 0 0 .13-.012l.018-.003a.817.817 0 0 0 .063-.015l.008-.003a.733.733 0 0 0 .06-.021l.009-.003a.773.773 0 0 0 .055-.026l.011-.006a.724.724 0 0 0 .048-.028l.015-.01a.721.721 0 0 0 .042-.031l.017-.012a.779.779 0 0 0 .049-.044l.005-.006 9.5-9.5.005-.004a.761.761 0 0 0 .045-.05l.01-.014z"/><path id="tpr5b" d="M160.87 905.5h14.379a.75.75 0 1 0 0-1.5H160.87a.75.75 0 1 0 0 1.5z"/><path id="tpr5c" d="M154.22 907.28a.748.748 0 0 0 1.06 0l4-4a.75.75 0 0 0-1.06-1.06l-3.47 3.47-.97-.97a.75.75 0 0 0-1.06 1.06z"/><path id="tpr5d" d="M159 911.75c0 .414.336.75.75.75h15.5a.75.75 0 1 0 0-1.5h-15.5a.75.75 0 0 0-.75.75z"/><path id="tpr5e" d="M156 913h-2.5v-2.5h2.5zm.75-4h-4a.75.75 0 0 0-.75.75v4c0 .414.336.75.75.75h4a.75.75 0 0 0 .75-.75v-4a.75.75 0 0 0-.75-.75z"/><path id="tpr5f" d="M175.25 918h-15.5a.75.75 0 1 0 0 1.5h15.5a.75.75 0 1 0 0-1.5z"/><path id="tpr5g" d="M156 920h-2.5v-2.5h2.5zm.75-4h-4a.75.75 0 0 0-.75.75v4c0 .414.336.75.75.75h4a.75.75 0 0 0 .75-.75v-4a.75.75 0 0 0-.75-.75z"/><path id="tpr5h" d="M175.25 925h-15.5a.75.75 0 1 0 0 1.5h15.5a.75.75 0 1 0 0-1.5z"/><path id="tpr5i" d="M156 927h-2.5v-2.5h2.5zm.75-4h-4a.75.75 0 0 0-.75.75v4c0 .414.336.75.75.75h4a.75.75 0 0 0 .75-.75v-4a.75.75 0 0 0-.75-.75z"/><path id="tpr5j" d="M168.75 932h-9a.75.75 0 1 0 0 1.5h9a.75.75 0 1 0 0-1.5z"/><path id="tpr5k" d="M156 934h-2.5v-2.5h2.5zm.75-4h-4a.75.75 0 0 0-.75.75v4c0 .414.336.75.75.75h4a.75.75 0 0 0 .75-.75v-4a.75.75 0 0 0-.75-.75z"/></defs><g><g transform="translate(-146 -896)"><g><use fill="#ab2328" xlink:href="#tpr5a"/></g><g><use fill="#ab2328" xlink:href="#tpr5b"/></g><g><use fill="#ab2328" xlink:href="#tpr5c"/></g><g><use fill="#ab2328" xlink:href="#tpr5d"/></g><g><use fill="#ab2328" xlink:href="#tpr5e"/></g><g><use fill="#ab2328" xlink:href="#tpr5f"/></g><g><use fill="#ab2328" xlink:href="#tpr5g"/></g><g><use fill="#ab2328" xlink:href="#tpr5h"/></g><g><use fill="#ab2328" xlink:href="#tpr5i"/></g><g><use fill="#ab2328" xlink:href="#tpr5j"/></g><g><use fill="#ab2328" xlink:href="#tpr5k"/></g></g></g></svg>