<svg xmlns="http://www.w3.org/2000/svg" xmlns:xlink="http://www.w3.org/1999/xlink" width="102" height="73" viewBox="0 0 102 73"><defs><path id="ygz0a" d="M173.665 3122.094a100.106 100.106 0 0 1 23.435 3.204v-16.658c-16.618-4.71-34.243-4.353-51.41 0v16.658c4.91-1.19 9.796-2.055 14.656-2.587"/><path id="ygz0b" d="M145.316 3114.876l-14.886-8.143 20.082-7.903"/><path id="ygz0c" d="M155.33 3096.386l15.887-6.386 41.146 17.029-7.077 3.831"/><path id="ygz0d" d="M201.916 3113.27l-4.016 1.605"/><path id="ygz0e" d="M134.666 3110.06v15.015l-1.826 3.438h4.016l-2.19-3.438"/><path id="ygz0f" d="M195.05 3125.3a24.743 24.743 0 0 1 1.25 7.782c0 3.807-.863 7.422-2.41 10.671"/><path id="ygz0g" d="M189.87 3149.547c-4.63 5.305-11.389 8.65-18.91 8.65-13.947 0-25.27-11.503-25.27-25.671 0-2.803.443-5.5 1.261-8.026"/><path id="ygz0h" d="M203.412 3130.12s.866 6.24-2.302 12.837"/><path id="ygz0i" d="M144.08 3150.98s1.626 4.81 7.23 8.023"/><path id="ygz0j" d="M141.27 3095.212l10.443-4.012"/><path id="ygz0k" d="M202.72 3154.591h7.23"/><path id="ygz0l" d="M206.332 3150.98v7.22"/><path id="ygz0m" d="M126.41 3140.55a2.41 2.41 0 0 1 2.41 2.407 2.41 2.41 0 0 1-4.82 0 2.41 2.41 0 0 1 2.41-2.407z"/><path id="ygz0n" d="M219.59 3116.48a2.41 2.41 0 0 1 2.41 2.407 2.41 2.41 0 0 1-4.82 0 2.41 2.41 0 0 1 2.41-2.407z"/></defs><g><g transform="translate(-122 -3088)"><g><use fill="#fff" fill-opacity="0" stroke="#000" stroke-linecap="round" stroke-linejoin="round" stroke-miterlimit="50" stroke-width="2.4" xlink:href="#ygz0a"/></g><g><use fill="#fff" fill-opacity="0" stroke="#000" stroke-linecap="round" stroke-linejoin="round" stroke-miterlimit="50" stroke-width="2.4" xlink:href="#ygz0b"/></g><g><use fill="#fff" fill-opacity="0" stroke="#000" stroke-linecap="round" stroke-linejoin="round" stroke-miterlimit="50" stroke-width="2.4" xlink:href="#ygz0c"/></g><g><use fill="#fff" fill-opacity="0" stroke="#000" stroke-linecap="round" stroke-linejoin="round" stroke-miterlimit="50" stroke-width="2.4" xlink:href="#ygz0d"/></g><g><use fill="#fff" fill-opacity="0" stroke="#000" stroke-linecap="round" stroke-linejoin="round" stroke-miterlimit="50" stroke-width="2.4" xlink:href="#ygz0e"/></g><g><use fill="#fff" fill-opacity="0" stroke="#000" stroke-linecap="round" stroke-linejoin="round" stroke-miterlimit="50" stroke-width="2.4" xlink:href="#ygz0f"/></g><g><use fill="#fff" fill-opacity="0" stroke="#000" stroke-linecap="round" stroke-linejoin="round" stroke-miterlimit="50" stroke-width="2.4" xlink:href="#ygz0g"/></g><g><use fill="#fff" fill-opacity="0" stroke="#000" stroke-linecap="round" stroke-linejoin="round" stroke-miterlimit="50" stroke-width="2.4" xlink:href="#ygz0h"/></g><g><use fill="#fff" fill-opacity="0" stroke="#000" stroke-linecap="round" stroke-linejoin="round" stroke-miterlimit="50" stroke-width="2.4" xlink:href="#ygz0i"/></g><g><use fill="#fff" fill-opacity="0" stroke="#000" stroke-linecap="round" stroke-linejoin="round" stroke-miterlimit="50" stroke-width="2.4" xlink:href="#ygz0j"/></g><g><use fill="#fff" fill-opacity="0" stroke="#000" stroke-linecap="round" stroke-linejoin="round" stroke-miterlimit="50" stroke-width="2.4" xlink:href="#ygz0k"/></g><g><use fill="#fff" fill-opacity="0" stroke="#000" stroke-linecap="round" stroke-linejoin="round" stroke-miterlimit="50" stroke-width="2.4" xlink:href="#ygz0l"/></g><g><use fill="#fff" fill-opacity="0" stroke="#000" stroke-linecap="round" stroke-linejoin="round" stroke-miterlimit="50" stroke-width="2.4" xlink:href="#ygz0m"/></g><g><use fill="#fff" fill-opacity="0" stroke="#000" stroke-linecap="round" stroke-linejoin="round" stroke-miterlimit="50" stroke-width="2.4" xlink:href="#ygz0n"/></g></g></g></svg>