<?xml version="1.0" standalone="no"?>
<!DOCTYPE svg PUBLIC "-//W3C//DTD SVG 1.1//EN" "http://www.w3.org/Graphics/SVG/1.1/DTD/svg11.dtd" >
<svg>
<metadata>
Created by FontForge 20090914 at Tue Apr 21 11:33:54 2015
 By www-data
(c) !22! Soft 1992
</metadata>
<defs>
<font id="FuturaLightLight" horiz-adv-x="1843" >
  <font-face 
    font-family="FuturaLight"
    font-weight="400"
    font-stretch="normal"
    units-per-em="4096"
    panose-1="2 11 114 0 0 0 0 0 0 0"
    ascent="3276"
    descent="-820"
    x-height="1585"
    cap-height="2621"
    bbox="-45.002 -1192 3805 3424"
    underline-thickness="35"
    underline-position="190"
    unicode-range="U+0020-U+2219"
  />
<missing-glyph horiz-adv-x="3072" 
d="M512 0v2560h2048v-2560h-2048zM2494 66v2428h-1916v-2428h1916z" />
    <glyph glyph-name=".notdef" horiz-adv-x="3072" 
d="M512 0v2560h2048v-2560h-2048zM2494 66v2428h-1916v-2428h1916z" />
    <glyph glyph-name="space" unicode=" " horiz-adv-x="1253" 
 />
    <glyph glyph-name="exclam" unicode="!" horiz-adv-x="778" 
d="M295 2675h221v-2134h-221v2134zM295 311h221v-311h-221v311z" />
    <glyph glyph-name="quotedbl" unicode="&#x22;" horiz-adv-x="950" 
d="M635 2564h156v-987h-156v987zM164 2564h151v-987h-151v987z" />
    <glyph glyph-name="numbersign" unicode="#" horiz-adv-x="2621" 
d="M1143 1548l-176 -504h483l176 504h-483zM1315 2601h201l-312 -893h484l315 893h197l-312 -893h574l-58 -160h-573l-180 -504h622l-53 -163h-631l-311 -881h-201l316 881h-484l-319 -881h-201l311 881h-594l54 163h602l180 504h-643l49 160h651z" />
    <glyph glyph-name="dollar" unicode="$" horiz-adv-x="1942" 
d="M1061 1270v-1065c130.667 16 233 67.667 307 155c74 84.667 111 195.334 111 332.001c0 251.333 -139.333 444 -418 578zM557 2011c0 -90 30.001 -166.333 90.001 -229c57.333 -66 147.666 -134.333 270.999 -205v844c-240.667 -49.333 -361 -186 -361 -410z
M1061 -295.001h-142.998v303c-148 0 -280.667 32.667 -398 98c-117.333 63.333 -221 192 -311 386l209 98c90 -234.667 256.667 -364.334 500 -389.001v1138c-210.667 101.333 -362.334 202.333 -455.001 303c-92.667 101.333 -139 238 -139 410
c0 128.667 47.667 249 143 361c95.333 108.667 245.666 178 450.999 208v177h143v-177c128 -18.667 231.667 -51.334 311 -98c76.667 -49.333 147.667 -121.666 213 -216.999l-188 -106c-76.667 125.333 -188.667 199 -336 221v-910
c229.333 -103.333 394.333 -219.333 495 -348c98.667 -130.667 148 -289 148 -475c0 -130.667 -27.333 -246.667 -82 -348c-57.333 -104 -133.666 -184.667 -228.999 -242c-98.667 -57.333 -209.334 -90 -332.001 -98v-295z" />
    <glyph glyph-name="percent" unicode="%" horiz-adv-x="2580" 
d="M614 2478c-106 0 -186.333 -45 -241 -135c-57.333 -92.667 -86 -221 -86 -385c0 -328 106.333 -492 319 -492c210.667 0 316 170.667 316 512c0 333.333 -102.667 500 -308 500zM70 1962c0 188.667 45.001 349.667 135.001 483c87.333 134 223.666 201 408.999 201
c166.667 0 295 -60 385 -180c87.333 -120 131 -281.333 131 -484c0 -218 -47.667 -387 -143 -507c-98 -120.667 -226.333 -181 -385 -181c-150 0 -275.667 60.333 -377 181c-103.333 120 -155 282.333 -155 487zM446.001 -66l1508 2708h192l-1499 -2708h-201zM2019 1122
c-106 0 -186.333 -45 -241 -135c-57.333 -92.667 -86 -221 -86 -385c0 -327.333 106.333 -491 319 -491c210.667 0 316 170.667 316 512c0 332.667 -102.667 499 -308 499zM1475 606c0 188.667 45.001 350 135.001 484c87.333 133.333 223.666 200 408.999 200
c166.667 0 295 -60 385 -180c87.333 -120 131 -281 131 -483c0 -218.667 -47.667 -388 -143 -508c-98 -120 -226.333 -180 -385 -180c-150 0 -275.667 60 -377 180c-103.333 120 -155 282.333 -155 487z" />
    <glyph glyph-name="ampersand" unicode="&#x26;" horiz-adv-x="2335" 
d="M881 143c232 0 457.001 131.333 675.001 394l-679 839c-66 -40.667 -140 -89.667 -222 -147c-84.667 -57.333 -158.334 -131 -221.001 -221c-65.333 -90.667 -98 -196 -98 -316c0 -158 54.667 -289 164 -393s236.333 -156 381 -156zM1012 2429
c-76.667 0 -152.001 -23.334 -226.001 -70.001c-73.333 -46 -110 -129.333 -110 -250c0 -111.333 88.667 -273.666 266 -486.999l139 98c49.333 32.667 93 68.334 131 107.001c38.667 35.333 68.834 76.166 90.501 122.499s32.5 102.5 32.5 168.5
c0 207.333 -107.667 311 -323 311zM2007 -0.000976562l-324 385.001c-122.667 -134 -240 -237.667 -352 -311c-114.667 -76.667 -266 -115 -454 -115c-208 0 -388.333 61.333 -541 184c-153.333 120.667 -230 301 -230 541c0 114.667 22 215.667 66 303
s112.333 170.666 205 249.999c90 79.333 218.333 175 385 287c-114.667 147.333 -195.334 257.666 -242.001 330.999c-46 74 -69 164.333 -69 271c0 73.333 17.667 147 53 221c35.333 71.333 95.333 132.666 180 184c84.667 49.333 195.334 74 332.001 74
c147.333 0 273 -43.667 377 -131c100.667 -87.333 151 -195.333 151 -324c0 -114.667 -31.333 -221 -94 -319c-62.667 -101.333 -193.667 -217.333 -393 -348l647 -799c74 84.667 177.667 229.334 311 434.001l156 -90c-150 -229.333 -268.667 -396 -356 -500l454 -528h-262
z" />
    <glyph glyph-name="quotesingle" unicode="'" horiz-adv-x="369" 
d="M119 2564h151v-987h-151v987z" />
    <glyph glyph-name="parenleft" unicode="(" horiz-adv-x="942" 
d="M385 971c0 -270.667 23.166 -530.167 69.499 -778.5s151.5 -544.5 315.5 -888.5l-168 -99c-188.667 396 -306.167 726.5 -352.5 991.5s-69.5 544.833 -69.5 839.5c0 188.667 12.333 369 37 541c22 169.333 65.667 355 131 557
c62.667 199.333 147.334 401.333 254.001 606l168 -86c-82 -174.667 -151.667 -356.334 -209 -545c-60 -188 -103.667 -377.667 -131 -569c-30 -191.333 -45 -381 -45 -569z" />
    <glyph glyph-name="parenright" unicode=")" horiz-adv-x="942" 
d="M557 971c0 297.333 -31.334 584 -94.001 860c-65.333 273.333 -162.333 547.666 -291 822.999l168 86c106.667 -204.667 192.667 -406.667 258 -606c62.667 -202 106.334 -387.667 131.001 -557c22 -172 33 -352.333 33 -541c0 -194 -5.66699 -366 -17 -516
c-13.333 -152.667 -51.333 -341 -114 -565c-62.667 -226.667 -159.667 -476.667 -291 -750l-168 99c112 234.667 198 454.334 258 659.001c57.333 202 93 374 107 516c13.333 139.333 20 303.333 20 492z" />
    <glyph glyph-name="asterisk" unicode="*" horiz-adv-x="1352" 
d="M188 1659l-77 135l417 221l-417 234l77 139l410 -262l-12 495h159l-20 -495l414 258l78 -135l-418 -234l418 -221l-87 -135l-405 246l16 -475h-151l8 475z" />
    <glyph glyph-name="plus" unicode="+" horiz-adv-x="2621" 
d="M1237 2179h139v-1016h1004v-147h-1004v-1016h-139v1016h-999v147h999v1016z" />
    <glyph glyph-name="comma" unicode="," horiz-adv-x="852" 
d="M254 315h344v-274c0 -172 -26 -297.667 -78 -377s-140.667 -139.333 -266 -180v156c60 24 99.667 58 119 102c24.667 43.333 37 107.333 37 192v62h-156v319z" />
    <glyph glyph-name="hyphen" unicode="-" horiz-adv-x="1065" 
d="M139 901h787v-229h-787v229z" />
    <glyph glyph-name="period" unicode="." horiz-adv-x="778" 
d="M598 0h-344v315h344v-315z" />
    <glyph glyph-name="slash" unicode="/" horiz-adv-x="1516" 
d="M1323 2675h193l-1287 -3011h-188z" />
    <glyph glyph-name="zero" unicode="0" horiz-adv-x="1999" 
d="M995 2433c-125.333 0 -235.667 -45 -331 -135c-96 -92.667 -168.667 -226.667 -218 -402c-51.333 -177.333 -77 -382 -77 -614c0 -366 56 -647.333 168 -844s271.667 -295 479 -295c417.333 0 626 379.667 626 1139c0 385.333 -49 673.333 -147 864
c-101.333 191.333 -268 287 -500 287zM130.999 1290c0 486 86.001 832.999 258.001 1041c169.333 207.333 371.333 311 606 311c265.333 0 478.333 -98.333 639 -295c161.333 -199.333 242 -559.666 242 -1081c0 -380 -67 -697 -201 -951
c-136.667 -254 -360.334 -381 -671.001 -381c-290 0 -507.333 130 -652 390c-147.333 256.667 -221 578.667 -221 966z" />
    <glyph glyph-name="one" unicode="1" horiz-adv-x="975" 
d="M541 0v2384h-471l110 209h590v-2593h-229z" />
    <glyph glyph-name="two" unicode="2" horiz-adv-x="1917" 
d="M1753 201v-201.001h-1683l602 639c245.333 254 427 454.667 545 602c114.667 144.667 191 270.334 229 377.001c38 104 57 221.333 57 352c0 308.667 -191 463 -573 463c-380 0 -570 -206 -570 -618h-233c0 554 274.333 831 823 831c178 0 327 -27.333 447 -82
c120 -57.333 211.333 -133.666 274 -229c60 -98.667 90 -205.334 90 -320c0 -194 -46.333 -382.333 -139 -565c-95.333 -182.667 -259.333 -393 -492 -631l-606 -622z" />
    <glyph glyph-name="three" unicode="3" horiz-adv-x="1942" 
d="M926 1479c188 0 323 45.0039 405 135.004s123 203.333 123 340c0 139.333 -39.667 255.333 -119 348c-78.667 90 -208.334 135 -389.001 135c-281.333 0 -448 -140.667 -500 -422h-258c90.667 418 340.667 627 750 627c254 0 443.667 -62.667 569 -188
c126 -126 189 -290 189 -492c0 -292 -149 -494 -447 -606c328 -106.667 492 -310.334 492 -611.001c0 -234.667 -68.333 -428.334 -205 -581.001c-139.333 -153.333 -348.333 -230 -627 -230c-212.667 0 -399.667 57.333 -561 172c-164 112 -251.333 296.333 -262 553h254
c32.667 -346.667 225.334 -520 578.001 -520c163.333 0 301 43.667 413 131c109.333 87.333 164 230.666 164 429.999c0 175.333 -52 310.666 -156 405.999c-103.333 95.333 -249.333 143 -438 143h-94v230h119z" />
    <glyph glyph-name="four" unicode="4" horiz-adv-x="1802" 
d="M406 864h823v1180zM1229 0v664h-1176l1413 2015v-1815h271v-200h-271v-664h-237z" />
    <glyph glyph-name="five" unicode="5" horiz-adv-x="1884" 
d="M942 1663c216 0 403.001 -68.332 561.001 -204.999c158.667 -139.333 238 -346.666 238 -621.999c0 -295.333 -86 -519.5 -258 -672.5s-383.667 -229.5 -635 -229.5c-136.667 0 -281.334 39.667 -434.001 119c-156 79.333 -277.667 203.666 -365 372.999l184 143
c156 -284 361 -426 615 -426c188 0 343.667 60.333 467 181c120 117.333 180 279.666 180 486.999s-56 368.333 -168 483c-114.667 112 -277 168 -487 168c-196.667 0 -375.667 -64 -537 -192l-70 8l332 1315h1061v-201h-897l-205 -815c136.667 57.333 276 86 418 86z" />
    <glyph glyph-name="six" unicode="6" horiz-adv-x="1999" 
d="M1016 1343c-191.333 0 -343 -57.332 -455 -171.999s-168 -267.334 -168 -458.001c0 -169.333 47.833 -311.333 143.5 -426s234.834 -172 417.501 -172c180.667 0 331 61.333 451 184c117.333 120 176 275.667 176 467c0 95.333 -21.667 188 -65 278
c-44 88 -107 160.667 -189 218c-84.667 54 -188.334 81 -311.001 81zM1053 1569c147.333 0 279.665 -35.666 396.998 -106.999c114.667 -73.333 203.334 -170.333 266.001 -291c62.667 -120 94 -253.667 94 -401c0 -242.667 -71 -443.334 -213 -602.001
c-144.667 -158.667 -365.667 -238 -663 -238c-224 0 -409.667 73.833 -557 221.5s-221 340.167 -221 577.5c0 147.333 21.667 279.666 65 396.999c44 114.667 91.833 210.334 143.5 287.001l303.5 430l610 852l197 -119l-844 -1138c174.667 87.333 315.334 131 422.001 131z
" />
    <glyph glyph-name="seven" unicode="7" horiz-adv-x="1966" 
d="M291 37l1196 2355h-1262v201h1606l-1319 -2667z" />
    <glyph glyph-name="eight" unicode="8" horiz-adv-x="2040" 
d="M1020 1499c147.333 0 268.667 39.667 364 119c93.333 79.333 140 192.666 140 339.999c0 314 -164 471 -492 471c-346.667 0 -520 -155.667 -520 -467c0 -131.333 52 -240.666 156 -327.999c100.667 -90 218 -135 352 -135zM1610 713c0 139.333 -45 270.333 -135 393
c-93.333 122.667 -243.666 184 -450.999 184c-182.667 0 -327.334 -50.5 -434.001 -151.5s-160 -240.167 -160 -417.5c0 -172 53.333 -311.333 160 -418s250 -160 430 -160c188.667 0 334.667 54.667 438 164c101.333 106.667 152 242 152 406zM283.001 1987
c0 174.667 64.002 327.334 192.002 458c126 131.333 310.333 197 553 197c237.333 0 419 -64.333 545 -193c122.667 -130.667 184 -289 184 -475c0 -120 -38.333 -234.667 -115 -344c-76 -109.333 -175.667 -181.666 -299 -216.999c341.333 -114.667 512 -350.667 512 -708
c0 -226.667 -66.667 -411 -200 -553c-136.667 -145.333 -348.334 -218 -635.001 -218c-248.667 0 -449.334 68.333 -602.001 205c-156 134 -234 324 -234 570c0 357.333 172 592 516 704c-112 41.333 -208.667 109.666 -290 204.999c-84.667 95.333 -127 218.333 -127 369z
" />
    <glyph glyph-name="nine" unicode="9" horiz-adv-x="2007" 
d="M967 1229c188 0 339.331 58.667 453.998 176c112 114.667 168 266.334 168 455.001c0 169.333 -47.667 311.333 -143 425.999c-95.333 114.667 -234.666 172 -417.999 172c-117.333 0 -223.666 -27.333 -318.999 -82c-96 -57.333 -171.333 -134 -226 -230
c-54.667 -98 -82 -211.333 -82 -340c0 -150 52 -283.667 156 -401c101.333 -117.333 238 -176 410 -176zM929.998 1004c-224 0 -405.666 77.668 -544.999 233.001c-142 152.667 -213 341 -213 565c0 243.333 72.333 444 217 602c142 158.667 362 238 660 238
c150 0 283.667 -32.833 401 -98.5s210.333 -158.5 279 -278.5c65.333 -122.667 98 -263.334 98 -422.001c0 -204.667 -32.667 -367 -98 -487c-66 -123.333 -204 -332.333 -414 -627l-610 -852l-197 119l844 1139c-174.667 -87.333 -315.334 -131 -422.001 -131z" />
    <glyph glyph-name="colon" unicode=":" horiz-adv-x="778" 
d="M565 0h-344v315h344v-315zM569 1118h-344v320h344v-320z" />
    <glyph glyph-name="semicolon" unicode=";" horiz-adv-x="836" 
d="M217 315h344v-274c0 -172 -26 -297.667 -78 -377c-51.333 -79.333 -140 -139.333 -266 -180v156c60 24 99.667 58 119 102c24.667 43.333 37 107.333 37 192v62h-156v319zM569 1118h-344v320h344v-320z" />
    <glyph glyph-name="less" unicode="&#x3c;" horiz-adv-x="2580" 
d="M2339 2011v-160l-1872 -761l1872 -758v-156l-2110 860v111z" />
    <glyph glyph-name="equal" unicode="=" horiz-adv-x="2621" 
d="M246 840h2142v-148h-2142v148zM246 1483h2142v-140h-2142v140z" />
    <glyph glyph-name="greater" unicode="&#x3e;" horiz-adv-x="2580" 
d="M242 2011l2109 -864v-111l-2109 -860v156l1872 758l-1872 761v160z" />
    <glyph glyph-name="question" unicode="?" horiz-adv-x="1556" 
d="M344 1958l-217.001 0.00195312c0 199.333 56 370 168 512c109.333 139.333 256.666 209 441.999 209c216 0 377.333 -39.667 484 -119c106 -82 159 -218.667 159 -410c0 -163.333 -34 -288.666 -102 -375.999c-71.333 -90.667 -218.666 -219 -441.999 -385
c-136.667 -101.333 -233.667 -183.333 -291 -246c-57.333 -66 -86 -142.667 -86 -230s28.667 -151.333 86 -192c54.667 -41.333 124.334 -62 209.001 -62c98 0 179.667 30.333 245 91c63.333 57.333 95 146 95 266h200c0 -166.667 -46.333 -299.334 -139 -398.001
c-92.667 -98 -222.334 -147 -389.001 -147c-150 0 -277 38.333 -381 115c-104 73.333 -156 178.333 -156 315c0 101.333 23.333 191.333 70 270c44 79.333 101.333 147.666 172 204.999c71.333 57.333 190 146 356 266c128.667 93.333 216.334 174 263.001 242
c40.667 65.333 61 148.666 61 249.999v16c0 112 -32.667 196.667 -98 254c-68.667 54.667 -161.667 82 -279 82c-128 0 -231.667 -47.667 -311 -143s-119 -223.666 -119 -385zM581.999 295.002h303v-295h-303v295z" />
    <glyph glyph-name="at" unicode="@" horiz-adv-x="3482" 
d="M1470 217c-152.667 0 -278.001 54.6689 -376.001 164.002c-101.333 106.667 -152 248.667 -152 426c0 267.333 77.833 496.666 233.5 687.999s353.5 287 593.5 287c226.667 0 379.667 -101 459.001 -303l111 229h147l-250 -975c-24 -98 -36 -167.667 -36 -209
c0 -112 65.333 -168 196 -168c188.667 0 365 89 529 267c160.667 177.333 241 431 241 761c0 156 -41 317.333 -123 484c-82 164 -219.667 303.333 -413 418c-196.667 112 -448 168 -754 168c-199.333 0 -390.333 -31.667 -573 -95
c-186 -62.667 -355.333 -159.667 -508 -291c-156 -133.333 -277.667 -297 -365 -491s-131 -412.333 -131 -655c0 -382.667 131 -692.667 393 -930c259.333 -238 600.666 -357 1024 -357s808.333 116.333 1155 349l54 -86c-366 -260 -762 -390 -1188 -390
c-270.667 0 -528.667 49.333 -774 148c-248.667 98 -452.334 255 -611.001 471c-158 216 -237 486.333 -237 811c0 303.333 72.333 580.333 217 831c144.667 251.333 349.334 452.333 614.001 602.999c264.667 147.333 573.334 221 926.001 221
c191.333 0 374.333 -22 549 -66c172 -46 329 -117 471 -213c139.333 -98 250 -223.667 332 -377c81.333 -155.333 122 -342.333 122 -561c0 -344 -91.333 -623.833 -274 -839.5s-414.667 -323.5 -696 -323.5c-235.333 0 -353 101 -353 303c0 22 1.66699 34.333 5 37
c-123.333 -224 -309.333 -336 -558 -336zM2191 1286c-46 243.333 -185 364.999 -417 364.999c-180.667 0 -331 -80.667 -451 -242c-122.667 -161.333 -184 -363.333 -184 -606c0 -131.333 32.667 -239.333 98 -324s162.333 -127 291 -127c117.333 0 232 46.667 344 140
c109.333 92.667 179 207.334 209 344.001z" />
    <glyph glyph-name="A" unicode="A" horiz-adv-x="2286" 
d="M1139 2232l-463 -1142h913zM12 0l1147 2720l1098 -2720h-254l-340 885h-1069l-348 -885h-234z" />
    <glyph glyph-name="B" unicode="B" 
d="M209 0v2621h668c234.667 0 412 -53.167 532 -159.5s180 -281.166 180 -524.5c0 -294.667 -133.667 -481.667 -401 -561c150 -22 275.667 -86 377 -192c98 -109.333 147 -251.333 147 -426c0 -505.333 -280 -758 -840 -758h-663zM451 1442h352c360 0 540 162.333 540 487
c0 319.333 -166.333 479 -499 479h-393v-966zM795 201c245.333 0 418.667 44.999 520 134.999c98 87.333 147 217 147 389c0 188.667 -47.667 322.334 -143 401.001c-95.333 79.333 -256.333 119 -483 119h-385v-1044h344z" />
    <glyph glyph-name="C" unicode="C" horiz-adv-x="2523" 
d="M1511 2466c-229.333 0 -428.668 -48.001 -598.001 -144.001c-169.333 -95.333 -299 -230.333 -389 -405c-92.667 -177.333 -139 -382 -139 -614c0 -358 102.333 -640.833 307 -848.5s473.667 -311.5 807 -311.5c292 0 572 104 840 312l-4 -279
c-120.667 -73.333 -251.667 -130.666 -393 -171.999c-145.333 -40.667 -297 -61 -455 -61c-207.333 0 -413.666 38 -618.999 114c-204.667 76.667 -379.334 216 -524.001 418c-147.333 202 -221 473.667 -221 815c0 251.333 47.667 482 143 692c93.333 208 245 376 455 504
c210 128.667 475 193 795 193c294.667 0 575.667 -93 843.001 -279l-8 -262c-98 84.667 -212.667 161 -344 229c-134 66 -299.333 99 -496 99z" />
    <glyph glyph-name="D" unicode="D" horiz-adv-x="2376" 
d="M209 0l0.000976562 2621h758c281.333 0 514.666 -47.667 699.999 -143c186 -95.333 326.667 -241.333 422 -438s143 -439.667 143 -729c0 -470 -117.333 -806 -352 -1008c-237.333 -202 -547.333 -303 -930 -303h-741zM844.001 2425l-393 -4.00098v-2220l434 -4
c292 0 520 53 684 159c160.667 106.667 269.667 242 327 406c54.667 164 82 347 82 549c0 316.667 -69.667 584.334 -209 803.001c-133.333 207.333 -425.333 311 -876 311h-49z" />
    <glyph glyph-name="E" unicode="E" horiz-adv-x="1638" 
d="M201 0v2621h1298v-225h-1057v-819h1057v-225h-1057v-1131h1057v-221h-1298z" />
    <glyph glyph-name="F" unicode="F" horiz-adv-x="1638" 
d="M217 0v2621h1299v-225h-1057v-819h1016v-225h-1016v-1352h-242z" />
    <glyph glyph-name="G" unicode="G" horiz-adv-x="2908" 
d="M1466 2462c-220.667 0 -414.333 -52 -581 -156c-166.667 -106.667 -293.667 -250 -381 -430c-87.333 -182.667 -131 -379.334 -131 -590.001c0 -338.667 109 -613 327 -823c218.667 -210.667 482.334 -316 791.001 -316c251.333 0 478 74 680 222
c202 144.667 303 383.334 303 716.001h-905v205h1167v-20c0 -426 -110.667 -755 -332 -987c-220.667 -232.667 -552.334 -349 -995.001 -349c-243.333 0 -463 60.333 -659 181c-199.333 117.333 -355 281 -467 491c-112 208 -168 432 -168 672c0 199.333 42.333 407 127 623
c82 215.333 226.667 399.666 434 553c204.667 152.667 472.334 229 803.001 229c150 0 293.333 -20.667 430 -62c136.667 -40.667 260.667 -103.334 372 -188c112 -87.333 205 -195.333 279 -324l-168 -147c-242.667 333.333 -551.334 500 -926.001 500z" />
    <glyph glyph-name="H" unicode="H" horiz-adv-x="2343" 
d="M217 0v2621h242v-1065h1421v1065h242v-2621h-242v1352h-1421v-1352h-242z" />
    <glyph glyph-name="I" unicode="I" horiz-adv-x="573" 
d="M184 0v2621h242v-2621h-242z" />
    <glyph glyph-name="J" unicode="J" horiz-adv-x="1270" 
d="M827 598v2023h238v-2056c0 -207.333 -41 -363 -123 -467c-82 -103.333 -230.667 -155 -446 -155c-226.667 0 -392 86 -496 258l172 151c74 -133.333 183.333 -200 328 -200c125.333 0 211.333 35.333 258 106c46 71.333 69 184.666 69 339.999z" />
    <glyph glyph-name="K" unicode="K" horiz-adv-x="2130" 
d="M225 0v2621h242v-1228l1180 1228h311l-1241 -1257l1302 -1364h-344l-1208 1327v-1327h-242z" />
    <glyph glyph-name="L" unicode="L" horiz-adv-x="1475" 
d="M209 0v2621h242v-2400h897v-221h-1139z" />
    <glyph glyph-name="M" unicode="M" horiz-adv-x="2908" 
d="M1446 -94l-918 2093l-200 -1999h-246l356 2732l1004 -2335l1040 2335l340 -2732h-246l-192 1999z" />
    <glyph glyph-name="N" unicode="N" horiz-adv-x="2417" 
d="M184 0v2732l1856 -2200v2089h221v-2695l-1851 2192v-2118h-226z" />
    <glyph glyph-name="O" unicode="O" horiz-adv-x="3080" 
d="M1491 139c212.667 0 406.499 50.499 581.499 151.499s312.833 239.167 413.5 414.5c101.333 172 152 367 152 585c0 188.667 -42.333 373 -127 553c-87.333 180.667 -217 329.667 -389 447.001c-172 117.333 -379.667 176 -623 176
c-174.667 0 -350.667 -42.333 -528 -127c-180.667 -87.333 -329.667 -218.333 -447 -393c-117.333 -178 -176 -391 -176 -639c0 -208 47.833 -400.667 143.5 -578s232.167 -319.333 409.5 -426c174.667 -109.333 371.334 -164 590.001 -164zM1491 -66.001
c-246 0 -475.332 53.332 -687.999 159.999c-216 106.667 -388 263.667 -516 471c-128.667 208 -193 458 -193 750c0 272.667 67 513 201 721c134 204.667 310 363 528 475c218.667 112 446.667 168 684 168c208 0 395 -35.667 561 -107
c166.667 -70.667 311.667 -169 435 -295c122.667 -125.333 218 -272.666 286 -441.999c68.667 -172 103 -352.333 103 -541c0 -270 -63 -508.667 -189 -716c-125.333 -208 -294.666 -366.667 -508 -476c-212.667 -112 -447.334 -168 -704.001 -168z" />
    <glyph glyph-name="P" unicode="P" horiz-adv-x="1720" 
d="M680 1384c232 0 395.667 39.666 491 118.999c96 76.667 144 206.334 144 389.001c0 344 -218.667 516 -656 516h-233v-1024h254zM672 1171h-246v-1171h-242v2621h455c286.667 0 514.667 -55.667 684 -167c166.667 -112 250 -293.667 250 -545
c0 -286.667 -83.333 -480.667 -250 -582c-166.667 -104 -383.667 -156 -651 -156z" />
    <glyph glyph-name="Q" unicode="Q" horiz-adv-x="3088" 
d="M2159 365l-611.001 708.002h291l492 -569c207.333 207.333 311 473.666 311 798.999c0 174.667 -41 352 -123 532c-82 177.333 -213 327.666 -393 450.999c-180.667 120 -408.667 180 -684 180c-202 0 -386.333 -53.333 -553 -160
c-169.333 -109.333 -301.666 -254 -396.999 -434c-96 -183.333 -144 -373 -144 -569c0 -333.333 112 -609.333 336 -828s497 -328 819 -328c259.333 0 478 72.667 656 218zM2916 -179.998h-286.003l-316 364c-251.333 -155.333 -523 -233 -815 -233
c-229.333 0 -432.666 41 -609.999 123c-180.667 79.333 -328.334 184.333 -443.001 315c-117.333 131.333 -204.666 277.333 -261.999 438c-57.333 161.333 -86 320 -86 476c0 284 64.333 529.667 193 737c128 204.667 295.833 361.667 503.5 471s426.167 164 655.5 164
c264.667 0 506.334 -53.333 725.001 -160c218.667 -109.333 393.334 -267.666 524.001 -474.999c131.333 -210.667 197 -459.334 197 -746.001c0 -374 -139.333 -694.667 -418 -962z" />
    <glyph glyph-name="R" unicode="R" horiz-adv-x="1925" 
d="M1810 0h-290l-922 1245h-139v-1245h-242v2621h483c562.667 0 844 -238.667 844 -716c0 -226.667 -69.667 -390.667 -209 -492c-142 -100.667 -299 -156.667 -471 -168zM643 1442c202 0 360.333 30.001 475 90.001c114.667 57.333 172 185.666 172 384.999
c0 180 -50.333 308.333 -151 385c-101.333 74 -265.333 111 -492 111h-188v-971h184z" />
    <glyph glyph-name="S" unicode="S" horiz-adv-x="1638" 
d="M57 438l209.003 110.998c87.333 -276 263.666 -414 528.999 -414c152.667 0 279.667 46.333 381 139c100.667 93.333 151 230 151 410c0 182.667 -54.667 319.334 -164 410.001c-32.667 30 -128 91.333 -286 184c-161.333 92.667 -277.666 163.667 -348.999 213
c-108.667 79.333 -196 162.666 -262 249.999c-65.333 84.667 -98 188.334 -98 311.001c0 186 62.667 337.667 188 455c123.333 114.667 288.666 172 495.999 172c117.333 0 221 -17.833 311 -53.5s179 -128.5 267 -278.5l-185 -111c-90 156 -228 234 -414 234
c-114.667 0 -212.667 -37 -294 -111c-82 -73.333 -123 -178.333 -123 -315c0 -177.333 97 -320.666 291 -429.999l327 -172c71.333 -38.667 134.333 -77 189 -115c232 -158 348 -367 348 -627c0 -128 -26 -249.333 -78 -364c-52 -117.333 -134 -213 -246 -287
c-114.667 -76.667 -263.334 -115 -446.001 -115c-150.667 0 -287.334 31.667 -410.001 95c-125.333 62.667 -236 199 -332 409z" />
    <glyph glyph-name="T" unicode="T" horiz-adv-x="1761" 
d="M762 0v2396h-717v225h1679v-225h-720v-2396h-242z" />
    <glyph glyph-name="U" unicode="U" horiz-adv-x="2253" 
d="M156 2621l237.001 0.000976562v-1716c0 -234.667 61.667 -420.334 185 -557.001c120 -136.667 297.333 -205 532 -205c259.333 0 443.666 63 552.999 189c106.667 122.667 160 313.667 160 573v1716h237v-1638c0 -366 -76.333 -632.333 -229 -799s-393 -250 -721 -250
c-319.333 0 -558.333 91.667 -717 275c-158 182.667 -237 440.667 -237 774v1638z" />
    <glyph glyph-name="V" unicode="V" horiz-adv-x="2089" 
d="M1032 -94l-1020 2715h267l757 -2134l795 2134h262z" />
    <glyph glyph-name="W" unicode="W" horiz-adv-x="3277" 
d="M942 -94l-909 2715h254l655 -2093l696 2192l721 -2175l631 2076h246l-877 -2715l-721 2216z" />
    <glyph glyph-name="X" unicode="X" 
d="M258 0h-254l787 1376l-713 1245h262l590 -1044l594 1044h258l-721 -1237l794 -1384h-262l-667 1159z" />
    <glyph glyph-name="Y" unicode="Y" horiz-adv-x="2007" 
d="M885 0v1204l-869 1417h287l705 -1204l704 1204h270l-860 -1417v-1204h-237z" />
    <glyph glyph-name="Z" unicode="Z" horiz-adv-x="2048" 
d="M33 0l1556 2400h-1327v221h1737l-1548 -2400h1392v-221h-1810z" />
    <glyph glyph-name="bracketleft" unicode="[" horiz-adv-x="942" 
d="M262 2675h524v-172h-311v-3056h311v-180h-524v3408z" />
    <glyph glyph-name="backslash" unicode="\" horiz-adv-x="1516" 
d="M1323 -336l-1282 3011h188l1287 -3011h-193z" />
    <glyph glyph-name="bracketright" unicode="]" horiz-adv-x="942" 
d="M786 2675v-3408h-524v180h311v3056h-311v172h524z" />
    <glyph glyph-name="asciicircum" unicode="^" horiz-adv-x="1434" 
d="M205 1843l381 627h262l381 -627h-164l-344 447l-348 -447h-168z" />
    <glyph glyph-name="underscore" unicode="_" 
d="M4 -713h1831v-147h-1831v147z" />
    <glyph glyph-name="grave" unicode="`" horiz-adv-x="1188" 
d="M942 1843h-172l-508 627h295z" />
    <glyph glyph-name="a" unicode="a" horiz-adv-x="1720" 
d="M827 127c161.333 0 296.668 57.332 406.001 171.999s164 277 164 487c0 191.333 -48 348.333 -144 471c-95.333 123.333 -222.333 185 -381 185c-152.667 0 -282.334 -53.333 -389.001 -160c-106 -109.333 -159 -263.666 -159 -462.999c0 -194 45 -357.833 135 -491.5
s212.667 -200.5 368 -200.5zM1397 -0.000976562v287.001c-131.333 -235.333 -329.333 -353 -594 -353c-224 0 -398.667 78 -524 234c-134 161.333 -201 379.666 -201 654.999c0 224 69.667 418 209 582c133.333 161.333 309.333 242 528 242c284 0 478 -116.333 582 -349
v287h221v-1585h-221z" />
    <glyph glyph-name="b" unicode="b" 
d="M1475 774c0 183.333 -44 340.332 -132 470.999c-87.333 131.333 -232 197 -434 197c-169.333 0 -296.333 -58.667 -381 -176c-87.333 -117.333 -131 -271.666 -131 -462.999c0 -180.667 48 -337.667 144 -471c95.333 -136.667 230.333 -205 405 -205
c191.333 0 328 65.667 410 197c79.333 128 119 278 119 450zM406 -0.000976562h-218v2773h218v-1475c128 229.333 313.667 344 557 344c215.333 0 395.333 -73.667 540 -221c142 -147.333 213 -364.333 213 -651c0 -224 -64 -419.333 -192 -586
c-131.333 -166.667 -317 -250 -557 -250c-259.333 0 -446.333 117.667 -561 353v-287z" />
    <glyph glyph-name="c" unicode="c" horiz-adv-x="1597" 
d="M1470 1294c-163.333 101.333 -332.334 151.999 -507.001 151.999c-191.333 0 -345.666 -60 -462.999 -180c-117.333 -117.333 -176 -282.666 -176 -495.999c0 -194 57.333 -352.333 172 -475c114.667 -120 267.334 -180 458.001 -180c191.333 0 371.666 60 540.999 180
v-242c-191.333 -82 -371.666 -123 -540.999 -123c-254 0 -457.333 69.667 -610 209c-164 158.667 -246 380 -246 664c0 134 26 256.667 78 368c49.333 112 116.333 203.667 201 275c150 134 356 201 618 201c161.333 0 319.666 -35.667 474.999 -107v-246z" />
    <glyph glyph-name="d" unicode="d" horiz-adv-x="1720" 
d="M336 750c0 -172 40.999 -322.332 122.999 -450.999c79.333 -131.333 214.333 -197 405 -197c174.667 0 310 68.333 406 205c95.333 134 143 291 143 471c0 191.333 -42.333 345.666 -127 462.999c-87.333 117.333 -215.666 176 -384.999 176
c-202 0 -346.667 -65.5 -434 -196.5s-131 -287.833 -131 -470.5zM1405 -24.999v287c-114.667 -234.667 -301.667 -352 -561 -352c-240.667 0 -425 83.333 -553 250c-131.333 166.667 -197 361.667 -197 585c0 284 72.333 501.333 217 652c142 147.333 321 221 537 221
c246 0 431.667 -114.667 557 -344v1474h217v-2773h-217z" />
    <glyph glyph-name="e" unicode="e" horiz-adv-x="1679" 
d="M1327 971c-10.667 125.333 -53.001 233 -127.001 323c-76.667 90.667 -199.667 136 -369 136c-283.333 0 -445.666 -153 -486.999 -459h983zM1589 786h-1261c0 -174.667 43.667 -327.334 131 -458.001c84.667 -134 221 -201 409 -201c221.333 0 399 127 533 381l201 -111
c-74 -133.333 -161.667 -243.666 -263 -330.999c-103.333 -88 -257.333 -132 -462 -132c-251.333 0 -445.333 84.667 -582 254c-139.333 166.667 -209 364.667 -209 594c0 262.667 67 473 201 631c133.333 156 323 234 569 234c139.333 0 263.666 -30.333 372.999 -91
c109.333 -62.667 196.666 -158.167 261.999 -286.5s98 -289.5 98 -483.5z" />
    <glyph glyph-name="f" unicode="f" horiz-adv-x="983" 
d="M352 0l-0.000976562 1397h-299v188h299v463v205c0 166.667 16.333 282.667 49 348c33.333 70.667 82.666 124 147.999 160c68 30 136.333 45 205 45c38 0 74.667 -4.33301 110 -13c19.333 -2.66699 41.333 -6.66699 66 -12l49 -12l-37 -193c-8 6 -32.667 14.333 -74 25
c-35.333 10.667 -66.666 16 -93.999 16c-73.333 0 -126.666 -32.667 -159.999 -98c-27.333 -54.667 -41 -165.334 -41 -332v-602h349v-188h-349v-1397h-221z" />
    <glyph glyph-name="g" unicode="g" horiz-adv-x="1720" 
d="M1393 1286v299h221v-1548c0 -554.667 -252.667 -832 -758 -832c-379.333 0 -614 165.333 -704 496h274c57.333 -196.667 206 -295 446 -295c166.667 0 296.667 49.333 390 148c90 98 135 249.333 135 454v271c-128.667 -232.667 -315.667 -349 -561 -349
c-216 0 -395 75.333 -537 226c-144.667 147.333 -217 363 -217 647c0 229.333 65.667 426 197 590c128 163.333 312 245 552 245c260 0 447.333 -117.333 562 -352zM324 799c0 -180.667 45.001 -336.333 135.001 -467c87.333 -134 230.666 -201 429.999 -201
c169.333 0 297.666 60 384.999 180c84.667 120.667 127 273.667 127 459c0 182.667 -48 341 -144 475c-95.333 134 -230.333 201 -405 201c-191.333 0 -326.666 -64.333 -405.999 -193c-81.333 -130.667 -122 -282 -122 -454z" />
    <glyph glyph-name="h" unicode="h" horiz-adv-x="1688" 
d="M172 0l-0.000976562 2773h205v-1434c82 104 157 180.667 225 230c68.667 48.667 178 73 328 73c177.333 0 317.833 -46.333 421.5 -139s155.5 -236 155.5 -430v-1073h-217v975c0 166.667 -31.333 286.667 -94 360c-65.333 74 -171.666 111 -318.999 111
c-325.333 0 -488 -207.667 -488 -623v-823h-217z" />
    <glyph glyph-name="i" unicode="i" horiz-adv-x="614" 
d="M303 2019c-43.333 0 -84.332 16.333 -122.999 49c-35.333 33.333 -53 74.333 -53 123c0 49.333 16.333 90.333 49 123s75 49 127 49c49.333 0 91.666 -15 126.999 -45c30 -35.333 45 -77.666 45 -127c0 -48.667 -16.333 -89.667 -49 -123
c-32.667 -32.667 -73.667 -49 -123 -49zM201.001 0v1585h225v-1585h-225z" />
    <glyph glyph-name="j" unicode="j" horiz-adv-x="614" 
d="M311 2019c-43.333 0 -84.332 16.333 -122.999 49c-35.333 33.333 -53 74.333 -53 123c0 49.333 16.333 90.333 49 123s75 49 127 49c49.333 0 91.666 -15 126.999 -45c30 -35.333 45 -77.666 45 -127c0 -48.667 -16.333 -89.667 -49 -123
c-32.667 -32.667 -73.667 -49 -123 -49zM209.001 -795v2380h225v-2380h-225z" />
    <glyph glyph-name="k" unicode="k" horiz-adv-x="1679" 
d="M197 0v2773h217v-1892l790 704h307l-852 -708l910 -877h-303l-852 819v-819h-217z" />
    <glyph glyph-name="l" unicode="l" horiz-adv-x="532" 
d="M393 0h-225v2773h225v-2773z" />
    <glyph glyph-name="m" unicode="m" horiz-adv-x="2642" 
d="M377 0h-216.999v1585h217v-246c117.333 205.333 279.666 308 486.999 308c104 0 197 -18 279 -54c82 -35.333 157 -121.333 225 -258c142 208 322.333 312 541 312c160.667 0 293 -49.333 397 -148c104 -98 156 -240 156 -426v-1073h-217v983
c0 308.667 -120.333 463 -361 463c-169.333 0 -288 -49.333 -356 -148c-71.333 -100.667 -107 -254.667 -107 -462v-836h-217v983c0 311.333 -121.333 467 -364 467c-172 0 -292.333 -52 -361 -156c-68 -106 -102 -258.667 -102 -458v-836z" />
    <glyph glyph-name="n" unicode="n" horiz-adv-x="1638" 
d="M152 0l0.000976562 1585h204v-246c74 98.667 146.333 174 217 226c68.667 51.333 180.667 77 336 77c213.333 0 363.666 -55.667 450.999 -167c84.667 -114.667 127 -247.334 127 -398.001v-1077h-217v975c0 130.667 -30 242.667 -90 336
c-63.333 90 -171.333 135 -324 135c-180 0 -305.667 -53.333 -377 -160c-73.333 -106.667 -110 -261 -110 -463v-823h-217z" />
    <glyph glyph-name="o" unicode="o" horiz-adv-x="1884" 
d="M1565 786c0 186 -60.333 341.667 -181 467c-120 123.333 -268.667 185 -446 185c-169.333 0 -315.333 -64.333 -438 -193c-123.333 -128 -185 -282.333 -185 -463c0 -182.667 60.333 -337 181 -463c120 -125.333 257.667 -188 413 -188c172 0 325 61.333 459 184
c131.333 120.667 197 277.667 197 471zM74 778c0 156 38.001 300.667 114.001 434c74 134 176.667 239.333 308 316c128 76 271.333 114 430 114c242.667 0 448.667 -76.333 618 -229s254 -361.667 254 -627c0 -262 -87.333 -469.5 -262 -622.5
s-382.334 -229.5 -623.001 -229.5c-232 0 -430 74 -594 222c-163.333 144.667 -245 352 -245 622z" />
    <glyph glyph-name="p" unicode="p" 
d="M1462 807c0 172 -39.668 323.667 -119.001 455c-81.333 128 -217.666 192 -408.999 192c-174.667 0 -310 -67 -406 -201c-95.333 -133.333 -143 -291.666 -143 -474.999c0 -177.333 52 -330.333 156 -459c103.333 -128 230.333 -192 381 -192
c202 0 342.333 68.333 421 205c79.333 133.333 119 291.666 119 474.999zM392.999 1581v-287c114.667 235.333 301.667 353 561 353c240.667 0 426.334 -82 557.001 -246c128.667 -164 193 -360.667 193 -590c0 -194 -32.833 -356.5 -98.5 -487.5
s-153.167 -227.833 -262.5 -290.5c-108.667 -62.667 -226 -94 -352 -94c-147.333 0 -266 28.667 -356 86c-92.667 54 -173.334 140 -242.001 258v-1475h-217v2773h217z" />
    <glyph glyph-name="q" unicode="q" horiz-adv-x="1810" 
d="M344 807c0 -183.333 40.999 -341.666 122.999 -474.999c82 -136.667 221.333 -205 418 -205c150 0 277 64 381 192c103.333 128.667 155 281.667 155 459c0 183.333 -47.667 341.666 -143 474.999c-95.333 134 -230.666 201 -405.999 201
c-190.667 0 -325.667 -64 -405 -192c-82 -131.333 -123 -283 -123 -455zM1413 1581h216.999v-2773h-217v1475c-125.333 -229.333 -324.666 -344 -597.999 -344c-196.667 0 -364.667 75 -504 225s-209 365.667 -209 647c0 229.333 65.667 426 197 590
c128.667 164 313 246 553 246c259.333 0 446.333 -117.667 561 -353v287z" />
    <glyph glyph-name="r" unicode="r" horiz-adv-x="1229" 
d="M909 1642c57.333 0 124.333 -9.33203 201 -27.999l-66 -213c-16 5.33301 -37.667 10.666 -65 15.999c-30 2.66699 -57.333 4 -82 4c-142 0 -258 -64 -348 -192c-90 -126 -135 -276.333 -135 -451v-778h-217v1585h217v-319c87.333 128 166.333 222 237 282
c76.667 62.667 162.667 94 258 94z" />
    <glyph glyph-name="s" unicode="s" horiz-adv-x="1270" 
d="M61 279l209 121.999c24.667 -73.333 72.667 -136 144 -188c70.667 -54.667 147 -82 229 -82c104 0 184.667 23.333 242 70c54.667 43.333 82 96.333 82 159c0 84.667 -28.667 157.334 -86 218.001c-57.333 57.333 -153 107.666 -287 150.999
c-104 38 -186 76.333 -246 115c-60 35.333 -110.333 87 -151 155c-41.333 68.667 -62 149.334 -62 242.001c0 74 22 142.333 66 205c40.667 62.667 100.667 111.667 180 147c79.333 36 172 54 278 54c226.667 0 400.334 -108 521.001 -324l-201 -115
c-68 158.667 -182.667 238 -344 238c-82 0 -146.333 -19 -193 -57c-46 -41.333 -69 -96 -69 -164c0 -74 30 -134.333 90 -181c57.333 -46 155.666 -96.333 294.999 -151c133.333 -49.333 239.666 -116.333 318.999 -201c76.667 -84.667 115 -184.334 115 -299.001
c0 -142 -49.333 -254 -148 -336c-98 -84.667 -233 -127 -405 -127c-131.333 0 -248.666 31.667 -351.999 95c-106.667 62.667 -182 147.334 -226 254.001z" />
    <glyph glyph-name="t" unicode="t" horiz-adv-x="930" 
d="M332 1397h-295v188h295v651h213v-651h323v-188h-323v-1397h-213v1397z" />
    <glyph glyph-name="u" unicode="u" horiz-adv-x="1638" 
d="M365 1585l0.000976562 -815c0 -226.667 36.667 -392 110 -496c71.333 -95.333 184.666 -143 339.999 -143c156 0 272 46.333 348 139c71.333 93.333 107 260 107 500v815h217v-905c0 -270.667 -63 -466 -189 -586c-106 -106.667 -265.667 -160 -479 -160
c-191.333 0 -341.333 44 -450 132c-71.333 62.667 -126 143 -164 241c-38.667 98.667 -58 223 -58 373v905h218z" />
    <glyph glyph-name="v" unicode="v" horiz-adv-x="1516" 
d="M29 1585h241l488 -1200l483 1200h246l-729 -1679z" />
    <glyph glyph-name="w" unicode="w" horiz-adv-x="2335" 
d="M659 -94l-639 1679h234l414 -1147l499 1229l500 -1229l410 1147h229l-631 -1679l-504 1253z" />
    <glyph glyph-name="x" unicode="x" horiz-adv-x="1434" 
d="M57 1585h279l381 -581l393 581h270l-536 -762l590 -823h-275l-442 643l-438 -643h-275l590 823z" />
    <glyph glyph-name="y" unicode="y" horiz-adv-x="1434" 
d="M53 1585h238l454 -1241l418 1241h234l-824 -2380h-229l283 803z" />
    <glyph glyph-name="z" unicode="z" horiz-adv-x="1352" 
d="M25 0l888 1389h-823v196h1204l-880 -1392h909v-193h-1298z" />
    <glyph glyph-name="braceleft" unicode="{" horiz-adv-x="1556" 
d="M1352 2638l-0.000976562 -159.998h-49c-175.333 0 -288.666 -30 -339.999 -90c-57.333 -60 -86 -185.667 -86 -377v-434c0 -182.667 -20.667 -319.334 -62 -410.001c-40.667 -92.667 -136.334 -165 -287.001 -217c144.667 -48.667 239 -122.334 283 -221.001
c44 -95.333 66 -233.333 66 -414v-426c0 -199.333 30 -327.666 90 -384.999c62.667 -57.333 191 -86 385 -86v-151c-273.333 0 -451 42.333 -533 127c-84.667 82 -127 262 -127 540v422c0 199.333 -35.333 334.666 -106 405.999c-71.333 68 -204 102 -398 102h-41v164
c210.667 0 354.334 34 431.001 102c76 66 114 202.667 114 410v426c0 281.333 42.333 464.333 127 549c82 82 259.667 123 533 123z" />
    <glyph glyph-name="bar" unicode="|" horiz-adv-x="1024" 
d="M459 2798h159v-3658h-159v3658z" />
    <glyph glyph-name="braceright" unicode="}" horiz-adv-x="1556" 
d="M147 2638c273.333 0 451.001 -41.002 533.001 -123.002c84.667 -84.667 127 -267.667 127 -549v-426c0 -207.333 38.333 -344 115 -410c76 -68 219.333 -102 430 -102v-164h-41c-194 0 -326.667 -34 -398 -102c-70.667 -71.333 -106 -206.666 -106 -405.999v-422
c0 -278 -42.333 -458 -127 -540c-82 -84.667 -259.667 -127 -533 -127v151c196.667 0 325 28.667 385 86c60.667 57.333 91 185.666 91 384.999v426c0 180.667 21.667 318.667 65 414c46.667 98.667 141 172.334 283 221.001c-150.667 52 -246.334 124.333 -287.001 217
c-40.667 90.667 -61 227.334 -61 410.001v434c0 191.333 -28.667 317 -86 377c-52 60 -165.333 90 -340 90h-50v160z" />
    <glyph glyph-name="asciitilde" unicode="~" horiz-adv-x="1475" 
d="M967 1991c-41.333 0 -109.666 12.333 -204.999 37c-101.333 21.333 -161.333 32 -180 32c-33.333 0 -66.333 -6.66699 -99 -20c-27.333 -16.667 -51.666 -44 -72.999 -82h-156c27.333 114.667 69.666 195.334 126.999 242c54.667 46 116 69 184 69
c46.667 0 120.334 -12.333 221.001 -37c104 -24.667 163 -37 177 -37c43.333 0 78.666 8.33301 105.999 25c24.667 16.667 48 48 70 94h155c-40.667 -120 -88.334 -203.333 -143.001 -250c-52 -48.667 -113.333 -73 -184 -73z" />
    <glyph glyph-name="Agrave" horiz-adv-x="795" 
d="M676 1405v-242l-361 -319l361 -316v-258l-553 475v181z" />
    <glyph glyph-name="quoteleft" horiz-adv-x="791" 
d="M557 1765h-343.999v275c0 169.333 26 293.666 78 373c49.333 81.333 138 142.666 266 184v-156c-62.667 -24.667 -106.334 -58.667 -131.001 -102c-27.333 -44 -41 -108.333 -41 -193v-61h172v-320z" />
    <glyph glyph-name="quoteright" horiz-adv-x="791" 
d="M213 2601l344 -0.000976562v-274c0 -169.333 -26 -293.666 -78 -372.999c-48.667 -82 -137.334 -143.667 -266.001 -185v156c62.667 24.667 106.334 59 131.001 103c27.333 43.333 41 107.333 41 192v61h-172v320z" />
    <glyph glyph-name="quotedblleft" horiz-adv-x="1364" 
d="M1147 1765h-344v275c0 172 25.833 297.5 77.5 376.5s140.5 139.167 266.5 180.5v-156c-60 -24.667 -99.667 -58.667 -119 -102c-24.667 -44 -37 -108.333 -37 -193v-61h156v-320zM557 1765h-343.999v275c0 169.333 26 293.666 78 373c49.333 81.333 138 142.666 266 184
v-156c-62.667 -24.667 -106.334 -58.667 -131.001 -102c-27.333 -44 -41 -108.333 -41 -193v-61h172v-320z" />
    <glyph glyph-name="quotedblright" horiz-adv-x="1364" 
d="M213 2601h344v-274c0 -172.667 -26 -298.5 -78 -377.5s-140.667 -139.167 -266 -180.5v156c60 24.667 99.667 59 119 103c24.667 46 37 110 37 192v61h-156v320zM803 2601l343.999 -0.000976562v-274c0 -169.333 -26 -293.666 -78 -372.999
c-49.333 -82 -138 -143.667 -266 -185v156c62.667 24.667 106.334 59 131.001 103c27.333 43.333 41 107.333 41 192v61h-172v320z" />
    <glyph glyph-name="_extra1" horiz-adv-x="1475" 
d="M209 0v2621h242v-2400h897v-221h-1139z" />
    <glyph glyph-name="endash" horiz-adv-x="983" 
d="M139 721v192h721v-192h-721z" />
    <glyph glyph-name="emdash" horiz-adv-x="2122" 
d="M127 532v193h1860v-193h-1860z" />
    <glyph glyph-name="_extra2" horiz-adv-x="1270" 
d="M61 279l209 121.999c24.667 -73.333 72.667 -136 144 -188c70.667 -54.667 147 -82 229 -82c104 0 184.667 23.333 242 70c54.667 43.333 82 96.333 82 159c0 84.667 -28.667 157.334 -86 218.001c-57.333 57.333 -153 107.666 -287 150.999
c-104 38 -186 76.333 -246 115c-60 35.333 -110.333 87 -151 155c-41.333 68.667 -62 149.334 -62 242.001c0 74 22 142.333 66 205c40.667 62.667 100.667 111.667 180 147c79.333 36 172 54 278 54c226.667 0 400.334 -108 521.001 -324l-201 -115
c-68 158.667 -182.667 238 -344 238c-82 0 -146.333 -19 -193 -57c-46 -41.333 -69 -96 -69 -164c0 -74 30 -134.333 90 -181c57.333 -46 155.666 -96.333 294.999 -151c133.333 -49.333 239.666 -116.333 318.999 -201c76.667 -84.667 115 -184.334 115 -299.001
c0 -142 -49.333 -254 -148 -336c-98 -84.667 -233 -127 -405 -127c-131.333 0 -248.666 31.667 -351.999 95c-106.667 62.667 -182 147.334 -226 254.001z" />
    <glyph glyph-name="trademark" horiz-adv-x="2458" 
d="M426 1221v1216h-360v115h852v-115h-369v-1216h-123zM1729 1171l-467 1065l-99 -1015h-127l181 1388l512 -1188l528 1188l172 -1388h-127l-98 1015z" />
    <glyph glyph-name="Atilde" horiz-adv-x="795" 
d="M127 1405l553 -479v-181l-553 -475v258l360 316l-360 319v242z" />
    <glyph glyph-name="ydieresis" unicode="&#xa1;" horiz-adv-x="1925" 
d="M573 2925h795v-132h-795v132zM958 1049l648 1572h237l-1089 -2625l-246 4l328 770l-770 1851h249z" />
    <glyph glyph-name="ydieresis" unicode="&#x40e;" horiz-adv-x="1925" 
d="M573 2925h795v-132h-795v132zM958 1049l648 1572h237l-1089 -2625l-246 4l328 770l-770 1851h249z" />
    <glyph glyph-name="Ydieresis" unicode="&#xa2;" horiz-adv-x="1434" 
d="M319 1892h795v-127h-795v127zM41 1585h238l454 -1241l418 1241h233l-823 -2380h-229l282 803z" />
    <glyph glyph-name="Ydieresis" unicode="&#x45e;" horiz-adv-x="1434" 
d="M319 1892h795v-127h-795v127zM41 1585h238l454 -1241l418 1241h233l-823 -2380h-229l282 803z" />
    <glyph glyph-name="lozenge" unicode="&#xa3;" horiz-adv-x="1364" 
d="M254 315h344v-274c0 -172 -26 -297.667 -78 -377s-140.667 -139.333 -266 -180v156c60 24 99.667 58 119 102c24.667 43.333 37 107.333 37 192v62h-156v319zM844 315l343.999 -0.000976562v-274c0 -169.333 -26 -293.666 -78 -372.999
c-49.333 -82 -138 -143.333 -266 -184v156c62.667 24 106.334 58 131.001 102c27.333 43.333 41 107.333 41 192v62h-172v319z" />
    <glyph glyph-name="lozenge" unicode="&#x408;" horiz-adv-x="1364" 
d="M254 315h344v-274c0 -172 -26 -297.667 -78 -377s-140.667 -139.333 -266 -180v156c60 24 99.667 58 119 102c24.667 43.333 37 107.333 37 192v62h-156v319zM844 315l343.999 -0.000976562v-274c0 -169.333 -26 -293.666 -78 -372.999
c-49.333 -82 -138 -143.333 -266 -184v156c62.667 24 106.334 58 131.001 102c27.333 43.333 41 107.333 41 192v62h-172v319z" />
    <glyph glyph-name="caron" unicode="&#xa4;" horiz-adv-x="1966" 
d="M401 1147c0 -158.667 56 -293.999 168 -405.999c112 -114.667 246 -172 402 -172c158 0 294.333 57.333 409 172c112 112 168 247.333 168 406c0 155.333 -56 291.666 -168 408.999c-108.667 115.333 -245 173 -409 173c-156 0 -290 -56 -402 -168
c-112 -118 -168 -256 -168 -414zM74 365.001l302.999 302.999c-114.667 160.667 -172 321.667 -172 483c0 150 57.333 307 172 471l-311 307l122 119l308 -307c76 54.667 156.333 98.334 241 131.001c74 24.667 154.667 37 242 37c84.667 0 162.334 -11 233.001 -33
c66 -24.667 144 -69.667 234 -135l319 307l115 -119l-307 -307c112 -152.667 168 -311 168 -475c0 -84.667 -11 -162.667 -33 -234c-19.333 -65.333 -63 -147 -131 -245l307 -303l-115 -123l-311 311c-142 -114.667 -304.333 -172 -487 -172
c-150.667 0 -307.667 57.333 -471 172l-307 -311z" />
    <glyph glyph-name="brokenbar" unicode="&#xa6;" horiz-adv-x="1024" 
d="M459 2798h159v-3658h-159v3658z" />
    <glyph glyph-name="section" unicode="&#xa7;" horiz-adv-x="1802" 
d="M307 1286c0 -125.333 94.333 -244 283 -356c16 -8 76 -43.667 180 -107l201 -123l209 -135c188 62.667 282 176 282 340c0 139.333 -102.333 269 -307 389l-364 217l-209 123c-183.333 -82 -275 -198 -275 -348zM1507 1999l-233 0.000976562
c0 139.333 -34.333 244.333 -103 315c-68 74 -163.333 111 -286 111c-114.667 0 -203.667 -26 -267 -78c-65.333 -52 -98 -124.333 -98 -217c0 -74 23.333 -138.333 70 -193c46 -51.333 140 -116.666 282 -195.999c235.333 -131.333 370.666 -208 405.999 -230
c281.333 -174.667 422 -372.334 422 -593.001c0 -218.667 -120.333 -381.334 -361 -488.001c46.667 -24.667 90.334 -71 131.001 -139c38.667 -68.667 58 -149.334 58 -242.001c0 -155.333 -58.667 -282.333 -176 -381c-117.333 -98 -267.666 -147 -450.999 -147
c-212.667 0 -377.667 56 -495 168c-115.333 109.333 -173 273 -173 491h246c0 -300 140.667 -450 422 -450c109.333 0 199.333 27.333 270 82c71.333 54.667 107 125.667 107 213c0 138.667 -99.667 267 -299 385c-24.667 13.333 -113.334 65 -266.001 155
c-156 87.333 -264 153 -324 197c-210 152.667 -315 323.334 -315 512.001c0 112 32.667 213 98 303c68 92.667 155.333 156.667 262 192c-106.667 106.667 -160 223 -160 349c0 155.333 57.333 279.333 172 372c112 96 259.667 144 443 144
c204.667 0 357.667 -54.667 459 -164c106 -109.333 159 -266.333 159 -471z" />
    <glyph glyph-name="guilsinglright" unicode="&#xa8;" horiz-adv-x="1638" 
d="M614 2802c-48.667 0 -89.499 16.333 -122.499 49s-49.5 73.667 -49.5 123c0 48.667 16.5 89.5 49.5 122.5s73.833 49.5 122.5 49.5c49.333 0 91.666 -15 126.999 -45c33.333 -27.333 50 -69.666 50 -127c0 -49.333 -16.667 -90.333 -50 -123
c-32.667 -32.667 -75 -49 -127 -49zM1098 2802c-44 0 -85 16.333 -123 49c-35.333 32.667 -53 73.667 -53 123c0 48.667 16.333 89.5 49 122.5s75 49.5 127 49.5c48.667 0 91 -15 127 -45c30 -36 45 -78.333 45 -127c0 -49.333 -16.5 -90.333 -49.5 -123
s-73.833 -49 -122.5 -49zM193.001 0v2621h1298v-225h-1057v-819h1057v-225h-1057v-1131h1057v-221h-1298z" />
    <glyph glyph-name="guilsinglright" unicode="&#x401;" horiz-adv-x="1638" 
d="M614 2802c-48.667 0 -89.499 16.333 -122.499 49s-49.5 73.667 -49.5 123c0 48.667 16.5 89.5 49.5 122.5s73.833 49.5 122.5 49.5c49.333 0 91.666 -15 126.999 -45c33.333 -27.333 50 -69.666 50 -127c0 -49.333 -16.667 -90.333 -50 -123
c-32.667 -32.667 -75 -49 -127 -49zM1098 2802c-44 0 -85 16.333 -123 49c-35.333 32.667 -53 73.667 -53 123c0 48.667 16.333 89.5 49 122.5s75 49.5 127 49.5c48.667 0 91 -15 127 -45c30 -36 45 -78.333 45 -127c0 -49.333 -16.5 -90.333 -49.5 -123
s-73.833 -49 -122.5 -49zM193.001 0v2621h1298v-225h-1057v-819h1057v-225h-1057v-1131h1057v-221h-1298z" />
    <glyph glyph-name="copyright" unicode="&#xa9;" horiz-adv-x="2867" 
d="M221 1323c0 -333.333 120.333 -623.999 361 -871.999c237.333 -243.333 524 -365 860 -365s622.667 120 860 360c237.333 243.333 356 535.666 356 876.999s-118.667 632 -356 872c-237.333 240.667 -524 361 -860 361c-333.333 0 -620 -120.333 -860 -361
c-240.667 -240 -361 -530.667 -361 -872zM2806 1323c0 -374 -133.999 -695 -401.999 -963c-267.333 -267.333 -588 -401 -962 -401c-380 0 -702.333 132.333 -967 397c-267.333 268 -401 590.333 -401 967s133.667 699 401 967c268 267.333 590.333 401 967 401
c379.333 0 701.333 -132.333 965.999 -397c265.333 -265.333 398 -589 398 -971zM1446 512.001c-218.667 0 -399.003 74.9971 -541.003 224.997c-142 150.667 -213 343.334 -213 578.001c0 248.667 71 448 213 598c144.667 152.667 326.334 229 545.001 229
c191.333 0 351 -50.333 479 -151c131.333 -101.333 205 -232.666 221 -393.999h-147c-30 126 -91.333 223 -184 291c-101.333 71.333 -224.333 107 -369 107c-172 0 -311.333 -61.667 -418 -185c-109.333 -125.333 -164 -290.333 -164 -495c0 -194 53.333 -351 160 -471
s247.334 -180 422.001 -180c164 0 296.333 45 397 135c104 90 165.667 214 185 372h143c0 -193.333 -69.667 -351.666 -209 -474.999c-139.333 -122.667 -312.666 -184 -519.999 -184z" />
    <glyph glyph-name="guillemotleft" unicode="&#xab;" horiz-adv-x="1393" 
d="M1274 1405v-242l-361 -319l361 -316v-258l-553 475v181zM664 1405v-242l-357 -319l357 -316v-258l-545 475v181z" />
    <glyph glyph-name="logicalnot" unicode="&#xac;" horiz-adv-x="1638" 
d="M1315 0v705h-1196v184h1397v-889h-201z" />
    <glyph glyph-name="softhyphen" unicode="&#xad;" 
d="M4 -713h1831v-147h-1831v147z" />
    <glyph glyph-name="registered" unicode="&#xae;" horiz-adv-x="2908" 
d="M238 1327c0 -341.333 120 -632.001 360 -872.001c243.333 -243.333 531.333 -365 864 -365c336 0 625.667 121.667 869 365c237.333 242.667 356 533.334 356 872.001c0 344 -118.833 636.167 -356.5 876.5s-527.167 360.5 -868.5 360.5
c-336 0 -624 -120.167 -864 -360.5s-360 -532.5 -360 -876.5zM2834 1327c0 -376.667 -133.668 -699 -401.001 -967c-267.333 -267.333 -591 -401 -971 -401c-376.667 0 -698.667 133.667 -966 401c-268 268 -402 590.333 -402 967c0 382.667 133.833 707.667 401.5 975
s589.834 401 966.501 401c380 0 703.667 -133.667 971 -401s401 -592.333 401 -975zM1049 1978v-635h413c300.667 0 451 106.667 451 320c0 210 -138 315 -414 315h-450zM876.999 2101l655 -0.00195312c180 0 316.667 -36.667 410 -110c95.333 -74 143 -180.667 143 -320
c0 -188 -95.667 -316.333 -287 -385c161.333 -49.333 247.333 -177.666 258 -384.999c11.333 -207.333 29 -331.666 53 -372.999h-176c-18.667 30 -28 86 -28 168c0 218.667 -20.667 362 -62 430c-40.667 68.667 -169 103 -385 103h-409v-701h-172v1573z" />
    <glyph glyph-name="integral" unicode="&#xaf;" horiz-adv-x="1098" 
d="M406 0v2621h237v-2621h-237zM307 2753c-43.333 0 -84.332 16.333 -122.999 49c-35.333 32.667 -53 73.667 -53 123c0 48.667 16.333 89.334 49 122c32.667 33.333 75 50 127 50c49.333 0 91.666 -15 126.999 -45c30 -36 45 -78.333 45 -127
c0 -49.333 -16.333 -90.333 -49 -123s-73.667 -49 -123 -49zM786.001 2753c-43.333 0 -83.999 16.333 -121.999 49c-36 32.667 -54 73.667 -54 123c0 48.667 16.333 89.334 49 122c33.333 33.333 75.666 50 126.999 50c114.667 0 172 -57.333 172 -172
s-57.333 -172 -172 -172z" />
    <glyph glyph-name="integral" unicode="&#x407;" horiz-adv-x="1098" 
d="M406 0v2621h237v-2621h-237zM307 2753c-43.333 0 -84.332 16.333 -122.999 49c-35.333 32.667 -53 73.667 -53 123c0 48.667 16.333 89.334 49 122c32.667 33.333 75 50 127 50c49.333 0 91.666 -15 126.999 -45c30 -36 45 -78.333 45 -127
c0 -49.333 -16.333 -90.333 -49 -123s-73.667 -49 -123 -49zM786.001 2753c-43.333 0 -83.999 16.333 -121.999 49c-36 32.667 -54 73.667 -54 123c0 48.667 16.333 89.334 49 122c33.333 33.333 75.666 50 126.999 50c114.667 0 172 -57.333 172 -172
s-57.333 -172 -172 -172z" />
    <glyph glyph-name="degree" unicode="&#xb0;" horiz-adv-x="1270" 
d="M614 2466c-114.667 0 -211.333 -40.999 -290 -122.999c-79.333 -84.667 -119 -185.667 -119 -303c0 -104 41 -199.667 123 -287c78.667 -82 172.667 -123 282 -123c112 0 210.333 39.667 295 119c82 79.333 123 177.666 123 294.999c0 120 -39.667 219.667 -119 299
c-82 82 -180.333 123 -295 123zM614.001 1503c-144.667 0 -269.999 53.334 -375.999 160.001c-109.333 101.333 -164 225.666 -164 372.999c0 152.667 51.667 283.667 155 393c104 106.667 232.333 160 385 160c153.333 0 281.666 -52 384.999 -156
c104 -104 156 -233.667 156 -389c0 -150 -52 -277 -156 -381c-106 -106.667 -234.333 -160 -385 -160z" />
    <glyph glyph-name="plusminus" unicode="&#xb1;" horiz-adv-x="1679" 
d="M102 324h1475v-123h-1475v123zM102 1212h672v635h127v-635h676v-118h-676v-623h-127v623h-672v118z" />
    <glyph glyph-name="germandbls" unicode="&#xb2;" horiz-adv-x="1098" 
d="M406 0v2621h237v-2621h-237zM520 2753c-117.333 0 -176 57.333 -176 172s58.667 172 176 172c52 0 94.333 -13.667 127 -41c30 -30 45 -73.667 45 -131c0 -46.667 -16.333 -86.334 -49 -119c-35.333 -35.333 -76.333 -53 -123 -53z" />
    <glyph glyph-name="germandbls" unicode="&#x406;" horiz-adv-x="1098" 
d="M406 0v2621h237v-2621h-237zM520 2753c-117.333 0 -176 57.333 -176 172s58.667 172 176 172c52 0 94.333 -13.667 127 -41c30 -30 45 -73.667 45 -131c0 -46.667 -16.333 -86.334 -49 -119c-35.333 -35.333 -76.333 -53 -123 -53z" />
    <glyph glyph-name="threesuperior" unicode="&#xb3;" horiz-adv-x="614" 
d="M303 2019c-43.333 0 -84.332 16.333 -122.999 49c-35.333 33.333 -53 74.333 -53 123c0 49.333 16.333 90.333 49 123s75 49 127 49c49.333 0 91.666 -15 126.999 -45c30 -35.333 45 -77.666 45 -127c0 -48.667 -16.333 -89.667 -49 -123
c-32.667 -32.667 -73.667 -49 -123 -49zM201.001 0v1585h225v-1585h-225z" />
    <glyph glyph-name="threesuperior" unicode="&#x456;" horiz-adv-x="614" 
d="M303 2019c-43.333 0 -84.332 16.333 -122.999 49c-35.333 33.333 -53 74.333 -53 123c0 49.333 16.333 90.333 49 123s75 49 127 49c49.333 0 91.666 -15 126.999 -45c30 -35.333 45 -77.666 45 -127c0 -48.667 -16.333 -89.667 -49 -123
c-32.667 -32.667 -73.667 -49 -123 -49zM201.001 0v1585h225v-1585h-225z" />
    <glyph glyph-name="acute.0" unicode="&#xb4;" horiz-adv-x="791" 
d="M213 2601l344 -0.000976562v-274c0 -169.333 -26 -293.666 -78 -372.999c-48.667 -82 -137.334 -143.667 -266.001 -185v156c62.667 24.667 106.334 59 131.001 103c27.333 43.333 41 107.333 41 192v61h-172v320z" />
    <glyph glyph-name="acute.0" unicode="&#x491;" horiz-adv-x="791" 
d="M213 2601l344 -0.000976562v-274c0 -169.333 -26 -293.666 -78 -372.999c-48.667 -82 -137.334 -143.667 -266.001 -185v156c62.667 24.667 106.334 59 131.001 103c27.333 43.333 41 107.333 41 192v61h-172v320z" />
    <glyph glyph-name="paragraph" unicode="&#xb6;" horiz-adv-x="1884" 
d="M852 -438v1659c-232 0 -420.333 58.667 -565 176c-150.667 117.333 -226 288 -226 512c0 240 79.333 417.333 238 532c161.333 114.667 363.333 172 606 172h914v-119h-238v-2932h-147v2932h-435v-2932h-147z" />
    <glyph glyph-name="bullet" unicode="&#xb7;" horiz-adv-x="1630" 
d="M360 1393c0 133.333 46.666 245.333 139.999 336c92.667 87.333 201.667 131 327 131c82 0 161.333 -20.667 238 -62c70.667 -38 129.334 -94 176.001 -168c41.333 -73.333 62 -152.333 62 -237c0 -126 -46.667 -235.333 -140 -328
c-92.667 -92.667 -204.667 -139 -336 -139c-125.333 0 -234.5 46.333 -327.5 139s-139.5 202 -139.5 328z" />
    <glyph glyph-name="fi" unicode="&#xb8;" horiz-adv-x="1679" 
d="M1098 2019c-49.333 0 -90.333 16.333 -123 49c-32.667 33.333 -49 74.333 -49 123c0 49.333 16.333 90.333 49 123s73.667 49 123 49c48.667 0 91 -15 127 -45c32.667 -27.333 49 -69.666 49 -127c0 -48.667 -16.333 -89.667 -49 -123c-32.667 -32.667 -75 -49 -127 -49z
M578 2019c-44 0 -84.999 16.333 -122.999 49c-36 33.333 -54 74.333 -54 123c0 49.333 16.5 90.333 49.5 123s75.5 49 127.5 49c48.667 0 91 -15 127 -45c30 -35.333 45 -77.666 45 -127c0 -48.667 -16.667 -89.667 -50 -123c-32.667 -32.667 -73.334 -49 -122.001 -49z
M1327 971c-10.667 125.333 -53.001 233 -127.001 323c-76.667 90.667 -199.667 136 -369 136c-283.333 0 -445.666 -153 -486.999 -459h983zM1589 786h-1261c0 -174.667 43.667 -327.334 131 -458.001c84.667 -134 221 -201 409 -201c221.333 0 399 127 533 381l201 -111
c-74 -133.333 -161.667 -243.666 -263 -330.999c-103.333 -88 -257.333 -132 -462 -132c-251.333 0 -445.333 84.667 -582 254c-139.333 166.667 -209 364.667 -209 594c0 262.667 67 473 201 631c133.333 156 323 234 569 234c139.333 0 263.666 -30.333 372.999 -91
c109.333 -62.667 196.666 -158.167 261.999 -286.5s98 -289.5 98 -483.5z" />
    <glyph glyph-name="fi" unicode="&#x451;" horiz-adv-x="1679" 
d="M1098 2019c-49.333 0 -90.333 16.333 -123 49c-32.667 33.333 -49 74.333 -49 123c0 49.333 16.333 90.333 49 123s73.667 49 123 49c48.667 0 91 -15 127 -45c32.667 -27.333 49 -69.666 49 -127c0 -48.667 -16.333 -89.667 -49 -123c-32.667 -32.667 -75 -49 -127 -49z
M578 2019c-44 0 -84.999 16.333 -122.999 49c-36 33.333 -54 74.333 -54 123c0 49.333 16.5 90.333 49.5 123s75.5 49 127.5 49c48.667 0 91 -15 127 -45c30 -35.333 45 -77.666 45 -127c0 -48.667 -16.667 -89.667 -50 -123c-32.667 -32.667 -73.334 -49 -122.001 -49z
M1327 971c-10.667 125.333 -53.001 233 -127.001 323c-76.667 90.667 -199.667 136 -369 136c-283.333 0 -445.666 -153 -486.999 -459h983zM1589 786h-1261c0 -174.667 43.667 -327.334 131 -458.001c84.667 -134 221 -201 409 -201c221.333 0 399 127 533 381l201 -111
c-74 -133.333 -161.667 -243.666 -263 -330.999c-103.333 -88 -257.333 -132 -462 -132c-251.333 0 -445.333 84.667 -582 254c-139.333 166.667 -209 364.667 -209 594c0 262.667 67 473 201 631c133.333 156 323 234 569 234c139.333 0 263.666 -30.333 372.999 -91
c109.333 -62.667 196.666 -158.167 261.999 -286.5s98 -289.5 98 -483.5z" />
    <glyph glyph-name="guilsinglleft" unicode="&#xb9;" horiz-adv-x="3891" 
d="M233 0v2732l1856 -2200v2089h221v-2695l-1851 2192v-2118h-226zM3170 2466c-114.667 0 -211.667 -40.999 -291 -122.999c-78.667 -84.667 -118 -185.667 -118 -303c0 -104 41 -199.667 123 -287c78.667 -82 172.667 -123 282 -123c112 0 210.333 39.667 295 119
c82 79.333 123 177.666 123 294.999c0 120 -39.667 219.667 -119 299c-82 82 -180.333 123 -295 123zM3170 1503c-144.667 0 -270.334 53.334 -377 160.001c-108.667 101.333 -163 225.666 -163 372.999c0 152.667 51.667 283.667 155 393c104 106.667 232.333 160 385 160
c153.333 0 281.666 -52 385 -156c104 -104 156 -233.667 156 -389c0 -150 -52 -277 -156 -381c-106 -106.667 -234.333 -160 -385 -160zM2638 1253h1081v-131h-1081v131z" />
    <glyph glyph-name="guilsinglleft" unicode="&#x2116;" horiz-adv-x="3891" 
d="M233 0v2732l1856 -2200v2089h221v-2695l-1851 2192v-2118h-226zM3170 2466c-114.667 0 -211.667 -40.999 -291 -122.999c-78.667 -84.667 -118 -185.667 -118 -303c0 -104 41 -199.667 123 -287c78.667 -82 172.667 -123 282 -123c112 0 210.333 39.667 295 119
c82 79.333 123 177.666 123 294.999c0 120 -39.667 219.667 -119 299c-82 82 -180.333 123 -295 123zM3170 1503c-144.667 0 -270.334 53.334 -377 160.001c-108.667 101.333 -163 225.666 -163 372.999c0 152.667 51.667 283.667 155 393c104 106.667 232.333 160 385 160
c153.333 0 281.666 -52 385 -156c104 -104 156 -233.667 156 -389c0 -150 -52 -277 -156 -381c-106 -106.667 -234.333 -160 -385 -160zM2638 1253h1081v-131h-1081v131z" />
    <glyph glyph-name="guillemotright" unicode="&#xbb;" horiz-adv-x="1393" 
d="M119 1405l553 -479v-181l-553 -475v258l360 316l-360 319v242zM729 1405l545 -479v-181l-545 -475v258l356 316l-356 319v242z" />
    <glyph glyph-name="divide" unicode="&#xbc;" horiz-adv-x="1761" 
d="M1126 512c0 -32.667 -12.166 -61.335 -36.499 -86.002s-52.833 -37 -85.5 -37c-30.667 0 -58.167 12.333 -82.5 37s-36.5 53.334 -36.5 86.001s12.333 61.334 37 86.001c21.333 22 48.666 33 81.999 33c30 0 58.667 -11 86 -33c24 -19.333 36 -48 36 -86zM1126 1778
c0 -32.667 -10.668 -60 -32.001 -82c-24.667 -24.667 -54.667 -37 -90 -37c-33.333 0 -60.666 12.333 -81.999 37c-24.667 22 -37 49.333 -37 82c0 30 11 58.667 33 86c21.333 24.667 50 37 86 37c32.667 0 62.667 -11 90 -33c21.333 -27.333 32 -57.333 32 -90zM242 1208
h1523v-127h-1523v127z" />
    <glyph glyph-name="divide" unicode="&#x458;" horiz-adv-x="1761" 
d="M1126 512c0 -32.667 -12.166 -61.335 -36.499 -86.002s-52.833 -37 -85.5 -37c-30.667 0 -58.167 12.333 -82.5 37s-36.5 53.334 -36.5 86.001s12.333 61.334 37 86.001c21.333 22 48.666 33 81.999 33c30 0 58.667 -11 86 -33c24 -19.333 36 -48 36 -86zM1126 1778
c0 -32.667 -10.668 -60 -32.001 -82c-24.667 -24.667 -54.667 -37 -90 -37c-33.333 0 -60.666 12.333 -81.999 37c-24.667 22 -37 49.333 -37 82c0 30 11 58.667 33 86c21.333 24.667 50 37 86 37c32.667 0 62.667 -11 90 -33c21.333 -27.333 32 -57.333 32 -90zM242 1208
h1523v-127h-1523v127z" />
    <glyph glyph-name="dieresis" unicode="&#xbd;" horiz-adv-x="1434" 
d="M156 1794l544 -549l557 557l86 -94l-557 -553l557 -549l-86 -90l-552 557l-549 -557l-90 90l548 553l-544 545z" />
    <glyph glyph-name="dieresis" unicode="&#x405;" horiz-adv-x="1434" 
d="M156 1794l544 -549l557 557l86 -94l-557 -553l557 -549l-86 -90l-552 557l-549 -557l-90 90l548 553l-544 545z" />
    <glyph glyph-name="ellipsis" unicode="&#xbe;" horiz-adv-x="1819" 
d="M528 0h-344v315h344v-315zM1090 0h-345v315h345v-315zM1651 0h-344v315h344v-315z" />
    <glyph glyph-name="ellipsis" unicode="&#x455;" horiz-adv-x="1819" 
d="M528 0h-344v315h344v-315zM1090 0h-345v315h345v-315zM1651 0h-344v315h344v-315z" />
    <glyph glyph-name="ordfeminine" unicode="&#xbf;" horiz-adv-x="1065" 
d="M406 0v1585h225v-1585h-225zM307 2019c-43.333 0 -84.332 16.333 -122.999 49c-35.333 33.333 -53 74.333 -53 123c0 49.333 16.333 90.333 49 123s75 49 127 49c49.333 0 91.666 -15 126.999 -45c30 -35.333 45 -77.666 45 -127c0 -48.667 -16.333 -89.667 -49 -123
c-32.667 -32.667 -73.667 -49 -123 -49zM762.001 2019c-49.333 0 -90.332 16.333 -122.999 49c-32.667 33.333 -49 74.333 -49 123c0 49.333 16.333 90.333 49 123s73.667 49 123 49s91.666 -15 126.999 -45c32.667 -27.333 49 -69.666 49 -127
c0 -48.667 -16.333 -89.667 -49 -123c-32.667 -32.667 -75 -49 -127 -49z" />
    <glyph glyph-name="ordfeminine" unicode="&#x457;" horiz-adv-x="1065" 
d="M406 0v1585h225v-1585h-225zM307 2019c-43.333 0 -84.332 16.333 -122.999 49c-35.333 33.333 -53 74.333 -53 123c0 49.333 16.333 90.333 49 123s75 49 127 49c49.333 0 91.666 -15 126.999 -45c30 -35.333 45 -77.666 45 -127c0 -48.667 -16.333 -89.667 -49 -123
c-32.667 -32.667 -73.667 -49 -123 -49zM762.001 2019c-49.333 0 -90.332 16.333 -122.999 49c-32.667 33.333 -49 74.333 -49 123c0 49.333 16.333 90.333 49 123s73.667 49 123 49s91.666 -15 126.999 -45c32.667 -27.333 49 -69.666 49 -127
c0 -48.667 -16.333 -89.667 -49 -123c-32.667 -32.667 -75 -49 -127 -49z" />
    <glyph glyph-name="Adieresis" unicode="&#xc0;" horiz-adv-x="2286" 
d="M1139 2232l-463 -1142h913zM12 0l1147 2720l1098 -2720h-254l-340 885h-1069l-348 -885h-234z" />
    <glyph glyph-name="Adieresis" unicode="&#x410;" horiz-adv-x="2286" 
d="M1139 2232l-463 -1142h913zM12 0l1147 2720l1098 -2720h-254l-340 885h-1069l-348 -885h-234z" />
    <glyph glyph-name="Aring" unicode="&#xc1;" 
d="M762 1466c633.333 0 950 -236 950 -708c0 -505.333 -311.333 -758 -934 -758h-569v2621h1257v-233h-1015v-922h311zM795 201c444.667 0 667.001 174.667 667.001 524c0 199.333 -51.833 335.833 -155.5 409.5s-279.834 110.5 -528.501 110.5h-327v-1044h344z" />
    <glyph glyph-name="Aring" unicode="&#x411;" 
d="M762 1466c633.333 0 950 -236 950 -708c0 -505.333 -311.333 -758 -934 -758h-569v2621h1257v-233h-1015v-922h311zM795 201c444.667 0 667.001 174.667 667.001 524c0 199.333 -51.833 335.833 -155.5 409.5s-279.834 110.5 -528.501 110.5h-327v-1044h344z" />
    <glyph glyph-name="Ccedilla" unicode="&#xc2;" 
d="M209 0v2621h668c234.667 0 412 -53.167 532 -159.5s180 -281.166 180 -524.5c0 -294.667 -133.667 -481.667 -401 -561c150 -22 275.667 -86 377 -192c98 -109.333 147 -251.333 147 -426c0 -505.333 -280 -758 -840 -758h-663zM451 1442h352c360 0 540 162.333 540 487
c0 319.333 -166.333 479 -499 479h-393v-966zM795 201c245.333 0 418.667 44.999 520 134.999c98 87.333 147 217 147 389c0 188.667 -47.667 322.334 -143 401.001c-95.333 79.333 -256.333 119 -483 119h-385v-1044h344z" />
    <glyph glyph-name="Ccedilla" unicode="&#x412;" 
d="M209 0v2621h668c234.667 0 412 -53.167 532 -159.5s180 -281.166 180 -524.5c0 -294.667 -133.667 -481.667 -401 -561c150 -22 275.667 -86 377 -192c98 -109.333 147 -251.333 147 -426c0 -505.333 -280 -758 -840 -758h-663zM451 1442h352c360 0 540 162.333 540 487
c0 319.333 -166.333 479 -499 479h-393v-966zM795 201c245.333 0 418.667 44.999 520 134.999c98 87.333 147 217 147 389c0 188.667 -47.667 322.334 -143 401.001c-95.333 79.333 -256.333 119 -483 119h-385v-1044h344z" />
    <glyph glyph-name="Eacute" unicode="&#xc3;" horiz-adv-x="1516" 
d="M233 0v2621h1160v-229h-918v-2392h-242z" />
    <glyph glyph-name="Eacute" unicode="&#x413;" horiz-adv-x="1516" 
d="M233 0v2621h1160v-229h-918v-2392h-242z" />
    <glyph glyph-name="Ntilde" unicode="&#xc4;" horiz-adv-x="2507" 
d="M1806 229v2167h-942c0 -666 -20.5 -1137 -61.5 -1413s-117.5 -527.333 -229.5 -754h1233zM2126 0h-1782v-524h-238v753h185c136.667 226.667 228 465.667 274 717c46.667 251.333 70 681.333 70 1290v385h1405v-2392h327v-753h-241v524z" />
    <glyph glyph-name="Ntilde" unicode="&#x414;" horiz-adv-x="2507" 
d="M1806 229v2167h-942c0 -666 -20.5 -1137 -61.5 -1413s-117.5 -527.333 -229.5 -754h1233zM2126 0h-1782v-524h-238v753h185c136.667 226.667 228 465.667 274 717c46.667 251.333 70 681.333 70 1290v385h1405v-2392h327v-753h-241v524z" />
    <glyph glyph-name="Odieresis" unicode="&#xc5;" horiz-adv-x="1638" 
d="M201 0v2621h1298v-225h-1057v-819h1057v-225h-1057v-1131h1057v-221h-1298z" />
    <glyph glyph-name="Odieresis" unicode="&#x415;" horiz-adv-x="1638" 
d="M201 0v2621h1298v-225h-1057v-819h1057v-225h-1057v-1131h1057v-221h-1298z" />
    <glyph glyph-name="Udieresis" unicode="&#xc6;" horiz-adv-x="3318" 
d="M1536 2621h238v-1228l1179 1228h312l-1242 -1257l1303 -1364h-344l-1208 1327v-1327h-238v1327l-1212 -1327h-344l1302 1364l-1241 1257h311l1184 -1228v1228z" />
    <glyph glyph-name="Udieresis" unicode="&#x416;" horiz-adv-x="3318" 
d="M1536 2621h238v-1228l1179 1228h312l-1242 -1257l1303 -1364h-344l-1208 1327v-1327h-238v1327l-1212 -1327h-344l1302 1364l-1241 1257h311l1184 -1228v1228z" />
    <glyph glyph-name="aacute" unicode="&#xc7;" horiz-adv-x="1942" 
d="M946 1245l-191.998 -0.00292969v197h127c174.667 0 315.167 45 421.5 135s159.5 230.667 159.5 422c0 139.333 -45 251.333 -135 336s-218.333 127 -385 127c-122.667 0 -233.334 -31.667 -332.001 -95c-100.667 -65.333 -193.334 -181.333 -278.001 -348l-189 107
c188.667 344 451 516 787 516c278.667 0 478 -65.667 598 -197c117.333 -133.333 176 -279.333 176 -438c0 -303.333 -157 -513.666 -471 -630.999c147.333 -24.667 277 -90.167 389 -196.5s168 -255.166 168 -446.499c0 -232 -86 -419 -258 -561
c-172 -144.667 -375.333 -217 -610 -217c-199.333 0 -371.5 42.333 -516.5 127s-266.5 233.334 -364.5 446.001l221 86c62.667 -136 140.5 -246.333 233.5 -331s237.833 -127 434.5 -127c180 0 324.667 58.667 434 176c109.333 114.667 164 247 164 397
c0 344 -194 516 -582 516z" />
    <glyph glyph-name="aacute" unicode="&#x417;" horiz-adv-x="1942" 
d="M946 1245l-191.998 -0.00292969v197h127c174.667 0 315.167 45 421.5 135s159.5 230.667 159.5 422c0 139.333 -45 251.333 -135 336s-218.333 127 -385 127c-122.667 0 -233.334 -31.667 -332.001 -95c-100.667 -65.333 -193.334 -181.333 -278.001 -348l-189 107
c188.667 344 451 516 787 516c278.667 0 478 -65.667 598 -197c117.333 -133.333 176 -279.333 176 -438c0 -303.333 -157 -513.666 -471 -630.999c147.333 -24.667 277 -90.167 389 -196.5s168 -255.166 168 -446.499c0 -232 -86 -419 -258 -561
c-172 -144.667 -375.333 -217 -610 -217c-199.333 0 -371.5 42.333 -516.5 127s-266.5 233.334 -364.5 446.001l221 86c62.667 -136 140.5 -246.333 233.5 -331s237.833 -127 434.5 -127c180 0 324.667 58.667 434 176c109.333 114.667 164 247 164 397
c0 344 -194 516 -582 516z" />
    <glyph glyph-name="agrave" unicode="&#xc8;" horiz-adv-x="2253" 
d="M1847 0v2114l-1663 -2184v2696h217v-2089l1676 2199v-2736h-230z" />
    <glyph glyph-name="agrave" unicode="&#x418;" horiz-adv-x="2253" 
d="M1847 0v2114l-1663 -2184v2696h217v-2089l1676 2199v-2736h-230z" />
    <glyph glyph-name="acircumflex" unicode="&#xc9;" horiz-adv-x="2277" 
d="M1466 3097h221.999c0 -93.333 -39.667 -175.333 -119 -246c-79.333 -74 -216 -111 -410 -111c-188 0 -326 37 -414 111c-90 73.333 -135 155.333 -135 246h234c0 -57.333 27.333 -104 82 -140c54.667 -35.333 132.334 -53 233.001 -53c204.667 0 307 64.333 307 193z
M1864 0v2126l-1671 -2196v2696h217v-2089l1675 2199v-2736h-221z" />
    <glyph glyph-name="acircumflex" unicode="&#x419;" horiz-adv-x="2277" 
d="M1466 3097h221.999c0 -93.333 -39.667 -175.333 -119 -246c-79.333 -74 -216 -111 -410 -111c-188 0 -326 37 -414 111c-90 73.333 -135 155.333 -135 246h234c0 -57.333 27.333 -104 82 -140c54.667 -35.333 132.334 -53 233.001 -53c204.667 0 307 64.333 307 193z
M1864 0v2126l-1671 -2196v2696h217v-2089l1675 2199v-2736h-221z" />
    <glyph glyph-name="adieresis" unicode="&#xca;" horiz-adv-x="2130" 
d="M225 0v2621h242v-1228l1180 1228h311l-1241 -1257l1302 -1364h-344l-1208 1327v-1327h-242z" />
    <glyph glyph-name="adieresis" unicode="&#x41a;" horiz-adv-x="2130" 
d="M225 0v2621h242v-1228l1180 1228h311l-1241 -1257l1302 -1364h-344l-1208 1327v-1327h-242z" />
    <glyph glyph-name="atilde" unicode="&#xcb;" horiz-adv-x="2351" 
d="M2109 2621l-0.000976562 -2621h-237v2400h-1057c0 -556.667 -4 -945.667 -12 -1167c-8 -237.333 -31.333 -436.666 -70 -597.999c-40.667 -177.333 -96.667 -312.666 -168 -405.999c-65.333 -90 -141.666 -154 -228.999 -192c-79.333 -35.333 -172.333 -57.333 -279 -66
v246c52 0 106.667 11 164 33c54.667 22 108 67 160 135c54.667 71.333 99.667 213.333 135 426c35.333 210 53 640 53 1290v520h1540z" />
    <glyph glyph-name="atilde" unicode="&#x41b;" horiz-adv-x="2351" 
d="M2109 2621l-0.000976562 -2621h-237v2400h-1057c0 -556.667 -4 -945.667 -12 -1167c-8 -237.333 -31.333 -436.666 -70 -597.999c-40.667 -177.333 -96.667 -312.666 -168 -405.999c-65.333 -90 -141.666 -154 -228.999 -192c-79.333 -35.333 -172.333 -57.333 -279 -66
v246c52 0 106.667 11 164 33c54.667 22 108 67 160 135c54.667 71.333 99.667 213.333 135 426c35.333 210 53 640 53 1290v520h1540z" />
    <glyph glyph-name="aring" unicode="&#xcc;" horiz-adv-x="2908" 
d="M1446 -94l-918 2093l-200 -1999h-246l356 2732l1004 -2335l1040 2335l340 -2732h-246l-192 1999z" />
    <glyph glyph-name="aring" unicode="&#x41c;" horiz-adv-x="2908" 
d="M1446 -94l-918 2093l-200 -1999h-246l356 2732l1004 -2335l1040 2335l340 -2732h-246l-192 1999z" />
    <glyph glyph-name="ccedilla" unicode="&#xcd;" horiz-adv-x="2343" 
d="M217 0v2621h242v-1065h1421v1065h242v-2621h-242v1352h-1421v-1352h-242z" />
    <glyph glyph-name="ccedilla" unicode="&#x41d;" horiz-adv-x="2343" 
d="M217 0v2621h242v-1065h1421v1065h242v-2621h-242v1352h-1421v-1352h-242z" />
    <glyph glyph-name="eacute" unicode="&#xce;" horiz-adv-x="3080" 
d="M1491 139c212.667 0 406.499 50.499 581.499 151.499s312.833 239.167 413.5 414.5c101.333 172 152 367 152 585c0 188.667 -42.333 373 -127 553c-87.333 180.667 -217 329.667 -389 447.001c-172 117.333 -379.667 176 -623 176
c-174.667 0 -350.667 -42.333 -528 -127c-180.667 -87.333 -329.667 -218.333 -447 -393c-117.333 -178 -176 -391 -176 -639c0 -208 47.833 -400.667 143.5 -578s232.167 -319.333 409.5 -426c174.667 -109.333 371.334 -164 590.001 -164zM1491 -66.001
c-246 0 -475.332 53.332 -687.999 159.999c-216 106.667 -388 263.667 -516 471c-128.667 208 -193 458 -193 750c0 272.667 67 513 201 721c134 204.667 310 363 528 475c218.667 112 446.667 168 684 168c208 0 395 -35.667 561 -107
c166.667 -70.667 311.667 -169 435 -295c122.667 -125.333 218 -272.666 286 -441.999c68.667 -172 103 -352.333 103 -541c0 -270 -63 -508.667 -189 -716c-125.333 -208 -294.666 -366.667 -508 -476c-212.667 -112 -447.334 -168 -704.001 -168z" />
    <glyph glyph-name="eacute" unicode="&#x41e;" horiz-adv-x="3080" 
d="M1491 139c212.667 0 406.499 50.499 581.499 151.499s312.833 239.167 413.5 414.5c101.333 172 152 367 152 585c0 188.667 -42.333 373 -127 553c-87.333 180.667 -217 329.667 -389 447.001c-172 117.333 -379.667 176 -623 176
c-174.667 0 -350.667 -42.333 -528 -127c-180.667 -87.333 -329.667 -218.333 -447 -393c-117.333 -178 -176 -391 -176 -639c0 -208 47.833 -400.667 143.5 -578s232.167 -319.333 409.5 -426c174.667 -109.333 371.334 -164 590.001 -164zM1491 -66.001
c-246 0 -475.332 53.332 -687.999 159.999c-216 106.667 -388 263.667 -516 471c-128.667 208 -193 458 -193 750c0 272.667 67 513 201 721c134 204.667 310 363 528 475c218.667 112 446.667 168 684 168c208 0 395 -35.667 561 -107
c166.667 -70.667 311.667 -169 435 -295c122.667 -125.333 218 -272.666 286 -441.999c68.667 -172 103 -352.333 103 -541c0 -270 -63 -508.667 -189 -716c-125.333 -208 -294.666 -366.667 -508 -476c-212.667 -112 -447.334 -168 -704.001 -168z" />
    <glyph glyph-name="egrave" unicode="&#xcf;" horiz-adv-x="2269" 
d="M184 2621h1905v-2621h-242v2392h-1421v-2392h-242v2621z" />
    <glyph glyph-name="egrave" unicode="&#x41f;" horiz-adv-x="2269" 
d="M184 2621h1905v-2621h-242v2392h-1421v-2392h-242v2621z" />
    <glyph glyph-name="ecircumflex" unicode="&#xd0;" horiz-adv-x="1720" 
d="M680 1384c232 0 395.667 39.666 491 118.999c96 76.667 144 206.334 144 389.001c0 344 -218.667 516 -656 516h-233v-1024h254zM672 1171h-246v-1171h-242v2621h455c286.667 0 514.667 -55.667 684 -167c166.667 -112 250 -293.667 250 -545
c0 -286.667 -83.333 -480.667 -250 -582c-166.667 -104 -383.667 -156 -651 -156z" />
    <glyph glyph-name="ecircumflex" unicode="&#x420;" horiz-adv-x="1720" 
d="M680 1384c232 0 395.667 39.666 491 118.999c96 76.667 144 206.334 144 389.001c0 344 -218.667 516 -656 516h-233v-1024h254zM672 1171h-246v-1171h-242v2621h455c286.667 0 514.667 -55.667 684 -167c166.667 -112 250 -293.667 250 -545
c0 -286.667 -83.333 -480.667 -250 -582c-166.667 -104 -383.667 -156 -651 -156z" />
    <glyph glyph-name="edieresis" unicode="&#xd1;" horiz-adv-x="2523" 
d="M1511 2466c-229.333 0 -428.668 -48.001 -598.001 -144.001c-169.333 -95.333 -299 -230.333 -389 -405c-92.667 -177.333 -139 -382 -139 -614c0 -358 102.333 -640.833 307 -848.5s473.667 -311.5 807 -311.5c292 0 572 104 840 312l-4 -279
c-120.667 -73.333 -251.667 -130.666 -393 -171.999c-145.333 -40.667 -297 -61 -455 -61c-207.333 0 -413.666 38 -618.999 114c-204.667 76.667 -379.334 216 -524.001 418c-147.333 202 -221 473.667 -221 815c0 251.333 47.667 482 143 692c93.333 208 245 376 455 504
c210 128.667 475 193 795 193c294.667 0 575.667 -93 843.001 -279l-8 -262c-98 84.667 -212.667 161 -344 229c-134 66 -299.333 99 -496 99z" />
    <glyph glyph-name="edieresis" unicode="&#x421;" horiz-adv-x="2523" 
d="M1511 2466c-229.333 0 -428.668 -48.001 -598.001 -144.001c-169.333 -95.333 -299 -230.333 -389 -405c-92.667 -177.333 -139 -382 -139 -614c0 -358 102.333 -640.833 307 -848.5s473.667 -311.5 807 -311.5c292 0 572 104 840 312l-4 -279
c-120.667 -73.333 -251.667 -130.666 -393 -171.999c-145.333 -40.667 -297 -61 -455 -61c-207.333 0 -413.666 38 -618.999 114c-204.667 76.667 -379.334 216 -524.001 418c-147.333 202 -221 473.667 -221 815c0 251.333 47.667 482 143 692c93.333 208 245 376 455 504
c210 128.667 475 193 795 193c294.667 0 575.667 -93 843.001 -279l-8 -262c-98 84.667 -212.667 161 -344 229c-134 66 -299.333 99 -496 99z" />
    <glyph glyph-name="iacute" unicode="&#xd2;" horiz-adv-x="1761" 
d="M762 0v2396h-717v225h1679v-225h-720v-2396h-242z" />
    <glyph glyph-name="iacute" unicode="&#x422;" horiz-adv-x="1761" 
d="M762 0v2396h-717v225h1679v-225h-720v-2396h-242z" />
    <glyph glyph-name="igrave" unicode="&#xd3;" horiz-adv-x="2007" 
d="M1008 1049l647 1572h237l-1089 -2625l-246 4l328 770l-770 1851h250z" />
    <glyph glyph-name="igrave" unicode="&#x423;" horiz-adv-x="2007" 
d="M1008 1049l647 1572h237l-1089 -2625l-246 4l328 770l-770 1851h250z" />
    <glyph glyph-name="icircumflex" unicode="&#xd4;" horiz-adv-x="3195" 
d="M1466 143l-0.000976562 2319c-169.333 0 -338.666 -42.333 -507.999 -127c-172 -84.667 -314 -213 -426 -385c-114.667 -174.667 -172 -389 -172 -643c0 -360.667 117.667 -643.334 353 -848.001c232 -204.667 483 -310 753 -316zM1704 -73.999l4.00098 -400.999h-242
v401c-190.667 0 -391.334 48 -602.001 144c-210 92.667 -388.667 244 -536 454c-148 208 -222 471.667 -222 791c0 306 67 561.333 201 766s306 353.334 516 446c208 90 422.333 135 643 135v357h242l-4 -357c221.333 0 437 -45 647 -135
c207.333 -92.667 378 -241.334 512 -446.001s201 -460 201 -766c0 -319.333 -73.667 -583 -221 -791c-148 -210 -327 -361.333 -537 -454c-210 -96 -410.667 -144 -602 -144zM1704 143.002c273.333 6 526 111.333 758 316c232 202 348 484.667 348 848
c0 254 -56 468.333 -168 643c-114.667 172 -256.667 300.333 -426 385c-172 84.667 -342.667 127 -512 127v-2319z" />
    <glyph glyph-name="icircumflex" unicode="&#x424;" horiz-adv-x="3195" 
d="M1466 143l-0.000976562 2319c-169.333 0 -338.666 -42.333 -507.999 -127c-172 -84.667 -314 -213 -426 -385c-114.667 -174.667 -172 -389 -172 -643c0 -360.667 117.667 -643.334 353 -848.001c232 -204.667 483 -310 753 -316zM1704 -73.999l4.00098 -400.999h-242
v401c-190.667 0 -391.334 48 -602.001 144c-210 92.667 -388.667 244 -536 454c-148 208 -222 471.667 -222 791c0 306 67 561.333 201 766s306 353.334 516 446c208 90 422.333 135 643 135v357h242l-4 -357c221.333 0 437 -45 647 -135
c207.333 -92.667 378 -241.334 512 -446.001s201 -460 201 -766c0 -319.333 -73.667 -583 -221 -791c-148 -210 -327 -361.333 -537 -454c-210 -96 -410.667 -144 -602 -144zM1704 143.002c273.333 6 526 111.333 758 316c232 202 348 484.667 348 848
c0 254 -56 468.333 -168 643c-114.667 172 -256.667 300.333 -426 385c-172 84.667 -342.667 127 -512 127v-2319z" />
    <glyph glyph-name="idieresis" unicode="&#xd5;" 
d="M258 0h-254l787 1376l-713 1245h262l590 -1044l594 1044h258l-721 -1237l794 -1384h-262l-667 1159z" />
    <glyph glyph-name="idieresis" unicode="&#x425;" 
d="M258 0h-254l787 1376l-713 1245h262l590 -1044l594 1044h258l-721 -1237l794 -1384h-262l-667 1159z" />
    <glyph glyph-name="ntilde" unicode="&#xd6;" horiz-adv-x="2597" 
d="M2200 0h-1991v2621h242v-2396h1421v2396h242v-2392h323v-753h-237v524z" />
    <glyph glyph-name="ntilde" unicode="&#x426;" horiz-adv-x="2597" 
d="M2200 0h-1991v2621h242v-2396h1421v2396h242v-2392h323v-753h-237v524z" />
    <glyph glyph-name="oacute" unicode="&#xd7;" horiz-adv-x="2007" 
d="M168 1667v954h242v-954c0 -311.333 167.667 -467 503 -467c292.667 0 518 118.667 676 356v1065h238v-2621h-238v1307c-202 -202 -425.667 -303 -671 -303c-248.667 0 -436 64 -562 192c-125.333 125.333 -188 282.333 -188 471z" />
    <glyph glyph-name="oacute" unicode="&#x427;" horiz-adv-x="2007" 
d="M168 1667v954h242v-954c0 -311.333 167.667 -467 503 -467c292.667 0 518 118.667 676 356v1065h238v-2621h-238v1307c-202 -202 -425.667 -303 -671 -303c-248.667 0 -436 64 -562 192c-125.333 125.333 -188 282.333 -188 471z" />
    <glyph glyph-name="ograve" unicode="&#xd8;" horiz-adv-x="3072" 
d="M1425 221v2400h238v-2400h1008v2400h237v-2621h-2732v2621h242v-2400h1007z" />
    <glyph glyph-name="ograve" unicode="&#x428;" horiz-adv-x="3072" 
d="M1425 221v2400h238v-2400h1008v2400h237v-2621h-2732v2621h242v-2400h1007z" />
    <glyph glyph-name="ocircumflex" unicode="&#xd9;" horiz-adv-x="3326" 
d="M3015 0h-2798v2621h242v-2400h1007v2400h238v-2400h1008v2400h237v-2400h303v-745h-237v524z" />
    <glyph glyph-name="ocircumflex" unicode="&#x429;" horiz-adv-x="3326" 
d="M3015 0h-2798v2621h242v-2400h1007v2400h238v-2400h1008v2400h237v-2400h303v-745h-237v524z" />
    <glyph glyph-name="odieresis" unicode="&#xda;" horiz-adv-x="2335" 
d="M1008 2621l0.000976562 -1167h409c202 0 367.333 -30 496 -90c125.333 -60 216.666 -142 273.999 -246c54.667 -106.667 82 -228 82 -364c0 -235.333 -69.667 -419.666 -209 -552.999c-142 -134 -348 -201 -618 -201h-680v2396h-717v225h963zM1442 196.999h8
c379.333 0 569 182.667 569 548c0 333.333 -180 500 -540 500h-471v-1044z" />
    <glyph glyph-name="odieresis" unicode="&#x42a;" horiz-adv-x="2335" 
d="M1008 2621l0.000976562 -1167h409c202 0 367.333 -30 496 -90c125.333 -60 216.666 -142 273.999 -246c54.667 -106.667 82 -228 82 -364c0 -235.333 -69.667 -419.666 -209 -552.999c-142 -134 -348 -201 -618 -201h-680v2396h-717v225h963zM1442 196.999h8
c379.333 0 569 182.667 569 548c0 333.333 -180 500 -540 500h-471v-1044z" />
    <glyph glyph-name="otilde" unicode="&#xdb;" horiz-adv-x="2531" 
d="M2318 2621v-2621h-237v2621h237zM868 0l-675 -0.000976562v2621h241v-1167h410c202 0 367 -30 495 -90c126 -60 217.667 -142 275 -246c54.667 -106.667 82 -228 82 -364c0 -235.333 -69.667 -419.666 -209 -552.999c-142 -134 -348.333 -201 -619 -201zM868 196.999h9
c379.333 0 569 182.667 569 548c0 333.333 -180.333 500 -541 500h-471v-1044z" />
    <glyph glyph-name="otilde" unicode="&#x42b;" horiz-adv-x="2531" 
d="M2318 2621v-2621h-237v2621h237zM868 0l-675 -0.000976562v2621h241v-1167h410c202 0 367 -30 495 -90c126 -60 217.667 -142 275 -246c54.667 -106.667 82 -228 82 -364c0 -235.333 -69.667 -419.666 -209 -552.999c-142 -134 -348.333 -201 -619 -201zM868 196.999h9
c379.333 0 569 182.667 569 548c0 333.333 -180.333 500 -541 500h-471v-1044z" />
    <glyph glyph-name="uacute" unicode="&#xdc;" 
d="M868 0l-675 -0.000976562v2621h241v-1167h410c202 0 367 -30 495 -90c126 -60 217.667 -142 275 -246c54.667 -106.667 82 -228 82 -364c0 -235.333 -69.667 -419.666 -209 -552.999c-142 -134 -348.333 -201 -619 -201zM868 196.999h9c379.333 0 569 182.667 569 548
c0 333.333 -180.333 500 -541 500h-471v-1044z" />
    <glyph glyph-name="uacute" unicode="&#x42c;" 
d="M868 0l-675 -0.000976562v2621h241v-1167h410c202 0 367 -30 495 -90c126 -60 217.667 -142 275 -246c54.667 -106.667 82 -228 82 -364c0 -235.333 -69.667 -419.666 -209 -552.999c-142 -134 -348.333 -201 -619 -201zM868 196.999h9c379.333 0 569 182.667 569 548
c0 333.333 -180.333 500 -541 500h-471v-1044z" />
    <glyph glyph-name="ugrave" unicode="&#xdd;" horiz-adv-x="2515" 
d="M2097 1356l-1290 0.000976562v205h1270c-32.667 188 -98.334 349 -197.001 483c-98 134 -223.667 237.667 -377 311c-152.667 74 -330 111 -532 111c-191.333 0 -348.333 -31.333 -471 -94c-126 -63.333 -249 -141.333 -369 -234l-8 262
c267.333 186 548.666 279 843.999 279c319.333 0 584 -64.333 794 -193c210.667 -128 363.667 -296 459 -504c92.667 -210 139 -440.667 139 -692c0 -341.333 -72.333 -613 -217 -815c-147.333 -202 -323.333 -341.333 -528 -418c-204.667 -76 -411 -114 -619 -114
c-158 0 -308 20.333 -450 61c-144.667 41.333 -277.334 98.666 -398.001 171.999l-4 279c268 -208 548 -312 840 -312c333.333 0 602.333 103.833 807 311.5s307 490.5 307 848.5v53z" />
    <glyph glyph-name="ugrave" unicode="&#x42d;" horiz-adv-x="2515" 
d="M2097 1356l-1290 0.000976562v205h1270c-32.667 188 -98.334 349 -197.001 483c-98 134 -223.667 237.667 -377 311c-152.667 74 -330 111 -532 111c-191.333 0 -348.333 -31.333 -471 -94c-126 -63.333 -249 -141.333 -369 -234l-8 262
c267.333 186 548.666 279 843.999 279c319.333 0 584 -64.333 794 -193c210.667 -128 363.667 -296 459 -504c92.667 -210 139 -440.667 139 -692c0 -341.333 -72.333 -613 -217 -815c-147.333 -202 -323.333 -341.333 -528 -418c-204.667 -76 -411 -114 -619 -114
c-158 0 -308 20.333 -450 61c-144.667 41.333 -277.334 98.666 -398.001 171.999l-4 279c268 -208 548 -312 840 -312c333.333 0 602.333 103.833 807 311.5s307 490.5 307 848.5v53z" />
    <glyph glyph-name="ucircumflex" unicode="&#xde;" horiz-adv-x="3555" 
d="M655 1556c22 166.667 87.6689 335.998 197.002 507.998c106.667 172 261 318.333 463 439c202 117.333 446.333 176 733 176c207.333 0 394.333 -35.667 561 -107c166.667 -70.667 311.334 -169 434 -295c123.333 -125.333 219 -272.666 287 -441.999
c68 -172 102 -352.333 102 -541c0 -270 -62.667 -508.833 -188 -716.5s-294.666 -366.167 -508 -475.5c-212.667 -112 -447.334 -168 -704 -168c-248.667 0 -478.334 54.667 -689.001 164c-212.667 106.667 -383.334 269.334 -512.001 488.001
c-130.667 218 -196 473.333 -196 766h-217v-1352h-242v2621h242v-1065h237zM2032 138.998c212.667 0 406.332 50.499 580.999 151.499s312.667 239.167 414 414.5c100.667 172 151 367 151 585c0 188.667 -42 373 -126 553c-88 180.667 -218 329.667 -390 447.001
c-172 117.333 -379.333 176 -622 176c-174.667 0 -351 -42.333 -529 -127c-180 -87.333 -328.667 -218.333 -446 -393c-117.333 -178 -176 -391 -176 -639c0 -208 47.667 -400.667 143 -578c96 -177.333 232.667 -319.333 410 -426
c174.667 -109.333 371.334 -164 590.001 -164z" />
    <glyph glyph-name="ucircumflex" unicode="&#x42e;" horiz-adv-x="3555" 
d="M655 1556c22 166.667 87.6689 335.998 197.002 507.998c106.667 172 261 318.333 463 439c202 117.333 446.333 176 733 176c207.333 0 394.333 -35.667 561 -107c166.667 -70.667 311.334 -169 434 -295c123.333 -125.333 219 -272.666 287 -441.999
c68 -172 102 -352.333 102 -541c0 -270 -62.667 -508.833 -188 -716.5s-294.666 -366.167 -508 -475.5c-212.667 -112 -447.334 -168 -704 -168c-248.667 0 -478.334 54.667 -689.001 164c-212.667 106.667 -383.334 269.334 -512.001 488.001
c-130.667 218 -196 473.333 -196 766h-217v-1352h-242v2621h242v-1065h237zM2032 138.998c212.667 0 406.332 50.499 580.999 151.499s312.667 239.167 414 414.5c100.667 172 151 367 151 585c0 188.667 -42 373 -126 553c-88 180.667 -218 329.667 -390 447.001
c-172 117.333 -379.333 176 -622 176c-174.667 0 -351 -42.333 -529 -127c-180 -87.333 -328.667 -218.333 -446 -393c-117.333 -178 -176 -391 -176 -639c0 -208 47.667 -400.667 143 -578c96 -177.333 232.667 -319.333 410 -426
c174.667 -109.333 371.334 -164 590.001 -164z" />
    <glyph glyph-name="udieresis" unicode="&#xdf;" horiz-adv-x="1925" 
d="M57 0l947 1245c-172.667 11.333 -330 67.333 -472 168c-138.667 101.333 -208 265.333 -208 492c0 477.333 281 716 843 716h484v-2621h-242v1245h-139l-922 -1245h-291zM1225 1442l184 -0.000976562v971h-188c-226.667 0 -390.667 -37 -492 -111
c-100.667 -76.667 -151 -205 -151 -385c0 -199.333 57.333 -327.666 172 -384.999c114.667 -60 273 -90 475 -90z" />
    <glyph glyph-name="udieresis" unicode="&#x42f;" horiz-adv-x="1925" 
d="M57 0l947 1245c-172.667 11.333 -330 67.333 -472 168c-138.667 101.333 -208 265.333 -208 492c0 477.333 281 716 843 716h484v-2621h-242v1245h-139l-922 -1245h-291zM1225 1442l184 -0.000976562v971h-188c-226.667 0 -390.667 -37 -492 -111
c-100.667 -76.667 -151 -205 -151 -385c0 -199.333 57.333 -327.666 172 -384.999c114.667 -60 273 -90 475 -90z" />
    <glyph glyph-name="daggerdbl" unicode="&#xe0;" horiz-adv-x="1753" 
d="M827 127c161.333 0 296.668 57.332 406.001 171.999s164 277 164 487c0 191.333 -48 348.333 -144 471c-95.333 123.333 -222.333 185 -381 185c-152.667 0 -282.334 -53.333 -389.001 -160c-106 -109.333 -159 -263.666 -159 -462.999c0 -194 45 -357.833 135 -491.5
s212.667 -200.5 368 -200.5zM1397 -0.000976562v287.001c-131.333 -235.333 -329.333 -353 -594 -353c-224 0 -398.667 78 -524 234c-134 161.333 -201 379.666 -201 654.999c0 224 69.667 418 209 582c133.333 161.333 309.333 242 528 242c284 0 478 -116.333 582 -349
v287h221v-1585h-221z" />
    <glyph glyph-name="daggerdbl" unicode="&#x430;" horiz-adv-x="1753" 
d="M827 127c161.333 0 296.668 57.332 406.001 171.999s164 277 164 487c0 191.333 -48 348.333 -144 471c-95.333 123.333 -222.333 185 -381 185c-152.667 0 -282.334 -53.333 -389.001 -160c-106 -109.333 -159 -263.666 -159 -462.999c0 -194 45 -357.833 135 -491.5
s212.667 -200.5 368 -200.5zM1397 -0.000976562v287.001c-131.333 -235.333 -329.333 -353 -594 -353c-224 0 -398.667 78 -524 234c-134 161.333 -201 379.666 -201 654.999c0 224 69.667 418 209 582c133.333 161.333 309.333 242 528 242c284 0 478 -116.333 582 -349
v287h221v-1585h-221z" />
    <glyph glyph-name="periodcentered" unicode="&#xe1;" horiz-adv-x="1970" 
d="M295 1241c158 262 376.335 393 655.002 393c246 0 448 -73.667 606 -221c158.667 -147.333 238 -356.333 238 -627c0 -262 -83.333 -469.5 -250 -622.5s-372.667 -229.5 -618 -229.5c-276 0 -486.333 84.667 -631 254s-217 418 -217 746c0 450.667 79 777 237 979
c156 202 367.667 303 635 303c101.333 0 173.666 5.33301 216.999 16c41.333 11.333 62 40 62 86h237c0 -87.333 -34 -155.5 -102 -204.5s-199 -73.5 -393 -73.5c-218.667 0 -385.334 -72.333 -500.001 -217c-117.333 -147.333 -176 -341.333 -176 -582zM311.002 782
c0 -204.667 61.668 -364.333 185.001 -479c120 -114.667 266 -172 438 -172c166.667 0 312.667 62.667 438 188c126 126 189 281.667 189 467c0 169.333 -53.333 321 -160 455c-106.667 131.333 -262.334 197 -467.001 197c-180 0 -329 -67 -447 -201
c-117.333 -134 -176 -285.667 -176 -455z" />
    <glyph glyph-name="periodcentered" unicode="&#x431;" horiz-adv-x="1970" 
d="M295 1241c158 262 376.335 393 655.002 393c246 0 448 -73.667 606 -221c158.667 -147.333 238 -356.333 238 -627c0 -262 -83.333 -469.5 -250 -622.5s-372.667 -229.5 -618 -229.5c-276 0 -486.333 84.667 -631 254s-217 418 -217 746c0 450.667 79 777 237 979
c156 202 367.667 303 635 303c101.333 0 173.666 5.33301 216.999 16c41.333 11.333 62 40 62 86h237c0 -87.333 -34 -155.5 -102 -204.5s-199 -73.5 -393 -73.5c-218.667 0 -385.334 -72.333 -500.001 -217c-117.333 -147.333 -176 -341.333 -176 -582zM311.002 782
c0 -204.667 61.668 -364.333 185.001 -479c120 -114.667 266 -172 438 -172c166.667 0 312.667 62.667 438 188c126 126 189 281.667 189 467c0 169.333 -53.333 321 -160 455c-106.667 131.333 -262.334 197 -467.001 197c-180 0 -329 -67 -447 -201
c-117.333 -134 -176 -285.667 -176 -455z" />
    <glyph glyph-name="quotesinglbase" unicode="&#xe2;" horiz-adv-x="1421" 
d="M729 1384l-363.999 0.000976562v-450h364c79.333 0 145 20.333 197 61c52 41.333 78 98.666 78 171.999c0 82 -22 139.333 -66 172c-46.667 30 -116.334 45 -209.001 45zM147.001 1585h541.001c177.333 0 312.666 -28.667 405.999 -86c90 -60 135 -158.333 135 -295
c0 -199.333 -102.333 -319.333 -307 -360c242.667 -38.667 364 -178 364 -418c0 -117.333 -46.333 -217 -139 -299c-95.333 -84.667 -233.333 -127 -414 -127h-586v1585zM365.002 737.001l-0.000976562 -544h360c114.667 0 199.334 21.667 254.001 65c52 44 78 119 78 225
c0 169.333 -97 254 -291 254h-401z" />
    <glyph glyph-name="quotesinglbase" unicode="&#x432;" horiz-adv-x="1421" 
d="M729 1384l-363.999 0.000976562v-450h364c79.333 0 145 20.333 197 61c52 41.333 78 98.666 78 171.999c0 82 -22 139.333 -66 172c-46.667 30 -116.334 45 -209.001 45zM147.001 1585h541.001c177.333 0 312.666 -28.667 405.999 -86c90 -60 135 -158.333 135 -295
c0 -199.333 -102.333 -319.333 -307 -360c242.667 -38.667 364 -178 364 -418c0 -117.333 -46.333 -217 -139 -299c-95.333 -84.667 -233.333 -127 -414 -127h-586v1585zM365.002 737.001l-0.000976562 -544h360c114.667 0 199.334 21.667 254.001 65c52 44 78 119 78 225
c0 169.333 -97 254 -291 254h-401z" />
    <glyph glyph-name="quotedblbase" unicode="&#xe3;" horiz-adv-x="1147" 
d="M164 0v1585h852v-196h-635v-1389h-217z" />
    <glyph glyph-name="quotedblbase" unicode="&#x433;" horiz-adv-x="1147" 
d="M164 0v1585h852v-196h-635v-1389h-217z" />
    <glyph glyph-name="perthousand" unicode="&#xe4;" horiz-adv-x="1823" 
d="M639 1389v-197c0 -210 -17.667 -409.333 -53 -598c-38.667 -191.333 -86.667 -325 -144 -401h856v1196h-659zM434 1585h1086v-1392h221v-611h-221v418h-1258v-418h-217v611h139c87.333 81.333 151.666 204 192.999 368c38 164 57 379.667 57 647v377z" />
    <glyph glyph-name="perthousand" unicode="&#x434;" horiz-adv-x="1823" 
d="M639 1389v-197c0 -210 -17.667 -409.333 -53 -598c-38.667 -191.333 -86.667 -325 -144 -401h856v1196h-659zM434 1585h1086v-1392h221v-611h-221v418h-1258v-418h-217v611h139c87.333 81.333 151.666 204 192.999 368c38 164 57 379.667 57 647v377z" />
    <glyph glyph-name="Acircumflex" unicode="&#xe5;" horiz-adv-x="1679" 
d="M1327 971c-10.667 125.333 -53.001 233 -127.001 323c-76.667 90.667 -199.667 136 -369 136c-283.333 0 -445.666 -153 -486.999 -459h983zM1589 786h-1261c0 -174.667 43.667 -327.334 131 -458.001c84.667 -134 221 -201 409 -201c221.333 0 399 127 533 381l201 -111
c-74 -133.333 -161.667 -243.666 -263 -330.999c-103.333 -88 -257.333 -132 -462 -132c-251.333 0 -445.333 84.667 -582 254c-139.333 166.667 -209 364.667 -209 594c0 262.667 67 473 201 631c133.333 156 323 234 569 234c139.333 0 263.666 -30.333 372.999 -91
c109.333 -62.667 196.666 -158.167 261.999 -286.5s98 -289.5 98 -483.5z" />
    <glyph glyph-name="Acircumflex" unicode="&#x435;" horiz-adv-x="1679" 
d="M1327 971c-10.667 125.333 -53.001 233 -127.001 323c-76.667 90.667 -199.667 136 -369 136c-283.333 0 -445.666 -153 -486.999 -459h983zM1589 786h-1261c0 -174.667 43.667 -327.334 131 -458.001c84.667 -134 221 -201 409 -201c221.333 0 399 127 533 381l201 -111
c-74 -133.333 -161.667 -243.666 -263 -330.999c-103.333 -88 -257.333 -132 -462 -132c-251.333 0 -445.333 84.667 -582 254c-139.333 166.667 -209 364.667 -209 594c0 262.667 67 473 201 631c133.333 156 323 234 569 234c139.333 0 263.666 -30.333 372.999 -91
c109.333 -62.667 196.666 -158.167 261.999 -286.5s98 -289.5 98 -483.5z" />
    <glyph glyph-name="Ecircumflex" unicode="&#xe6;" horiz-adv-x="2540" 
d="M2224 0l-848 815v-815h-221v819l-852 -819h-303l913 877l-852 708h308l786 -704v704h221v-700l783 700h307l-852 -708l913 -877h-303z" />
    <glyph glyph-name="Ecircumflex" unicode="&#x436;" horiz-adv-x="2540" 
d="M2224 0l-848 815v-815h-221v819l-852 -819h-303l913 877l-852 708h308l786 -704v704h221v-700l783 700h307l-852 -708l913 -877h-303z" />
    <glyph glyph-name="Aacute" unicode="&#xe7;" horiz-adv-x="1352" 
d="M49 274l144.002 143.998c48.667 -79.333 112.667 -143.666 192 -192.999c79.333 -48.667 169.333 -73 270 -73c98.667 0 189 27 271 81c82 52 123 131.333 123 238c0 194 -104 291 -312 291h-147v164h135c60 0 122.667 20.333 188 61c63.333 41.333 95 112.333 95 213
c0 68.667 -24.667 130 -74 184c-52 52 -135.333 78 -250 78c-92.667 0 -173.334 -12.333 -242.001 -37c-68 -27.333 -140.333 -95.333 -217 -204l-127 122c131.333 194 325.333 291 582 291c161.333 0 293.666 -36.667 396.999 -110c104 -74 156 -169.667 156 -287
c0 -174.667 -117.333 -301.667 -352 -381c270 -30 405 -162.333 405 -397c0 -131.333 -60 -246.166 -180 -344.499s-266 -147.5 -438 -147.5c-286.667 0 -493 102.333 -619 307z" />
    <glyph glyph-name="Aacute" unicode="&#x437;" horiz-adv-x="1352" 
d="M49 274l144.002 143.998c48.667 -79.333 112.667 -143.666 192 -192.999c79.333 -48.667 169.333 -73 270 -73c98.667 0 189 27 271 81c82 52 123 131.333 123 238c0 194 -104 291 -312 291h-147v164h135c60 0 122.667 20.333 188 61c63.333 41.333 95 112.333 95 213
c0 68.667 -24.667 130 -74 184c-52 52 -135.333 78 -250 78c-92.667 0 -173.334 -12.333 -242.001 -37c-68 -27.333 -140.333 -95.333 -217 -204l-127 122c131.333 194 325.333 291 582 291c161.333 0 293.666 -36.667 396.999 -110c104 -74 156 -169.667 156 -287
c0 -174.667 -117.333 -301.667 -352 -381c270 -30 405 -162.333 405 -397c0 -131.333 -60 -246.166 -180 -344.499s-266 -147.5 -438 -147.5c-286.667 0 -493 102.333 -619 307z" />
    <glyph glyph-name="Edieresis" unicode="&#xe8;" horiz-adv-x="1671" 
d="M164 -94v1679h213v-1175l1122 1261v-1671h-217v1135z" />
    <glyph glyph-name="Edieresis" unicode="&#x438;" horiz-adv-x="1671" 
d="M164 -94v1679h213v-1175l1122 1261v-1671h-217v1135z" />
    <glyph glyph-name="Egrave" unicode="&#xe9;" horiz-adv-x="1671" 
d="M614 2232c0 -92.667 71 -139 213 -139c139.333 0 209 46.333 209 139h168c0 -190.667 -125.667 -286 -377 -286c-106 0 -196 25.667 -270 77c-74 52 -111 121.667 -111 209h168zM156 -94v1679h213v-1175l1122 1261v-1671h-217v1147z" />
    <glyph glyph-name="Egrave" unicode="&#x439;" horiz-adv-x="1671" 
d="M614 2232c0 -92.667 71 -139 213 -139c139.333 0 209 46.333 209 139h168c0 -190.667 -125.667 -286 -377 -286c-106 0 -196 25.667 -270 77c-74 52 -111 121.667 -111 209h168zM156 -94v1679h213v-1175l1122 1261v-1671h-217v1147z" />
    <glyph glyph-name="Iacute" unicode="&#xea;" horiz-adv-x="1679" 
d="M164 0v1585h217v-704l790 704h308l-852 -708l909 -877h-303l-852 819v-819h-217z" />
    <glyph glyph-name="Iacute" unicode="&#x43a;" horiz-adv-x="1679" 
d="M164 0v1585h217v-704l790 704h308l-852 -708l909 -877h-303l-852 819v-819h-217z" />
    <glyph glyph-name="Icircumflex" unicode="&#xeb;" horiz-adv-x="1708" 
d="M1552 0l-213 0.000976562v1389h-692c0 -338.667 -11 -610.667 -33 -816c-24 -204.667 -75.667 -361.667 -155 -471c-66 -87.333 -152 -131 -258 -131c-46.667 0 -98.667 8.33301 -156 25v209c19.333 -2.66699 45.333 -4 78 -4c120 8 196.333 94 229 258
c38.667 199.333 58 574.666 58 1126h1142v-1585z" />
    <glyph glyph-name="Icircumflex" unicode="&#x43b;" horiz-adv-x="1708" 
d="M1552 0l-213 0.000976562v1389h-692c0 -338.667 -11 -610.667 -33 -816c-24 -204.667 -75.667 -361.667 -155 -471c-66 -87.333 -152 -131 -258 -131c-46.667 0 -98.667 8.33301 -156 25v209c19.333 -2.66699 45.333 -4 78 -4c120 8 196.333 94 229 258
c38.667 199.333 58 574.666 58 1126h1142v-1585z" />
    <glyph glyph-name="Idieresis" unicode="&#xec;" horiz-adv-x="2163" 
d="M1077 -70l-557 1229l-233 -1159h-217l409 1688l602 -1344l602 1344l406 -1688h-213l-234 1159z" />
    <glyph glyph-name="Idieresis" unicode="&#x43c;" horiz-adv-x="2163" 
d="M1077 -70l-557 1229l-233 -1159h-217l409 1688l602 -1344l602 1344l406 -1688h-213l-234 1159z" />
    <glyph glyph-name="Igrave" unicode="&#xed;" horiz-adv-x="1638" 
d="M393 954h856v631h221v-1585h-221v770h-856v-770h-217v1585h217v-631z" />
    <glyph glyph-name="Igrave" unicode="&#x43d;" horiz-adv-x="1638" 
d="M393 954h856v631h221v-1585h-221v770h-856v-770h-217v1585h217v-631z" />
    <glyph glyph-name="Oacute" unicode="&#xee;" horiz-adv-x="1884" 
d="M1565 786c0 186 -60.333 341.667 -181 467c-120 123.333 -268.667 185 -446 185c-169.333 0 -315.333 -64.333 -438 -193c-123.333 -128 -185 -282.333 -185 -463c0 -182.667 60.333 -337 181 -463c120 -125.333 257.667 -188 413 -188c172 0 325 61.333 459 184
c131.333 120.667 197 277.667 197 471zM74 778c0 156 38.001 300.667 114.001 434c74 134 176.667 239.333 308 316c128 76 271.333 114 430 114c242.667 0 448.667 -76.333 618 -229s254 -361.667 254 -627c0 -262 -87.333 -469.5 -262 -622.5
s-382.334 -229.5 -623.001 -229.5c-232 0 -430 74 -594 222c-163.333 144.667 -245 352 -245 622z" />
    <glyph glyph-name="Oacute" unicode="&#x43e;" horiz-adv-x="1884" 
d="M1565 786c0 186 -60.333 341.667 -181 467c-120 123.333 -268.667 185 -446 185c-169.333 0 -315.333 -64.333 -438 -193c-123.333 -128 -185 -282.333 -185 -463c0 -182.667 60.333 -337 181 -463c120 -125.333 257.667 -188 413 -188c172 0 325 61.333 459 184
c131.333 120.667 197 277.667 197 471zM74 778c0 156 38.001 300.667 114.001 434c74 134 176.667 239.333 308 316c128 76 271.333 114 430 114c242.667 0 448.667 -76.333 618 -229s254 -361.667 254 -627c0 -262 -87.333 -469.5 -262 -622.5
s-382.334 -229.5 -623.001 -229.5c-232 0 -430 74 -594 222c-163.333 144.667 -245 352 -245 622z" />
    <glyph glyph-name="Ocircumflex" unicode="&#xef;" horiz-adv-x="1614" 
d="M1229 1384h-856v-1384h-217v1585h1294v-1585h-221v1384z" />
    <glyph glyph-name="Ocircumflex" unicode="&#x43f;" horiz-adv-x="1614" 
d="M1229 1384h-856v-1384h-217v1585h1294v-1585h-221v1384z" />
    <glyph glyph-name="apple" unicode="&#xf0;" 
d="M1462 807c0 172 -39.668 323.667 -119.001 455c-81.333 128 -217.666 192 -408.999 192c-174.667 0 -310 -67 -406 -201c-95.333 -133.333 -143 -291.666 -143 -474.999c0 -177.333 52 -330.333 156 -459c103.333 -128 230.333 -192 381 -192
c202 0 342.333 68.333 421 205c79.333 133.333 119 291.666 119 474.999zM392.999 1581v-287c114.667 235.333 301.667 353 561 353c240.667 0 426.334 -82 557.001 -246c128.667 -164 193 -360.667 193 -590c0 -194 -32.833 -356.5 -98.5 -487.5
s-153.167 -227.833 -262.5 -290.5c-108.667 -62.667 -226 -94 -352 -94c-147.333 0 -266 28.667 -356 86c-92.667 54 -173.334 140 -242.001 258v-1475h-217v2773h217z" />
    <glyph glyph-name="apple" unicode="&#x440;" 
d="M1462 807c0 172 -39.668 323.667 -119.001 455c-81.333 128 -217.666 192 -408.999 192c-174.667 0 -310 -67 -406 -201c-95.333 -133.333 -143 -291.666 -143 -474.999c0 -177.333 52 -330.333 156 -459c103.333 -128 230.333 -192 381 -192
c202 0 342.333 68.333 421 205c79.333 133.333 119 291.666 119 474.999zM392.999 1581v-287c114.667 235.333 301.667 353 561 353c240.667 0 426.334 -82 557.001 -246c128.667 -164 193 -360.667 193 -590c0 -194 -32.833 -356.5 -98.5 -487.5
s-153.167 -227.833 -262.5 -290.5c-108.667 -62.667 -226 -94 -352 -94c-147.333 0 -266 28.667 -356 86c-92.667 54 -173.334 140 -242.001 258v-1475h-217v2773h217z" />
    <glyph glyph-name="Ograve" unicode="&#xf1;" horiz-adv-x="1597" 
d="M1470 1294c-163.333 101.333 -332.334 151.999 -507.001 151.999c-191.333 0 -345.666 -60 -462.999 -180c-117.333 -117.333 -176 -282.666 -176 -495.999c0 -194 57.333 -352.333 172 -475c114.667 -120 267.334 -180 458.001 -180c191.333 0 371.666 60 540.999 180
v-242c-191.333 -82 -371.666 -123 -540.999 -123c-254 0 -457.333 69.667 -610 209c-164 158.667 -246 380 -246 664c0 134 26 256.667 78 368c49.333 112 116.333 203.667 201 275c150 134 356 201 618 201c161.333 0 319.666 -35.667 474.999 -107v-246z" />
    <glyph glyph-name="Ograve" unicode="&#x441;" horiz-adv-x="1597" 
d="M1470 1294c-163.333 101.333 -332.334 151.999 -507.001 151.999c-191.333 0 -345.666 -60 -462.999 -180c-117.333 -117.333 -176 -282.666 -176 -495.999c0 -194 57.333 -352.333 172 -475c114.667 -120 267.334 -180 458.001 -180c191.333 0 371.666 60 540.999 180
v-242c-191.333 -82 -371.666 -123 -540.999 -123c-254 0 -457.333 69.667 -610 209c-164 158.667 -246 380 -246 664c0 134 26 256.667 78 368c49.333 112 116.333 203.667 201 275c150 134 356 201 618 201c161.333 0 319.666 -35.667 474.999 -107v-246z" />
    <glyph glyph-name="Uacute" unicode="&#xf2;" horiz-adv-x="1376" 
d="M37 1384v201h1282v-201h-533v-1384h-221v1384h-528z" />
    <glyph glyph-name="Uacute" unicode="&#x442;" horiz-adv-x="1376" 
d="M37 1384v201h1282v-201h-533v-1384h-221v1384h-528z" />
    <glyph glyph-name="Ucircumflex" unicode="&#xf3;" horiz-adv-x="1434" 
d="M53 1585h238l454 -1241l418 1241h234l-824 -2380h-229l283 803z" />
    <glyph glyph-name="Ucircumflex" unicode="&#x443;" horiz-adv-x="1434" 
d="M53 1585h238l454 -1241l418 1241h234l-824 -2380h-229l283 803z" />
    <glyph glyph-name="Ugrave" unicode="&#xf4;" horiz-adv-x="2130" 
d="M934 123l0.000976562 1311c-106.667 0 -205 -24.667 -295 -74c-92.667 -52 -166.334 -128.667 -221.001 -230c-57.333 -100.667 -86 -218 -86 -352c0 -180 62.667 -334.333 188 -463c123.333 -128 261.333 -192 414 -192zM1163 -856l-229 0.000976562v795
c-150 0 -288 31.333 -414 94c-128 62.667 -231.667 156.667 -311 282c-79.333 126 -119 281.667 -119 467c0 248.667 80.5 455 241.5 619s361.833 246 602.5 246v671h229v-671c153.333 0 295.333 -37 426 -111c128.667 -74 231 -177.667 307 -311
c74 -136.667 111 -284.334 111 -443.001c0 -270 -82 -477.333 -246 -622c-166.667 -147.333 -366 -221 -598 -221v-795zM1163 123.001c106.667 0 205.001 28.666 295.001 85.999c90 54.667 163.667 132.334 221 233.001c57.333 101.333 86 213.333 86 336
c0 134 -27.333 251.333 -82 352c-57.333 101.333 -131 178 -221 230c-92.667 49.333 -192.334 74 -299.001 74v-1311z" />
    <glyph glyph-name="Ugrave" unicode="&#x444;" horiz-adv-x="2130" 
d="M934 123l0.000976562 1311c-106.667 0 -205 -24.667 -295 -74c-92.667 -52 -166.334 -128.667 -221.001 -230c-57.333 -100.667 -86 -218 -86 -352c0 -180 62.667 -334.333 188 -463c123.333 -128 261.333 -192 414 -192zM1163 -856l-229 0.000976562v795
c-150 0 -288 31.333 -414 94c-128 62.667 -231.667 156.667 -311 282c-79.333 126 -119 281.667 -119 467c0 248.667 80.5 455 241.5 619s361.833 246 602.5 246v671h229v-671c153.333 0 295.333 -37 426 -111c128.667 -74 231 -177.667 307 -311
c74 -136.667 111 -284.334 111 -443.001c0 -270 -82 -477.333 -246 -622c-166.667 -147.333 -366 -221 -598 -221v-795zM1163 123.001c106.667 0 205.001 28.666 295.001 85.999c90 54.667 163.667 132.334 221 233.001c57.333 101.333 86 213.333 86 336
c0 134 -27.333 251.333 -82 352c-57.333 101.333 -131 178 -221 230c-92.667 49.333 -192.334 74 -299.001 74v-1311z" />
    <glyph glyph-name="dotlessi" unicode="&#xf5;" horiz-adv-x="1434" 
d="M57 1585h279l381 -581l393 581h270l-536 -762l590 -823h-275l-442 643l-438 -643h-275l590 823z" />
    <glyph glyph-name="dotlessi" unicode="&#x445;" horiz-adv-x="1434" 
d="M57 1585h279l381 -581l393 581h270l-536 -762l590 -823h-275l-442 643l-438 -643h-275l590 823z" />
    <glyph glyph-name="circumflex" unicode="&#xf6;" horiz-adv-x="1884" 
d="M1503 0h-1335v1585h213v-1388h909v1388h213v-1392h221v-611h-221v418z" />
    <glyph glyph-name="circumflex" unicode="&#x446;" horiz-adv-x="1884" 
d="M1503 0h-1335v1585h213v-1388h909v1388h213v-1392h221v-611h-221v418z" />
    <glyph glyph-name="tilde" unicode="&#xf7;" horiz-adv-x="1597" 
d="M1217 930l-0.000976562 655h221v-1585h-221v725c-136.667 -131.333 -304.667 -197 -504 -197c-147.333 0 -278.666 42.333 -393.999 127c-117.333 84.667 -176 194 -176 328v602h217v-602c0 -90 37 -159.667 111 -209c74 -52 161.333 -78 262 -78
c194 0 355.333 78 484 234z" />
    <glyph glyph-name="tilde" unicode="&#x447;" horiz-adv-x="1597" 
d="M1217 930l-0.000976562 655h221v-1585h-221v725c-136.667 -131.333 -304.667 -197 -504 -197c-147.333 0 -278.666 42.333 -393.999 127c-117.333 84.667 -176 194 -176 328v602h217v-602c0 -90 37 -159.667 111 -209c74 -52 161.333 -78 262 -78
c194 0 355.333 78 484 234z" />
    <glyph glyph-name="macron" unicode="&#xf8;" horiz-adv-x="2642" 
d="M2462 0h-2302v1585h217v-1388h827v1388h217v-1388h824v1388h217v-1585z" />
    <glyph glyph-name="macron" unicode="&#x448;" horiz-adv-x="2642" 
d="M2462 0h-2302v1585h217v-1388h827v1388h217v-1388h824v1388h217v-1585z" />
    <glyph glyph-name="breve" unicode="&#xf9;" horiz-adv-x="2847" 
d="M2462 193h245v-611h-221v418h-2326v1585h217v-1388h827v1388h217v-1388h824v1388h217v-1392z" />
    <glyph glyph-name="breve" unicode="&#x449;" horiz-adv-x="2847" 
d="M2462 193h245v-611h-221v418h-2326v1585h217v-1388h827v1388h217v-1388h824v1388h217v-1392z" />
    <glyph glyph-name="dotaccent" unicode="&#xfa;" horiz-adv-x="1774" 
d="M729 193h369c182.667 0 274 94 274 282c0 90 -28.667 157 -86 201c-57.333 40.667 -124.333 61 -201 61h-356v-544zM729 1585v-647.001h365c136 0 258.667 -41 368 -123c106.667 -82 160 -198 160 -348c0 -125.333 -37 -234.666 -111 -327.999
c-76 -92.667 -196 -139 -360 -139h-643v1380h-475v205h696z" />
    <glyph glyph-name="dotaccent" unicode="&#x44a;" horiz-adv-x="1774" 
d="M729 193h369c182.667 0 274 94 274 282c0 90 -28.667 157 -86 201c-57.333 40.667 -124.333 61 -201 61h-356v-544zM729 1585v-647.001h365c136 0 258.667 -41 368 -123c106.667 -82 160 -198 160 -348c0 -125.333 -37 -234.666 -111 -327.999
c-76 -92.667 -196 -139 -360 -139h-643v1380h-475v205h696z" />
    <glyph glyph-name="ring" unicode="&#xfb;" horiz-adv-x="1946" 
d="M1765 0h-225v1585h225v-1585zM799 0l-639 -0.000976562v1585h217v-647h364c136.667 0 259.667 -41 369 -123c106.667 -82 160 -198 160 -348c0 -125.333 -37 -234.666 -111 -327.999c-76.667 -92.667 -196.667 -139 -360 -139zM377 192.999h368c183.333 0 275 94 275 282
c0 90 -28.667 157 -86 201c-57.333 40.667 -124.333 61 -201 61h-356v-544z" />
    <glyph glyph-name="ring" unicode="&#x44b;" horiz-adv-x="1946" 
d="M1765 0h-225v1585h225v-1585zM799 0l-639 -0.000976562v1585h217v-647h364c136.667 0 259.667 -41 369 -123c106.667 -82 160 -198 160 -348c0 -125.333 -37 -234.666 -111 -327.999c-76.667 -92.667 -196.667 -139 -360 -139zM377 192.999h368c183.333 0 275 94 275 282
c0 90 -28.667 157 -86 201c-57.333 40.667 -124.333 61 -201 61h-356v-544z" />
    <glyph glyph-name="cedilla" unicode="&#xfc;" horiz-adv-x="1450" 
d="M799 0l-639 -0.000976562v1585h217v-647h364c136.667 0 259.667 -41 369 -123c106.667 -82 160 -198 160 -348c0 -125.333 -37 -234.666 -111 -327.999c-76.667 -92.667 -196.667 -139 -360 -139zM377 192.999h368c183.333 0 275 94 275 282c0 90 -28.667 157 -86 201
c-57.333 40.667 -124.333 61 -201 61h-356v-544z" />
    <glyph glyph-name="cedilla" unicode="&#x44c;" horiz-adv-x="1450" 
d="M799 0l-639 -0.000976562v1585h217v-647h364c136.667 0 259.667 -41 369 -123c106.667 -82 160 -198 160 -348c0 -125.333 -37 -234.666 -111 -327.999c-76.667 -92.667 -196.667 -139 -360 -139zM377 192.999h368c183.333 0 275 94 275 282c0 90 -28.667 157 -86 201
c-57.333 40.667 -124.333 61 -201 61h-356v-544z" />
    <glyph glyph-name="hungarumlaut" unicode="&#xfd;" horiz-adv-x="1655" 
d="M1266 770h-859.999v184h843c-30 131.333 -83 235.333 -159 312c-118 120 -272.333 180 -463 180c-174.667 0 -344 -50.667 -508 -152v246c155.333 71.333 313.666 107 474.999 107c262 0 468 -67 618 -201c84.667 -71.333 153 -160 205 -266
c49.333 -109.333 74 -235 74 -377c0 -284 -82 -505.333 -246 -664c-152.667 -139.333 -356 -209 -610 -209c-169.333 0 -349.666 41 -540.999 123v242c169.333 -120 349.666 -180 540.999 -180s344.333 60 459 180c114.667 122.667 172 281 172 475z" />
    <glyph glyph-name="hungarumlaut" unicode="&#x44d;" horiz-adv-x="1655" 
d="M1266 770h-859.999v184h843c-30 131.333 -83 235.333 -159 312c-118 120 -272.333 180 -463 180c-174.667 0 -344 -50.667 -508 -152v246c155.333 71.333 313.666 107 474.999 107c262 0 468 -67 618 -201c84.667 -71.333 153 -160 205 -266
c49.333 -109.333 74 -235 74 -377c0 -284 -82 -505.333 -246 -664c-152.667 -139.333 -356 -209 -610 -209c-169.333 0 -349.666 41 -540.999 123v242c169.333 -120 349.666 -180 540.999 -180s344.333 60 459 180c114.667 122.667 172 281 172 475z" />
    <glyph glyph-name="ogonek" unicode="&#xfe;" horiz-adv-x="2421" 
d="M598 770l-208.997 0.000976562v-770h-225v1585h225v-631h221c41.333 199.333 139.666 364.666 294.999 495.999c153.333 128 333.666 192 540.999 192c242.667 0 448.667 -76.333 618 -229s254 -361.667 254 -627c0 -262 -87.333 -469.5 -262 -622.5
s-382 -229.5 -622 -229.5c-232.667 0 -429.334 72.667 -590.001 218c-164 144.667 -246 350.667 -246 618zM2085 786.001c0 186 -60 341.667 -180 467c-120.667 123.333 -269.667 185 -447 185c-169.333 0 -315.333 -64.333 -438 -193
c-122.667 -128 -184 -282.333 -184 -463c0 -182.667 60 -337 180 -463c120 -125.333 258 -188 414 -188c172 0 324.667 61.333 458 184c131.333 120.667 197 277.667 197 471z" />
    <glyph glyph-name="ogonek" unicode="&#x44e;" horiz-adv-x="2421" 
d="M598 770l-208.997 0.000976562v-770h-225v1585h225v-631h221c41.333 199.333 139.666 364.666 294.999 495.999c153.333 128 333.666 192 540.999 192c242.667 0 448.667 -76.333 618 -229s254 -361.667 254 -627c0 -262 -87.333 -469.5 -262 -622.5
s-382 -229.5 -622 -229.5c-232.667 0 -429.334 72.667 -590.001 218c-164 144.667 -246 350.667 -246 618zM2085 786.001c0 186 -60 341.667 -180 467c-120.667 123.333 -269.667 185 -447 185c-169.333 0 -315.333 -64.333 -438 -193
c-122.667 -128 -184 -282.333 -184 -463c0 -182.667 60 -337 180 -463c120 -125.333 258 -188 414 -188c172 0 324.667 61.333 458 184c131.333 120.667 197 277.667 197 471z" />
    <glyph glyph-name="fl" unicode="&#xff;" horiz-adv-x="1602" 
d="M1024 721l-766 -721h-274l774 725c-153.333 5.33301 -276.333 39.333 -369 102c-95.333 63.333 -143 166 -143 308c0 133.333 49 242.333 147 327c96 82 224.333 123 385 123h652v-1585h-226v721h-180zM1204 1384h-422c-204.667 0 -307 -83 -307 -249
c0 -164 106.667 -246 320 -246h409v495z" />
    <glyph glyph-name="fl" unicode="&#x44f;" horiz-adv-x="1602" 
d="M1024 721l-766 -721h-274l774 725c-153.333 5.33301 -276.333 39.333 -369 102c-95.333 63.333 -143 166 -143 308c0 133.333 49 242.333 147 327c96 82 224.333 123 385 123h652v-1585h-226v721h-180zM1204 1384h-422c-204.667 0 -307 -83 -307 -249
c0 -164 106.667 -246 320 -246h409v495z" />
    <glyph glyph-name="Otilde" unicode="&#x152;" horiz-adv-x="2130" 
d="M225 0v2621h242v-1228l1180 1228h311l-1241 -1257l1302 -1364h-344l-1208 1327v-1327h-242zM504 3314h168l348 -447l344 447h164l-381 -627h-262z" />
    <glyph glyph-name="oe" unicode="&#x153;" horiz-adv-x="1270" 
d="M61 279l209 121.999c24.667 -73.333 72.667 -136 144 -188c70.667 -54.667 147 -82 229 -82c104 0 184.667 23.333 242 70c54.667 43.333 82 96.333 82 159c0 84.667 -28.667 157.334 -86 218.001c-57.333 57.333 -153 107.666 -287 150.999
c-104 38 -186 76.333 -246 115c-60 35.333 -110.333 87 -151 155c-41.333 68.667 -62 149.334 -62 242.001c0 74 22 142.333 66 205c40.667 62.667 100.667 111.667 180 147c79.333 36 172 54 278 54c226.667 0 400.334 -108 521.001 -324l-201 -115
c-68 158.667 -182.667 238 -344 238c-82 0 -146.333 -19 -193 -57c-46 -41.333 -69 -96 -69 -164c0 -74 30 -134.333 90 -181c57.333 -46 155.666 -96.333 294.999 -151c133.333 -49.333 239.666 -116.333 318.999 -201c76.667 -84.667 115 -184.334 115 -299.001
c0 -142 -49.333 -254 -148 -336c-98 -84.667 -233 -127 -405 -127c-131.333 0 -248.666 31.667 -351.999 95c-106.667 62.667 -182 147.334 -226 254.001z" />
    <glyph glyph-name="Ydieresis.0" unicode="&#x178;" horiz-adv-x="1434" 
d="M319 1892h795v-127h-795v127zM41 1585h238l454 -1241l418 1241h233l-823 -2380h-229l282 803z" />
    <glyph glyph-name="florin" unicode="&#x192;" horiz-adv-x="1655" 
d="M1085 2040h339.998l-20 -152h-348l-246 -1417c-30 -188.667 -52 -306 -66 -352c-10.667 -49.333 -37.667 -104 -81 -164c-126 -180 -313.333 -270 -562 -270c-70.667 0 -119.667 9.33301 -147 28l37 201c24.667 -8 57.334 -12 98.001 -12c126 0 221.667 24.333 287 73
c70.667 49.333 119.667 115 147 197c27.333 76.667 52 186 74 328l250 1388h-344l37 152h336c92.667 510.667 297.334 766 614.001 766h41c0 -5.33301 8 -8 24 -8l-32 -230c-8.66699 2.66699 -18.334 4 -29.001 4h-33c-82 0 -147.333 -26 -196 -78
c-57.333 -62.667 -95.666 -122.667 -114.999 -180c-19.333 -68 -41.333 -159.333 -66 -274z" />
    <glyph glyph-name="circumflex.0" unicode="&#x2c6;" horiz-adv-x="1884" 
d="M1503 0h-1335v1585h213v-1388h909v1388h213v-1392h221v-611h-221v418z" />
    <glyph glyph-name="tilde.0" unicode="&#x2dc;" horiz-adv-x="1597" 
d="M1217 930l-0.000976562 655h221v-1585h-221v725c-136.667 -131.333 -304.667 -197 -504 -197c-147.333 0 -278.666 42.333 -393.999 127c-117.333 84.667 -176 194 -176 328v602h217v-602c0 -90 37 -159.667 111 -209c74 -52 161.333 -78 262 -78
c194 0 355.333 78 484 234z" />
    <glyph glyph-name="endash.0" unicode="&#x2013;" horiz-adv-x="983" 
d="M139 721v192h721v-192h-721z" />
    <glyph glyph-name="emdash.0" unicode="&#x2014;" horiz-adv-x="2122" 
d="M127 532v193h1860v-193h-1860z" />
    <glyph glyph-name="quoteleft.0" unicode="&#x2018;" horiz-adv-x="791" 
d="M557 1765h-343.999v275c0 169.333 26 293.666 78 373c49.333 81.333 138 142.666 266 184v-156c-62.667 -24.667 -106.334 -58.667 -131.001 -102c-27.333 -44 -41 -108.333 -41 -193v-61h172v-320z" />
    <glyph glyph-name="quoteright.0" unicode="&#x2019;" horiz-adv-x="791" 
d="M213 2601l344 -0.000976562v-274c0 -169.333 -26 -293.666 -78 -372.999c-48.667 -82 -137.334 -143.667 -266.001 -185v156c62.667 24.667 106.334 59 131.001 103c27.333 43.333 41 107.333 41 192v61h-172v320z" />
    <glyph glyph-name="quotesinglbase.0" unicode="&#x201a;" horiz-adv-x="1421" 
d="M729 1384l-363.999 0.000976562v-450h364c79.333 0 145 20.333 197 61c52 41.333 78 98.666 78 171.999c0 82 -22 139.333 -66 172c-46.667 30 -116.334 45 -209.001 45zM147.001 1585h541.001c177.333 0 312.666 -28.667 405.999 -86c90 -60 135 -158.333 135 -295
c0 -199.333 -102.333 -319.333 -307 -360c242.667 -38.667 364 -178 364 -418c0 -117.333 -46.333 -217 -139 -299c-95.333 -84.667 -233.333 -127 -414 -127h-586v1585zM365.002 737.001l-0.000976562 -544h360c114.667 0 199.334 21.667 254.001 65c52 44 78 119 78 225
c0 169.333 -97 254 -291 254h-401z" />
    <glyph glyph-name="quotedblleft.0" unicode="&#x201c;" horiz-adv-x="1364" 
d="M1147 1765h-344v275c0 172 25.833 297.5 77.5 376.5s140.5 139.167 266.5 180.5v-156c-60 -24.667 -99.667 -58.667 -119 -102c-24.667 -44 -37 -108.333 -37 -193v-61h156v-320zM557 1765h-343.999v275c0 169.333 26 293.666 78 373c49.333 81.333 138 142.666 266 184
v-156c-62.667 -24.667 -106.334 -58.667 -131.001 -102c-27.333 -44 -41 -108.333 -41 -193v-61h172v-320z" />
    <glyph glyph-name="quotedblright.0" unicode="&#x201d;" horiz-adv-x="1364" 
d="M213 2601h344v-274c0 -172.667 -26 -298.5 -78 -377.5s-140.667 -139.167 -266 -180.5v156c60 24.667 99.667 59 119 103c24.667 46 37 110 37 192v61h-156v320zM803 2601l343.999 -0.000976562v-274c0 -169.333 -26 -293.666 -78 -372.999
c-49.333 -82 -138 -143.667 -266 -185v156c62.667 24.667 106.334 59 131.001 103c27.333 43.333 41 107.333 41 192v61h-172v320z" />
    <glyph glyph-name="quotedblbase.0" unicode="&#x201e;" horiz-adv-x="1147" 
d="M164 0v1585h852v-196h-635v-1389h-217z" />
    <glyph glyph-name="dagger" unicode="&#x2020;" horiz-adv-x="2753" 
d="M1503 -496h-250v2114h-909v229h909v996h250v-996h910v-229h-910v-2114z" />
    <glyph glyph-name="daggerdbl.0" unicode="&#x2021;" horiz-adv-x="1753" 
d="M827 127c161.333 0 296.668 57.332 406.001 171.999s164 277 164 487c0 191.333 -48 348.333 -144 471c-95.333 123.333 -222.333 185 -381 185c-152.667 0 -282.334 -53.333 -389.001 -160c-106 -109.333 -159 -263.666 -159 -462.999c0 -194 45 -357.833 135 -491.5
s212.667 -200.5 368 -200.5zM1397 -0.000976562v287.001c-131.333 -235.333 -329.333 -353 -594 -353c-224 0 -398.667 78 -524 234c-134 161.333 -201 379.666 -201 654.999c0 224 69.667 418 209 582c133.333 161.333 309.333 242 528 242c284 0 478 -116.333 582 -349
v287h221v-1585h-221z" />
    <glyph glyph-name="bullet.0" unicode="&#x2022;" horiz-adv-x="1630" 
d="M360 1393c0 133.333 46.666 245.333 139.999 336c92.667 87.333 201.667 131 327 131c82 0 161.333 -20.667 238 -62c70.667 -38 129.334 -94 176.001 -168c41.333 -73.333 62 -152.333 62 -237c0 -126 -46.667 -235.333 -140 -328
c-92.667 -92.667 -204.667 -139 -336 -139c-125.333 0 -234.5 46.333 -327.5 139s-139.5 202 -139.5 328z" />
    <glyph glyph-name="ellipsis.0" unicode="&#x2026;" horiz-adv-x="1819" 
d="M528 0h-344v315h344v-315zM1090 0h-345v315h345v-315zM1651 0h-344v315h344v-315z" />
    <glyph glyph-name="perthousand.0" unicode="&#x2030;" horiz-adv-x="1823" 
d="M639 1389v-197c0 -210 -17.667 -409.333 -53 -598c-38.667 -191.333 -86.667 -325 -144 -401h856v1196h-659zM434 1585h1086v-1392h221v-611h-221v418h-1258v-418h-217v611h139c87.333 81.333 151.666 204 192.999 368c38 164 57 379.667 57 647v377z" />
    <glyph glyph-name="guilsinglleft.0" unicode="&#x2039;" horiz-adv-x="3891" 
d="M233 0v2732l1856 -2200v2089h221v-2695l-1851 2192v-2118h-226zM3170 2466c-114.667 0 -211.667 -40.999 -291 -122.999c-78.667 -84.667 -118 -185.667 -118 -303c0 -104 41 -199.667 123 -287c78.667 -82 172.667 -123 282 -123c112 0 210.333 39.667 295 119
c82 79.333 123 177.666 123 294.999c0 120 -39.667 219.667 -119 299c-82 82 -180.333 123 -295 123zM3170 1503c-144.667 0 -270.334 53.334 -377 160.001c-108.667 101.333 -163 225.666 -163 372.999c0 152.667 51.667 283.667 155 393c104 106.667 232.333 160 385 160
c153.333 0 281.666 -52 385 -156c104 -104 156 -233.667 156 -389c0 -150 -52 -277 -156 -381c-106 -106.667 -234.333 -160 -385 -160zM2638 1253h1081v-131h-1081v131z" />
    <glyph glyph-name="guilsinglright.0" unicode="&#x203a;" horiz-adv-x="1638" 
d="M614 2802c-48.667 0 -89.499 16.333 -122.499 49s-49.5 73.667 -49.5 123c0 48.667 16.5 89.5 49.5 122.5s73.833 49.5 122.5 49.5c49.333 0 91.666 -15 126.999 -45c33.333 -27.333 50 -69.666 50 -127c0 -49.333 -16.667 -90.333 -50 -123
c-32.667 -32.667 -75 -49 -127 -49zM1098 2802c-44 0 -85 16.333 -123 49c-35.333 32.667 -53 73.667 -53 123c0 48.667 16.333 89.5 49 122.5s75 49.5 127 49.5c48.667 0 91 -15 127 -45c30 -36 45 -78.333 45 -127c0 -49.333 -16.5 -90.333 -49.5 -123
s-73.833 -49 -122.5 -49zM193.001 0v2621h1298v-225h-1057v-819h1057v-225h-1057v-1131h1057v-221h-1298z" />
    <glyph glyph-name="trademark.0" unicode="&#x2122;" horiz-adv-x="2458" 
d="M426 1221v1216h-360v115h852v-115h-369v-1216h-123zM1729 1171l-467 1065l-99 -1015h-127l181 1388l512 -1188l528 1188l172 -1388h-127l-98 1015z" />
    <glyph glyph-name="currency" unicode="&#x2219;" horiz-adv-x="1622" 
d="M1102 0c-60 0 -113.332 -43.667 -159.999 -131c-49.333 -87.333 -74 -189.666 -74 -306.999h-114c0 117.333 -23.333 219.666 -70 306.999s-101.334 131 -164.001 131h-364v1585h217v-1380h856v1380h221v-1585h-348z" />
    <glyph glyph-name=".null" horiz-adv-x="0" 
 />
    <glyph glyph-name="glyph2" horiz-adv-x="1024" 
 />
    <glyph glyph-name="nonmarkingreturn" horiz-adv-x="1024" 
 />
    <glyph glyph-name="cent" horiz-adv-x="1597" 
d="M836 -66c-199.333 16.667 -363.332 85 -491.999 205c-164 158.667 -246 380 -246 664c0 134 26 256.667 78 368c49.333 112 116.333 203.667 201 275c125.333 112 278.333 176 459 192v1184h159v-1175c161.333 0 319.666 -35.667 474.999 -107v-246
c-150 93.333 -308.333 144 -475 152v-1331c174.667 8 341.334 68 500.001 180v-242c-166.667 -70.667 -333.334 -111.667 -500.001 -123v-766h-159v770zM836.001 123l0.000976562 1315c-145.333 -32.667 -257.333 -90 -336 -172
c-117.333 -117.333 -176 -282.666 -176 -495.999c0 -194 57.333 -352.333 172 -475c95.333 -98.667 208.666 -156 339.999 -172z" />
    <glyph glyph-name="sterling" horiz-adv-x="2220" 
d="M1827 324l126.999 -196.997c-153.333 -120 -311.666 -180 -474.999 -180c-76.667 0 -154.667 13.667 -234 41c-27.333 5.33301 -112 29.666 -254 72.999c-84.667 24.667 -163.667 37 -237 37c-150.667 0 -305 -50.333 -463 -151l-119 180c136.667 82 241.667 179 315 291
c76.667 112 115 228 115 348c0 139.333 -35.333 282.666 -106 429.999h-324v152h258c-13.333 32.667 -36.666 99.334 -69.999 200.001c-24 57.333 -40.333 114.666 -49 171.999c-13.333 60 -20 113.333 -20 160c0 218.667 77.667 399 233 541
c156 147.333 348.667 221 578 221c177.333 0 323.333 -32.667 438 -98c112 -63.333 200.667 -155 266 -275c60 -130.667 98.333 -275.334 115 -434.001h-258c-2.66699 186 -50.334 330.667 -143.001 434c-98.667 98.667 -234 148 -406 148
c-169.333 0 -305.666 -49.333 -408.999 -148c-104 -103.333 -156 -233 -156 -389c0 -136.667 50.333 -314 151 -532h680v-152h-622c48.667 -147.333 73 -262 73 -344c0 -101.333 -19 -197 -57 -287c-35.333 -84.667 -103.666 -189.667 -204.999 -315
c126 32.667 217.667 49 275 49c79.333 0 185.666 -20.333 318.999 -61c131.333 -38.667 236.666 -58 315.999 -58c114.667 0 230.667 48 348 144z" />
    <glyph glyph-name="acute" horiz-adv-x="3891" 
d="M614 2478c-106 0 -186.333 -45 -241 -135c-57.333 -92.667 -86 -221 -86 -385c0 -328 106.333 -492 319 -492c210.667 0 316 170.667 316 512c0 333.333 -102.667 500 -308 500zM70 1962c0 188.667 45.001 349.667 135.001 483c87.333 134 223.666 201 408.999 201
c166.667 0 295 -60 385 -180c87.333 -120 131 -281.333 131 -484c0 -218 -47.667 -387 -143 -507c-98 -120.667 -226.333 -181 -385 -181c-150 0 -275.667 60.333 -377 181c-103.333 120 -155 282.333 -155 487zM446.001 -66l1508 2708h192l-1499 -2708h-201zM1999 1122
c-96 0 -171.167 -46.333 -225.5 -139s-81.5 -219.667 -81.5 -381c0 -327.333 106.333 -491 319 -491c210.667 0 316 170.667 316 512c0 332.667 -109.333 499 -328 499zM1475 606c0 188.667 45.001 350 135.001 484c87.333 133.333 223.666 200 408.999 200
c166.667 0 295 -60 385 -180c87.333 -120 131 -281 131 -483c0 -218.667 -47.667 -388 -143 -508c-98 -120 -226.333 -180 -385 -180c-150 0 -275.667 60 -377 180c-103.333 120 -155 282.333 -155 487zM3252 1122c-194 0 -291 -173.333 -291 -520
c0 -327.333 106.667 -491 320 -491c210 0 315 170.667 315 512c0 332.667 -114.667 499 -344 499zM2744 606c0 188.667 41 349.999 123 483.999c79.333 133.333 196.666 200 352 200c196.667 0 344.334 -58.667 443 -176c95.333 -117.333 143 -279.666 143 -486.999
c0 -218.667 -47.667 -388 -143 -508c-98.667 -120 -227 -180 -385 -180c-150 0 -275.667 60 -377 180c-104 120 -156 282.333 -156 487z" />
    <glyph glyph-name="notequal" horiz-adv-x="2621" 
d="M1040 692h-794v148h856l213 503h-1069v140h1130l467 1097h193l-467 -1097h819v-140h-881l-217 -503h1098v-148h-1159l-479 -1122h-189z" />
    <glyph glyph-name="AE" horiz-adv-x="1516" 
d="M233 0v2621h1160v-229h-918v-2392h-242zM283 3424h168l348 -446l344 446h164l-381 -626h-262z" />
    <glyph glyph-name="Oslash" horiz-adv-x="1147" 
d="M164 0v1585h852v-196h-635v-1389h-217zM70 2413h168l348 -447l344 447h164l-381 -627h-262z" />
    <glyph glyph-name="infinity" horiz-adv-x="2322" 
d="M1081 1053c0 103.333 -34.002 190.666 -102.002 261.999c-68 73.333 -154 110 -258 110c-65.333 0 -126.666 -16.333 -183.999 -49c-54.667 -32.667 -98.5 -77.667 -131.5 -135s-49.5 -120 -49.5 -188c0 -101.333 35.667 -186 107 -254
c70.667 -71.333 152.667 -107 246 -107c100.667 0 189.334 35.667 266.001 107c70.667 62.667 106 147.334 106 254.001zM1925 1053c0 68 -16.334 130.666 -49.001 187.999c-27.333 57.333 -71 102.333 -131 135c-52 32.667 -113.333 49 -184 49
c-101.333 0 -187.333 -36.667 -258 -110c-74 -74 -111 -161.333 -111 -262c0 -57.333 16.333 -116 49 -176c30 -52 73.667 -96 131 -132c54.667 -35.333 116 -53 184 -53c98.667 0 186.334 35.667 263.001 107c70.667 62.667 106 147.334 106 254.001zM2036 1053
c0 -134 -44.999 -246.001 -134.999 -336.001c-93.333 -92.667 -206.666 -139 -339.999 -139c-90.667 0 -171.334 23 -242.001 69c-74 38.667 -132.667 100 -176 184c-44 -81.333 -102.667 -142.666 -176 -183.999c-74 -46 -156 -69 -246 -69
c-84.667 0 -162.667 20.333 -234 61c-70.667 44 -129.334 101.333 -176.001 172c-43.333 71.333 -65 147.666 -65 228.999c0 142 45 259.667 135 353c87.333 95.333 200.666 143 339.999 143c98 0 181.333 -23.333 250 -70c68 -48.667 122.667 -116.667 164 -204
c32.667 78.667 88.667 145.334 168 200.001c68 49.333 154 74 258 74c138.667 0 253.334 -45 344.001 -135c87.333 -90 131 -206 131 -348z" />
    <glyph glyph-name="lessequal" horiz-adv-x="2580" 
d="M2351 2380v-160l-1872 -762l1872 -758v-155l-2109 860v111zM238 1155l2109 -856v-156l-2109 861v151z" />
    <glyph glyph-name="greaterequal" horiz-adv-x="2580" 
d="M238 2380l2109 -864v-111l-2109 -860v155l1871 758l-1871 762v160zM2351 1155v-151l-2109 -861v156z" />
    <glyph glyph-name="yen" horiz-adv-x="2007" 
d="M885 680h-807v147h807v377l-74 123h-733v139h647l-709 1155h287l676 -1155h57l676 1155h270l-700 -1155h680v-139h-766l-74 -123v-377h840v-147h-840v-680h-237v680z" />
    <glyph glyph-name="mu" horiz-adv-x="2048" 
d="M1606 2191l-0.000976562 -1622v-53c0 -128 8 -212.667 24 -254c16.667 -43.333 53.667 -65 111 -65c22 0 38.333 4 49 12c13.333 5.33301 35 19 65 41v-78l-327 -217c-2.66699 -2.66699 -6.66699 -4 -12 -4c-6 0 -11.667 -1.33301 -17 -4c-62.667 0 -105 35.333 -127 106
c-13.333 46.667 -29.666 139.667 -48.999 279c-104 -131.333 -195.333 -231 -274 -299c-79.333 -71.333 -164 -107 -254 -107c-205.333 0 -342 138 -410 414c0 -40.667 9.66699 -195 29 -463c5.33301 -62.667 12 -125.334 20 -188.001c8 -66 15 -126.333 21 -181
c5.33301 -54 8 -100.333 8 -139c0 -191.333 -53.333 -287 -160 -287c-100.667 0 -151 87.667 -151 263c0 76 15 227.333 45 454s50.333 439.667 61 639c16.667 295.333 25 582 25 860v893h307v-1380c0 -182.667 24.667 -337 74 -463c48.667 -125.333 123.667 -188 225 -188
c100.667 0 182.667 38 246 114c62.667 74 117 157.333 163 250v1667h308z" />
    <glyph glyph-name="partialdiff" horiz-adv-x="1860" 
d="M356 811c0 -221.333 46.668 -390.666 140.001 -507.999c90 -114.667 223.667 -172 401 -172s312.666 58.667 405.999 176c90 114.667 135 282.667 135 504c0 139.333 -22 258 -66 356c-43.333 101.333 -106 180.666 -188 237.999s-177.667 86 -287 86
c-106.667 0 -201 -28.667 -283 -86c-84.667 -60 -148.667 -139.333 -192 -238c-44 -98 -66 -216.667 -66 -356zM1642 807c0 -174.667 -28.668 -326.335 -86.001 -455.002c-62.667 -130.667 -150 -229 -262 -295c-109.333 -68 -241.666 -102 -396.999 -102
c-229.333 0 -412.333 76.333 -549 229c-130.667 153.333 -196 361 -196 623c0 166.667 32.667 315.334 98 446.001c62.667 128.667 150 227 262 295c112 71.333 240.333 107 385 107c218.667 0 396.334 -79.333 533.001 -238c0 96 -24.667 197 -74 303
c-46.667 106.667 -109.667 191.334 -189 254.001c-87.333 66 -178.666 99 -273.999 99c-98.667 0 -176.667 -16.667 -234 -50c-54 -30 -115.333 -81.667 -184 -155l-90 160c131.333 144.667 296.666 217 495.999 217c215.333 0 396.666 -99.667 543.999 -299
c144.667 -208 217 -587.667 217 -1139z" />
    <glyph glyph-name="summation" horiz-adv-x="1327" 
d="M827 598v2023h238v-2056c0 -207.333 -41 -363 -123 -467c-82 -103.333 -230.667 -155 -446 -155c-226.667 0 -392 86 -496 258l172 151c74 -133.333 183.333 -200 328 -200c125.333 0 211.333 35.333 258 106c46 71.333 69 184.666 69 339.999z" />
    <glyph glyph-name="product" horiz-adv-x="2458" 
d="M385 1356l0.000976562 -53.001c0 -358 102.333 -640.833 307 -848.5s473.667 -311.5 807 -311.5c292 0 572 104 840 312l-4 -279c-120.667 -73.333 -251.667 -130.666 -393 -171.999c-145.333 -40.667 -297 -61 -455 -61c-207.333 0 -413.666 38 -618.999 114
c-204.667 76.667 -379.334 216 -524.001 418c-147.333 202 -221 473.667 -221 815c0 251.333 47.667 482 143 692c93.333 208 245 376 455 504c210 128.667 475 193 795 193c294.667 0 575.667 -93 843 -279l-8 -262c-98 84.667 -212.667 161 -344 229
c-134 66 -299.333 99 -496 99c-297.333 0 -543 -80.667 -737 -242c-196.667 -164 -319.334 -385 -368.001 -663h1269v-205h-1290z" />
    <glyph glyph-name="pi" horiz-adv-x="1597" 
d="M315 770c0 -194 57.333 -352.333 172 -475c114.667 -120 267.667 -180 459 -180s371.666 60 540.999 180v-242c-191.333 -82 -371.666 -123 -540.999 -123c-254 0 -457.333 69.667 -610 209c-164 158.667 -246 380 -246 664c0 134 26 256.667 78 368
c49.333 112 116.333 203.667 201 275c150 134 356 201 618 201c161.333 0 319.666 -35.667 474.999 -107v-246c-163.333 101.333 -332.666 152 -507.999 152c-190.667 0 -344.667 -60 -462 -180c-76.667 -76.667 -130 -180.667 -160 -312h844v-184h-861z" />
    <glyph glyph-name="ordmasculine" horiz-adv-x="3482" 
d="M2089 2621l-0.000976562 -1167h410c202 0 367 -30 495 -90c126 -60 217.667 -142 275 -246c54.667 -106.667 82 -228 82 -364c0 -235.333 -69.667 -419.666 -209 -552.999c-142 -134 -348.333 -201 -619 -201h-676v2400h-983c0 -556.667 -4 -945.667 -12 -1167
c-8 -237.333 -31.333 -436.666 -70 -597.999c-40.667 -177.333 -96.667 -312.666 -168 -405.999c-65.333 -90 -141.666 -154 -228.999 -192c-79.333 -35.333 -172.333 -57.333 -279 -66v246c52 0 106.667 11 164 33c54.667 22 108 67 160 135
c54.667 71.333 99.667 213.333 135 426c35.333 210 53 640 53 1290v520h1471zM2523 196.997h8c380 0 570 182.667 570 548c0 333.333 -180.333 500 -541 500h-471v-1044z" />
    <glyph glyph-name="Omega" horiz-adv-x="2499" 
d="M1278 0l-0.000976562 1389h-631c0 -672 -68.333 -1102.33 -205 -1291c-76 -109.333 -207 -164 -393 -164v209c158.667 0 259.667 105.333 303 316c38.667 199.333 58 574.666 58 1126h1081v-647h364c136.667 0 259.667 -41 369.001 -123c106.667 -82 160 -198 160 -348
c0 -125.333 -37 -234.666 -111 -327.999c-76 -92.667 -196 -139 -360 -139h-635zM1491 193h369c182.667 0 274 94 274 282c0 90 -28.667 157 -86 201c-57.333 40.667 -124.333 61 -201 61h-356v-544z" />
    <glyph glyph-name="ae" horiz-adv-x="3244" 
d="M1561 0v1352h-1143v-1352h-242v2621h242v-1065h1143v1065h241v-1167h410c202 0 367 -30 495 -90c126 -60 217.667 -142 275 -246c54.667 -106.667 82 -228 82 -364c0 -235.333 -69.667 -419.666 -209 -552.999c-142 -134 -348.333 -201 -619 -201h-675zM2236 196.999h9
c379.333 0 569 182.667 569 548c0 333.333 -180.333 500 -541 500h-471v-1044z" />
    <glyph glyph-name="oslash" horiz-adv-x="2355" 
d="M1110 0l-0.000976562 770h-741v-770h-217v1585h217v-631h741v631h221v-647h365c136.667 0 259.334 -41 368.001 -123c106.667 -82 160 -198 160 -348c0 -139.333 -41 -251.333 -123 -336c-84.667 -87.333 -200.667 -131 -348 -131h-643zM1331 193h369c82 0 149 23 201 69
c48.667 46.667 73 117.667 73 213c0 90 -28.667 157 -86 201c-57.333 40.667 -124 61 -200 61h-357v-544z" />
    <glyph glyph-name="questiondown" horiz-adv-x="688" 
d="M311 2019c-43.333 0 -84.332 16.333 -122.999 49c-35.333 33.333 -53 74.333 -53 123c0 49.333 16.333 90.333 49 123s75 49 127 49c49.333 0 91.666 -15 126.999 -45c30 -35.333 45 -77.666 45 -127c0 -48.667 -16.333 -89.667 -49 -123
c-32.667 -32.667 -73.667 -49 -123 -49zM209.001 -795v2380h225v-2380h-225z" />
    <glyph glyph-name="exclamdown" horiz-adv-x="1638" 
d="M57 438l209.003 110.998c87.333 -276 263.666 -414 528.999 -414c152.667 0 279.667 46.333 381 139c100.667 93.333 151 230 151 410c0 182.667 -54.667 319.334 -164 410.001c-32.667 30 -128 91.333 -286 184c-161.333 92.667 -277.666 163.667 -348.999 213
c-108.667 79.333 -196 162.666 -262 249.999c-65.333 84.667 -98 188.334 -98 311.001c0 186 62.667 337.667 188 455c123.333 114.667 288.666 172 495.999 172c117.333 0 221 -17.833 311 -53.5s179 -128.5 267 -278.5l-185 -111c-90 156 -228 234 -414 234
c-114.667 0 -212.667 -37 -294 -111c-82 -73.333 -123 -178.333 -123 -315c0 -177.333 97 -320.666 291 -429.999l327 -172c71.333 -38.667 134.333 -77 189 -115c232 -158 348 -367 348 -627c0 -128 -26 -249.333 -78 -364c-52 -117.333 -134 -213 -246 -287
c-114.667 -76.667 -263.334 -115 -446.001 -115c-150.667 0 -287.334 31.667 -410.001 95c-125.333 62.667 -236 199 -332 409z" />
    <glyph glyph-name="radical" horiz-adv-x="2130" 
d="M57 1585h426l488 -1200l819 2232h246l-1065 -2711l-635 1511h-279v168z" />
    <glyph glyph-name="approxequal" horiz-adv-x="2486" 
d="M418 1077l-152.001 115c144.667 289.333 323.667 434 537 434c112 0 259.333 -52 442 -156c186 -100.667 328 -151 426 -151c71.333 0 138.333 23.333 201 70c68 60 129.333 141.667 184 245l148 -118c-136.667 -290 -321 -435 -553 -435
c-49.333 0 -113.666 12.333 -192.999 37c-60 24.667 -137.667 61.667 -233 111c-74 46 -150.667 84 -230 114c-60 24.667 -126.667 37 -200 37c-142 0 -267.667 -101 -377 -303zM417.999 492l-151.997 113.998c139.333 289.333 318.333 434 537 434
c117.333 0 264.666 -50.5 441.999 -151.5s319.333 -151.5 426 -151.5c76.667 0 143.667 23.333 201 70c60 40.667 121.333 121.334 184 242.001l148 -111c-66 -144.667 -146.667 -252.667 -242 -324c-92.667 -73.333 -196.334 -110 -311.001 -110
c-63.333 0 -127.666 12.333 -192.999 37c-70.667 27.333 -148.334 65.333 -233.001 114c-98.667 54.667 -175.334 90.334 -230.001 107.001c-57.333 27.333 -124 41 -200 41c-142 0 -267.667 -103.667 -377 -311z" />
    <glyph glyph-name="Delta" horiz-adv-x="2228" 
d="M1098 2138l-721 -1954h1462zM1851 0h-1470l-180 397l778 1966h242l770 -1982z" />
    <glyph glyph-name="OE" horiz-adv-x="1679" 
d="M160 0v1585h217v-704l790 704h308l-852 -708l909 -877h-303l-852 819v-819h-217zM270 2466h168l348 -447l344 447h164l-381 -627h-262z" />
    <glyph glyph-name="fraction" horiz-adv-x="2253" 
d="M1065 -516c0 68 -7.00098 135 -21.001 201c-16 62.667 -36.333 117 -61 163c-24.667 44 -56 81 -94 111c-38.667 27.333 -75.667 41 -111 41h-590v2621h242v-2392h1417v2392h242v-2621h-590c-73.333 0 -138.666 -52 -195.999 -156c-60.667 -106 -91 -226 -91 -360h-147z
" />
  </font>
</defs>
</svg>
