<?xml version="1.0" standalone="no"?>
<!DOCTYPE svg PUBLIC "-//W3C//DTD SVG 1.1//EN" "http://www.w3.org/Graphics/SVG/1.1/DTD/svg11.dtd" >
<svg xmlns="http://www.w3.org/2000/svg">
<metadata></metadata>
<defs>
<font id="pf_square_sans_prothin" horiz-adv-x="1085" >
<font-face units-per-em="2048" ascent="1536" descent="-512" />
<missing-glyph horiz-adv-x="491" />
<glyph horiz-adv-x="0" />
<glyph horiz-adv-x="682" />
<glyph unicode=" "  horiz-adv-x="491" />
<glyph unicode="&#x09;" horiz-adv-x="491" />
<glyph unicode="&#xa0;" horiz-adv-x="491" />
<glyph unicode="!" horiz-adv-x="405" d="M137 47q0 32 13.5 48t48.5 16q36 0 48.5 -16t12.5 -48q0 -33 -12.5 -49t-48.5 -16q-38 0 -50 17t-12 48zM162 1341q0 17 14 17h66q13 0 10 -17l-29 -1028q0 -12 -8 -12h-22q-11 0 -11 12z" />
<glyph unicode="&#x22;" horiz-adv-x="458" d="M111 1343q0 15 14 15h45q12 0 12 -15l-20 -321q0 -12 -10 -12h-17q-5 0 -8 12zM270 1343q0 15 17 15h43q12 0 12 -15l-20 -321q0 -12 -11 -12h-14q-8 0 -8 12z" />
<glyph unicode="#" d="M2 522l4 27q3 10 14 10h273l74 313h-267q-11 0 -8 15l4 26q3 13 15 13h268l98 420q3 12 10 12h31q8 0 11.5 -3t2.5 -9l-98 -420h305l99 420q3 12 10 12h31q8 0 11.5 -3t2.5 -9l-98 -420h278q11 0 8 -13l-4 -26q-3 -15 -14 -15h-281l-71 -313h272q10 0 10 -10l-6 -27 q-3 -16 -14 -16h-275l-114 -494q-3 -12 -17 -12h-30q-14 0 -11 12l115 494h-303l-115 -494q-3 -12 -16 -12h-31q-13 0 -10 12l115 494h-271q-11 0 -8 16zM350 559h303l74 313h-305z" />
<glyph unicode="$" d="M127 72l4 22q3 10 19 10q215 -28 370 -28q168 0 264.5 70t96.5 196q0 81 -21.5 138.5t-66.5 93.5t-102.5 56.5t-141.5 33.5t-142 27t-114.5 39t-90 59t-53.5 86.5t-20 121.5q0 162 101.5 253.5t277.5 99.5v170q0 10 12 10h41q8 0 8 -10v-168q216 -4 324 -41q13 -7 10 -19 l-2 -22q-3 -13 -16 -10q-194 22 -336 22q-170 0 -255 -73t-85 -205q0 -48 11.5 -86t36 -65t51 -45.5t70.5 -32.5t78 -22t89 -18q55 -9 94.5 -18t85.5 -24t77.5 -33t63 -45t50.5 -61t30.5 -81t11.5 -104q0 -336 -389 -365v-186q0 -13 -10 -13h-39q-5 0 -7 0.5t-3.5 3 t-1.5 9.5v186q-74 0 -197.5 15t-173.5 34q-13 3 -10 19z" />
<glyph unicode="%" horiz-adv-x="1495" d="M74 979q0 35 1.5 63t7.5 70.5t17 75t32 68t50 59t73.5 38.5t100.5 15q64 0 113 -14.5t80 -43.5t51.5 -62.5t30 -81.5t13 -90t3.5 -97q0 -44 -1.5 -78.5t-8.5 -79.5t-19 -78.5t-33.5 -68.5t-51.5 -57.5t-75.5 -37t-101.5 -14.5t-100.5 13.5t-73.5 34.5t-50 56t-32 67 t-17 78.5t-7.5 81t-1.5 83.5zM137 965q0 -62 3.5 -106t16.5 -92t36 -77.5t64 -49t99 -19.5q57 0 99 19.5t66 50t38 78t18.5 92.5t4.5 104q0 67 -4 113.5t-17.5 94.5t-37.5 77t-66 47t-101 18q-57 0 -98.5 -21t-64 -52.5t-36 -81t-17 -93t-3.5 -102.5zM444 -35l557 1458 q4 11 13 11h43q10 0 11.5 -2.5t-3.5 -8.5l-557 -1458q-3 -12 -14 -12h-41q-12 0 -9 12zM848 403q0 35 1.5 63t7.5 71t17 75t32 68t50 59t73.5 38.5t100.5 15.5q55 0 99 -12t74 -31t52 -49.5t34.5 -61.5t20 -73.5t9.5 -79t2 -83.5q0 -44 -1.5 -78t-8.5 -79t-19 -79t-33.5 -69 t-51.5 -57t-75.5 -36.5t-101.5 -14.5t-100.5 13.5t-73.5 34.5t-50 55.5t-32 66.5t-17 79t-7.5 81t-1.5 83zM911 389q0 -62 3.5 -106t16.5 -92t36 -77.5t64 -49t99 -19.5q57 0 99 19.5t66 50t38 78t18.5 92.5t4.5 104q0 67 -4 113.5t-17.5 94.5t-37.5 77t-66 47t-101 18 q-57 0 -98.5 -21t-64 -52.5t-36 -81t-17 -93t-3.5 -102.5z" />
<glyph unicode="&#x26;" horiz-adv-x="1347" d="M70 362q0 134 85.5 239.5t266.5 207.5q-121 174 -121 295q0 120 70 197t190 77q123 0 189.5 -67t66.5 -174q0 -103 -70.5 -187t-220.5 -168q164 -278 426 -540q242 238 275 544q3 15 14 15l31 -2q10 0 10 -17q-11 -160 -96.5 -325.5t-190.5 -261.5q182 -168 303 -234 q16 -10 9 -20l-19 -29q-4 -10 -11 -10t-13 6q-60 30 -155 100t-171 142q-219 -168 -457 -168q-183 0 -297 98t-114 282zM137 367q0 -157 95.5 -241.5t238.5 -84.5q208 0 424 156q-114 114 -230.5 264.5t-207.5 294.5q-153 -81 -236.5 -174t-83.5 -215zM379 1114 q0 -121 110 -274q61 33 101 59t80 62t59 78t19 91q0 84 -53 135.5t-140 51.5q-48 0 -84.5 -21t-55.5 -53.5t-27.5 -65t-8.5 -63.5z" />
<glyph unicode="'" horiz-adv-x="352" d="M137 1343q0 15 15 15h45q12 0 12 -15l-21 -321q0 -12 -10 -12h-16q-5 0 -8 12z" />
<glyph unicode="(" horiz-adv-x="538" d="M139 657q0 220 69 409.5t202 369.5q6 9 16 6l12 -8q8 -3 2 -19q-35 -50 -66.5 -109.5t-70.5 -156t-62.5 -225t-23.5 -267.5q0 -545 229 -856q10 -10 0 -16l-14 -8q-10 -7 -16 2q-93 133 -129 200q-148 273 -148 678z" />
<glyph unicode=")" horiz-adv-x="538" d="M125 -199q229 311 229 856q0 139 -23 267.5t-61.5 224.5t-70 156t-66.5 110q-9 16 0 19l14 8q11 4 17 -6q131 -181 199.5 -370.5t68.5 -408.5q0 -104 -10 -199t-23.5 -165.5t-38.5 -141.5t-44.5 -115.5t-53.5 -100t-52.5 -82.5t-53.5 -74q-6 -9 -17 -2l-14 8q-10 6 0 16z " />
<glyph unicode="*" horiz-adv-x="595" d="M94 997q-4 8 8 17l148 98l-150 100q-10 7 -4 17l8 14q5 8 17 4l162 -82l10 176q0 1 0.5 4t1 4t2 2.5t4 2t6.5 0.5h19q10 0 10 -13l10 -176l156 74q6 5 9 4t9 -8l8 -12q6 -8 -6 -17l-147 -96l149 -100q7 -5 7.5 -6.5t-3.5 -12.5l-10 -16q-3 -8 -18 -2l-154 82l-8 -176 q0 -13 -10 -13h-23q-7 0 -10 13l-12 178l-164 -80q-10 -3 -15 2z" />
<glyph unicode="+" d="M168 649v43q0 13 12 13h330v337q0 13 12 13h45q8 0 8 -13v-337h330q13 0 13 -13v-45q0 -8 -13 -8h-330v-346q0 -12 -10 -12h-43q-12 0 -12 12v346h-330q-12 0 -12 10z" />
<glyph unicode="," horiz-adv-x="346" d="M102 -233q-8 8 2 14q56 56 56 135q0 68 -41 125q-12 12 2 20l72 48q8 8 22 -3q37 -42 37 -98q0 -76 -34 -146t-85 -108q-8 -8 -14 -2z" />
<glyph unicode="-" horiz-adv-x="704" d="M80 633v55q0 12 10 12h543q10 0 10 -12v-57q0 -8 -10 -8h-543q-10 0 -10 10z" />
<glyph unicode="." horiz-adv-x="280" d="M76 47q0 32 13 48t48 16q36 0 49 -16t13 -48t-13 -48.5t-49 -16.5q-37 0 -49 16.5t-12 48.5z" />
<glyph unicode="/" horiz-adv-x="471" d="M6 -127l379 1532q3 12 14 12h50q10 0 11 -2.5t-1 -9.5l-377 -1532q-3 -10 -12 -10h-52q-15 0 -12 10z" />
<glyph unicode="0" d="M92 698q0 61 2.5 112.5t13 124t28.5 129.5t52 117.5t80.5 100.5t117.5 66t159 26q89 0 160 -20t119.5 -53.5t84 -86t55.5 -106.5t31.5 -127.5t15 -137t3.5 -145.5q0 -76 -2.5 -134.5t-13.5 -136.5t-30 -136.5t-54 -119.5t-83.5 -100t-121.5 -64t-164 -25q-70 0 -129 14.5 t-102.5 37.5t-78 61t-57.5 76.5t-39.5 93t-25.5 101t-14 110t-6 110.5t-1 112zM168 678q0 -69 2.5 -123t8.5 -115.5t18 -108t31 -93.5t47.5 -79.5t66 -59t89 -39.5t114.5 -13q72 0 130 18.5t98.5 49.5t70.5 79t47.5 100t28.5 119t14.5 128.5t3.5 136.5q0 65 -1.5 116t-7 108 t-14.5 100t-24 87.5t-35.5 77t-50 61.5t-67 46.5t-86.5 28t-107 10.5q-71 0 -127.5 -19.5t-95.5 -51.5t-67.5 -81.5t-45 -101.5t-26 -120t-12.5 -127.5t-3 -133.5z" />
<glyph unicode="1" d="M211 10v47q0 11 12 11h312v1187h-263q-12 0 -12 11v18q0 11 10 14l234 56q9 4 41 4h51q12 0 12 -15v-1275h303q13 0 13 -11v-47q0 -10 -13 -10h-688q-12 0 -12 10z" />
<glyph unicode="2" d="M98 18v31q0 26 29 55q61 61 257 268t286 300q81 81 126.5 158.5t45.5 177.5q0 149 -82.5 219.5t-270.5 70.5q-158 0 -342 -26q-15 -3 -18 10l-4 23q-3 15 10 18q63 25 165.5 38t186.5 13q230 0 333.5 -87.5t103.5 -250.5q0 -68 -11 -121.5t-38.5 -102t-56 -84 t-79.5 -91.5q-403 -427 -549 -569h746q14 0 14 -11v-47q0 -10 -14 -10h-819q-19 0 -19 18z" />
<glyph unicode="3" d="M100 51l4 23q3 13 19 10q205 -29 344 -29q68 0 121.5 7.5t110.5 33t94.5 68t61.5 117t24 176.5q0 60 -18.5 104t-55 71t-79 43t-101.5 27l-244 43q-16 0 -16 17v47q0 19 18 37l455 442h-711q-14 0 -14 10v50q0 10 14 10h778q17 0 17 -17v-43q0 -35 -17 -47l-454 -444 l221 -37q130 -22 208 -94.5t78 -206.5q0 -118 -24.5 -205t-65.5 -140.5t-104.5 -86t-131.5 -44t-157 -11.5q-86 0 -194 13t-170 38q-14 3 -11 18z" />
<glyph unicode="4" d="M35 401v43q0 27 18 48l701 849q12 17 41 17h41q10 -3 10 -12v-887h186q15 0 15 -10v-48q0 -10 -15 -10h-186v-379q0 -12 -10 -12h-54q-10 0 -10 12l-2 379h-721q-14 0 -14 10zM115 459h655v790z" />
<glyph unicode="5" d="M96 51l4 23q3 13 19 10q205 -29 344 -29q68 0 121.5 7.5t110 33t94 68t61.5 117t24 176.5q0 60 -18.5 104t-54.5 71t-78.5 43t-101.5 27l-463 76q-26 6 -23 35l80 524q3 19 25 19h649q16 0 16 -10v-48q0 -10 -16 -10h-608l-70 -446l457 -72q130 -22 208 -94.5t78 -206.5 q0 -118 -24.5 -205t-65.5 -140.5t-104.5 -86t-131.5 -44t-157 -11.5q-86 0 -194.5 13t-170.5 38q-13 3 -10 18z" />
<glyph unicode="6" d="M90 625q0 89 4 160t17 151.5t34.5 141t59.5 118t89 94.5t126 59.5t168 22.5q78 0 173 -10.5t154 -32.5q14 -3 11 -18l-2 -23q-3 -12 -19 -10q-12 1 -86.5 7.5t-130 9.5t-104.5 3q-83 0 -148.5 -20.5t-109.5 -60t-74 -88.5t-46.5 -116t-24 -133t-9.5 -147q40 4 115.5 12 t100 10.5t73 7t73 5.5t58.5 2.5t67 1.5q170 0 259.5 -98.5t89.5 -313.5q0 -196 -122.5 -287t-342.5 -91q-96 0 -168 16.5t-120 38.5t-80 74t-49 90.5t-25 122.5t-9.5 137t-1.5 164zM170 596q0 -116 1 -164t10 -120.5t28 -114.5q37 -79 119.5 -116.5t222.5 -37.5q43 0 82 5 t84 16.5t81.5 35t67 56.5t47.5 85t17 117q0 82 -13.5 142t-46 107t-92 71t-145.5 24q-155 0 -463 -36v-70z" />
<glyph unicode="7" d="M78 1303v40q0 15 14 15h871q7 0 12.5 -6t5.5 -11v-38q0 -8 -14 -41l-625 -1272q-6 -12 -18 -6l-45 20q-15 3 -5 19l623 1267h-807q-12 0 -12 13z" />
<glyph unicode="8" d="M70 340q0 289 307 381v4q-122 32 -192 109t-70 176q0 180 107 273t317 93q201 0 309 -91.5t108 -264.5q0 -102 -67.5 -183t-202.5 -116v-4q320 -76 320 -373q0 -160 -125.5 -261t-348.5 -101q-462 0 -462 358zM150 356q0 -73 22.5 -128.5t59 -89t88 -55t102.5 -29 t110 -7.5q69 0 134.5 15.5t125.5 47.5t97 91.5t37 138.5q0 49 -12 91t-25.5 70.5t-48 56t-54 41.5t-70.5 33.5t-70.5 26t-79.5 23.5q-27 8 -40 12q-51 -11 -84 -20t-76.5 -24.5t-71.5 -31.5t-58 -41.5t-47 -55.5t-28 -72t-11 -93zM197 1024q0 -40 11.5 -73.5t28.5 -58 t46 -46t55.5 -35.5t65 -27.5t66.5 -21t69 -17.5q177 34 257.5 95.5t80.5 183.5q0 149 -93.5 219t-244.5 70q-181 0 -261.5 -71.5t-80.5 -217.5z" />
<glyph unicode="9" d="M86 991q0 197 123.5 289t343.5 92q94 0 165 -16.5t119 -40t80.5 -73t50 -91.5t26.5 -122t10.5 -138t1.5 -164q0 -89 -4 -160.5t-17.5 -151.5t-35.5 -140.5t-60 -117.5t-89.5 -94t-126 -59t-167.5 -22q-78 0 -174.5 10t-153.5 31q-12 6 -12 20l4 23q1 5 2 6.5t4.5 3.5 t9.5 0q236 -23 322 -23q72 0 130.5 16t100.5 43t73.5 69.5t51 88.5t32 106.5t18.5 117.5t8 127q-43 -4 -116.5 -12t-100 -10.5t-73.5 -7t-72 -5.5t-59 -2.5t-67 -1.5q-170 0 -259 98t-89 311zM164 995q0 -82 13.5 -142t46 -107t92 -71t145.5 -24q140 0 463 37v68 q0 116 -1 164.5t-10.5 121.5t-29.5 115q-37 78 -118.5 115t-221.5 37q-52 0 -99 -6.5t-100.5 -26.5t-91 -53t-63 -92t-25.5 -136z" />
<glyph unicode=":" horiz-adv-x="346" d="M115 53q0 30 13 46t48 16q36 0 49 -15t13 -47q0 -33 -13 -50t-49 -17q-38 0 -49.5 16.5t-11.5 50.5zM115 840q0 30 13 45.5t48 15.5q36 0 49 -14.5t13 -46.5q0 -33 -13 -50.5t-49 -17.5q-38 0 -49.5 17t-11.5 51z" />
<glyph unicode=";" horiz-adv-x="346" d="M92 -233q-8 8 2 14q56 56 56 135q0 68 -41 125q-12 12 2 20l71 48q8 8 23 -3q37 -42 37 -98q0 -76 -34 -147t-85 -107q-8 -8 -14 -2zM115 840q0 30 13 45.5t48 15.5q36 0 49 -14.5t13 -46.5q0 -33 -13 -50.5t-49 -17.5q-38 0 -49.5 17t-11.5 51z" />
<glyph unicode="&#x3c;" d="M166 649v37q0 16 20 27l703 393q19 8 22.5 5t3.5 -13v-31q0 -16 -3.5 -21t-14.5 -10l-659 -364v-2l657 -332q14 -8 18.5 -14.5t4.5 -22.5v-29q0 -20 -23 -10l-707 363q-22 13 -22 24z" />
<glyph unicode="=" d="M168 483v43q0 13 12 13h725q13 0 13 -13v-45q0 -8 -13 -8h-725q-12 0 -12 10zM168 827v43q0 13 12 13h725q13 0 13 -13v-45q0 -8 -13 -8h-725q-12 0 -12 10z" />
<glyph unicode="&#x3e;" d="M166 272v29q0 17 4 23t18 14l658 332v2l-660 364q-11 5 -14.5 10t-3.5 21v31q0 23 27 8l702 -393q21 -12 21 -27v-37q0 -11 -23 -24l-707 -363q-22 -9 -22 10z" />
<glyph unicode="?" horiz-adv-x="692" d="M41 1325q0 13 10 16q89 31 248 31q48 0 93 -7t93.5 -26.5t84 -50t58.5 -81.5t23 -117q0 -83 -43 -142t-114 -108q-53 -39 -91 -74.5t-74 -82.5t-54.5 -104t-18.5 -122v-142q0 -14 -12 -14h-37q-9 0 -10 4q-1 3 -2 8v164q0 211 237 391q8 6 33.5 26.5t36 29.5t29.5 29.5 t27.5 36.5t16 39.5t7.5 49.5q0 224 -293 224q-114 0 -230 -11q-16 -3 -16 11zM166 47q0 32 13 48t48 16q36 0 49 -16t13 -48t-13 -48.5t-49 -16.5q-37 0 -49 16.5t-12 48.5z" />
<glyph unicode="@" horiz-adv-x="1632" d="M98 682q0 153 61 287.5t164.5 228.5t244 148.5t296.5 54.5q328 0 512.5 -182t184.5 -500q0 -98 -27.5 -179t-74 -131.5t-104.5 -78t-120 -27.5q-102 0 -150.5 33t-72.5 110q-60 -35 -96.5 -53t-97 -34.5t-124.5 -16.5q-180 0 -180 195q0 126 60 182.5t190 56.5h242v70 q0 49 -6.5 79t-26.5 54t-58.5 34.5t-99.5 10.5q-32 0 -67 -2.5t-82 -7t-68 -6.5q-10 -2 -12 0t-4 12l-2 20q-3 14 10 17q76 28 221 28q155 0 210.5 -48.5t55.5 -192.5v-344q0 -146 154 -146q118 0 193 104.5t75 262.5q0 292 -171.5 457t-463.5 165q-193 0 -354.5 -85.5 t-255.5 -237t-94 -336.5q0 -148 51.5 -272.5t142.5 -210.5t218.5 -133.5t277.5 -47.5q26 0 100 6.5t129 16.5q10 3 13 -6l8 -23q0 -4 -4 -8q-78 -41 -260 -41q-212 0 -379.5 88.5t-263 252.5t-95.5 376zM584 543q0 -84 28.5 -113t110.5 -29q28 0 62 7.5t70 21.5t60 24.5 t56.5 26.5t34.5 17v221h-240q-88 0 -135 -38t-47 -138z" />
<glyph unicode="A" horiz-adv-x="1069" d="M39 12l444 1331q4 10 7 11.5t10 1.5h63q11 0 17 -15l446 -1329q4 -6 4 -9t-12 -3h-55q-12 0 -17 12l-119 371h-591l-119 -371l-1.5 -6t-1.5 -3.5t-2.5 -2t-3 -0.5h-3.5h-3h-51q-13 0 -13 8q0 2 1 4zM258 451h547l-273 819h-6z" />
<glyph unicode="B" horiz-adv-x="1075" d="M131 16v1325q0 15 14 15l439 2q171 0 267.5 -89.5t96.5 -238.5q0 -233 -190 -315v-2q65 -22 112.5 -64t72 -93.5t35.5 -102t11 -101.5q0 -160 -95 -256t-245 -96h-493q-25 0 -25 16zM209 68h391q305 0 305 299q0 125 -82 216t-227 91h-387v-606zM209 739h346 q150 0 229.5 75t79.5 202t-74.5 199.5t-224.5 72.5h-356v-549z" />
<glyph unicode="C" horiz-adv-x="1046" d="M145 664q0 124 11.5 221.5t45 192t87.5 156.5t144.5 100t211.5 38q239 0 348 -41q14 -3 11 -18l-3 -23q-3 -12 -18 -10q-240 18 -321 18q-82 0 -148 -20t-111 -52.5t-78.5 -83t-52.5 -102.5t-30.5 -119.5t-15 -126t-3.5 -130.5q0 -103 10 -185.5t39 -164t76 -136 t125.5 -88t183.5 -33.5q187 0 326 17q15 0 18 -13l5 -22q0 -13 -13 -19q-56 -21 -162.5 -29.5t-185.5 -8.5q-120 0 -209.5 35.5t-144 95t-88 149.5t-46 185.5t-12.5 216.5z" />
<glyph unicode="D" horiz-adv-x="1210" d="M154 14v1327q0 15 20 15h379q122 0 214.5 -34t151.5 -93t96 -146t51.5 -184t14.5 -217q0 -123 -14 -220.5t-50 -186t-94.5 -147.5t-151 -93.5t-216.5 -34.5h-381q-20 0 -20 14zM229 66h328q108 0 188.5 33.5t128.5 87.5t77.5 134.5t39.5 162t10 182.5q0 98 -9.5 179.5 t-38 166.5t-74.5 143.5t-124.5 95.5t-183.5 37h-342v-1222z" />
<glyph unicode="E" horiz-adv-x="964" d="M141 10v1333q0 15 11 15h706q10 0 10 -12v-46q0 -12 -10 -12h-641v-549h578q10 0 10 -10v-41q0 -14 -10 -14h-578v-606h653q13 0 13 -11v-47q0 -10 -13 -10h-718q-11 0 -11 10z" />
<glyph unicode="F" horiz-adv-x="917" d="M147 14v1329q0 15 11 15h696q10 0 10 -12v-46q0 -12 -10 -12h-631v-549h559q11 0 11 -10v-41q0 -14 -11 -14h-559v-660q0 -14 -10 -14h-53q-13 0 -13 14z" />
<glyph unicode="G" horiz-adv-x="1183" d="M133 664q0 123 12 221.5t45.5 192.5t88.5 156t145 100t211 38q239 0 348 -41q13 -3 10 -18l-2 -23q-3 -12 -18 -10q-240 18 -328 18q-65 0 -120 -12t-95.5 -32.5t-73.5 -53t-55.5 -67.5t-38.5 -81.5t-25.5 -89t-15 -97.5t-7 -100t-1.5 -101q0 -74 4.5 -134t17.5 -125 t34 -115t57 -96t84.5 -76t117.5 -47.5t154 -17.5q62 0 145 12.5t138 32.5v514h-213q-17 0 -17 15v49q0 10 17 10h278q12 0 12 -14v-588q0 -45 -38 -55q-154 -45 -326 -45q-289 0 -417 165t-128 515z" />
<glyph unicode="H" horiz-adv-x="1167" d="M147 12v1334q0 12 11 12h53q10 0 10 -12v-592h727v592q0 12 15 12h49q10 0 10 -12v-1334q0 -12 -10 -12h-49q-15 0 -15 12v676h-727v-676q0 -12 -10 -12h-53q-11 0 -11 12z" />
<glyph unicode="I" horiz-adv-x="458" d="M190 12v1334q0 12 11 12h53q10 0 10 -12v-1334q0 -12 -10 -12h-53q-11 0 -11 12z" />
<glyph unicode="J" horiz-adv-x="808" d="M20 37l7 22q3 16 18 13q117 -15 221 -15q87 0 145 21.5t87 66t40 96.5t11 128v977q0 12 10 12h55q11 0 11 -12v-1012q0 -82 -17 -144t-56.5 -110.5t-110 -74t-171.5 -25.5q-134 0 -239 38q-12 8 -12 16q0 1 1 3z" />
<glyph unicode="K" horiz-adv-x="1073" d="M141 12v1334q0 12 11 12h53q10 0 10 -12v-861l694 861q12 12 27 12h55q10 0 11.5 -5t-3.5 -10l-446 -548l465 -779q3 -5 3 -9q0 -7 -13 -7h-52q-18 0 -24 12l-428 721l-289 -358v-363q0 -12 -10 -12h-53q-11 0 -11 12z" />
<glyph unicode="L" horiz-adv-x="937" d="M152 12v1331q0 15 12 15h49q10 0 10 -15l2 -1273h676q12 0 12 -13v-47q0 -10 -12 -10h-739q-10 0 -10 12z" />
<glyph unicode="M" horiz-adv-x="1460" d="M150 14v1329q0 15 12 15h57q16 0 19 -12l491 -1024h2l490 1019l2 6l1.5 4.5t2 3t3.5 2t5.5 1t9.5 0.5h49q17 0 17 -17v-1327q0 -14 -11 -14h-49q-14 0 -14 14v1188h-4l-463 -956q-9 -15 -16 -15h-45q-18 0 -21 13l-461 958h-4v-1188q0 -14 -10 -14h-49q-14 0 -14 14z" />
<glyph unicode="N" horiz-adv-x="1234" d="M143 14l2 1329q0 15 13 15h55q5 0 8 -1t4 -2t3 -4t3 -5l785 -1215h4v1212q0 15 10 15h47q15 0 15 -15v-1329q0 -14 -13 -14h-55h-6.5t-4.5 1.5t-2.5 2t-2 3.5l-2.5 5l-785 1215h-4v-1213q0 -14 -10 -14h-49q-15 0 -15 14z" />
<glyph unicode="O" horiz-adv-x="1261" d="M129 698q0 65 4.5 123t17.5 128.5t35 128.5t60 114.5t88.5 95t124.5 62.5t164 24q91 0 165 -20t126 -53.5t90.5 -84.5t62 -107t37.5 -127t19 -137.5t5 -146.5q0 -82 -4 -148.5t-17 -143t-35 -135t-60.5 -115t-90.5 -93t-127.5 -59t-170.5 -22.5q-94 0 -169 22.5 t-126 58.5t-88.5 93t-58.5 115t-33 135.5t-15.5 142.5t-3.5 149zM205 678q0 -111 10.5 -199t38.5 -171t74 -138t120.5 -88t174.5 -33q121 0 207 45.5t135 132t70.5 196.5t21.5 255q0 119 -12 211t-42 172.5t-78.5 133t-124.5 82.5t-177 30q-97 0 -170 -31.5t-120 -86 t-76 -136t-40.5 -172t-11.5 -203.5z" />
<glyph unicode="P" horiz-adv-x="987" d="M131 14v1332q0 12 14 12h392q173 0 281 -97t108 -278q0 -74 -22.5 -142.5t-66.5 -126t-120 -92t-174 -34.5h-336v-574q0 -14 -12 -14h-50q-14 0 -14 14zM207 653h334q23 0 49 4t63 14.5t69.5 34t62 57.5t46.5 90t17 126q0 154 -91.5 231.5t-244.5 77.5h-305v-635z" />
<glyph unicode="Q" horiz-adv-x="1259" d="M129 698q0 65 4.5 123t17.5 128.5t35 128.5t60 114.5t88.5 95t124.5 62.5t164 24q91 0 165 -20t126 -53.5t90.5 -84.5t62 -107t37.5 -127t19 -137.5t5 -146.5q0 -96 -5.5 -172.5t-24.5 -163t-51.5 -150t-89 -118t-134.5 -82.5l324 -84q13 -2 13 -10q0 -3 -1 -6l-22 -68 q-5 -7 -14 -7q-3 0 -7 1l-422 148q-46 -4 -71 -4q-94 0 -169 22.5t-126 58.5t-88.5 93t-58.5 115t-33 135.5t-15.5 142.5t-3.5 149zM205 678q0 -111 10.5 -199t38.5 -171t74 -138t120.5 -88t174.5 -33q121 0 207 45.5t135 132t70.5 196.5t21.5 255q0 119 -12 211t-42 172.5 t-78.5 133t-124.5 82.5t-177 30q-97 0 -170 -31.5t-120 -86t-76 -136t-40.5 -172t-11.5 -203.5z" />
<glyph unicode="R" horiz-adv-x="1017" d="M135 14v1332q0 12 15 12h391q84 0 153 -21t122.5 -64t83.5 -115.5t30 -168.5q0 -133 -68 -235t-203 -133l285 -605q2 -5 2 -9q0 -7 -8 -7h-57q-8 0 -11.5 0.5t-7.5 4t-8 11.5l-268 592h-375v-594q0 -14 -12 -14h-49q-15 0 -15 14zM211 674h334q21 0 41 1.5t52.5 8.5 t59.5 19t56.5 35.5t50 55.5t34 81t13.5 110q0 303 -336 303h-305v-614z" />
<glyph unicode="S" horiz-adv-x="1024" d="M98 53l4 23q3 13 19 10q230 -29 373 -29q167 0 264.5 73t97.5 202q0 84 -21.5 142.5t-66.5 95.5t-103 58t-143 34q-86 14 -143.5 29t-114.5 40.5t-90 60.5t-53.5 88.5t-20.5 125.5q0 176 110.5 270t305.5 94q237 0 352 -43q14 -3 11 -18l-2 -23q-3 -12 -19 -10 q-194 22 -336 22q-170 0 -256 -75t-86 -211q0 -43 10 -78t25 -60t42 -46t51.5 -33.5t64 -24.5t69.5 -18t76 -15q57 -11 94 -19.5t85.5 -24t79 -33.5t63.5 -46t51.5 -63t30.5 -84t12 -109q0 -102 -34.5 -176.5t-96.5 -117t-140 -62.5t-174 -20q-70 0 -200.5 16t-179.5 35 q-12 5 -12 15q0 3 1 5z" />
<glyph unicode="T" horiz-adv-x="931" d="M35 1300v46q0 12 12 12h844q10 0 10 -12v-46q0 -10 -10 -10h-385l-2 -1278q0 -12 -10 -12h-50q-14 0 -14 12v1278h-383q-12 0 -12 10z" />
<glyph unicode="U" horiz-adv-x="1210" d="M139 475v866q0 17 15 17h51q10 0 10 -17v-872q0 -201 95 -310.5t292 -109.5q193 0 293 105.5t100 314.5v872q0 17 15 17h49q10 0 10 -17v-866q0 -155 -35 -239q-102 -254 -432 -254q-339 0 -428 251q-35 93 -35 242z" />
<glyph unicode="V" horiz-adv-x="1089" d="M51 1346q-1 2 -1 3q0 7 13 7h50q11 0 14 -10l410 -1252h6l413 1252q3 10 17 10h53q12 0 12 -2t-4 -8l-444 -1332q-6 -14 -17 -14h-63q-10 0 -13 6l-3 6z" />
<glyph unicode="W" horiz-adv-x="1615" d="M53 1346q-1 2 -1 3q0 3 3 5q4 2 11 2h49q11 0 14 -10l348 -1252h6l287 1016l-68 236q-2 5 2 7.5t11 2.5h49q11 0 14 -10l348 -1252h7l352 1252q3 10 16 10h53q12 0 12 -2t-3 -8l-383 -1332q-3 -14 -17 -14h-63q-11 0 -14 6l-3 6l-276 963l-277 -961q-3 -14 -16 -14h-63 q-11 0 -14 6l-3 6z" />
<glyph unicode="X" horiz-adv-x="1015" d="M57 12l408 690l-379 644q-4 5 0 8.5t10 3.5h54q6 0 9 -1.5t5 -5t4 -5.5l342 -580l340 580q9 12 18 12h56q6 0 10 -3.5t0 -8.5l-379 -644l408 -690q1 -2 1 -4q0 -8 -12 -8h-57q-7 0 -16 12l-369 627l-371 -627q-3 -12 -16 -12h-55q-13 0 -13 6q0 3 2 6z" />
<glyph unicode="Y" horiz-adv-x="985" d="M49 1346q-1 2 -1 4t1 4q3 2 12 2h54q11 0 14 -10l363 -682l362 682q6 10 16 10h54q11 0 11 -7q0 -1 -1 -3l-408 -746v-586q0 -14 -10 -14h-49q-14 0 -14 14l-2 586z" />
<glyph unicode="Z" horiz-adv-x="950" d="M70 12v35q0 14 10 37l715 1204h-674q-15 0 -15 12v46q0 12 15 12h743q10 0 10 -10v-43q0 -22 -8 -35l-708 -1202h712q11 0 11 -13v-41q0 -14 -11 -14h-788q-12 0 -12 12z" />
<glyph unicode="[" horiz-adv-x="464" d="M100 -193v1602q0 14 11 14h256q10 0 10 -12v-35q0 -12 -10 -12h-191v-1511h189q3 0 6 -3q6 -6 6 -8v-35q0 -10 -12 -10h-254q-11 0 -11 10z" />
<glyph unicode="\" horiz-adv-x="471" d="M2 1405q-2 8 0 10t12 2h49q12 0 15 -12l377 -1532q2 -5 -2 -7.5t-11 -2.5h-49q-9 0 -12 10z" />
<glyph unicode="]" horiz-adv-x="464" d="M82 -158q0 5 6 8q3 3 6 3h189v1511h-191q-10 0 -10 12v35q0 12 10 12h256q10 0 10 -14v-1602q0 -10 -10 -10h-254q-12 0 -12 10v35z" />
<glyph unicode="^" horiz-adv-x="948" d="M63 821l332 514l3 5q3 6 4 7t5 4t9 4t12 1h92q7 0 11 -0.5t6 -2.5t3 -3.5t2.5 -5t2.5 -5.5l336 -518q9 -9 0 -18l-19 -10q-10 -10 -16 0l-375 505l-365 -499q-9 -14 -18 -8l-22 14q-10 9 -3 16z" />
<glyph unicode="_" horiz-adv-x="1024" d="M-12 -199q0 13 12 13h1024q12 0 12 -13v-32q0 -9 -12 -9h-1024q-12 0 -12 11v30z" />
<glyph unicode="`" horiz-adv-x="966" d="M369 1395q-7 10 4 14l57 27q16 3 19 -6l137 -265q3 -7 3.5 -9t-3 -4t-4.5 -3l-25 -12q-9 -6 -16 4z" />
<glyph unicode="a" horiz-adv-x="1013" d="M92 244q0 176 83 253.5t265 77.5h355v119q0 55 -7 93.5t-25 71.5t-50 52.5t-82 30t-121 10.5q-78 0 -307 -22q-14 0 -17 10l-4 23q0 10 11 14q65 22 154.5 33.5t156.5 11.5q107 0 175 -17t110 -58t58.5 -103.5t16.5 -159.5v-557q0 -52 18.5 -65t78.5 -15q12 0 12 -12v-27 q0 -13 -21 -16q-17 -1 -32 -1q-67 -1 -93 21q-32 26 -32 111q-120 -71 -220 -106t-237 -35q-126 0 -186 65t-60 197zM168 252q0 -118 46 -161.5t165 -43.5q152 0 416 139v324h-363q-62 0 -107 -11t-82 -38t-56 -79t-19 -130z" />
<glyph unicode="b" horiz-adv-x="985" d="M102 74v1349q0 13 11 13h47q5 0 7 -0.5t3.5 -3t1.5 -9.5v-467l6 -2q163 64 338 64q109 0 183 -32.5t116.5 -101t60 -160t17.5 -222.5q0 -271 -90 -395.5t-295 -124.5q-224 0 -369 38q-23 6 -30 17.5t-7 36.5zM174 80q170 -31 328 -31q56 0 98.5 9.5t85 37t70 74.5 t44.5 125.5t17 185.5q0 249 -66 360t-223 111q-154 0 -354 -59v-813z" />
<glyph unicode="c" horiz-adv-x="802" d="M92 506q0 77 5 135.5t18.5 120.5t40 105.5t66.5 79t101.5 53.5t141.5 18q63 0 151.5 -11t145.5 -30q11 -2 11 -11q0 -2 -1 -5l-4 -21q-3 -13 -18 -10q-171 22 -279 22q-170 0 -237.5 -99.5t-67.5 -344.5q0 -257 64.5 -358t240.5 -101q126 0 281 21q7 1 10 -0.5t4 -3 t2 -7.5l4 -20q1 -2 1 -5q0 -9 -11 -11q-56 -19 -150 -30t-157 -11q-67 0 -120.5 13t-91 36t-65 60t-44 78t-26 97.5t-13 112t-3.5 127.5z" />
<glyph unicode="d" horiz-adv-x="972" d="M92 483q0 138 17.5 234t59.5 165.5t114.5 102.5t179.5 33q180 0 332 -64l6 2v469q0 13 10 13h51q6 0 6 -8v-5v-1413q-4 -11 -6 -12h-53q-10 0 -10 12v109q-238 -139 -408 -139q-166 0 -232.5 118t-66.5 383zM166 477q0 -162 26.5 -256.5t77.5 -133t136 -38.5 q80 0 202 47.5t191 89.5v709q-191 59 -348 59q-154 0 -219.5 -111.5t-65.5 -365.5z" />
<glyph unicode="e" horiz-adv-x="942" d="M92 506q0 82 8 148.5t32.5 137t65.5 118t112.5 78t168.5 30.5q95 0 166 -25t113.5 -65t68 -100.5t34.5 -121t9 -135.5q0 -46 -14 -66t-51 -20h-635q0 -77 6 -134.5t25 -117t51.5 -97t90 -61.5t136.5 -24q38 0 82 2.5t73 5t81.5 8t77.5 7.5q14 0 18 -11l2 -18 q3 -13 -8 -16q-56 -22 -153.5 -33.5t-178.5 -11.5q-72 0 -129.5 15t-97 40t-68 65t-45 81t-26 98t-12.5 107.5t-3 115.5zM168 545h627q-2 52 -4.5 88t-10.5 82t-21.5 77t-37 63t-55.5 51.5t-79.5 31.5t-107.5 12q-73 0 -127.5 -20.5t-88.5 -54.5t-55 -87.5t-29.5 -110.5 t-10.5 -132z" />
<glyph unicode="f" horiz-adv-x="643" d="M72 952v35q0 12 14 12h113v199q0 126 67.5 189t186.5 63q122 0 211 -33q20 -8 22 -13q0 -3 -2 -9l-6 -21q-4 -11 -8 -11.5t-21 3.5q-87 16 -174 16q-102 0 -153.5 -44t-51.5 -144v-195h289q12 0 12 -10v-37q0 -10 -12 -10h-289v-930q0 -12 -10 -12h-47q-14 0 -14 12v930 h-115q-12 0 -12 10z" />
<glyph unicode="g" horiz-adv-x="980" d="M90 500q0 272 89 396t296 124q220 0 369 -39q24 -6 30.5 -16.5t6.5 -36.5v-961q0 -197 -75 -271.5t-278 -74.5q-215 0 -319 39q-13 6 -10 18l2 21q3 10 18 10q216 -22 293 -22q168 0 233.5 57.5t65.5 208.5v90l-6 4q-160 -63 -336 -63q-109 0 -183.5 33t-117 101 t-60.5 159.5t-18 222.5zM168 520q0 -249 66 -360t223 -111q149 0 352 60v813q-165 30 -326 30q-56 0 -98.5 -9.5t-85 -37t-70 -74.5t-44.5 -125.5t-17 -185.5z" />
<glyph unicode="h" horiz-adv-x="960" d="M104 12v1413q0 13 7 13h53q10 0 10 -13v-551q243 142 408 142q45 0 81 -7t63 -16.5t48 -29t34.5 -36t23 -46.5t14 -51t7 -58.5t3 -60.5t0.5 -66l2 -633q0 -12 -10 -12h-57q-7 0 -7 12v641q0 51 -1.5 82t-8 70.5t-20.5 62.5t-37.5 45t-61 31.5t-88.5 9.5q-79 0 -193 -45 t-200 -92v-805q0 -12 -10 -12h-53q-7 0 -7 12z" />
<glyph unicode="i" horiz-adv-x="403" d="M152 1266q0 26 10 38.5t39 12.5q30 0 40.5 -12.5t10.5 -38.5q0 -27 -10.5 -41.5t-40.5 -14.5t-39.5 14.5t-9.5 41.5zM166 12v973q0 12 12 12h49q9 0 9 -12v-973q0 -12 -11 -12h-47q-12 0 -12 12z" />
<glyph unicode="j" horiz-adv-x="425" d="M-39 -369q0 19 21 19q42 1 75 7.5t55 15t37 23.5t23 27.5t12 33t5 34.5t1 37v1159q0 12 11 12h49q12 0 12 -12v-1180q0 -34 -3.5 -59.5t-19.5 -59t-44.5 -54.5t-83.5 -34q-40 -9 -90 -9q-20 0 -41 1q-2 0 -6 1t-8.5 6t-4.5 12v20zM176 1266q0 26 10 38.5t39 12.5 q30 0 40.5 -12.5t10.5 -38.5q0 -27 -10.5 -41.5t-40.5 -14.5t-39.5 14.5t-9.5 41.5z" />
<glyph unicode="k" horiz-adv-x="823" d="M102 12v1413q0 13 13 13h49q8 0 8 -13v-940l174 174l340 328q12 12 29 12h51q25 0 8 -20l-362 -346l401 -619q3 -5 3 -8q0 -6 -11 -6h-47q-22 0 -31 18l-362 570l-193 -185v-391q0 -12 -10 -12h-47q-13 0 -13 12z" />
<glyph unicode="l" horiz-adv-x="413" d="M154 92v1333q0 13 12 13h51q8 0 8 -13v-1298q0 -54 14 -65q10 -8 48 -8q14 0 32 1q18 0 21 -10l4 -29q3 -16 -16 -22q-39 -10 -82 -10q-46 0 -69 24.5t-23 83.5z" />
<glyph unicode="m" horiz-adv-x="1587" d="M115 12v973q0 12 6 12h53q10 0 10 -12v-111q243 142 408 142q94 0 144.5 -40t72.5 -114q119 73 220.5 113.5t207.5 40.5q44 0 79.5 -9.5t59.5 -27t42.5 -41.5t28.5 -52.5t17 -61.5t8.5 -68.5t2.5 -71.5q0 -18 0.5 -36t-0.5 -36v-37v-563q0 -12 -11 -12h-55q-6 0 -6 12 v572v30v55.5t-1.5 52.5t-4.5 53t-9 47t-15 44t-22.5 35.5t-31.5 29t-42 16.5t-54 7q-43 0 -105.5 -18t-107 -37t-108.5 -48t-75 -34l-6 -4q5 -26 7 -59t2 -56t-0.5 -64t-0.5 -59l2 -563q0 -12 -10 -12h-57q-6 0 -6 12v572v30v55.5t-1.5 52.5t-4.5 53t-9 47t-15 44 t-22.5 35.5t-31.5 29t-42 16.5t-54 7q-79 0 -193.5 -45.5t-200.5 -91.5v-805q0 -12 -10 -12h-53q-6 0 -6 12z" />
<glyph unicode="n" horiz-adv-x="950" d="M102 12v973q0 12 11 12h45q14 0 14 -12v-111q243 142 408 142q79 0 133 -21.5t82 -50t42 -85t16.5 -97.5t2.5 -117v-633q0 -12 -12 -12h-51q-11 0 -11 12v641q0 51 -1.5 82t-8 70.5t-20.5 62.5t-37.5 45t-61 31.5t-88.5 9.5q-79 0 -193 -45t-200 -92v-805q0 -12 -14 -12 h-45q-11 0 -11 12z" />
<glyph unicode="o" horiz-adv-x="976" d="M92 518q0 50 3 93t13.5 95.5t27 95t46.5 84t69.5 69.5t98.5 45.5t131 17.5q102 0 177.5 -29t118 -74t68 -114t33 -134t7.5 -149q0 -61 -2.5 -107.5t-12 -105.5t-26 -101.5t-46.5 -86t-72 -71t-104 -45t-141 -17.5q-77 0 -137 17t-100.5 43.5t-69.5 70.5t-44.5 85.5 t-24.5 101.5t-11 106t-2 110zM168 502q0 -84 6.5 -146.5t26.5 -123.5t54 -99.5t91 -62t135 -23.5q80 0 139 22.5t95 60.5t57.5 97.5t29 124t7.5 150.5q0 87 -7 150.5t-28 122.5t-57 95.5t-95 58t-141 21.5q-78 0 -135 -23t-91 -61t-54 -98t-26.5 -121.5t-6.5 -144.5z" />
<glyph unicode="p" horiz-adv-x="980" d="M127 -348v1335q0 12 6 12h53q11 0 11 -12v-108q233 139 409 139q165 0 230 -117.5t65 -384.5q0 -139 -16.5 -234t-58 -165t-113.5 -102.5t-181 -32.5q-181 0 -331 63l-6 -2v-391q0 -12 -11 -12h-51q-6 0 -6 12zM197 104q197 -59 348 -59q157 0 219.5 110t62.5 367 q0 241 -55.5 335.5t-181.5 94.5q-129 0 -393 -139v-709z" />
<glyph unicode="q" horiz-adv-x="980" d="M88 498q0 270 90.5 395t300.5 125q172 0 363 -39q24 -6 30.5 -16.5t6.5 -36.5v-1272q0 -14 -11 -14h-47q-10 0 -10 14v389l-6 2q-160 -63 -332 -63q-213 0 -299 126.5t-86 389.5zM166 518q0 -248 68.5 -359.5t226.5 -111.5q148 0 348 59v814q-165 30 -322 30 q-58 0 -102 -9.5t-87 -37t-70.5 -74.5t-44.5 -125.5t-17 -185.5z" />
<glyph unicode="r" horiz-adv-x="544" d="M170 12v975q0 12 10 12h47q13 0 13 -12v-121q160 119 274 148q5 2 9 2q3 0 4 -2q3 -4 5 -15l11 -41q2 -6 2 -11q0 -13 -15 -15q-58 -18 -152.5 -57t-137.5 -60v-803q0 -12 -13 -12h-47q-10 0 -10 12z" />
<glyph unicode="s" horiz-adv-x="827" d="M84 39l4 20q0 11 16 11q54 -8 149.5 -15.5t143.5 -7.5q273 0 273 203q0 62 -13 101.5t-46.5 65t-76 39t-116.5 27.5q-51 8 -83 14.5t-71 17t-62.5 22.5t-48 31t-37.5 43t-21.5 57t-8.5 75q0 275 328 275q60 0 144.5 -11t141.5 -30q11 -4 11 -16l-4 -21q0 -10 -15 -10 q-21 2 -81 8t-111 10t-88 4q-131 0 -191.5 -47.5t-60.5 -154.5q0 -29 3.5 -52t14 -41t20 -31t30.5 -24t35.5 -17.5t45.5 -13t50.5 -10.5t58.5 -10q68 -11 110 -21.5t87.5 -31t70.5 -48.5t41 -74t16 -108q0 -151 -89.5 -216.5t-258.5 -65.5q-69 0 -157 9.5t-144 27.5 q-10 3 -10 16z" />
<glyph unicode="t" horiz-adv-x="587" d="M70 952v35q0 12 14 12h127v234q0 13 10 16l37 15q14 4 18 4q2 0 3 -1q2 -2 2 -18v-250h223q10 0 10 -10v-37q0 -10 -10 -10h-223v-747q0 -40 3 -62t15 -44.5t38.5 -32t70.5 -9.5q99 0 143 8q10 1 12 -1t4 -9l4 -18l1 -8q0 -2 -2 -3q-2 -2 -2 -2.5t-2.5 -2.5t-4.5 -3 q-81 -24 -186 -24q-94 0 -129 42.5t-35 145.5v770h-129q-12 0 -12 10z" />
<glyph unicode="u" horiz-adv-x="985" d="M117 333v21v633q0 12 12 12h49q10 0 10 -12v-641q0 -43 1 -70.5t5.5 -63t13.5 -57t24.5 -45t38.5 -36t57 -21t78 -8.5q128 0 395 137v805q0 12 14 12h45q12 0 12 -12v-977q0 -10 -12 -10h-47q-14 0 -14 10v115q-236 -141 -408 -141q-80 0 -134 20.5t-81.5 45.5t-41 80 t-15.5 91.5t-2 111.5z" />
<glyph unicode="v" horiz-adv-x="894" d="M49 987q-1 2 -1 4q0 6 9 6h49q18 0 21 -14l326 -903h4l319 905q3 14 21 14h43q11 0 11 -6q0 -3 -1 -8l-352 -973q-3 -12 -17 -12h-57q-18 0 -21 14z" />
<glyph unicode="w" horiz-adv-x="1355" d="M45 987q-1 2 -1 4q0 6 9 6h49q18 0 21 -14l285 -903h4l231 754l-49 153q-3 10 8 10h49q18 0 21 -14l284 -903h5l278 905q3 14 21 14h43q11 0 11 -6q0 -3 -1 -8l-312 -973q-3 -12 -16 -12h-57q-18 0 -21 14l-227 709l-227 -711q-3 -12 -17 -12h-57q-18 0 -21 14z" />
<glyph unicode="x" horiz-adv-x="829" d="M45 14l330 494l-309 473q-5 5 -3.5 10.5t11.5 5.5h47q11 0 20 -12l277 -424l276 424q9 12 21 12h47q10 0 10.5 -5.5t-4.5 -10.5l-307 -473l332 -492q5 -6 5 -10q0 -6 -14 -6h-47q-14 0 -24 10l-295 445l-291 -445q-10 -10 -25 -10h-51q-9 0 -9 6q0 3 3 8z" />
<glyph unicode="y" horiz-adv-x="901" d="M53 987q-1 2 -1 4q0 6 9 6h50q17 0 20 -14l307 -903h4l330 905q3 14 21 14h43q11 0 11 -6q0 -3 -1 -8l-486 -1335q-3 -10 -16 -10h-41h-5q-8 0 -8 3q0 1 1 8v1l112 325z" />
<glyph unicode="z" horiz-adv-x="833" d="M66 14v37q0 14 10 31l618 858h-581q-15 0 -15 10v35q0 14 15 14h635q13 0 13 -2q1 -2 1 -10v-37q0 -13 -10 -30l-613 -861h611q12 0 12 -10v-35q0 -14 -12 -14h-670q-14 0 -14 14z" />
<glyph unicode="{" horiz-adv-x="475" d="M47 602v21q0 3 0.5 4.5t2 3t3.5 2t6 2t7 2.5q37 12 61 36t34.5 59.5t13.5 66.5t3 75v396q0 85 27 127.5t112 42.5q43 0 74 -8q11 -3 16 -6t6 -5t1 -6v-12q-7 -12 -15 -12q-32 0 -67 -5q-31 -5 -50 -15.5t-26 -27.5t-8.5 -28.5t-1.5 -34.5v-8v-406q0 -212 -115 -252v-2 q68 -44 90.5 -100t24.5 -152v-428q0 -21 0.5 -30t4.5 -27t13 -27t26.5 -17.5t43.5 -10.5l65 -4q15 -3 15 -13v-14q0 -13 -23 -16q-5 0 -27.5 -3t-46.5 -3q-86 0 -112.5 41t-26.5 126v418q0 204 -112 236q-4 2 -8.5 3t-6.5 1t-3 2.5t-1 7.5z" />
<glyph unicode="|" horiz-adv-x="432" d="M178 -225v1638q0 12 15 12h40q17 0 17 -12v-1638q0 -13 -14 -13h-39h-9.5t-6 3t-3.5 10z" />
<glyph unicode="}" horiz-adv-x="475" d="M53 -197q0 10 15 13l65 4q26 2 43.5 10.5t26.5 17.5t13 27t4.5 27t0.5 30v428q2 96 24.5 152t90.5 100v2q-115 40 -115 252v406v8q0 23 -1.5 34.5t-8.5 28.5t-26 27.5t-50 15.5q-35 5 -67 5h-3q-5 0 -7 0.5t-3.5 3t-1.5 8.5v12q0 4 1 6.5t6 6t16 6.5q41 6 74 6 q45 0 74 -12t42.5 -37t18 -52t4.5 -69v-396q0 -44 3 -75t13.5 -66.5t34.5 -59.5t61 -36q3 -1 7 -2.5t6 -2t3.5 -2t2 -3t0.5 -4.5v-21q0 -6 -1 -8t-7 -3t-11 -3q-112 -32 -112 -236v-418q0 -85 -26.5 -126t-112.5 -41q-24 0 -46.5 3t-27.5 3q-23 3 -23 16v14z" />
<glyph unicode="~" d="M139 594q48 73 100 107t117 34q45 0 103 -23t105.5 -50.5t102 -50.5t91.5 -23q26 0 47 7.5t40 25t30 30.5t32 41q3 3 7 8t6 7t5 4t6.5 1.5t8.5 -3.5l21 -13q21 -13 8 -26q-85 -148 -213 -148q-58 0 -134 36.5t-148.5 73t-119.5 36.5q-34 0 -63.5 -16.5t-46.5 -35 t-43 -53.5q-13 -18 -20 -21t-17 3l-21 12q-19 12 -4 37z" />
<glyph unicode="&#xa2;" d="M205 506q0 65 3 115.5t12.5 105t25.5 95t43.5 78.5t64.5 62.5t90.5 39.5t120.5 16v215q0 10 13 10h43q14 0 14 -10v-217q164 -13 239 -39q14 -4 11 -16l-4 -21q0 -1 -1 -2q-2 -8 -14 -8q-21 2 -82 8t-112 10t-88 4q-170 0 -237.5 -99.5t-67.5 -344.5q0 -252 69 -355.5 t236 -103.5q125 0 280 21q14 2 17 -11l4 -20q3 -12 -11 -16q-73 -27 -239 -39v-224q0 -10 -12 -10h-41q-17 0 -17 10v222q-67 0 -120 13.5t-91 36t-65 60t-43 78t-25.5 98t-12.5 112t-3 126.5z" />
<glyph unicode="&#xa3;" d="M127 14v31q0 16 18 25q32 16 56.5 40.5t38.5 58.5t22.5 63t12 73t4 68t0.5 67v13v182h-121q-11 0 -11 14v35q0 10 11 10h121v344q0 155 91.5 245.5t250.5 90.5q213 0 325 -43q13 -3 10 -18l-2 -23q-3 -12 -18 -10q-240 18 -315 18q-129 0 -198 -69t-69 -199v-336h443 q10 0 10 -10v-35q0 -14 -10 -14h-443v-182q0 -48 -0.5 -75.5t-3.5 -72.5t-10.5 -74.5t-20 -63.5t-33 -59t-48.5 -42l700 2q12 0 12 -11v-47q0 -10 -12 -10h-797q-14 0 -14 14z" />
<glyph unicode="&#xa5;" d="M100 1346q-3 5 0.5 7.5t12.5 2.5h53q11 0 14 -10l363 -684l362 684q6 10 17 10h53q13 0 10 -10l-393 -721h356q13 0 13 -13v-47q0 -8 -13 -8h-794q-11 0 -11 10v45q0 13 11 13h335zM143 365v43q0 12 11 12h794q13 0 13 -12v-46q0 -8 -13 -8h-370v-340q0 -14 -11 -14h-49 q-14 0 -14 14v340h-350q-11 0 -11 11z" />
<glyph unicode="&#xa8;" horiz-adv-x="972" d="M276 1260q0 25 10 37t38 12q29 0 39 -12t10 -37q0 -26 -10.5 -40t-38.5 -14q-30 0 -39 13.5t-9 40.5zM635 1260q0 25 9.5 37t37.5 12q29 0 39 -12t10 -37q0 -26 -10.5 -40t-38.5 -14q-29 0 -38 13.5t-9 40.5z" />
<glyph unicode="&#xa9;" horiz-adv-x="1605" d="M86 686q0 147 56.5 280t152 228.5t227.5 152t277 56.5q150 0 283 -56.5t227.5 -152.5t149 -228t54.5 -280q0 -196 -95.5 -361t-260 -260.5t-358.5 -95.5q-199 0 -363 95.5t-257 260t-93 361.5zM145 686q0 -180 88 -333t238.5 -241.5t327.5 -88.5q133 0 254.5 52.5 t209 141t139.5 211.5t52 258q0 181 -87.5 333.5t-238.5 241.5t-329 89q-177 0 -327.5 -89t-238.5 -242t-88 -333zM508 655q0 416 303 416q117 0 190 -24q11 -7 11 -21l-2 -16q0 -14 -19 -11q-4 0 -12.5 1t-13.5 1q-86 11 -154 11q-53 0 -94 -15.5t-67 -44t-43 -61.5 t-25.5 -76.5t-11.5 -80t-3 -79.5q0 -340 240 -340q98 0 184 11q7 0 14 -3.5t7 -9.5v-18q0 -14 -11 -14q-34 -11 -100.5 -18t-99.5 -7q-80 0 -138 31t-91 87t-48.5 125.5t-15.5 155.5z" />
<glyph unicode="&#xab;" horiz-adv-x="710" d="M96 334q-12 16 0 33l205 260q1 1 3.5 4.5t3 4t2.5 3t3 3t3.5 1.5t5 1t6 0.5t8.5 0.5h41q6 0 7.5 -4.5t-3.5 -9.5l-221 -279l225 -276q5 -4 3 -9.5t-9 -5.5h-39q-24 0 -39 19zM344 334q-15 15 0 33l205 260q4 7 5.5 9t5 5t8.5 3.5t14 0.5h41q6 0 8 -4.5t-2 -9.5l-223 -279 l225 -276q5 -4 3.5 -9.5t-7.5 -5.5h-41q-12 0 -20 3.5t-9 5t-8 10.5z" />
<glyph unicode="&#xae;" horiz-adv-x="1042" d="M78 1036q0 189 128.5 319t313.5 130q188 0 315.5 -129.5t127.5 -319.5q0 -188 -129.5 -319t-313.5 -131q-185 0 -313.5 130.5t-128.5 319.5zM121 1036q0 -169 116.5 -288t282.5 -119q164 0 281 119t117 288q0 167 -117 286.5t-281 119.5q-165 0 -282 -119t-117 -287z M379 760v540q0 11 14 11h158q72 0 117 -38.5t45 -119.5q0 -52 -26 -95t-79 -59l111 -233q10 -16 -4 -16h-29q-15 0 -18 10l-105 231h-137v-231q0 -10 -12 -10h-23q-12 0 -12 10zM426 1034h125q16 0 32 3.5t37.5 14.5t34.5 37t13 64q0 62 -33 87.5t-94 25.5h-115v-232z" />
<glyph unicode="&#xb4;" horiz-adv-x="966" d="M438 1165l137 265q6 12 19 6l57 -27q11 -4 4 -14l-172 -254q-6 -9 -14 -4l-25 12q-9 6 -6 16z" />
<glyph unicode="&#xb8;" horiz-adv-x="802" d="M291 -344l6 18q4 12 18 9q76 -13 117 -13q49 0 81 23t32 63q0 45 -27.5 66.5t-107.5 25.5q-11 0 -15 7.5t0 17.5l60 152h51l-49 -134q91 -6 127.5 -39t36.5 -92q0 -71 -52.5 -108t-136.5 -37q-58 0 -129 23q-15 6 -12 18z" />
<glyph unicode="&#xbb;" horiz-adv-x="710" d="M88.5 66.5q-1.5 5.5 3.5 9.5l225 276l-221 277q-13 16 4 16h41h7t5.5 -0.5t4.5 -1t3.5 -2t3 -2t3 -2t2 -2.5t2 -3t2.5 -3l205 -260q15 -20 2 -33l-207 -256q-1 -1 -2.5 -3t-2 -3t-2 -2.5l-2.5 -2.5t-3 -2.5t-3.5 -2t-4 -1.5t-5 -1t-5.5 -0.5t-7 -0.5h-41q-6 0 -7.5 5.5z M336 66.5q-2 5.5 2 9.5l225 276l-221 277q-13 16 4 16h41q7 0 12 -0.5t8.5 -2.5t5 -3t4.5 -4.5t5 -5.5l205 -260q12 -21 0 -33l-205 -256q-15 -19 -37 -19h-41q-6 0 -8 5.5z" />
<glyph unicode="&#x2c6;" horiz-adv-x="976" d="M216 1156.5q0 0.5 5 8.5l203 228q11 14 29 14h73q20 0 31 -14l195 -228q8 -8 4 -11q-3 -2 -4 -3l-23 -21q-7 -3 -16 3l-226 206l-227 -206q-9 -6 -16 -3l-23 21q-5 5 -5 5.5z" />
<glyph unicode="&#x2da;" horiz-adv-x="1019" d="M367 1276q0 78 55.5 130t130.5 52q77 0 130.5 -54.5t53.5 -127.5q0 -75 -53 -129.5t-131 -54.5q-76 0 -131 52t-55 132zM428 1276q0 -58 34.5 -94.5t90.5 -36.5q55 0 91 37t36 94q0 55 -36 93t-91 38q-53 0 -89 -38t-36 -93z" />
<glyph unicode="&#x2dc;" horiz-adv-x="976" d="M199 1233q67 113 161 113q48 0 150 -55.5t137 -55.5q34 0 58 21t47 61q7 12 10 13.5t16 -3.5l21 -10q11 -6 4 -27q-58 -116 -158 -116q-46 0 -100 27t-103.5 54t-83.5 27q-50 0 -106 -78q-10 -16 -16.5 -18.5t-16.5 2.5l-16 8q-20 10 -4 37z" />
<glyph unicode="&#x401;" horiz-adv-x="964" d="M141 10v1333q0 15 11 15h706q10 0 10 -12v-46q0 -12 -10 -12h-641v-549h578q10 0 10 -10v-41q0 -14 -10 -14h-578v-606h653q13 0 13 -11v-47q0 -10 -13 -10h-718q-11 0 -11 10zM297 1542q0 25 10.5 38t38.5 13q29 0 38 -12.5t9 -38.5t-9 -38.5t-38 -12.5t-39 13.5 t-10 37.5zM627 1542q0 25 10.5 38t38.5 13q29 0 38 -12.5t9 -38.5t-9 -38.5t-38 -12.5t-39 13.5t-10 37.5z" />
<glyph unicode="&#x402;" horiz-adv-x="1376" d="M6 1300v46q0 12 12 12h1047q10 0 10 -12v-46q0 -10 -10 -10h-588v-440q233 108 412 108q88 0 158 -27t115.5 -72t76 -106.5t43 -126.5t12.5 -137q0 -79 -10.5 -152.5t-38.5 -154.5t-72.5 -147.5t-119 -125t-170.5 -93.5l-3 -1q-3 -1 -6 -1.5t-6.5 1.5t-5.5 7l-10 22 q-6 13 10 25q182 95 268.5 243t86.5 373q0 201 -96 300.5t-253 99.5q-86 0 -197 -33.5t-196 -77.5v-762q0 -12 -10 -12h-49q-15 0 -15 12v1278h-383q-12 0 -12 10z" />
<glyph unicode="&#x403;" horiz-adv-x="917" d="M147 14v1329q0 15 11 15h696q10 0 10 -12v-46q0 -12 -10 -12h-631v-1274q0 -14 -10 -14h-53q-13 0 -13 14zM391 1483q-8 8 2 16l246 170q7 5 9.5 4t8.5 -8l39 -49q7 -10 -4 -17l-270 -143q-11 -4 -14 4z" />
<glyph unicode="&#x404;" horiz-adv-x="1046" d="M100 664q0 124 11.5 221.5t45 192t87.5 156.5t144.5 100t211.5 38q239 0 348 -41q13 -3 10 -18l-2 -23q-3 -12 -18 -10q-240 18 -322 18q-79 0 -143 -18.5t-108.5 -49.5t-78 -78t-53 -96t-32 -113t-17.5 -120t-6 -125h572q10 0 10 -10v-41q0 -14 -10 -14h-572 q2 -98 13.5 -177t41 -156t76 -128.5t124 -83t179.5 -31.5q187 0 326 17q15 0 18 -13l5 -22q0 -13 -13 -19q-56 -21 -162.5 -29.5t-185.5 -8.5q-120 0 -209.5 35.5t-144 95t-88 149.5t-46 185.5t-12.5 216.5z" />
<glyph unicode="&#x405;" horiz-adv-x="1024" d="M98 53l4 23q3 13 19 10q230 -29 373 -29q167 0 264.5 73t97.5 202q0 84 -21.5 142.5t-66.5 95.5t-103 58t-143 34q-86 14 -143.5 29t-114.5 40.5t-90 60.5t-53.5 88.5t-20.5 125.5q0 176 110.5 270t305.5 94q237 0 352 -43q14 -3 11 -18l-2 -23q-3 -12 -19 -10 q-194 22 -336 22q-170 0 -256 -75t-86 -211q0 -43 10 -78t25 -60t42 -46t51.5 -33.5t64 -24.5t69.5 -18t76 -15q57 -11 94 -19.5t85.5 -24t79 -33.5t63.5 -46t51.5 -63t30.5 -84t12 -109q0 -102 -34.5 -176.5t-96.5 -117t-140 -62.5t-174 -20q-70 0 -200.5 16t-179.5 35 q-14 6 -11 20z" />
<glyph unicode="&#x406;" horiz-adv-x="458" d="M190 12v1334q0 12 11 12h53q10 0 10 -12v-1334q0 -12 -10 -12h-53q-11 0 -11 12z" />
<glyph unicode="&#x407;" horiz-adv-x="458" d="M12 1542q0 25 10.5 38t38.5 13q29 0 38.5 -12.5t9.5 -38.5t-9.5 -38.5t-38.5 -12.5t-39 13.5t-10 37.5zM190 12v1334q0 12 11 12h53q10 0 10 -12v-1334q0 -12 -10 -12h-53q-11 0 -11 12zM342 1542q0 25 10.5 38t38.5 13q29 0 38 -12.5t9 -38.5t-9 -38.5t-38 -12.5 t-39 13.5t-10 37.5z" />
<glyph unicode="&#x408;" horiz-adv-x="808" d="M20 37l7 22q3 16 18 13q117 -15 221 -15q87 0 145 21.5t87 66t40 96.5t11 128v977q0 12 10 12h55q11 0 11 -12v-1012q0 -82 -17 -144t-56.5 -110.5t-110 -74t-171.5 -25.5q-134 0 -239 38q-14 10 -11 19z" />
<glyph unicode="&#x409;" horiz-adv-x="1748" d="M10 10v25q0 6 0.5 9t4.5 5t6.5 2.5t11.5 1.5q57 7 97 28t65 51.5t40.5 82.5t22.5 104.5t12 135.5l54 891q0 12 10 12h622q13 0 13 -15l-2 -569h372q85 0 150.5 -23t105.5 -60.5t66 -90.5t35.5 -107t9.5 -116q0 -182 -108 -279.5t-281 -97.5h-412q-14 0 -14 12v1278h-494 l-57 -909q-6 -94 -22.5 -161t-49.5 -121t-89 -82.5t-136 -32.5q-22 -1 -27.5 3.5t-5.5 22.5zM967 68h327q153 0 244.5 79t91.5 234q0 84 -22.5 146.5t-54.5 96t-77 54t-81 26t-76 5.5h-352v-641z" />
<glyph unicode="&#x40a;" horiz-adv-x="1603" d="M147 12v1334q0 12 11 12h53q10 0 10 -12v-572h516v569q0 15 15 15h49q12 0 12 -15v-569h377q79 0 142 -23t103.5 -61t67.5 -90t38 -107t11 -116q0 -182 -108 -279.5t-281 -97.5h-411q-15 0 -15 12v697h-516v-697q0 -12 -10 -12h-53q-11 0 -11 12zM813 68h328 q153 0 244.5 79t91.5 234q0 83 -25.5 146t-61 96.5t-81.5 54t-78.5 26t-61.5 5.5h-356v-641z" />
<glyph unicode="&#x40b;" horiz-adv-x="1400" d="M27 1300v46q0 12 12 12l1079 -2q10 0 10 -13v-45q0 -10 -10 -10l-620 2v-454q269 118 450 118q77 0 138 -21t100.5 -56.5t65 -85t36 -104t10.5 -116.5v-559q0 -12 -10 -12h-55q-8 0 -8 12v568q0 144 -69.5 222.5t-211.5 78.5q-86 0 -223 -40t-225 -81v-748q0 -12 -13 -12 h-47q-14 0 -14 12v1278h-383q-12 0 -12 10z" />
<glyph unicode="&#x40c;" horiz-adv-x="1073" d="M143 16v1327q0 15 13 15h47q14 0 14 -15v-606h320q177 0 241 187l135 411q7 23 25 23h31q11 0 14.5 -6t-0.5 -17l-135 -417q-31 -93 -69.5 -142.5t-98.5 -62.5q76 -17 116 -64.5t76 -159.5l140 -464q6 -25 -13 -25h-36q-8 0 -11.5 0.5t-7 4t-6.5 11.5l-139 467 q-35 112 -91.5 149.5t-160.5 37.5h-330v-654q0 -16 -14 -16h-47q-13 0 -13 16zM414 1483q-8 8 2 16l246 170q8 5 10 4t8 -8l39 -49q7 -10 -4 -17l-271 -143q-11 -4 -14 4z" />
<glyph unicode="&#x40e;" horiz-adv-x="993" d="M47 1348q-3 5 0 7.5t12 2.5h56q11 0 14 -10l371 -945l366 945q6 10 17 10h49q13 0 10 -10l-403 -1041q-22 -57 -34 -87t-30.5 -70t-33 -60t-35 -43.5t-42 -34.5t-49.5 -19.5t-63 -10.5q-72 -3 -125 18q-13 10 -10 18l6 27q3 17 27 14q61 -13 100 -10q69 6 107 51t79 148 l25 61zM249.5 1618q0.5 3 2 6.5t4.5 5.5l20 15q17 13 27 -7q49 -73 94.5 -101t112.5 -28q55 0 103 30.5t98 100.5q10 17 26 7l19 -13q4 -3 5.5 -6.5t0.5 -8t-2.5 -8l-4.5 -10.5t-5 -10q-41 -76 -105 -113.5t-137 -37.5q-78 0 -145 36.5t-103 110.5q-1 2 -3.5 7.5t-3.5 8 t-2.5 7.5t-1 8z" />
<glyph unicode="&#x40f;" horiz-adv-x="1167" d="M156 12v1334q0 12 10 12h53q10 0 10 -12v-1278h727v1278q0 12 15 12h49q10 0 10 -12v-1334q0 -12 -10 -12h-377l-12 -283q-2 -36 -19 -36h-30q-11 0 -15 7t-4 29l-12 283h-385q-10 0 -10 12z" />
<glyph unicode="&#x410;" horiz-adv-x="1069" d="M39 12l444 1331q4 10 7 11.5t10 1.5h63q11 0 17 -15l446 -1329q5 -8 3.5 -10t-11.5 -2h-55q-12 0 -17 12l-119 371h-591l-119 -371l-1.5 -6t-1.5 -3.5t-2.5 -2t-3 -0.5h-3.5h-3h-51q-15 0 -12 12zM258 451h547l-273 819h-6z" />
<glyph unicode="&#x411;" horiz-adv-x="987" d="M131 14v1329q0 15 14 15l676 -2q10 0 10 -13v-43q0 -12 -10 -12l-614 2v-518h336q98 0 174 -34.5t120 -92t66.5 -126t22.5 -142.5q0 -181 -108 -277t-281 -96l-392 -2q-14 0 -14 12zM207 72h305q153 0 244.5 77.5t91.5 231.5q0 83 -25.5 146t-60.5 96.5t-81.5 54 t-78.5 26t-61 5.5h-334v-637z" />
<glyph unicode="&#x412;" horiz-adv-x="1075" d="M131 16v1325q0 15 14 15l439 2q171 0 267.5 -89.5t96.5 -238.5q0 -233 -190 -315v-2q65 -22 112.5 -64t72 -93.5t35.5 -102t11 -101.5q0 -160 -95 -256t-245 -96h-493q-25 0 -25 16zM209 68h391q305 0 305 299q0 125 -82 216t-227 91h-387v-606zM209 739h346 q150 0 229.5 75t79.5 202t-74.5 199.5t-224.5 72.5h-356v-549z" />
<glyph unicode="&#x413;" horiz-adv-x="917" d="M147 14v1329q0 15 11 15h696q10 0 10 -12v-46q0 -12 -10 -12h-631v-1274q0 -14 -10 -14h-53q-13 0 -13 14z" />
<glyph unicode="&#x414;" horiz-adv-x="1236" d="M23 14q-1 22 3 30t17 13l57 11q150 135 176 487l58 778q0 9 5.5 17t16.5 8h721q10 0 10 -12v-1278l62 -7q17 -5 22 -11t5 -25l-11 -293q-2 -37 -18 -37h-29q-11 0 -16.5 7.5t-5.5 29.5l-13 268h-974l-11 -268q-2 -37 -18 -37h-31q-11 0 -14.5 7t-3.5 30zM201 68h813v1222 h-608l-56 -719q-30 -384 -149 -503z" />
<glyph unicode="&#x415;" horiz-adv-x="964" d="M141 10v1333q0 15 11 15h706q10 0 10 -12v-46q0 -12 -10 -12h-641v-549h578q10 0 10 -10v-41q0 -14 -10 -14h-578v-606h653q13 0 13 -11v-47q0 -10 -13 -10h-718q-11 0 -11 10z" />
<glyph unicode="&#x416;" horiz-adv-x="1626" d="M43 25l139 464q36 111 76.5 159t116.5 65q-60 13 -98.5 62.5t-69.5 142.5l-135 417q-4 11 -0.5 17t14.5 6h31q17 0 24 -23l135 -411q64 -187 242 -187h258v606q0 15 12 15h48q14 0 14 -15v-606h258q178 0 242 187l135 411q7 23 24 23h31q11 0 14.5 -6t-0.5 -17l-135 -417 q-31 -93 -69.5 -142.5t-98.5 -62.5q76 -17 116.5 -65t76.5 -159l139 -464q6 -25 -12 -25h-37q-8 0 -11.5 0.5t-7 4t-6.5 11.5l-139 467q-35 112 -91.5 149.5t-160.5 37.5h-268v-654q0 -16 -14 -16h-48q-12 0 -12 16v654h-268q-104 0 -160.5 -37.5t-91.5 -149.5l-139 -467 q-3 -8 -6.5 -11.5t-7 -4t-11.5 -0.5h-37q-18 0 -12 25z" />
<glyph unicode="&#x417;" horiz-adv-x="958" d="M8 53l4 23q3 13 19 10q81 -14 192 -22.5t174 -8.5q178 0 281.5 79t103.5 235q0 90 -25.5 151.5t-77 96t-118.5 49t-160 14.5h-49q-14 0 -14 12v43q0 15 14 15h29q153 0 265 83t112 209q0 68 -23 118t-56 77t-82.5 42.5t-89 19.5t-87.5 4q-53 0 -149 -10.5t-160 -22.5 q-4 -1 -7 -1.5t-4.5 -0.5t-3 1t-2 2.5t-2 4t-2.5 4.5l-6 20q-3 11 -1.5 13.5t13.5 7.5q82 29 173.5 43t156.5 14q223 0 320.5 -82.5t97.5 -248.5q0 -107 -68.5 -196t-197.5 -124v-4q142 -32 215 -112t73 -228q0 -108 -36.5 -187t-103 -124.5t-151.5 -66.5t-192 -21 q-86 0 -194.5 13t-170.5 38q-13 3 -10 18z" />
<glyph unicode="&#x418;" horiz-adv-x="1234" d="M143 1343q0 15 15 15h49q10 0 10 -15v-1212h4l785 1215q1 2 3 5t3 4t4 2t8 1h55q13 0 13 -15l2 -1329q0 -14 -15 -14h-49q-10 0 -10 14v1213h-4l-785 -1215l-2.5 -5t-2 -3.5t-2.5 -2t-4.5 -1.5h-6.5h-55q-13 0 -13 14z" />
<glyph unicode="&#x419;" horiz-adv-x="1234" d="M143 1343q0 15 15 15h49q10 0 10 -15v-1212h4l785 1215q1 2 3 5t3 4t4 2t8 1h55q13 0 13 -15l2 -1329q0 -14 -15 -14h-49q-10 0 -10 14v1213h-4l-785 -1215l-2.5 -5t-2 -3.5t-2.5 -2t-4.5 -1.5h-6.5h-55q-13 0 -13 14zM345.5 1618q0.5 3 2 6.5t4.5 5.5l21 15q16 13 26 -7 q49 -73 94.5 -101t112.5 -28q55 0 103 30.5t98 100.5q10 17 27 7l18 -13q4 -3 5.5 -6.5t0.5 -8t-2.5 -8l-4.5 -10.5t-5 -10q-41 -76 -105 -113.5t-137 -37.5q-78 0 -145 36.5t-103 110.5q-1 2 -3.5 7.5t-3.5 8t-2.5 7.5t-1 8z" />
<glyph unicode="&#x41a;" horiz-adv-x="1073" d="M143 16v1327q0 15 13 15h47q14 0 14 -15v-606h320q177 0 241 187l135 411q7 23 25 23h31q11 0 14.5 -6t-0.5 -17l-135 -417q-31 -93 -69.5 -142.5t-98.5 -62.5q76 -17 116 -64.5t76 -159.5l140 -464q6 -25 -13 -25h-36q-8 0 -11.5 0.5t-7 4t-6.5 11.5l-139 467 q-35 112 -91.5 149.5t-160.5 37.5h-330v-654q0 -16 -14 -16h-47q-13 0 -13 16z" />
<glyph unicode="&#x41b;" horiz-adv-x="1173" d="M10 10v25q0 6 0.5 9t4.5 5t6.5 2.5t11.5 1.5q57 7 97 28t65 51.5t40.5 82.5t22.5 104.5t12 135.5l54 891q0 12 10 12h684q10 0 10 -12v-1334q0 -12 -10 -12h-49q-15 0 -15 12v1278h-557l-57 -909q-6 -94 -22.5 -161t-49.5 -121t-89 -82.5t-136 -32.5q-22 -1 -27.5 3.5 t-5.5 22.5z" />
<glyph unicode="&#x41c;" horiz-adv-x="1460" d="M150 14v1329q0 15 12 15h57q16 0 19 -12l491 -1024h2l490 1019l2 6l1.5 4.5t2 3t3.5 2t5.5 1t9.5 0.5h49q17 0 17 -17v-1327q0 -14 -11 -14h-49q-14 0 -14 14v1188h-4l-463 -956q-9 -15 -16 -15h-45q-18 0 -21 13l-461 958h-4v-1188q0 -14 -10 -14h-49q-14 0 -14 14z" />
<glyph unicode="&#x41d;" horiz-adv-x="1167" d="M147 12v1334q0 12 11 12h53q10 0 10 -12v-592h727v592q0 12 15 12h49q10 0 10 -12v-1334q0 -12 -10 -12h-49q-15 0 -15 12v676h-727v-676q0 -12 -10 -12h-53q-11 0 -11 12z" />
<glyph unicode="&#x41e;" horiz-adv-x="1261" d="M129 698q0 65 4.5 123t17.5 128.5t35 128.5t60 114.5t88.5 95t124.5 62.5t164 24q91 0 165 -20t126 -53.5t90.5 -84.5t62 -107t37.5 -127t19 -137.5t5 -146.5q0 -82 -4 -148.5t-17 -143t-35 -135t-60.5 -115t-90.5 -93t-127.5 -59t-170.5 -22.5q-94 0 -169 22.5 t-126 58.5t-88.5 93t-58.5 115t-33 135.5t-15.5 142.5t-3.5 149zM205 678q0 -111 10.5 -199t38.5 -171t74 -138t120.5 -88t174.5 -33q121 0 207 45.5t135 132t70.5 196.5t21.5 255q0 119 -12 211t-42 172.5t-78.5 133t-124.5 82.5t-177 30q-97 0 -170 -31.5t-120 -86 t-76 -136t-40.5 -172t-11.5 -203.5z" />
<glyph unicode="&#x41f;" horiz-adv-x="1167" d="M147 12v1334q0 12 11 12h854q10 0 10 -12v-1334q0 -12 -10 -12h-49q-15 0 -15 12v1278h-727v-1278q0 -12 -10 -12h-53q-11 0 -11 12z" />
<glyph unicode="&#x420;" horiz-adv-x="987" d="M131 14v1332q0 12 14 12h392q173 0 281 -97t108 -278q0 -74 -22.5 -142.5t-66.5 -126t-120 -92t-174 -34.5h-336v-574q0 -14 -12 -14h-50q-14 0 -14 14zM207 653h334q23 0 49 4t63 14.5t69.5 34t62 57.5t46.5 90t17 126q0 154 -91.5 231.5t-244.5 77.5h-305v-635z" />
<glyph unicode="&#x421;" horiz-adv-x="1046" d="M145 664q0 124 11.5 221.5t45 192t87.5 156.5t144.5 100t211.5 38q239 0 348 -41q14 -3 11 -18l-3 -23q-3 -12 -18 -10q-240 18 -321 18q-82 0 -148 -20t-111 -52.5t-78.5 -83t-52.5 -102.5t-30.5 -119.5t-15 -126t-3.5 -130.5q0 -103 10 -185.5t39 -164t76 -136 t125.5 -88t183.5 -33.5q187 0 326 17q15 0 18 -13l5 -22q0 -13 -13 -19q-56 -21 -162.5 -29.5t-185.5 -8.5q-120 0 -209.5 35.5t-144 95t-88 149.5t-46 185.5t-12.5 216.5z" />
<glyph unicode="&#x422;" horiz-adv-x="931" d="M35 1300v46q0 12 12 12h844q10 0 10 -12v-46q0 -10 -10 -10h-385l-2 -1278q0 -12 -10 -12h-50q-14 0 -14 12v1278h-383q-12 0 -12 10z" />
<glyph unicode="&#x423;" horiz-adv-x="993" d="M47 1348q-3 5 0 7.5t12 2.5h56q11 0 14 -10l371 -945l366 945q6 10 17 10h49q13 0 10 -10l-403 -1041q-22 -57 -34 -87t-30.5 -70t-33 -60t-35 -43.5t-42 -34.5t-49.5 -19.5t-63 -10.5q-72 -3 -125 18q-13 10 -10 18l6 27q3 17 27 14q61 -13 100 -10q69 6 107 51t79 148 l25 61z" />
<glyph unicode="&#x424;" horiz-adv-x="1409" d="M100 684q0 284 142 440.5t432 169.5v52q0 12 10 12h53q11 0 11 -12v-52q151 -6 259 -49.5t172.5 -124t94 -187.5t29.5 -249q0 -582 -555 -614v-58q0 -12 -11 -12h-53q-10 0 -10 12v60q-131 3 -233 39.5t-165 94t-104 138t-56.5 163t-15.5 177.5zM174 684q0 -120 25 -213 t81.5 -168t155.5 -118.5t238 -51.5v1098q-500 -28 -500 -547zM750 133q134 8 229 50.5t148.5 116.5t77.5 166.5t24 213.5q0 53 -4 100t-16.5 104t-33 103.5t-57.5 92t-86 77t-121 51.5t-161 21v-1096z" />
<glyph unicode="&#x425;" horiz-adv-x="1015" d="M57 12l408 690l-379 644q-4 5 0 8.5t10 3.5h54q6 0 9 -1.5t5 -5t4 -5.5l342 -580l340 580q9 12 18 12h56q6 0 10 -3.5t0 -8.5l-379 -644l408 -690q3 -12 -11 -12h-57q-7 0 -16 12l-369 627l-371 -627q-3 -12 -16 -12h-55q-18 0 -11 12z" />
<glyph unicode="&#x426;" horiz-adv-x="1191" d="M156 12v1334q0 12 10 12h53q10 0 10 -12v-1278h727v1278q0 12 15 12h49q10 0 10 -12v-1274l62 -6q18 -2 22.5 -8t3.5 -29l-14 -297q-1 -19 -6.5 -25t-16.5 -6h-20q-9 0 -12.5 1t-7 8t-3.5 22l-6 268h-866q-10 0 -10 12z" />
<glyph unicode="&#x427;" horiz-adv-x="1052" d="M68 977v366q0 15 16 15h45q14 0 14 -12v-369q0 -79 19.5 -138.5t49 -93.5t72.5 -54.5t82 -27t85 -6.5q188 0 380 68v618q0 15 17 15h45q14 0 14 -12v-1332q0 -14 -14 -14h-49q-13 0 -13 14v643q-199 -71 -401 -71q-87 0 -153 22.5t-105 59t-63 89t-32.5 105t-8.5 115.5z " />
<glyph unicode="&#x428;" horiz-adv-x="1728" d="M156 12v1334q0 12 10 12h53q10 0 10 -12v-1278h596v1278q0 12 11 12h53q10 0 10 -12v-1278h602v1278q0 12 15 12h49q10 0 10 -12v-1334q0 -12 -10 -12h-1399q-10 0 -10 12z" />
<glyph unicode="&#x429;" horiz-adv-x="1736" d="M156 12v1334q0 12 10 12h53q10 0 10 -12v-1278h596v1278q0 12 11 12h53q10 0 10 -12v-1278h602v1278q0 12 15 12h49q10 0 10 -12v-1274l61 -6q18 -2 23 -8.5t4 -28.5l-14 -297q-1 -19 -6.5 -25t-16.5 -6h-20q-9 0 -12.5 1t-7 8t-3.5 22l-6 268h-1411q-10 0 -10 12z" />
<glyph unicode="&#x42a;" horiz-adv-x="1308" d="M4 1300v46q0 12 10 12h490q12 0 12 -15v-569h377q79 0 142 -23t103.5 -61t67.5 -90t38 -107t11 -116q0 -182 -108 -279.5t-281 -97.5h-411q-15 0 -15 12v1278h-426q-10 0 -10 10zM516 68h328q153 0 244.5 79t91.5 234q0 83 -25.5 146t-61 96.5t-81.5 54t-78.5 26 t-61.5 5.5h-356v-641z" />
<glyph unicode="&#x42b;" horiz-adv-x="1345" d="M147 12v1331q0 15 15 15h49q12 0 12 -15v-569h377q79 0 142 -23t103.5 -61t67.5 -90t38.5 -107.5t11.5 -115.5q0 -182 -108.5 -279.5t-281.5 -97.5h-411q-15 0 -15 12zM223 68h328q153 0 244.5 79t91.5 234q0 83 -25.5 146t-60.5 96.5t-81.5 54t-78.5 26t-61 5.5h-357 v-641zM1124 12v1334q0 12 11 12h53q10 0 10 -12v-1334q0 -12 -10 -12h-53q-11 0 -11 12z" />
<glyph unicode="&#x42c;" horiz-adv-x="1013" d="M147 12v1331q0 15 15 15h49q12 0 12 -15v-569h377q79 0 142 -23t103.5 -61t67.5 -90t38.5 -107.5t11.5 -115.5q0 -182 -108.5 -279.5t-281.5 -97.5h-411q-15 0 -15 12zM223 68h328q153 0 244.5 79t91.5 234q0 83 -25.5 146t-60.5 96.5t-81.5 54t-78.5 26t-61 5.5h-357 v-641z" />
<glyph unicode="&#x42d;" horiz-adv-x="1046" d="M78 39l4 22q3 13 18 13q136 -17 326 -17q75 0 137 18t106.5 49.5t78.5 77.5t55.5 97t35.5 114.5t20 124t7 130.5h-571q-10 0 -10 14v41q0 10 10 10h571q-1 64 -6 116.5t-17.5 113t-32 107t-53 91t-78 73.5t-108.5 46.5t-143 17.5q-49 0 -97.5 -2.5t-121 -9t-78.5 -6.5 q-15 -2 -18 10l-2 23q-3 15 10 18q109 41 323 41q123 0 213.5 -35t145 -93t87 -148.5t43.5 -185t11 -218.5q0 -120 -13 -219t-48 -193t-90.5 -157.5t-145.5 -102t-209 -38.5q-79 0 -185.5 8.5t-162.5 29.5q-12 6 -12 19z" />
<glyph unicode="&#x42e;" horiz-adv-x="1492" d="M147 12v1334q0 12 11 12h53q10 0 10 -12v-592h201q2 90 13.5 168.5t43 164.5t81 147t134.5 100.5t197 39.5q87 0 157.5 -20t119.5 -53.5t86 -85t58.5 -106.5t35 -127t18 -138t4.5 -146q0 -83 -3.5 -149t-16 -143t-33 -135t-57 -114.5t-85.5 -93t-121.5 -59t-162.5 -22.5 q-89 0 -160 22t-119.5 57.5t-84 91.5t-55.5 113t-31.5 133.5t-15 141t-3.5 147.5h-201v-676q0 -12 -10 -12h-53q-11 0 -11 12zM498 678q0 -112 9 -199t35 -171t69 -138.5t113.5 -87.5t166.5 -33q93 0 163.5 30.5t116 84t74.5 134t41 173t12 207.5q0 119 -10.5 210.5 t-38.5 173t-73 133.5t-117 82t-168 30q-92 0 -161 -31.5t-112.5 -86t-71 -136t-38 -172t-10.5 -203.5z" />
<glyph unicode="&#x42f;" horiz-adv-x="1071" d="M59 25l119 403q30 96 65 142t99 69q-56 13 -98.5 46.5t-67 80t-36 98t-11.5 107.5q0 96 32 171.5t88 121.5t128 70t155 24h377q15 0 15 -12v-1332q0 -14 -15 -14h-49q-12 0 -12 14v594h-320q-53 0 -91.5 -7t-75.5 -26t-64 -57t-45 -96l-119 -406q-3 -8 -6 -11.5t-6.5 -4 t-11.5 -0.5h-37q-19 0 -13 25zM207 967q0 -48 9.5 -88t24 -68t38 -50.5t44 -36.5t51 -24t50 -14.5t49 -7t40.5 -2.5h32h303v612h-291q-156 0 -253 -79.5t-97 -241.5z" />
<glyph unicode="&#x430;" horiz-adv-x="1013" d="M92 244q0 176 83 253.5t265 77.5h355v119q0 55 -7 93.5t-25 71.5t-50 52.5t-82 30t-121 10.5q-78 0 -307 -22q-14 0 -17 10l-4 23q0 10 11 14q65 22 154.5 33.5t156.5 11.5q107 0 175 -17t110 -58t58.5 -103.5t16.5 -159.5v-557q0 -52 18.5 -65t78.5 -15q12 0 12 -12v-27 q0 -13 -21 -16q-93 -6 -125 20.5t-32 110.5q-120 -71 -220 -106t-237 -35q-126 0 -186 65t-60 197zM168 252q0 -118 46 -161.5t165 -43.5q152 0 416 139v324h-363q-62 0 -107 -11t-82 -38t-56 -79t-19 -130z" />
<glyph unicode="&#x431;" horiz-adv-x="978" d="M92 485q0 103 1.5 164t9.5 150t23 144t44.5 122t71.5 110t105 82t145 62q69 20 307 61q13 2 18 0t6 -12l4 -25q1 -11 -1.5 -16t-4.5 -5.5l-10 -2.5q-37 -8 -126 -24.5t-130 -26.5q-189 -49 -273.5 -156.5t-105.5 -316.5l6 -4q46 71 133.5 118t194.5 47q70 0 127 -16.5 t95.5 -42.5t67.5 -64t45 -76t26 -83.5t13 -81t3 -74.5q0 -56 -3 -102.5t-13.5 -103t-28.5 -101t-49.5 -89t-74 -73.5t-106 -47t-141.5 -18q-59 0 -109 10.5t-86 28t-65 45t-48 55.5t-33 67t-21 71t-11 76t-5 74.5t-1 73.5zM170 492q0 -84 6 -144.5t25 -120.5t52 -97 t89.5 -60t134.5 -23q80 0 139.5 23.5t96.5 62.5t59.5 99t30.5 124t8 146q0 387 -313 387q-77 0 -136.5 -26.5t-95 -67t-58 -95.5t-30.5 -105.5t-8 -102.5z" />
<glyph unicode="&#x432;" horiz-adv-x="940" d="M102 16v969q0 14 17 14h409q148 0 220.5 -70.5t72.5 -185.5q0 -154 -145 -219v-2q53 -14 91 -43t56.5 -66.5t26.5 -72.5t8 -72q0 -123 -78 -195.5t-217 -72.5h-436q-25 0 -25 16zM172 59h352q134 0 198 58.5t64 152.5q0 93 -63 154t-205 61h-346v-426zM172 545h307 q128 0 199.5 53.5t71.5 142.5q0 92 -59 145.5t-183 53.5h-336v-395z" />
<glyph unicode="&#x433;" horiz-adv-x="774" d="M123 9v5v971q0 14 10 14h606q15 0 15 -12v-33q0 -7 -2.5 -10.5t-12.5 -3.5h-549v-926q0 -14 -14 -14h-41q-9 0 -10.5 1t-1.5 8z" />
<glyph unicode="&#x434;" horiz-adv-x="1079" d="M20 23q0 12 3 18.5t6.5 9t13.5 6.5l49 6q75 68 107 149t47 208l61 522q5 33 18.5 45t59.5 12h514q19 0 19 -18v-920l49 -4q22 -3 22 -30l-12 -252q-1 -22 -6 -27.5t-17 -5.5h-18q-11 0 -15.5 4.5t-5.5 22.5l-10 231h-803l-12 -231q-3 -27 -20 -27h-21q-11 0 -15 5t-5 22z M176 59h672v881h-475l-60 -498q-20 -149 -48 -237t-89 -146z" />
<glyph unicode="&#x435;" horiz-adv-x="942" d="M92 506q0 82 8 148.5t32.5 137t65.5 118t112.5 78t168.5 30.5q95 0 166 -25t113.5 -65t68 -100.5t34.5 -121t9 -135.5q0 -46 -14 -66t-51 -20h-635q0 -77 6 -134.5t25 -117t51.5 -97t90 -61.5t136.5 -24q38 0 82 2.5t73 5t81.5 8t77.5 7.5q14 0 18 -11l2 -18 q3 -13 -8 -16q-56 -22 -153.5 -33.5t-178.5 -11.5q-72 0 -129.5 15t-97 40t-68 65t-45 81t-26 98t-12.5 107.5t-3 115.5zM168 545h627q-2 52 -4.5 88t-10.5 82t-21.5 77t-37 63t-55.5 51.5t-79.5 31.5t-107.5 12q-73 0 -127.5 -20.5t-88.5 -54.5t-55 -87.5t-29.5 -110.5 t-10.5 -132z" />
<glyph unicode="&#x436;" horiz-adv-x="1363" d="M53 23l97 288q33 103 72.5 150t109.5 59q-57 13 -93 59t-67 136l-88 262q-9 20 14 20h29q17 0 23 -20l88 -258q57 -174 229 -174h180v440q0 14 12 14h43q15 0 15 -14v-440h180q172 0 229 174l88 258q6 20 23 20h29q23 0 14 -20l-88 -262q-31 -90 -67 -136t-93 -59 q70 -13 107.5 -58.5t74.5 -150.5l97 -288q7 -23 -13 -23h-34q-17 0 -23 16l-96 289q-35 107 -87 141.5t-151 34.5h-190v-465q0 -16 -15 -16h-43q-12 0 -12 16v465h-190q-100 0 -151.5 -34.5t-86.5 -141.5l-96 -289q-6 -16 -23 -16h-34q-20 0 -13 23z" />
<glyph unicode="&#x437;" horiz-adv-x="823" d="M33 45l4 21q3 15 20 12q189 -29 271 -29q163 0 250.5 57.5t87.5 172.5q0 219 -301 219h-43q-17 0 -17 14v37q0 12 17 12h34q121 0 205 54.5t84 144.5q0 57 -20.5 96t-60 60t-87 29.5t-110.5 8.5q-91 0 -258 -22q-22 -3 -25 10l-2 14q-3 19 12 25q116 39 281 39 q83 0 145.5 -14t100.5 -37.5t61.5 -57.5t32 -69t8.5 -78q0 -79 -54 -146t-153 -83v-5q87 -5 156 -70t69 -171q0 -152 -105.5 -228.5t-305.5 -76.5q-168 0 -287 41q-13 5 -10 20z" />
<glyph unicode="&#x438;" horiz-adv-x="970" d="M102 14v971q0 14 17 14h43q10 0 10 -14v-874l297 424l313 446q18 18 27 18h45q14 0 14 -14v-971q0 -14 -16 -14h-43q-10 0 -10 14v883l-262 -375l-361 -514q-8 -8 -16 -8h-43q-15 0 -15 14z" />
<glyph unicode="&#x439;" horiz-adv-x="970" d="M102 14v971q0 14 17 14h43q10 0 10 -14v-874l297 424l313 446q18 18 27 18h45q14 0 14 -14v-971q0 -14 -16 -14h-43q-10 0 -10 14v883l-262 -375l-361 -514q-8 -8 -16 -8h-43q-15 0 -15 14zM237.5 1307q0.5 3 2 6.5t4.5 5.5l20 14q17 14 27 -6q49 -73 94.5 -101 t112.5 -28q55 0 102.5 30.5t97.5 100.5q10 16 27 6l18 -12q4 -3 5.5 -6.5t0.5 -8t-2.5 -8l-4.5 -10.5t-5 -10q-41 -76 -104.5 -114t-136.5 -38q-77 0 -144.5 37t-103.5 111q-1 2 -3.5 7.5t-3.5 8t-2.5 7.5t-1 8z" />
<glyph unicode="&#x43a;" horiz-adv-x="845" d="M102 16v969q0 14 13 14h43q14 0 14 -14v-440h217q172 0 229 174l89 258q6 20 22 20h29q23 0 14 -20l-88 -262q-31 -90 -67 -136t-93 -59q71 -13 108.5 -58.5t74.5 -150.5l96 -288q7 -23 -12 -23h-35q-17 0 -23 16l-96 289q-35 107 -87 141.5t-151 34.5h-227v-465 q0 -16 -14 -16h-43q-13 0 -13 16z" />
<glyph unicode="&#x43b;" horiz-adv-x="1032" d="M10 0v29q0 8 3.5 11.5t7 4t12.5 0.5q55 3 93 17.5t63 38t40 66.5t22.5 91t12.5 123l41 537q5 48 22 64.5t64 16.5h506q12 0 12 -12v-975q0 -12 -12 -12h-43q-16 0 -16 12v928h-461l-45 -594q-4 -48 -8 -77.5t-13 -73t-22 -70t-36 -57.5t-53 -47t-74.5 -26.5t-100.5 -8.5 q-15 0 -15 14z" />
<glyph unicode="&#x43c;" horiz-adv-x="1146" d="M102 14v971q0 14 15 14h47q13 0 20 -10l383 -743l391 739q6 14 27 14h41q18 0 18 -16v-969q0 -14 -10 -14h-43q-16 0 -16 14v856l-371 -690q-4 -12 -16 -12h-39q-19 0 -25 12q-65 113 -175 342.5t-177 345.5v-854q0 -14 -14 -14h-39q-17 0 -17 14z" />
<glyph unicode="&#x43d;" horiz-adv-x="960" d="M104 12v975q0 12 11 12h45q14 0 14 -12v-432h610v432q0 12 17 12h45q12 0 12 -12v-975q0 -12 -12 -12h-45q-17 0 -17 12v488h-610v-488q0 -12 -14 -12h-45q-11 0 -11 12z" />
<glyph unicode="&#x43e;" horiz-adv-x="976" d="M92 518q0 50 3 93t13.5 95.5t27 95t46.5 84t69.5 69.5t98.5 45.5t131 17.5q102 0 177.5 -29t118 -74t68 -114t33 -134t7.5 -149q0 -61 -2.5 -107.5t-12 -105.5t-26 -101.5t-46.5 -86t-72 -71t-104 -45t-141 -17.5q-77 0 -137 17t-100.5 43.5t-69.5 70.5t-44.5 85.5 t-24.5 101.5t-11 106t-2 110zM168 502q0 -84 6.5 -146.5t26.5 -123.5t54 -99.5t91 -62t135 -23.5q80 0 139 22.5t95 60.5t57.5 97.5t29 124t7.5 150.5q0 87 -7 150.5t-28 122.5t-57 95.5t-95 58t-141 21.5q-78 0 -135 -23t-91 -61t-54 -98t-26.5 -121.5t-6.5 -144.5z" />
<glyph unicode="&#x43f;" horiz-adv-x="960" d="M104 12v975q0 12 17 12h725q10 0 10 -10l2 -977q0 -12 -12 -12h-51q-11 0 -11 12v928h-610v-928q0 -12 -14 -12h-45q-11 0 -11 12z" />
<glyph unicode="&#x440;" horiz-adv-x="980" d="M127 -348v1335q0 12 6 12h53q11 0 11 -12v-108q233 139 409 139q165 0 230 -117.5t65 -384.5q0 -139 -16.5 -234t-58 -165t-113.5 -102.5t-181 -32.5q-181 0 -331 63l-6 -2v-391q0 -12 -11 -12h-51q-6 0 -6 12zM197 104q197 -59 348 -59q157 0 219.5 110t62.5 367 q0 241 -55.5 335.5t-181.5 94.5q-129 0 -393 -139v-709z" />
<glyph unicode="&#x441;" horiz-adv-x="802" d="M92 506q0 77 5 135.5t18.5 120.5t40 105.5t66.5 79t101.5 53.5t141.5 18q63 0 151.5 -11t145.5 -30q13 -3 10 -16l-4 -21q-3 -13 -18 -10q-171 22 -279 22q-170 0 -237.5 -99.5t-67.5 -344.5q0 -257 64.5 -358t240.5 -101q126 0 281 21q7 1 10 -0.5t4 -3t2 -7.5l4 -20 q3 -13 -10 -16q-56 -19 -150 -30t-157 -11q-67 0 -120.5 13t-91 36t-65 60t-44 78t-26 97.5t-13 112t-3.5 127.5z" />
<glyph unicode="&#x442;" horiz-adv-x="815" d="M27 952v35q0 12 16 12h737q11 0 11 -12v-35q0 -12 -11 -12h-338v-928q0 -12 -14 -12h-39q-16 0 -16 12v928h-330q-16 0 -16 12z" />
<glyph unicode="&#x443;" horiz-adv-x="901" d="M53 987q-3 10 8 10h50q17 0 20 -14l307 -903h4l330 905q3 14 21 14h43q10 0 11 -3.5t-1 -10.5l-486 -1335q-3 -10 -16 -10h-41h-5q-8 0 -8 3q0 1 1 8v1l112 325z" />
<glyph unicode="&#x444;" horiz-adv-x="1181" d="M92 524q0 81 14 150t48 132t86 108t132 73t183 31v328q0 12 12 12h49q9 0 9 -12v-328q103 -3 184 -30t133 -71.5t86 -107.5t48 -133t14 -152q0 -521 -465 -534v-338q0 -12 -9 -12h-49q-12 0 -12 12v338q-463 0 -463 534zM166 508q0 -227 92.5 -336t298.5 -119v897 q-205 -4 -298 -115t-93 -327zM625 53q202 7 296.5 118t94.5 337q0 216 -93 327t-298 115v-897z" />
<glyph unicode="&#x445;" horiz-adv-x="829" d="M45 14l330 494l-309 473q-5 5 -3.5 10.5t11.5 5.5h47q11 0 20 -12l277 -424l276 424q9 12 21 12h47q10 0 10.5 -5.5t-4.5 -10.5l-307 -473l332 -492q13 -16 -9 -16h-47q-14 0 -24 10l-295 445l-291 -445q-10 -10 -25 -10h-51q-14 0 -6 14z" />
<glyph unicode="&#x446;" horiz-adv-x="989" d="M102 12v975q0 12 15 12h41q12 0 12 -12v-928h625v928q0 12 16 12h43q10 0 10 -12v-921l62 -3q22 -3 22 -30l-12 -252q-1 -22 -6 -27.5t-17 -5.5h-18q-11 0 -15.5 6.5t-5.5 24.5l-10 221h-747q-15 0 -15 12z" />
<glyph unicode="&#x447;" horiz-adv-x="909" d="M61 772v209q0 12 11 12h57q6 0 6 -12v-217q0 -51 1.5 -82t8 -70.5t20.5 -62.5t37.5 -45t61 -31.5t88.5 -9.5q147 0 385 129v389q0 12 11 12h53q6 0 6 -12v-969q0 -12 -6 -12h-53q-11 0 -11 12v512q-81 -48 -189 -87.5t-210 -39.5q-45 0 -81.5 7t-63.5 17t-48 29.5 t-34.5 37t-23.5 47t-15 51.5t-7.5 59t-3 61.5t-0.5 65.5z" />
<glyph unicode="&#x448;" horiz-adv-x="1445" d="M102 12v975q0 12 15 12h45q12 0 12 -12v-928h512v928q0 12 14 12h43q10 0 11.5 -2t1.5 -10v-928h518v928q0 12 16 12h43q10 0 10 -12v-975q0 -12 -10 -12h-1216q-15 0 -15 12z" />
<glyph unicode="&#x449;" horiz-adv-x="1470" d="M102 12v975q0 12 15 12h45q12 0 12 -12v-928h512v928q0 12 14 12h43q10 0 11.5 -2t1.5 -10v-928h520v928q0 12 16 12h43q11 0 11 -12v-921l61 -3q23 -3 23 -30l-13 -252q-1 -22 -5.5 -27.5t-16.5 -5.5h-19q-11 0 -15 6t-5 25l-10 221h-1229q-15 0 -15 12z" />
<glyph unicode="&#x44a;" horiz-adv-x="1173" d="M8 952v33q0 14 10 14h412q16 0 16 -14v-410h367q68 0 122.5 -17t88.5 -45t57 -66.5t32 -79t9 -84.5q0 -135 -87.5 -209t-237.5 -74h-404q-16 0 -16 14v926h-357q-12 0 -12 12zM446 59h334q125 0 199 55.5t74 166.5q0 60 -19.5 105.5t-45.5 68.5t-62.5 37t-61 17t-49.5 3 h-369v-453z" />
<glyph unicode="&#x44b;" horiz-adv-x="1136" d="M102 14v971q0 14 17 14h37q16 0 16 -14v-410h367q68 0 122.5 -17t88.5 -45t57 -66.5t32 -79t9 -84.5q0 -135 -88 -209t-238 -74h-403q-17 0 -17 14zM172 59h334q124 0 198 55.5t74 166.5q0 51 -13 91t-35 64t-46.5 40t-53.5 23.5t-49 10t-40 2.5h-369v-453zM965 12v973 q0 12 12 12h49q8 0 8 -12v-973q0 -12 -10 -12h-47q-12 0 -12 12z" />
<glyph unicode="&#x44c;" horiz-adv-x="888" d="M102 14v971q0 14 17 14h37q16 0 16 -14v-410h367q68 0 122.5 -17t88.5 -45t57 -66.5t32 -79t9 -84.5q0 -135 -88 -209t-238 -74h-403q-17 0 -17 14zM172 59h334q124 0 198 55.5t74 166.5q0 51 -13 91t-35 64t-46.5 40t-53.5 23.5t-49 10t-40 2.5h-369v-453z" />
<glyph unicode="&#x44d;" horiz-adv-x="819" d="M43 39l4 20q0 1 1 4.5t1.5 4.5t3.5 2t8 0q184 -23 279 -23q166 0 239.5 102.5t73.5 335.5h-463q-14 0 -14 9v45q0 12 14 12h463q0 210 -68 305.5t-235 95.5q-72 0 -248 -22q-5 -2 -8 0t-3.5 2t-1.5 3.5t-1 4.5l-4 21q-3 13 10 16q106 41 262 41q96 0 164.5 -25.5t108 -67 t62 -110.5t29.5 -139t7 -170q0 -95 -8 -166t-32 -141.5t-65 -115.5t-110.5 -73t-165.5 -28q-61 0 -148.5 11t-144.5 30q-13 3 -10 16z" />
<glyph unicode="&#x44e;" horiz-adv-x="1177" d="M102 12v975q0 12 11 12h45q14 0 14 -12v-432h162q2 50 5 89t13 89.5t25.5 88t43 76.5t64.5 63.5t92 40.5t123 16q74 0 132.5 -15t98.5 -39.5t69 -64t45 -79t25.5 -94.5t12 -101t2.5 -107q0 -51 -0.5 -83.5t-4.5 -82.5t-11 -82.5t-20.5 -74.5t-32.5 -69.5t-48.5 -57 t-67 -46t-88.5 -27.5t-112 -11q-86 0 -150.5 19t-103 60t-62.5 82.5t-34.5 110t-13 117t-2.5 127.5h-162v-488q0 -12 -14 -12h-45q-11 0 -11 12zM410 502q0 -62 2 -106.5t9 -95t19.5 -85.5t34 -69t51.5 -54t74 -32.5t100 -12.5q67 0 117.5 14.5t84 45t55.5 68t33.5 92 t15.5 108.5t4 127q0 90 -5.5 150.5t-23.5 121.5t-51 96.5t-90.5 57.5t-139.5 22q-56 0 -100 -12t-74 -32t-51.5 -53.5t-34 -68t-19.5 -84t-9 -93.5t-2 -105z" />
<glyph unicode="&#x44f;" horiz-adv-x="946" d="M63 23l84 258q25 78 59 123t83 65q-193 42 -193 254q0 136 92 206t240 70h397q19 0 19 -14v-969q0 -16 -19 -16h-32q-17 0 -17 16v435h-301q-103 0 -163.5 -36t-94.5 -141l-84 -258q-6 -16 -22 -16h-35q-20 0 -13 23zM170 719q0 -205 266 -205h340v422h-327 q-127 0 -203 -51.5t-76 -165.5z" />
<glyph unicode="&#x451;" horiz-adv-x="942" d="M92 506q0 82 8 148.5t32.5 137t65.5 118t112.5 78t168.5 30.5q95 0 166 -25t113.5 -65t68 -100.5t34.5 -121t9 -135.5q0 -46 -14 -66t-51 -20h-635q0 -77 6 -134.5t25 -117t51.5 -97t90 -61.5t136.5 -24q38 0 82 2.5t73 5t81.5 8t77.5 7.5q14 0 18 -11l2 -18 q3 -13 -8 -16q-56 -22 -153.5 -33.5t-178.5 -11.5q-72 0 -129.5 15t-97 40t-68 65t-45 81t-26 98t-12.5 107.5t-3 115.5zM168 545h627q-2 52 -4.5 88t-10.5 82t-21.5 77t-37 63t-55.5 51.5t-79.5 31.5t-107.5 12q-73 0 -127.5 -20.5t-88.5 -54.5t-55 -87.5t-29.5 -110.5 t-10.5 -132zM268 1260q0 25 9.5 37t37.5 12q29 0 39.5 -12t10.5 -37q0 -54 -50 -54q-29 0 -38 13.5t-9 40.5zM627 1260q0 25 9.5 37t37.5 12q29 0 39 -12t10 -37q0 -26 -10.5 -40t-38.5 -14q-29 0 -38 13.5t-9 40.5z" />
<glyph unicode="&#x452;" horiz-adv-x="1069" d="M43 1210v35q0 12 14 12h146v168q0 13 6 13h53q10 0 10 -13v-168h504q10 0 10 -10v-37q0 -10 -10 -10h-504v-336q202 92 365 92q177 0 268.5 -110t91.5 -311q0 -76 -12 -150t-42.5 -154t-77 -149t-121 -133t-169.5 -109q-16 -5 -22 8l-8 19q-2 12 -0.5 15t10.5 9 q185 109 277 264.5t92 381.5q0 182 -78.5 268t-214.5 86q-149 0 -359 -86v-793q0 -12 -10 -12h-53q-6 0 -6 12v1188h-148q-12 0 -12 10z" />
<glyph unicode="&#x453;" horiz-adv-x="753" d="M102 14v971q0 14 11 14h606q14 0 14 -12v-33q0 -5 -0.5 -7.5t-3.5 -4.5t-10 -2h-549v-926q0 -14 -14 -14h-41q-10 0 -11.5 1.5t-1.5 12.5zM309 1165l137 265q6 12 19 6l57 -27q11 -4 4 -14l-172 -254q-6 -9 -14 -4l-25 12q-9 6 -6 16z" />
<glyph unicode="&#x454;" horiz-adv-x="802" d="M92 506q0 77 5 135.5t18.5 120.5t40 105.5t66.5 79t101.5 53.5t141.5 18q63 0 151.5 -11t145.5 -30q10 -3 10 -16l-4 -21q0 -10 -14 -10q-21 2 -82 8t-112.5 10t-88.5 4q-166 0 -233 -93.5t-72 -321.5h463q14 0 14 -13v-45q0 -8 -14 -8h-463q4 -231 73.5 -326.5 t231.5 -95.5q126 0 281 21q16 0 16 -11l4 -20q0 -13 -10 -16q-56 -19 -150 -30t-157 -11q-67 0 -120.5 13t-91 36t-65 60t-44 78t-26 97.5t-13 112t-3.5 127.5z" />
<glyph unicode="&#x455;" horiz-adv-x="827" d="M84 39l4 20q0 11 16 11q54 -8 149.5 -15.5t143.5 -7.5q273 0 273 203q0 62 -13 101.5t-46.5 65t-76 39t-116.5 27.5q-51 8 -83 14.5t-71 17t-62.5 22.5t-48 31t-37.5 43t-21.5 57t-8.5 75q0 275 328 275q60 0 144.5 -11t141.5 -30q11 -4 11 -16l-4 -21q0 -10 -15 -10 q-21 2 -81 8t-111 10t-88 4q-131 0 -191.5 -47.5t-60.5 -154.5q0 -29 3.5 -52t14 -41t20 -31t30.5 -24t35.5 -17.5t45.5 -13t50.5 -10.5t58.5 -10q68 -11 110 -21.5t87.5 -31t70.5 -48.5t41 -74t16 -108q0 -151 -89.5 -216.5t-258.5 -65.5q-69 0 -157 9.5t-144 27.5 q-10 3 -10 16z" />
<glyph unicode="&#x456;" horiz-adv-x="403" d="M152 1266q0 26 10 38.5t39 12.5q30 0 40.5 -12.5t10.5 -38.5q0 -27 -10.5 -41.5t-40.5 -14.5t-39.5 14.5t-9.5 41.5zM166 12v973q0 12 12 12h49q9 0 9 -12v-973q0 -12 -11 -12h-47q-12 0 -12 12z" />
<glyph unicode="&#x457;" horiz-adv-x="403" d="M-27 1260q0 25 9.5 37t37.5 12q29 0 39.5 -12t10.5 -37q0 -54 -50 -54q-29 0 -38 13.5t-9 40.5zM166 12v973q0 12 12 12h49q9 0 9 -12v-973q0 -12 -11 -12h-47q-12 0 -12 12zM332 1260q0 25 9.5 37t37.5 12q29 0 39 -12t10 -37q0 -26 -10.5 -40t-38.5 -14q-29 0 -38 13.5 t-9 40.5z" />
<glyph unicode="&#x458;" horiz-adv-x="425" d="M-39 -369q0 19 21 19q42 1 75 7.5t55 15t37 23.5t23 27.5t12 33t5 34.5t1 37v1159q0 12 11 12h49q12 0 12 -12v-1180q0 -34 -3.5 -59.5t-19.5 -59t-44.5 -54.5t-83.5 -34t-131 -8q-2 0 -6 1t-8.5 6t-4.5 12v20zM176 1266q0 26 10 38.5t39 12.5q30 0 40.5 -12.5 t10.5 -38.5q0 -27 -10.5 -41.5t-40.5 -14.5t-39.5 14.5t-9.5 41.5z" />
<glyph unicode="&#x459;" horiz-adv-x="1552" d="M10 0v29q0 8 3.5 11.5t7 4t12.5 0.5q55 3 93 17.5t63 38t40 66.5t22.5 91t12.5 123l41 537q5 48 22 64.5t64 16.5h418q16 0 16 -14v-410h367q68 0 122.5 -17t88.5 -45t57 -66.5t32 -79t9 -84.5q0 -135 -87.5 -209t-237.5 -74h-404q-16 0 -16 12v928h-379l-45 -594 q-4 -48 -8 -77.5t-13 -73t-22 -70t-36 -57.5t-53 -47t-74.5 -26.5t-100.5 -8.5q-15 0 -15 14zM825 59h334q125 0 199 55.5t74 166.5q0 60 -19.5 105.5t-45.5 68.5t-62.5 37t-61 17t-49.5 3h-369v-453z" />
<glyph unicode="&#x45a;" horiz-adv-x="1423" d="M102 12v975q0 12 11 12h47q9 0 10.5 -1.5t1.5 -7.5v-3v-412h465v410q0 14 16 14h37q17 0 17 -14v-410h366q68 0 122.5 -17t88.5 -45t57 -66.5t32 -79t9 -84.5q0 -135 -87.5 -209t-237.5 -74h-404q-16 0 -16 14v498h-465v-500v-3q0 -6 -1.5 -7.5t-10.5 -1.5h-47 q-11 0 -11 12zM707 59h333q125 0 199 55.5t74 166.5q0 60 -19.5 105.5t-45.5 68.5t-62.5 37t-61 17t-49.5 3h-368v-453z" />
<glyph unicode="&#x45b;" horiz-adv-x="1032" d="M43 1210v35q0 12 14 12h129v168q0 13 7 13h53q10 0 10 -13v-168h528q11 0 11 -10v-37q0 -10 -11 -10h-528v-326q243 142 408 142q80 0 134 -20.5t81.5 -46t41 -80.5t15.5 -91t2 -112v-7v-7v-7l2 -633q0 -12 -10 -12h-58q-6 0 -6 12v641q0 51 -1.5 82t-8 70.5t-20.5 62.5 t-37.5 45t-61 31.5t-88.5 9.5q-79 0 -193 -45t-200 -92v-805q0 -12 -10 -12h-53q-7 0 -7 12v1188h-131q-12 0 -12 10z" />
<glyph unicode="&#x45c;" horiz-adv-x="825" d="M102 16v969q0 14 13 14h43q14 0 14 -14v-440h217q172 0 229 174l89 258q6 20 22 20h29q23 0 14 -20l-88 -262q-31 -90 -67 -136t-93 -59q71 -13 108.5 -58.5t74.5 -150.5l96 -288q7 -23 -12 -23h-35q-17 0 -23 16l-96 289q-35 107 -87 141.5t-151 34.5h-227v-465 q0 -16 -14 -16h-43q-13 0 -13 16zM350 1165l137 265q6 12 19 6l57 -27q11 -4 4 -14l-172 -254q-6 -9 -14 -4l-25 12q-9 6 -6 16z" />
<glyph unicode="&#x45e;" horiz-adv-x="901" d="M53 987q-3 10 8 10h50q17 0 20 -14l307 -903h4l330 905q3 14 21 14h43q10 0 11 -3.5t-1 -10.5l-486 -1335q-3 -10 -16 -10h-41h-5q-8 0 -8 3q0 1 1 8v1l112 325zM186.5 1356q0.5 3 2 6.5t4.5 5.5l20 14q17 14 27 -6q49 -73 94 -101t112 -28q55 0 103 30.5t98 100.5 q10 16 27 6l18 -12q4 -3 5.5 -6.5t0.5 -8t-2.5 -8l-4.5 -10.5t-5 -10q-41 -76 -105 -113.5t-137 -37.5q-77 0 -144 36.5t-103 110.5q-1 2 -3.5 7.5t-3.5 8t-2.5 7.5t-1 8z" />
<glyph unicode="&#x45f;" horiz-adv-x="960" d="M104 12v975q0 12 15 12h43q12 0 12 -12v-930h610v930q0 12 13 12h47q14 0 14 -12v-975q0 -12 -14 -12h-324l-12 -242q-1 -15 -3.5 -21.5t-5 -7.5t-7.5 -1h-25q-11 0 -15.5 5.5t-5.5 24.5l-12 242h-315q-15 0 -15 12z" />
<glyph unicode="&#x490;" horiz-adv-x="917" d="M147 14v1329q0 15 11 15h633l18 239q0 37 18 37h21q16 0 16 -37v-297q0 -12 -10 -12h-631v-1274q0 -14 -10 -14h-53q-13 0 -13 14z" />
<glyph unicode="&#x491;" horiz-adv-x="802" d="M127 9v5v971q0 14 10 14h545l20 222q0 36 17 36h26q10 0 11.5 -5.5t1.5 -30.5v-267q0 -7 -2.5 -10.5t-12.5 -3.5h-546v-926q0 -14 -15 -14h-43q-9 0 -10.5 1t-1.5 8z" />
<glyph unicode="&#x4d9;" horiz-adv-x="962" d="M90 432q0 46 14.5 66t51.5 20h637q0 55 -2.5 97.5t-10.5 89.5t-21 81.5t-36 67t-54.5 53t-77 33t-102.5 12.5q-38 0 -79.5 -2.5t-69 -5t-77 -7.5t-75.5 -7q-15 0 -18 10l-2 18q-3 14 8 17q56 23 148 34t172 11q72 0 129 -15.5t96 -40t66.5 -65t43.5 -81.5t25 -98.5 t11.5 -106.5t2.5 -115q0 -512 -399 -512q-71 0 -128 13t-96.5 34.5t-68 55.5t-45.5 70t-27 84t-13 91t-3 98zM166 371q0 -43 7.5 -83t19.5 -75.5t35.5 -65t55.5 -50.5t79.5 -32.5t107.5 -11.5q91 0 154 29.5t98.5 87t51.5 126.5t20 163h-629v-88z" />
<glyph unicode="&#x2013;" horiz-adv-x="1024" d="M55 500v41q0 12 13 12h884q11 0 11 -12v-43q0 -9 -11 -9h-884q-13 0 -13 11z" />
<glyph unicode="&#x2014;" horiz-adv-x="2048" d="M68 500v41q0 12 12 12h1884q12 0 12 -12v-43q0 -9 -12 -9h-1884q-12 0 -12 11z" />
<glyph unicode="&#x2018;" horiz-adv-x="356" d="M104 1090q0 76 34 145.5t85 105.5q4 3 9 3.5t6 -1.5l16 -14q8 -6 0 -14q-55 -55 -55 -135q0 -69 41 -123q8 -13 -2 -23l-72 -47q-12 -9 -23 4q-18 18 -28.5 48t-10.5 51z" />
<glyph unicode="&#x2019;" horiz-adv-x="356" d="M104 1001q-9 6 2 17q56 59 56 133q0 65 -43 125q-8 11 4 20l70 47q13 10 22 -2q39 -39 39 -98q0 -76 -34 -146t-85 -108q-8 -8 -14 -2z" />
<glyph unicode="&#x201a;" horiz-adv-x="346" d="M102 -233q-8 8 2 14q56 56 56 135q0 68 -41 125q-12 12 2 20l72 48q8 8 22 -3q37 -42 37 -98q0 -76 -34 -146t-85 -108q-8 -8 -14 -2z" />
<glyph unicode="&#x201c;" horiz-adv-x="491" d="M82 1090q0 76 34 145.5t85 105.5q10 6 14 2l16 -14q8 -6 0 -14q-55 -55 -55 -135q0 -69 41 -123q8 -13 -2 -23l-72 -47q-12 -9 -22 4q-18 18 -28.5 48t-10.5 51zM276 1090q0 73 35 143.5t84 107.5q9 6 17 2l14 -14q8 -6 0 -14q-55 -55 -55 -135q0 -69 41 -123 q8 -13 -2 -23l-72 -47q-10 -9 -23 4q-18 18 -28.5 48t-10.5 51z" />
<glyph unicode="&#x201d;" horiz-adv-x="491" d="M82 1001q-9 6 2 17q55 58 55 133q0 65 -43 125q-8 11 4 20l70 47q13 10 23 -2q38 -38 38 -98q0 -76 -33.5 -146t-84.5 -108q-9 -9 -15 -2zM276 1001q-6 8 3 17q55 55 55 133q0 63 -41 125q-12 12 2 20l70 47q13 10 22 -2q39 -39 39 -98q0 -76 -34 -146t-85 -108 q-8 -8 -14 -2z" />
<glyph unicode="&#x201e;" horiz-adv-x="540" d="M102 -215q-8 6 2 16q56 59 56 133q0 65 -43 125q-9 12 4 21l69 47q13 10 23 -2q21 -21 30 -53t9 -56q0 -75 -33.5 -139.5t-85.5 -103.5q-8 -8 -14 -2zM297 -215q-6 8 2 16q55 55 55 133q0 63 -41 125q-12 12 2 21l70 47q13 10 23 -2q38 -38 38 -107q0 -75 -33 -141 t-85 -104q-8 -9 -15 -2z" />
<glyph unicode="&#x2026;" horiz-adv-x="1134" d="M96 47q0 32 13.5 48t48.5 16q36 0 48.5 -16t12.5 -48q0 -33 -12.5 -49t-48.5 -16q-38 0 -50 17t-12 48zM498 47q0 32 12.5 48t46.5 16q36 0 48.5 -16t12.5 -48q0 -34 -11.5 -49.5t-49.5 -15.5q-20 0 -32.5 5t-18 15t-7 19.5t-1.5 25.5zM895 47q0 32 12.5 48t46.5 16 q36 0 49 -16t13 -48q0 -33 -12 -49t-50 -16q-20 0 -32.5 5t-18 15t-7 19.5t-1.5 25.5z" />
<glyph unicode="&#x2039;" horiz-adv-x="710" d="M209 336q-13 13 2 33l205 260q1 1 3 3.5t2.5 3l2.5 2.5t3 2.5t3.5 2t5 1.5t6 0.5t7.5 0.5h40q18 0 5 -16l-222 -277l226 -276q5 -4 3.5 -9.5t-7.5 -5.5h-41q-12 0 -20 3.5t-9 5t-8 10.5z" />
<glyph unicode="&#x203a;" horiz-adv-x="710" d="M199.5 66.5q-1.5 5.5 3.5 9.5l225 276l-221 277q-13 16 4 16h41h7t5.5 -0.5t4.5 -1t3.5 -2t3 -2t3 -2t2 -2.5t2 -3t2.5 -3l204 -260q15 -21 3 -33l-207 -256q-1 -1 -2.5 -3t-2 -3t-2 -2.5l-2.5 -2.5t-3 -2.5t-3.5 -2t-4 -1.5t-5 -1t-5.5 -0.5t-7 -0.5h-41q-6 0 -7.5 5.5z " />
<glyph unicode="&#x20ac;" d="M49 549v43q0 12 10 12h830q12 0 12 -12v-45q0 -8 -12 -8h-633q7 -84 23 -152t48 -131.5t78 -105.5t117.5 -67.5t163.5 -25.5q187 0 326 17q15 0 18 -13l4 -22q0 -13 -12 -19q-56 -21 -162.5 -29.5t-185.5 -8.5q-105 0 -187 28t-136.5 76t-91.5 120t-55.5 152t-25.5 181 h-119q-10 0 -10 10zM49 752v45q0 12 10 12h119q7 101 25.5 182t55.5 153.5t91.5 121.5t136.5 77.5t187 28.5q239 0 348 -41q13 -3 10 -18l-2 -23q-3 -12 -18 -10q-246 18 -322 18q-95 0 -169 -27t-121 -71.5t-78.5 -109.5t-46 -132t-19.5 -149h633q12 0 12 -12v-47 q0 -9 -12 -9h-830q-10 0 -10 11z" />
<glyph unicode="&#x2122;" horiz-adv-x="1261" d="M55 1307v43q0 8 13 8h424q12 0 12 -10v-41q0 -13 -12 -13h-179v-551q0 -10 -10 -10h-43q-1 0 -5 -0.5t-4.5 0t-1.5 3t-1 7.5v551h-180q-13 0 -13 13zM567 743v605q0 10 13 10h41q7 0 10 -1t5 -5l3 -6l231 -467l236 469q7 10 16 10h37q12 0 12 -12v-603q0 -10 -10 -10h-43 q-12 0 -12 10v465l-2 2l-203 -393q-3 -12 -16 -12h-33q-9 0 -11 1t-5 8q-1 3 -2 5l-197 389l-4 -2v-463q0 -10 -8 -10h-43q-15 0 -15 10z" />
<glyph unicode="&#x25fc;" horiz-adv-x="993" d="M0 0v993h993v-993h-993z" />
</font>
</defs>
</svg>
