<?xml version="1.0" encoding="utf-8"?>
<!-- Generator: Adobe Illustrator 23.0.2, SVG Export Plug-In . SVG Version: 6.00 Build 0)  -->
<svg version="1.1" id="Layer_1" xmlns="http://www.w3.org/2000/svg" xmlns:xlink="http://www.w3.org/1999/xlink" x="0px" y="0px"
	 viewBox="0 0 512 512" style="enable-background:new 0 0 512 512;" xml:space="preserve">
<g transform="translate(1 1)">
	<g>
		<g>
			<path d="M485.4,135.53H280.6V65.89c10.1-3.39,17.07-12.73,17.07-24.22V24.6c0-14.51-11.09-25.6-25.6-25.6H33.13
				C18.63-1,7.53,10.09,7.53,24.6v17.07c0,11.49,6.96,20.83,17.07,24.22v436.58c0,5.12,3.41,8.53,8.53,8.53h59.73h119.47h59.73
				h204.8c5.12,0,8.53-3.41,8.53-8.53V186.73c9.39,0,17.07-7.68,17.07-17.07V152.6C502.47,143.21,494.79,135.53,485.4,135.53z
				 M280.6,220.87h17.07v17.07H280.6V220.87z M280.6,289.13h17.07v17.07H280.6V289.13z M280.6,357.4h17.07v17.07H280.6V357.4z
				 M24.6,24.6c0-5.12,3.41-8.53,8.53-8.53h238.93c5.12,0,8.53,3.41,8.53,8.53v17.07c0,5.12-3.41,8.53-8.53,8.53H33.13
				c-5.12,0-8.53-3.41-8.53-8.53L24.6,24.6z M41.67,67.27h221.87v76.8v34.13v34.13v34.13v34.13v34.13v34.13V383v110.93h-42.67
				v-93.87c0-5.12-3.41-8.53-8.53-8.53H92.87c-5.12,0-8.53,3.41-8.53,8.53v93.87H41.67V67.27z M101.4,408.6h42.67v34.13h-8.53
				c-5.12,0-8.53,3.41-8.53,8.53s3.41,8.53,8.53,8.53h8.53v34.13H101.4V408.6z M161.13,493.93V459.8h8.53
				c5.12,0,8.53-3.41,8.53-8.53s-3.41-8.53-8.53-8.53h-8.53V408.6h42.67v85.33H161.13z M468.33,493.93H280.6v-102.4h25.6
				c5.12,0,8.53-3.41,8.53-8.53v-34.13c0-5.12-3.41-8.53-8.53-8.53h-25.6v-17.07h25.6c5.12,0,8.53-3.41,8.53-8.53V280.6
				c0-5.12-3.41-8.53-8.53-8.53h-25.6V255h25.6c5.12,0,8.53-3.41,8.53-8.53v-34.13c0-5.12-3.41-8.53-8.53-8.53h-25.6v-17.07h187.73
				V493.93z M485.4,169.67h-8.53H280.6V152.6h204.8L485.4,169.67L485.4,169.67z"/>
			<path d="M67.27,144.07h34.13c5.12,0,8.53-3.41,8.53-8.53V101.4c0-5.12-3.41-8.53-8.53-8.53H67.27c-5.12,0-8.53,3.41-8.53,8.53
				v34.13C58.73,140.65,62.15,144.07,67.27,144.07z M75.8,109.93h17.07V127H75.8V109.93z"/>
			<path d="M135.53,144.07h34.13c5.12,0,8.53-3.41,8.53-8.53V101.4c0-5.12-3.41-8.53-8.53-8.53h-34.13c-5.12,0-8.53,3.41-8.53,8.53
				v34.13C127,140.65,130.41,144.07,135.53,144.07z M144.07,109.93h17.07V127h-17.07V109.93z"/>
			<path d="M203.8,144.07h34.13c5.12,0,8.53-3.41,8.53-8.53V101.4c0-5.12-3.41-8.53-8.53-8.53H203.8c-5.12,0-8.53,3.41-8.53,8.53
				v34.13C195.27,140.65,198.68,144.07,203.8,144.07z M212.33,109.93h17.07V127h-17.07V109.93z"/>
			<path d="M67.27,212.33h34.13c5.12,0,8.53-3.41,8.53-8.53v-34.13c0-5.12-3.41-8.53-8.53-8.53H67.27c-5.12,0-8.53,3.41-8.53,8.53
				v34.13C58.73,208.92,62.15,212.33,67.27,212.33z M75.8,178.2h17.07v17.07H75.8V178.2z"/>
			<path d="M135.53,212.33h34.13c5.12,0,8.53-3.41,8.53-8.53v-34.13c0-5.12-3.41-8.53-8.53-8.53h-34.13c-5.12,0-8.53,3.41-8.53,8.53
				v34.13C127,208.92,130.41,212.33,135.53,212.33z M144.07,178.2h17.07v17.07h-17.07V178.2z"/>
			<path d="M203.8,212.33h34.13c5.12,0,8.53-3.41,8.53-8.53v-34.13c0-5.12-3.41-8.53-8.53-8.53H203.8c-5.12,0-8.53,3.41-8.53,8.53
				v34.13C195.27,208.92,198.68,212.33,203.8,212.33z M212.33,178.2h17.07v17.07h-17.07V178.2z"/>
			<path d="M67.27,280.6h34.13c5.12,0,8.53-3.41,8.53-8.53v-34.13c0-5.12-3.41-8.53-8.53-8.53H67.27c-5.12,0-8.53,3.41-8.53,8.53
				v34.13C58.73,277.19,62.15,280.6,67.27,280.6z M75.8,246.47h17.07v17.07H75.8V246.47z"/>
			<path d="M135.53,280.6h34.13c5.12,0,8.53-3.41,8.53-8.53v-34.13c0-5.12-3.41-8.53-8.53-8.53h-34.13c-5.12,0-8.53,3.41-8.53,8.53
				v34.13C127,277.19,130.41,280.6,135.53,280.6z M144.07,246.47h17.07v17.07h-17.07V246.47z"/>
			<path d="M203.8,280.6h34.13c5.12,0,8.53-3.41,8.53-8.53v-34.13c0-5.12-3.41-8.53-8.53-8.53H203.8c-5.12,0-8.53,3.41-8.53,8.53
				v34.13C195.27,277.19,198.68,280.6,203.8,280.6z M212.33,246.47h17.07v17.07h-17.07V246.47z"/>
			<path d="M101.4,348.87c5.12,0,8.53-3.41,8.53-8.53V306.2c0-5.12-3.41-8.53-8.53-8.53H67.27c-5.12,0-8.53,3.41-8.53,8.53v34.13
				c0,5.12,3.41,8.53,8.53,8.53L101.4,348.87L101.4,348.87z M75.8,314.73h17.07v17.07H75.8V314.73z"/>
			<path d="M135.53,348.87h34.13c5.12,0,8.53-3.41,8.53-8.53V306.2c0-5.12-3.41-8.53-8.53-8.53h-34.13c-5.12,0-8.53,3.41-8.53,8.53
				v34.13C127,345.45,130.41,348.87,135.53,348.87z M144.07,314.73h17.07v17.07h-17.07V314.73z"/>
			<path d="M203.8,348.87h34.13c5.12,0,8.53-3.41,8.53-8.53V306.2c0-5.12-3.41-8.53-8.53-8.53H203.8c-5.12,0-8.53,3.41-8.53,8.53
				v34.13C195.27,345.45,198.68,348.87,203.8,348.87z M212.33,314.73h17.07v17.07h-17.07V314.73z"/>
			<path d="M408.6,255h34.13c5.12,0,8.53-3.41,8.53-8.53v-34.13c0-5.12-3.41-8.53-8.53-8.53H408.6c-5.12,0-8.53,3.41-8.53,8.53
				v34.13C400.07,251.59,403.48,255,408.6,255z M417.13,220.87h17.07v17.07h-17.07L417.13,220.87L417.13,220.87z"/>
			<path d="M408.6,323.27h34.13c5.12,0,8.53-3.41,8.53-8.53V280.6c0-5.12-3.41-8.53-8.53-8.53H408.6c-5.12,0-8.53,3.41-8.53,8.53
				v34.13C400.07,319.85,403.48,323.27,408.6,323.27z M417.13,289.13h17.07v17.07h-17.07L417.13,289.13L417.13,289.13z"/>
			<path d="M408.6,391.53h34.13c5.12,0,8.53-3.41,8.53-8.53v-34.13c0-5.12-3.41-8.53-8.53-8.53H408.6c-5.12,0-8.53,3.41-8.53,8.53
				V383C400.07,388.12,403.48,391.53,408.6,391.53z M417.13,357.4h17.07v17.07h-17.07L417.13,357.4L417.13,357.4z"/>
			<path d="M340.33,255h34.13c5.12,0,8.53-3.41,8.53-8.53v-34.13c0-5.12-3.41-8.53-8.53-8.53h-34.13c-5.12,0-8.53,3.41-8.53,8.53
				v34.13C331.8,251.59,335.21,255,340.33,255z M348.87,220.87h17.07v17.07h-17.07V220.87z"/>
			<path d="M340.33,323.27h34.13c5.12,0,8.53-3.41,8.53-8.53V280.6c0-5.12-3.41-8.53-8.53-8.53h-34.13c-5.12,0-8.53,3.41-8.53,8.53
				v34.13C331.8,319.85,335.21,323.27,340.33,323.27z M348.87,289.13h17.07v17.07h-17.07V289.13z"/>
			<path d="M340.33,391.53h34.13c5.12,0,8.53-3.41,8.53-8.53v-34.13c0-5.12-3.41-8.53-8.53-8.53h-34.13c-5.12,0-8.53,3.41-8.53,8.53
				V383C331.8,388.12,335.21,391.53,340.33,391.53z M348.87,357.4h17.07v17.07h-17.07V357.4z"/>
		</g>
	</g>
</g>
</svg>
