<?xml version="1.0" encoding="utf-8"?>
<!-- Generator: Adobe Illustrator 23.0.2, SVG Export Plug-In . SVG Version: 6.00 Build 0)  -->
<svg version="1.1" id="Layer_1" xmlns="http://www.w3.org/2000/svg" xmlns:xlink="http://www.w3.org/1999/xlink" x="0px" y="0px"
	 viewBox="0 0 512 512" style="enable-background:new 0 0 512 512;" xml:space="preserve">
<path d="M51.2,469.33H256h204.8c5.12,0,8.53-3.41,8.53-8.53V307.2V153.6V51.2c0-5.12-3.41-8.53-8.53-8.53H298.67H204.8H51.2
	c-5.12,0-8.53,3.41-8.53,8.53V256v68.27v102.4v34.13C42.67,465.92,46.08,469.33,51.2,469.33z M59.73,332.8h85.33
	c-4.27,45.23-40.11,81.07-85.33,85.33V332.8z M59.73,59.73h136.53v51.2h-8.53c-5.12,0-8.53,3.41-8.53,8.53s3.41,8.53,8.53,8.53
	h34.13c5.12,0,8.53-3.41,8.53-8.53s-3.41-8.53-8.53-8.53h-8.53v-51.2h76.8v93.87c0,5.12,3.41,8.53,8.53,8.53h34.13v8.53
	c0,5.12,3.41,8.53,8.53,8.53s8.53-3.41,8.53-8.53v-34.13c0-5.12-3.41-8.53-8.53-8.53s-8.53,3.41-8.53,8.53v8.53h-25.6V59.73h145.07
	v85.33h-34.13v-8.53c0-5.12-3.41-8.53-8.53-8.53s-8.53,3.41-8.53,8.53v34.13c0,5.12,3.41,8.53,8.53,8.53s8.53-3.41,8.53-8.53v-8.53
	h34.13v136.53h-51.2v-8.53c0-5.12-3.41-8.53-8.53-8.53s-8.53,3.41-8.53,8.53v34.13c0,5.12,3.41,8.53,8.53,8.53s8.53-3.41,8.53-8.53
	v-8.53h51.2v136.53H264.53V315.73h51.2v8.53c0,5.12,3.41,8.53,8.53,8.53s8.53-3.41,8.53-8.53v-34.13c0-5.12-3.41-8.53-8.53-8.53
	s-8.53,3.41-8.53,8.53v8.53H256c-5.12,0-8.53,3.41-8.53,8.53v145.07H59.73v-17.39c57.42-4.33,102.4-52.04,102.4-110.61
	c0-5.12-3.41-8.53-8.53-8.53H59.73v-51.2H204.8c5.12,0,8.53-3.41,8.53-8.53v-59.73h8.53c5.12,0,8.53-3.41,8.53-8.53
	c0-5.12-3.41-8.53-8.53-8.53h-34.13c-5.12,0-8.53,3.41-8.53,8.53c0,5.12,3.41,8.53,8.53,8.53h8.53v51.2H59.73V59.73z"/>
</svg>
