<?xml version="1.0" encoding="utf-8"?>
<!-- Generator: Adobe Illustrator 23.0.2, SVG Export Plug-In . SVG Version: 6.00 Build 0)  -->
<svg version="1.1" id="Layer_1" xmlns="http://www.w3.org/2000/svg" xmlns:xlink="http://www.w3.org/1999/xlink" x="0px" y="0px"
	 viewBox="0 0 512 512" style="enable-background:new 0 0 512 512;" xml:space="preserve">
<g transform="translate(1 1)">
	<g>
		<g>
			<path d="M58.73,395.8H127c5.12,0,8.53-3.41,8.53-8.53v-102.4c0-5.12-3.41-8.53-8.53-8.53H58.73c-5.12,0-8.53,3.41-8.53,8.53
				v102.4C50.2,392.39,53.61,395.8,58.73,395.8z M118.47,378.73H101.4V293.4h17.07V378.73z M67.27,293.4h17.07v85.33H67.27V293.4z"
				/>
			<path d="M502.47,191h-9.39L476.87,45.08c-0.85-4.27-4.27-7.68-8.53-7.68H41.67c-4.27,0-7.68,3.41-8.53,7.68L16.92,191H7.53
				C2.41,191-1,194.41-1,199.53v51.2c0,5.12,3.41,8.53,8.53,8.53h8.53v204.8c0,5.12,3.41,8.53,8.53,8.53h136.53h76.8h102.4h76.8
				h68.27c5.12,0,8.53-3.41,8.53-8.53v-204.8h8.53c5.12,0,8.53-3.41,8.53-8.53v-51.2C511,194.41,507.59,191,502.47,191z
				 M49.35,54.47h411.31L476.01,191h-24.75v-17.07c0-3.41-1.71-5.97-4.27-7.68L293.4,80.92c-2.56-1.71-5.97-1.71-8.53,0
				l-153.6,85.33c-2.56,1.71-4.27,4.27-4.27,7.68V191H33.99L49.35,54.47z M425.67,293.4h17.07v85.33h-17.07V293.4z M284.87,122.73
				l-140.8,78.51v-1.71V178.2l145.07-80.21l145.07,81.07v20.48v1.71l-12.8-6.83c-0.33-0.22-0.68-0.41-1.05-0.58L293.4,123.59
				c-2.01-1.34-4.53-1.61-6.76-0.85C286.11,122.73,285.56,122.73,284.87,122.73z M16.07,208.07h8.53H127v8.53
				c0,3.41,1.71,5.97,4.27,6.83c2.56,1.71,5.97,1.71,8.53,0l12.8-6.83v25.6h-128h-8.53C16.07,242.2,16.07,208.07,16.07,208.07z
				 M152.6,259.27V421.4H33.13V259.27H152.6z M33.13,438.47H152.6v17.07H33.13V438.47z M169.67,250.73v-43.52l119.47-66.56
				l119.47,66.9v43.18v34.13v102.4v68.27h-59.73V310.47c0-5.12-3.41-8.53-8.53-8.53h-102.4c-5.12,0-8.53,3.41-8.53,8.53v145.07
				h-59.73L169.67,250.73L169.67,250.73z M246.47,455.53V319h85.33v136.53L246.47,455.53L246.47,455.53z M425.67,455.53v-17.07h51.2
				v17.07H425.67z M476.87,421.4h-51.2v-25.6h25.6c5.12,0,8.53-3.41,8.53-8.53v-102.4c0-5.12-3.41-8.53-8.53-8.53h-25.6v-17.07h51.2
				V421.4z M493.93,242.2h-8.53h-59.73v-25.09l12.8,7.17c2.24,1.49,5.14,1.68,7.54,0.56c0.39-0.13,0.73-0.3,0.99-0.56
				c2.56-1.71,4.27-4.27,4.27-7.68v-8.53h34.13h8.53L493.93,242.2L493.93,242.2z"/>
			<path d="M314.73,378.73h-8.53c-5.12,0-8.53,3.41-8.53,8.53s3.41,8.53,8.53,8.53h8.53c5.12,0,8.53-3.41,8.53-8.53
				S319.85,378.73,314.73,378.73z"/>
			<path d="M237.93,267.8h102.4c5.12,0,8.53-3.41,8.53-8.53V242.2c0-33.28-26.45-59.73-59.73-59.73s-59.73,26.45-59.73,59.73v17.07
				C229.4,264.39,232.81,267.8,237.93,267.8z M246.47,242.2c0-23.89,18.77-42.67,42.67-42.67c23.89,0,42.67,18.77,42.67,42.67v8.53
				h-85.33L246.47,242.2L246.47,242.2z"/>
		</g>
	</g>
</g>
</svg>
