<?xml version="1.0" encoding="utf-8"?>
<!-- Generator: Adobe Illustrator 23.0.2, SVG Export Plug-In . SVG Version: 6.00 Build 0)  -->
<svg version="1.1" id="Layer_1" xmlns="http://www.w3.org/2000/svg" xmlns:xlink="http://www.w3.org/1999/xlink" x="0px" y="0px"
	 viewBox="0 0 512 512" style="enable-background:new 0 0 512 512;" xml:space="preserve">
<g transform="translate(1 1)">
	<g>
		<g>
			<path d="M502.47,54.68h-87.04H263.53h-99.67L88.6,12.87c-2.56-1.71-5.97-1.71-8.53,0L3.27,55.53C0.71,57.24-1,59.8-1,63.21
				v426.67c0,3.41,1.71,5.12,4.27,6.83s5.97,1.71,8.53,0l72.53-40.11l72.53,40.96c1.71,0.85,2.56,0.85,4.27,0.85h341.33
				c5.12,0,8.53-3.41,8.53-8.53v-43.52v-88.75V63.21C511,58.09,507.59,54.68,502.47,54.68z M493.93,71.75v270.67
				c-17.88-14.63-33.38-23.95-43.52-30.03c-12.8-7.68-27.31-11.09-41.81-11.09c-18.77,0-40.96,4.27-52.91,6.83
				c-7.68,1.71-15.36,2.56-21.33,0.85c-29.87-6.83-28.16-36.69-28.16-40.96v-25.6c0-11.95,5.97-23.89,11.09-31.57
				c9.39-13.65,14.51-29.01,14.51-45.23c0-32.95,43.74-77.04,63.66-93.87L493.93,71.75L493.93,71.75z M369.35,71.75
				c-20.48,20.48-54.61,59.73-54.61,93.87c0,11.95-3.41,23.89-11.09,34.99c-9.39,13.65-14.51,27.31-14.51,40.96v24.75
				c-1.71,17.07,5.12,50.35,41.81,58.88c9.39,2.56,18.77,2.56,29.01,0c10.24-1.71,31.57-5.97,48.64-5.97
				c11.95,0,23.04,2.56,33.28,8.53c11.95,5.97,30.72,17.92,52.05,37.55v48.64l-63.15-41.81c-19.63-14.51-37.55-18.77-51.2-18.77
				c-9.39,0-17.07,1.71-22.19,3.41c-5.97,2.56-11.95,5.97-18.77,11.95c-27.31,23.89-73.39,18.77-74.24,18.77h-0.85
				c-47.79,0-78.51,7.68-93.87,12.8v-38.4h42.67c16.21,0,29.01-5.12,37.55-14.51c15.36-17.07,13.65-40.96,13.65-45.23
				c0-58.88-8.53-78.51-9.39-80.21l-0.85-1.71c-9.39-12.8-8.53-24.75,1.71-34.99c11.09-10.24,17.92-23.04,21.33-37.55
				c4.27-23.04,4.27-58.88,4.27-75.95L369.35,71.75L369.35,71.75z M259.27,143.43c-2.56,11.09-7.68,21.33-16.21,29.01
				c-7.68,7.68-23.89,28.16-4.27,57.17c1.71,3.41,7.68,23.04,7.68,72.53V303c0,0,1.71,20.48-9.39,32.43
				c-5.12,5.97-13.65,9.39-24.75,9.39h-42.67V71.75h94.03C263.91,87.8,263.8,122.72,259.27,143.43z M16.07,68.33l61.06-34.35
				c1.45,2.28,3.99,3.63,7.21,3.63c3.22,0,5.76-1.35,7.21-3.63l61.06,34.35v276.48v82.77v47.79l-59.73-33.45v-3.24
				c0-5.12-3.41-8.53-8.53-8.53c-5.12,0-8.53,3.41-8.53,8.53v3.24l-59.73,33.45L16.07,68.33L16.07,68.33z M493.93,481.35H169.67
				v-61.84c11.13-4.39,40.81-14.11,93.01-14.11c5.97,0.85,55.47,4.27,87.04-23.04c4.27-4.27,8.53-6.83,12.8-8.53
				c12.8-5.12,33.28-5.97,58.03,12.8l73.39,48.46L493.93,481.35L493.93,481.35z"/>
			<path d="M378.73,147.69c-12.8,15.36-16.21,35.84-8.53,54.61c6.51,17.1,20.8,28.75,38.4,31.27v34.44c0,5.12,3.41,8.53,8.53,8.53
				s8.53-3.41,8.53-8.53v-33.77c16.71-2.41,30.87-13.57,38.4-29.37c8.53-19.63,5.97-40.96-7.68-57.17l-20.48-24.75
				c-5.12-5.97-11.09-8.53-17.92-8.53s-13.65,3.41-17.92,8.53L378.73,147.69z M412.87,134.04c0.85-2.56,3.41-2.56,4.27-2.56
				s3.41,0,5.12,1.71l20.48,24.75c9.39,10.24,11.09,25.6,5.12,38.4c-4.67,10.01-12.48,16.87-22.19,19.39v-24.51
				c0-5.12-3.41-8.53-8.53-8.53s-8.53,3.41-8.53,8.53v24.77c-10.63-2.71-18.51-9.93-23.04-20.5c-5.12-12.8-2.56-27.31,5.97-37.55
				L412.87,134.04z"/>
			<path d="M84.33,304.71c5.12,0,8.53-3.41,8.53-8.53v-17.92c0-5.12-3.41-8.53-8.53-8.53c-5.12,0-8.53,3.41-8.53,8.53v17.92
				C75.8,301.29,79.21,304.71,84.33,304.71z"/>
			<path d="M84.33,411.37c5.12,0,8.53-3.41,8.53-8.53v-17.92c0-5.12-3.41-8.53-8.53-8.53c-5.12,0-8.53,3.41-8.53,8.53v17.92
				C75.8,407.96,79.21,411.37,84.33,411.37z"/>
			<path d="M84.33,358.47c5.12,0,8.53-4.27,8.53-8.53v-17.92c0-5.12-3.41-8.53-8.53-8.53c-5.12,0-8.53,3.41-8.53,8.53v17.92
				C75.8,355.05,79.21,358.47,84.33,358.47z"/>
			<path d="M84.33,144.28c5.12,0,8.53-3.41,8.53-8.53v-17.92c0-5.12-3.41-8.53-8.53-8.53c-5.12,0-8.53,3.41-8.53,8.53v17.92
				C75.8,140.87,79.21,144.28,84.33,144.28z"/>
			<path d="M84.33,198.04c5.12,0,8.53-4.27,8.53-8.53v-17.92c0-5.12-3.41-8.53-8.53-8.53c-5.12,0-8.53,3.41-8.53,8.53v17.92
				C75.8,194.63,79.21,198.04,84.33,198.04z"/>
			<path d="M84.33,250.95c5.12,0,8.53-3.41,8.53-8.53v-17.07c0-5.12-3.41-8.53-8.53-8.53c-5.12,0-8.53,3.41-8.53,8.53v17.07
				C75.8,247.53,79.21,250.95,84.33,250.95z"/>
			<path d="M84.33,91.37c5.12,0,8.53-4.27,8.53-8.53V64.92c0-5.12-3.41-8.53-8.53-8.53c-5.12,0-8.53,3.41-8.53,8.53v17.92
				C75.8,87.96,79.21,91.37,84.33,91.37z"/>
			<path d="M406.04,407.11c-3.41-3.41-8.53-3.41-11.95,0l-15.36,15.36l-15.36-15.36c-3.41-3.41-8.53-3.41-11.95,0
				c-3.41,3.41-3.41,8.53,0,11.95l15.36,15.36l-15.36,15.36c-3.41,3.41-3.41,8.53,0,11.95c1.71,1.71,3.41,2.56,5.97,2.56
				s4.27-0.85,5.97-2.56l15.36-15.36l15.36,15.36c1.71,1.71,3.41,2.56,5.97,2.56s4.27-0.85,5.97-2.56c3.41-3.41,3.41-8.53,0-11.95
				l-15.36-15.36l15.36-15.36C409.45,415.64,409.45,410.52,406.04,407.11z"/>
		</g>
	</g>
</g>
</svg>
