<?xml version="1.0" encoding="utf-8"?>
<!-- Generator: Adobe Illustrator 23.0.2, SVG Export Plug-In . SVG Version: 6.00 Build 0)  -->
<svg version="1.1" id="Layer_1" xmlns="http://www.w3.org/2000/svg" xmlns:xlink="http://www.w3.org/1999/xlink" x="0px" y="0px"
	 viewBox="0 0 512 512" style="enable-background:new 0 0 512 512;" xml:space="preserve">
<g transform="translate(1 1)">
	<g>
		<g>
			<path d="M144.07,357.4h221.87c5.12,0,8.53-3.41,8.53-8.53v-34.13c0-5.12-3.41-8.53-8.53-8.53H144.07c-5.12,0-8.53,3.41-8.53,8.53
				v34.13C135.53,353.99,138.95,357.4,144.07,357.4z M152.6,323.27h204.8v17.07H152.6V323.27z"/>
			<path d="M144.07,289.13h221.87c5.12,0,8.53-3.41,8.53-8.53v-34.13c0-5.12-3.41-8.53-8.53-8.53H144.07
				c-5.12,0-8.53,3.41-8.53,8.53v34.13C135.53,285.72,138.95,289.13,144.07,289.13z M152.6,255h204.8v17.07H152.6V255z"/>
			<path d="M331.8,135.53H178.2c-5.12,0-8.53,3.41-8.53,8.53v34.13c0,5.12,3.41,8.53,8.53,8.53h153.6c5.12,0,8.53-3.41,8.53-8.53
				v-34.13C340.33,138.95,336.92,135.53,331.8,135.53z M323.27,169.67H186.73V152.6h136.53L323.27,169.67L323.27,169.67z"/>
			<path d="M331.8,67.27H178.2c-5.12,0-8.53,3.41-8.53,8.53v34.13c0,5.12,3.41,8.53,8.53,8.53h153.6c5.12,0,8.53-3.41,8.53-8.53
				V75.8C340.33,70.68,336.92,67.27,331.8,67.27z M323.27,101.4H186.73V84.33h136.53L323.27,101.4L323.27,101.4z"/>
			<path d="M144.07,425.67h221.87c5.12,0,8.53-3.41,8.53-8.53V383c0-5.12-3.41-8.53-8.53-8.53H144.07c-5.12,0-8.53,3.41-8.53,8.53
				v34.13C135.53,422.25,138.95,425.67,144.07,425.67z M152.6,391.53h204.8v17.07H152.6V391.53z"/>
			<path d="M476.87,459.8h-59.73V220.87c0-9.39-7.68-17.07-17.07-17.07h-25.6V50.2c9.39,0,17.07-7.68,17.07-17.07V16.07
				c0-9.39-7.68-17.07-17.07-17.07H135.53c-9.39,0-17.07,7.68-17.07,17.07v17.07c0,9.39,7.68,17.07,17.07,17.07v153.6h-25.6
				c-9.39,0-17.07,7.68-17.07,17.07V459.8H33.13c-5.12,0-8.53,3.41-8.53,8.53v34.13c0,5.12,3.41,8.53,8.53,8.53h68.27h42.67H280.6
				h34.13h51.2h42.67h68.27c5.12,0,8.53-3.41,8.53-8.53v-34.13C485.4,463.21,481.99,459.8,476.87,459.8z M135.53,16.07h238.93v17.07
				h-8.53H144.07h-8.53L135.53,16.07L135.53,16.07z M152.6,50.2h204.8v153.6H152.6V50.2z M41.67,476.87h51.2v17.07h-51.2
				L41.67,476.87z M109.93,468.33V220.87h34.13h221.87h34.13v247.47v25.6h-25.6v-42.67c0-5.12-3.41-8.53-8.53-8.53h-51.2
				c-5.12,0-8.53,3.41-8.53,8.53v42.67h-17.07v-42.67c0-5.12-3.41-8.53-8.53-8.53H144.07c-5.12,0-8.53,3.41-8.53,8.53v42.67h-25.6
				L109.93,468.33L109.93,468.33z M152.6,493.93V459.8h119.47v34.13L152.6,493.93L152.6,493.93z M323.27,493.93V459.8h34.13v34.13
				L323.27,493.93L323.27,493.93z M468.33,493.93h-51.2v-17.07h51.2V493.93z"/>
		</g>
	</g>
</g>
</svg>
