<?xml version="1.0" encoding="utf-8"?>
<!-- Generator: Adobe Illustrator 23.0.2, SVG Export Plug-In . SVG Version: 6.00 Build 0)  -->
<svg version="1.1" id="Layer_1" xmlns="http://www.w3.org/2000/svg" xmlns:xlink="http://www.w3.org/1999/xlink" x="0px" y="0px"
	 viewBox="0 0 512 512" style="enable-background:new 0 0 512 512;" xml:space="preserve">
<g transform="translate(1 1)">
	<g>
		<g>
			<path d="M476.87-1H33.99C14.36-1-1,14.36-1,33.99v468.48c0,5.12,3.41,8.53,8.53,8.53H50.2h409.6h42.67
				c5.12,0,8.53-3.41,8.53-8.53V33.99C511,14.36,495.64-1,476.87-1z M451.27,246.47H58.73V229.4h392.53L451.27,246.47L451.27,246.47
				z M58.73,263.53h392.53v17.07H58.73V263.53z M459.8,178.2H50.2v-34.13h409.6L459.8,178.2L459.8,178.2z M451.27,195.27v17.07
				H58.73v-17.07H451.27z M58.73,493.93V297.67h392.53v196.27L58.73,493.93L58.73,493.93z M493.93,493.93h-25.6v-204.8v-93.87
				c5.12,0,8.53-3.41,8.53-8.53v-51.2c0-5.12-3.41-8.53-8.53-8.53H41.67c-5.12,0-8.53,3.41-8.53,8.53v51.2
				c0,5.12,3.41,8.53,8.53,8.53v93.87v204.8h-25.6V33.99c0-10.24,7.68-17.92,17.92-17.92h442.03c10.24,0,17.92,7.68,17.92,17.92
				L493.93,493.93L493.93,493.93z"/>
			<path d="M374.47,33.13H135.53c-5.12,0-8.53,3.41-8.53,8.53v59.73c0,5.12,3.41,8.53,8.53,8.53h238.93c5.12,0,8.53-3.41,8.53-8.53
				V41.67C383,36.55,379.59,33.13,374.47,33.13z M365.93,92.87H144.07V50.2h221.87L365.93,92.87L365.93,92.87z"/>
			<path d="M370.2,373.61h-18.18L319,327.53c-5.12-7.68-13.65-11.95-23.04-11.95h-36.92c-1.17-0.55-2.52-0.85-4.04-0.85
				s-2.87,0.3-4.04,0.85h-36.93c-9.39,0-17.92,4.27-23.04,11.95l-33.02,46.08h-17.32c-12.8,0-22.19,10.24-22.19,22.19v33.28
				c0,12.8,10.24,22.19,22.19,22.19h13.03c3.81,14.68,17.22,25.6,33.05,25.6s29.23-10.92,33.05-25.6h70.44
				c3.81,14.68,17.22,25.6,33.05,25.6s29.23-10.92,33.05-25.6h13.03c12.8,0,22.19-9.39,23.04-22.19V395.8
				C392.39,383,382.15,373.61,370.2,373.61z M304.49,336.07l26.7,37.55h-67.66V331.8h31.57
				C299.37,331.8,302.79,333.51,304.49,336.07z M203.8,336.07c2.56-2.56,5.97-4.27,9.39-4.27h33.28v41.81h-68.53L203.8,336.07z
				 M186.73,459.8c-9.39,0-17.07-7.68-17.07-17.07s7.68-17.07,17.07-17.07s17.07,7.68,17.07,17.07S196.12,459.8,186.73,459.8z
				 M323.27,459.8c-9.39,0-17.07-7.68-17.07-17.07s7.68-17.07,17.07-17.07s17.07,7.68,17.07,17.07S332.65,459.8,323.27,459.8z
				 M375.32,429.08c0,2.56-2.56,5.12-5.12,5.12h-13.65c-4.27-14.51-15.36-25.6-31.57-25.6c-0.31,0-0.62,0.01-0.93,0.02
				c-0.26-0.01-0.52-0.02-0.78-0.02c-15.83,0-29.23,10.92-33.05,25.6h-69.35c-4.27-14.51-17.07-25.6-33.28-25.6
				c-0.16,0-0.31,0.01-0.46,0.01c-0.13,0-0.26-0.01-0.39-0.01c-15.83,0-29.23,10.92-33.05,25.6h-13.03c-2.56,0-5.12-2.56-5.12-5.12
				V395.8c0-2.56,2.56-5.12,5.12-5.12h16.64c1.13,0.54,2.4,0.85,3.84,0.85h187.73c1.43,0,2.71-0.32,3.84-0.85h17.49
				c2.56,0,5.12,2.56,5.12,5.12V429.08z"/>
		</g>
	</g>
</g>
</svg>
