<?xml version="1.0" encoding="utf-8"?>
<!-- Generator: Adobe Illustrator 23.0.2, SVG Export Plug-In . SVG Version: 6.00 Build 0)  -->
<svg version="1.1" id="Layer_1" xmlns="http://www.w3.org/2000/svg" xmlns:xlink="http://www.w3.org/1999/xlink" x="0px" y="0px"
	 viewBox="0 0 512 512" style="enable-background:new 0 0 512 512;" xml:space="preserve">
<g transform="translate(1 1)">
	<g>
		<g>
			<path d="M468.33-1H144.07H75.8C61.29-1,50.2,10.09,50.2,24.6v0.83C30.52,29.28,16.07,46.3,16.07,67.27s14.45,37.98,34.13,41.84
				v10.18c-19.68,3.86-34.13,20.88-34.13,41.84s14.45,37.98,34.13,41.84v10.18c-19.68,3.86-34.13,20.88-34.13,41.84
				s14.45,37.98,34.13,41.84v10.18c-19.68,3.86-34.13,20.88-34.13,41.84s14.45,37.98,34.13,41.84v10.18
				c-19.68,3.86-34.13,20.88-34.13,41.84s14.45,37.98,34.13,41.84v0.83c0,14.51,11.09,25.6,25.6,25.6h68.27h324.27
				c14.51,0,25.6-11.09,25.6-25.6V24.6C493.93,10.09,482.84-1,468.33-1z M33.13,67.27c0-11.49,6.96-20.83,17.07-24.22v48.45
				C40.1,88.1,33.13,78.76,33.13,67.27z M33.13,161.13c0-11.49,6.96-20.83,17.07-24.22v48.45C40.1,181.97,33.13,172.62,33.13,161.13
				z M33.13,255c0-11.49,6.96-20.83,17.07-24.22v48.45C40.1,275.83,33.13,266.49,33.13,255z M33.13,348.87
				c0-11.49,6.96-20.83,17.07-24.22v48.45C40.1,369.7,33.13,360.36,33.13,348.87z M33.13,442.73c0-11.49,6.96-20.83,17.07-24.22
				v48.45C40.1,463.57,33.13,454.22,33.13,442.73z M67.27,485.4v-66.89c10.1,3.39,17.07,12.73,17.07,24.22
				c0,5.12,3.41,8.53,8.53,8.53s8.53-3.41,8.53-8.53c0-20.96-14.45-37.98-34.13-41.84v-76.25c10.1,3.39,17.07,12.73,17.07,24.22
				c0,5.12,3.41,8.53,8.53,8.53s8.53-3.41,8.53-8.53c0-20.96-14.45-37.98-34.13-41.84v-76.25c10.1,3.39,17.07,12.73,17.07,24.23
				c0,5.12,3.41,8.53,8.53,8.53s8.53-3.41,8.53-8.53c0-20.96-14.45-37.98-34.13-41.84v-76.25c10.1,3.39,17.07,12.73,17.07,24.22
				c0,5.12,3.41,8.53,8.53,8.53s8.53-3.41,8.53-8.53c0-20.96-14.45-37.98-34.13-41.84V43.04c10.1,3.39,17.07,12.73,17.07,24.22
				c0,5.12,3.41,8.53,8.53,8.53s8.53-3.41,8.53-8.53c0-20.96-14.45-37.98-34.13-41.84V24.6c0-5.12,3.41-8.53,8.53-8.53h59.73v477.87
				H75.8C70.68,493.93,67.27,490.52,67.27,485.4z M476.87,485.4c0,5.12-3.41,8.53-8.53,8.53H152.6V16.07h315.73
				c5.12,0,8.53,3.41,8.53,8.53L476.87,485.4L476.87,485.4z"/>
			<path d="M240.49,184.17c1.71,1.71,3.41,2.56,5.97,2.56s4.27-0.85,5.97-2.56l2.56-2.56v47.79c0,5.12,3.41,8.53,8.53,8.53h102.4
				c5.12,0,8.53-3.41,8.53-8.53v-47.79l2.56,2.56c1.71,1.71,3.41,2.56,5.97,2.56s4.27-0.85,5.97-2.56l25.6-25.6
				c1.71-1.71,2.56-3.41,2.56-5.97c0-2.56-0.85-4.27-2.56-5.97l-93.86-93.87c-1.71-1.71-3.41-2.56-5.97-2.56s-4.27,0.85-5.97,2.56
				l-93.87,93.87c-3.41,3.41-3.41,8.53,0,11.95L240.49,184.17z M357.4,220.87h-85.33v-56.32l42.67-42.67l42.67,42.67L357.4,220.87
				L357.4,220.87z M314.73,70.68l81.92,81.92L383,166.25l-11.09-11.09l0,0l-51.2-51.2c-0.85-1.71-2.56-2.56-4.27-2.56
				c0,0-0.85,0-1.71,0c-2.56,0-4.27,0.85-5.97,2.56l-51.2,51.2l0,0l-11.09,11.09l-13.65-13.65L314.73,70.68z"/>
			<path d="M195.27,323.27h85.33c5.12,0,8.53-3.41,8.53-8.53s-3.41-8.53-8.53-8.53h-85.33c-5.12,0-8.53,3.41-8.53,8.53
				S190.15,323.27,195.27,323.27z"/>
			<path d="M314.73,306.2c-5.12,0-8.53,3.41-8.53,8.53s3.41,8.53,8.53,8.53h59.73c5.12,0,8.53-3.41,8.53-8.53s-3.41-8.53-8.53-8.53
				H314.73z"/>
			<path d="M434.2,306.2h-25.6c-5.12,0-8.53,3.41-8.53,8.53s3.41,8.53,8.53,8.53h25.6c5.12,0,8.53-3.41,8.53-8.53
				S439.32,306.2,434.2,306.2z"/>
			<path d="M434.2,357.4h-59.73c-5.12,0-8.53,3.41-8.53,8.53s3.41,8.53,8.53,8.53h59.73c5.12,0,8.53-3.41,8.53-8.53
				S439.32,357.4,434.2,357.4z"/>
			<path d="M348.87,365.93c0-5.12-3.41-8.53-8.53-8.53h-68.27c-5.12,0-8.53,3.41-8.53,8.53s3.41,8.53,8.53,8.53h68.27
				C345.45,374.47,348.87,371.05,348.87,365.93z"/>
			<path d="M195.27,374.47h42.67c5.12,0,8.53-3.41,8.53-8.53s-3.41-8.53-8.53-8.53h-42.67c-5.12,0-8.53,3.41-8.53,8.53
				S190.15,374.47,195.27,374.47z"/>
			<path d="M255,408.6h-59.73c-5.12,0-8.53,3.41-8.53,8.53s3.41,8.53,8.53,8.53H255c5.12,0,8.53-3.41,8.53-8.53
				S260.12,408.6,255,408.6z"/>
			<path d="M365.93,408.6h-76.8c-5.12,0-8.53,3.41-8.53,8.53s3.41,8.53,8.53,8.53h76.8c5.12,0,8.53-3.41,8.53-8.53
				S371.05,408.6,365.93,408.6z"/>
			<path d="M434.2,408.6h-34.13c-5.12,0-8.53,3.41-8.53,8.53s3.41,8.53,8.53,8.53h34.13c5.12,0,8.53-3.41,8.53-8.53
				S439.32,408.6,434.2,408.6z"/>
		</g>
	</g>
</g>
</svg>
