<?xml version="1.0" encoding="utf-8"?>
<!-- Generator: Adobe Illustrator 23.0.2, SVG Export Plug-In . SVG Version: 6.00 Build 0)  -->
<svg version="1.1" id="Layer_1" xmlns="http://www.w3.org/2000/svg" xmlns:xlink="http://www.w3.org/1999/xlink" x="0px" y="0px"
	 viewBox="0 0 512 512" style="enable-background:new 0 0 512 512;" xml:space="preserve">
<g transform="translate(1 1)">
	<g>
		<g>
			<path d="M505.88,59.48l-128-59.73c-1.71-0.85-4.27-0.85-6.83,0l-128,59.73c-3.41,1.71-5.12,4.27-5.12,7.68v42.67
				c0,2.56,1.71,5.97,3.41,6.83c2.56,1.71,5.97,1.71,8.53,0.85l4.27-1.99v81.54l-90.45-35.18c-1.71-0.85-4.27-0.85-5.97,0
				L4.12,221.61C1.56,222.47-1,225.88-1,229.29v42.67c0,2.56,1.71,5.12,4.27,6.83c1.71,1.71,5.12,1.71,7.68,0.85l13.65-5.27v227.99
				c0,5.12,3.41,8.53,8.53,8.53h76.8h102.4h76.8H459.8h25.6c5.12,0,8.53-3.41,7.68-8.53V114.72l5.97,2.78
				c0.85,0.85,2.56,0.85,3.41,0.85c1.71,0,3.41-0.85,4.27-1.71c2.56-0.85,4.27-4.27,4.27-6.83V67.16
				C511,63.75,509.29,61.19,505.88,59.48z M220.87,476.76h59.73v17.07h-59.73V476.76z M297.67,408.49h153.6v17.07h-153.6V408.49z
				 M451.27,391.43h-153.6v-17.07h153.6V391.43z M297.67,442.63h153.6v17.07h-153.6V442.63z M451.27,357.29h-153.6v-17.07h153.6
				V357.29z M16.07,235.27l145.07-57.17l95.7,37.15c0.68,0.57,1.49,1.01,2.44,1.25l46.08,17.92v24.42l-140.8-54.28
				c-1.71-0.85-2.56-0.85-3.41-0.85s-1.71,0-3.41,0.85l-128,49.49c-0.84,0.28-1.67,0.84-2.42,1.58l-11.23,4.4L16.07,235.27
				L16.07,235.27z M161.13,221.61l119.47,46.16v63.92v128h-59.73v-76.8c0-5.12-3.41-8.53-8.53-8.53h-102.4
				c-5.12,0-8.53,3.41-8.53,8.53v76.8H41.67V267.77L161.13,221.61z M41.67,476.76h59.73v17.07H41.67V476.76z M118.47,493.83v-102.4
				h85.33v102.4H118.47z M297.67,493.83v-17.07h153.6v17.07H297.67z M476.87,107.27v386.56h-8.53V331.69c0-5.12-3.41-8.53-8.53-8.53
				H297.67v-48.64l4.64,1.64l9.01,3.48c1.71,0.85,2.56,0.85,3.41,0.85c0.81,0,1.62-0.2,2.33-0.49c0.93-0.21,1.86-0.6,2.79-1.22
				c1.71-1.71,3.41-4.27,3.41-6.83v-42.67c0-3.41-1.71-6.83-5.12-7.68l-46.08-17.92v-96.43l102.4-47.79L476.87,107.27z
				 M493.93,96.17L377.88,42.41c-0.85-0.85-2.56-0.85-3.41-0.85c-0.7,0-1.98,0.01-2.88,0.48c-0.46,0.1-0.92,0.22-1.38,0.37
				l-65.93,30.94L255,96.17V72.28l119.47-55.47l119.47,55.47V96.17z"/>
			<path d="M186.73,434.09h-8.53c-5.12,0-8.53,3.41-8.53,8.53s3.41,8.53,8.53,8.53h8.53c5.12,0,8.53-3.41,8.53-8.53
				S191.85,434.09,186.73,434.09z"/>
			<path d="M314.73,203.69h8.53h102.4h8.53c5.12,0,8.53-3.41,8.53-8.53s-3.41-8.53-8.53-8.53v-76.8c0-5.12-3.41-8.53-8.53-8.53
				h-102.4c-5.12,0-8.53,3.41-8.53,8.53v76.8c-5.12,0-8.53,3.41-8.53,8.53S309.61,203.69,314.73,203.69z M383,186.63v-25.6h34.13
				v25.6H383z M417.13,143.96H383v-25.6h34.13V143.96z M365.93,118.36v25.6H331.8v-25.6C331.8,118.36,365.93,118.36,365.93,118.36z
				 M331.8,161.03h34.13v25.6H331.8V161.03z"/>
			<path d="M101.4,348.76h8.53h102.4h8.53c5.12,0,8.53-3.41,8.53-8.53s-3.41-8.53-8.53-8.53v-59.73c0-5.12-3.41-8.53-8.53-8.53
				h-102.4c-5.12,0-8.53,3.41-8.53,8.53v59.73c-5.12,0-8.53,3.41-8.53,8.53C92.87,345.35,96.28,348.76,101.4,348.76z M169.67,331.69
				v-17.07h34.13v17.07H169.67z M203.8,297.56h-34.13v-17.07h34.13V297.56z M152.6,280.49v17.07h-34.13v-17.07H152.6z
				 M118.47,314.63h34.13v17.07h-34.13C118.47,331.69,118.47,314.63,118.47,314.63z"/>
		</g>
	</g>
</g>
</svg>
