<?xml version="1.0" encoding="utf-8"?>
<!-- Generator: Adobe Illustrator 23.0.2, SVG Export Plug-In . SVG Version: 6.00 Build 0)  -->
<svg version="1.1" id="Capa_1" xmlns="http://www.w3.org/2000/svg" xmlns:xlink="http://www.w3.org/1999/xlink" x="0px" y="0px"
	 viewBox="0 0 573.75 573.75" style="enable-background:new 0 0 573.75 573.75;" xml:space="preserve">
<g>
	<g>
		<path d="M248.63,277.31h-57.38v38.25v95.63h19.13v-57.38h38.25c21.04,0,38.25-17.21,38.25-38.25S269.66,277.31,248.63,277.31z
			 M248.63,334.69h-38.25v-38.25h38.25c11.48,0,19.13,7.65,19.13,19.13S260.1,334.69,248.63,334.69z"/>
		<path d="M363.38,277.31H306v133.88h57.38c21.04,0,38.25-17.21,38.25-38.25v-57.38C401.63,294.52,384.41,277.31,363.38,277.31z
			 M382.5,372.94c0,11.48-7.65,19.13-19.13,19.13h-38.25v-95.63h38.25c11.48,0,19.13,7.65,19.13,19.13V372.94z"/>
		<path d="M516.38,219.94h-153v-57.38L248.63,28.69H38.25C17.21,28.69,0,45.9,0,66.94v439.88c0,21.04,17.21,38.25,38.25,38.25
			h286.88c21.04,0,38.25-17.21,38.25-38.25v-38.25h153c32.51,0,57.38-24.86,57.38-57.38V277.31
			C573.75,244.8,548.89,219.94,516.38,219.94z M248.63,57.38l89.89,105.19h-70.76c-9.56,0-19.13-9.56-19.13-19.13V57.38z
			 M344.25,506.81c0,9.56-7.65,19.13-19.13,19.13H38.25c-9.56,0-19.13-7.65-19.13-19.13V66.94c0-9.56,7.65-19.13,19.13-19.13H229.5
			v95.63c0,21.04,17.21,38.25,38.25,38.25h76.5v38.25h-153c-32.51,0-57.38,24.86-57.38,57.37v133.88
			c0,32.51,24.86,57.38,57.38,57.38h153V506.81z M554.63,411.19c0,21.04-17.21,38.25-38.25,38.25H191.25
			c-21.04,0-38.25-17.21-38.25-38.25V277.31c0-21.04,17.21-38.25,38.25-38.25h325.13c21.04,0,38.25,17.21,38.25,38.25V411.19z"/>
		<polygon points="420.75,411.19 439.88,411.19 439.88,353.81 497.25,353.81 497.25,334.69 439.88,334.69 439.88,296.44 
			516.38,296.44 516.38,277.31 420.75,277.31 		"/>
	</g>
</g>
</svg>
