<?xml version="1.0" encoding="utf-8"?>
<!-- Generator: Adobe Illustrator 23.0.2, SVG Export Plug-In . SVG Version: 6.00 Build 0)  -->
<svg version="1.1" id="Capa_1" xmlns="http://www.w3.org/2000/svg" xmlns:xlink="http://www.w3.org/1999/xlink" x="0px" y="0px"
	 viewBox="0 0 297 420" style="enable-background:new 0 0 297 420;" xml:space="preserve">
<g>
	<path d="M210.38,175.35H86.63c-2.73,0-4.95,2.21-4.95,4.95s2.22,4.95,4.95,4.95h123.75c2.73,0,4.95-2.21,4.95-4.95
		S213.11,175.35,210.38,175.35z"/>
	<path d="M86.63,145.65h49.5c2.73,0,4.95-2.21,4.95-4.95c0-2.74-2.22-4.95-4.95-4.95h-49.5c-2.73,0-4.95,2.21-4.95,4.95
		C81.67,143.44,83.89,145.65,86.63,145.65z"/>
	<path d="M210.38,214.95H86.63c-2.73,0-4.95,2.21-4.95,4.95s2.22,4.95,4.95,4.95h123.75c2.73,0,4.95-2.21,4.95-4.95
		S213.11,214.95,210.38,214.95z"/>
	<path d="M210.38,254.55H86.63c-2.73,0-4.95,2.21-4.95,4.95s2.22,4.95,4.95,4.95h123.75c2.73,0,4.95-2.21,4.95-4.95
		S213.11,254.55,210.38,254.55z"/>
	<path d="M210.38,294.15H86.63c-2.73,0-4.95,2.21-4.95,4.95c0,2.74,2.22,4.95,4.95,4.95h123.75c2.73,0,4.95-2.21,4.95-4.95
		C215.33,296.36,213.11,294.15,210.38,294.15z"/>
	<path d="M192.63,66.45H32.17v297h232.65v-224.8L192.63,66.45z M195.53,83.35l52.4,52.4h-52.4V83.35z M42.08,353.55V76.35h143.55
		v69.3h69.3v207.9H42.08z"/>
</g>
</svg>
