<?xml version="1.0" encoding="utf-8"?>
<!-- Generator: Adobe Illustrator 23.0.2, SVG Export Plug-In . SVG Version: 6.00 Build 0)  -->
<svg version="1.1" id="Capa_1" xmlns="http://www.w3.org/2000/svg" xmlns:xlink="http://www.w3.org/1999/xlink" x="0px" y="0px"
	 viewBox="0 0 32 32" style="enable-background:new 0 0 32 32;" xml:space="preserve">
<g>
	<g id="User">
		<g>
			<path d="M16,22c4.96,0,9-4.94,9-11S20.96,0,16,0c-2.45,0-4.73,1.17-6.44,3.31C7.91,5.37,7,8.1,7,11C7,17.06,11.04,22,16,22z
				 M16,2c3.86,0,7,4.04,7,9c0,4.96-3.14,9-7,9s-7-4.04-7-9C9,6.04,12.14,2,16,2z M23,20c-0.55,0-1,0.45-1,1s0.45,1,1,1
				c3.86,0,7,3.14,7,7c0,0.55-0.45,1-1,1H3c-0.55,0-1-0.45-1-1c0-3.86,3.14-7,7-7c0.55,0,1-0.45,1-1s-0.45-1-1-1c-4.96,0-9,4.04-9,9
				c0,1.65,1.35,3,3,3h26c1.65,0,3-1.35,3-3C32,24.04,27.96,20,23,20z"/>
		</g>
	</g>
</g>
</svg>
